{
	"asset":{
		"generator":"Khronos glTF Blender I/O v4.3.47",
		"version":"2.0"
	},
	"scene":0,
	"scenes":[
		{
			"name":"Scene",
			"nodes":[
				34
			]
		}
	],
	"nodes":[
		{
			"name":"mixamorig:HeadTop_End",
			"rotation":[
				-3.552713467042264e-15,
				1.9721522630525295e-30,
				-3.3087224502121107e-23,
				1
			],
			"scale":[
				1,
				1.0000001192092896,
				1
			],
			"translation":[
				1.1501119236937297e-20,
				64.98041534423828,
				17.00667953491211
			]
		},
		{
			"children":[
				0
			],
			"name":"mixamorig:Head",
			"rotation":[
				-7.099062226956221e-09,
				-1.1146158884361447e-24,
				-2.142864129525072e-23,
				1
			],
			"scale":[
				1,
				1.0000001192092896,
				1
			],
			"translation":[
				8.933550615572699e-21,
				4.899024486541748,
				1.28216552734375
			]
		},
		{
			"children":[
				1
			],
			"name":"mixamorig:Neck",
			"rotation":[
				0.09612979739904404,
				1.184132993531298e-23,
				-7.490329589470858e-23,
				0.9953688383102417
			],
			"scale":[
				1,
				0.9999999403953552,
				1
			],
			"translation":[
				-6.352747104407253e-22,
				11.449502944946289,
				-4.76837158203125e-07
			]
		},
		{
			"name":"mixamorig:LeftHandIndex4",
			"rotation":[
				-3.5390257835388184e-08,
				-7.450580596923828e-09,
				8.381904059717726e-09,
				1
			],
			"scale":[
				1,
				0.9999999403953552,
				1
			],
			"translation":[
				-0.15134906768798828,
				1.8213367462158203,
				-0.7092676162719727
			]
		},
		{
			"children":[
				3
			],
			"name":"mixamorig:LeftHandIndex3",
			"rotation":[
				-3.650784492492676e-07,
				-3.3490359783172607e-06,
				-1.1967495083808899e-06,
				1
			],
			"translation":[
				-0.24993419647216797,
				2.910923957824707,
				-0.6628150939941406
			]
		},
		{
			"children":[
				4
			],
			"name":"mixamorig:LeftHandIndex2",
			"rotation":[
				-1.6242264564425568e-06,
				7.168389402067987e-06,
				2.3618340492248535e-06,
				1
			],
			"scale":[
				1,
				1,
				1.0000001192092896
			],
			"translation":[
				1.9073486328125e-06,
				2.177438735961914,
				-3.814697265625e-06
			]
		},
		{
			"children":[
				5
			],
			"name":"mixamorig:LeftHandIndex1",
			"rotation":[
				0.20616567134857178,
				0.40842199325561523,
				-0.09524475038051605,
				0.8840903043746948
			],
			"scale":[
				1.0000001192092896,
				1.0000001192092896,
				1
			],
			"translation":[
				5.7220458984375e-06,
				5.472842216491699,
				8.32974910736084e-06
			]
		},
		{
			"children":[
				6
			],
			"name":"mixamorig:LeftHand",
			"rotation":[
				-0.03787263482809067,
				-0.005938284564763308,
				0.15478433668613434,
				0.9872042536735535
			],
			"translation":[
				-1.9073486328125e-06,
				32.566043853759766,
				8.702278137207031e-06
			]
		},
		{
			"children":[
				7
			],
			"name":"mixamorig:LeftForeArm",
			"rotation":[
				0.005480367224663496,
				0.015486395917832851,
				0.33355870842933655,
				0.9425861835479736
			],
			"scale":[
				1.0000001192092896,
				1.000000238418579,
				1
			],
			"translation":[
				-8.642673492431641e-07,
				24.67218589782715,
				7.048249244689941e-06
			]
		},
		{
			"children":[
				8
			],
			"name":"mixamorig:LeftArm",
			"rotation":[
				0.32815712690353394,
				0.10500527918338776,
				-0.03673393279314041,
				0.9380497932434082
			],
			"scale":[
				0.9999998807907104,
				1,
				0.9999999403953552
			],
			"translation":[
				1.5497207641601562e-06,
				11.432832717895508,
				5.662441253662109e-06
			]
		},
		{
			"children":[
				9
			],
			"name":"mixamorig:LeftShoulder",
			"rotation":[
				0.5452496409416199,
				0.4450606405735016,
				-0.5662441849708557,
				0.42894235253334045
			],
			"scale":[
				0.9999999403953552,
				0.9999999403953552,
				0.9999998807907104
			],
			"translation":[
				5.575339317321777,
				10.071175575256348,
				-0.2131671905517578
			]
		},
		{
			"name":"mixamorig:RightHandIndex4",
			"rotation":[
				1.210719524635806e-08,
				-7.450580596923828e-09,
				-1.1175872671742582e-08,
				1
			],
			"scale":[
				1,
				0.9999999403953552,
				0.9999999403953552
			],
			"translation":[
				-0.38974475860595703,
				2.191974639892578,
				-0.1824660301208496
			]
		},
		{
			"children":[
				11
			],
			"name":"mixamorig:RightHandIndex3",
			"rotation":[
				-2.8032809495925903e-07,
				1.4416874591915985e-06,
				6.705522537231445e-07,
				1
			],
			"scale":[
				1,
				1,
				0.9999998807907104
			],
			"translation":[
				0.5458240509033203,
				3.712190628051758,
				0.4690093994140625
			]
		},
		{
			"children":[
				12
			],
			"name":"mixamorig:RightHandIndex2",
			"rotation":[
				1.6111880540847778e-06,
				-2.734363079071045e-06,
				-1.73225998878479e-06,
				1
			],
			"translation":[
				-9.5367431640625e-07,
				2.376523017883301,
				3.337860107421875e-06
			]
		},
		{
			"children":[
				13
			],
			"name":"mixamorig:RightHandIndex1",
			"rotation":[
				0.19478745758533478,
				-0.47774800658226013,
				0.10953507572412491,
				0.8495980501174927
			],
			"scale":[
				0.9999999403953552,
				1,
				0.9999999403953552
			],
			"translation":[
				5.7220458984375e-06,
				4.400698661804199,
				-8.344650268554688e-07
			]
		},
		{
			"children":[
				14
			],
			"name":"mixamorig:RightHand",
			"rotation":[
				-0.06225016713142395,
				0.010980612598359585,
				-0.17335465550422668,
				0.9828288555145264
			],
			"scale":[
				0.9999999403953552,
				1,
				0.9999998807907104
			],
			"translation":[
				0,
				32.57924270629883,
				-2.384185791015625e-07
			]
		},
		{
			"children":[
				15
			],
			"name":"mixamorig:RightForeArm",
			"rotation":[
				0.01197387557476759,
				-0.03417600318789482,
				-0.3304290771484375,
				0.9431358575820923
			],
			"scale":[
				1,
				1,
				0.9999999403953552
			],
			"translation":[
				9.834766387939453e-07,
				24.671228408813477,
				-1.0848045349121094e-05
			]
		},
		{
			"children":[
				16
			],
			"name":"mixamorig:RightArm",
			"rotation":[
				0.3285716474056244,
				-0.0907469317317009,
				0.0317344106733799,
				0.9395736455917358
			],
			"scale":[
				0.9999998211860657,
				1,
				0.9999998807907104
			],
			"translation":[
				-1.7881393432617188e-07,
				11.432827949523926,
				2.384185791015625e-07
			]
		},
		{
			"children":[
				17
			],
			"name":"mixamorig:RightShoulder",
			"rotation":[
				0.5389898419380188,
				-0.4502484202384949,
				0.5706080794334412,
				0.4256439208984375
			],
			"scale":[
				1,
				1,
				0.9999998807907104
			],
			"translation":[
				-5.575339317321777,
				10.092036247253418,
				-0.32024049758911133
			]
		},
		{
			"children":[
				2,
				10,
				18
			],
			"name":"mixamorig:Spine2",
			"rotation":[
				-1.4901161193847656e-08,
				6.617444900424222e-24,
				1.919059147340769e-22,
				1
			],
			"scale":[
				1,
				0.9999999403953552,
				1
			],
			"translation":[
				4.0498762790596235e-21,
				10.177352905273438,
				9.5367431640625e-07
			]
		},
		{
			"children":[
				19
			],
			"name":"mixamorig:Spine1",
			"rotation":[
				-1.1175870895385742e-07,
				3.308722450212111e-24,
				-1.6047303883528737e-22,
				1
			],
			"translation":[
				1.6675961149069038e-21,
				8.90517807006836,
				9.5367431640625e-07
			]
		},
		{
			"children":[
				20
			],
			"name":"mixamorig:Spine",
			"rotation":[
				-0.0961296558380127,
				3.919568056927863e-23,
				1.1645475178524871e-22,
				0.9953688383102417
			],
			"scale":[
				1,
				1.0000001192092896,
				0.9999999403953552
			],
			"translation":[
				-3.2954875604112623e-21,
				7.491942405700684,
				-1.4607213735580444
			]
		},
		{
			"name":"mixamorig:LeftToe_End",
			"rotation":[
				-3.869353903951378e-08,
				-1.5213299775496125e-07,
				4.685716703534126e-09,
				1
			],
			"scale":[
				1,
				1.0000001192092896,
				1.0000001192092896
			],
			"translation":[
				-5.518435500562191e-06,
				7.783182621002197,
				5.299225449562073e-07
			]
		},
		{
			"children":[
				22
			],
			"name":"mixamorig:LeftToeBase",
			"rotation":[
				0.2204212099313736,
				-0.06709956377744675,
				0.015201108530163765,
				0.9729753732681274
			],
			"scale":[
				1.0000001192092896,
				1,
				1.0000001192092896
			],
			"translation":[
				-7.702037692070007e-07,
				19.019886016845703,
				5.934387445449829e-06
			]
		},
		{
			"children":[
				23
			],
			"name":"mixamorig:LeftFoot",
			"rotation":[
				0.5815317630767822,
				-0.020298967137932777,
				0.014517155475914478,
				0.813140869140625
			],
			"scale":[
				0.9999998807907104,
				0.9999998807907104,
				0.9999998807907104
			],
			"translation":[
				1.0356307029724121e-06,
				31.189132690429688,
				-1.4901161193847656e-08
			]
		},
		{
			"children":[
				24
			],
			"name":"mixamorig:LeftLeg",
			"rotation":[
				-0.00827445276081562,
				0.0003879631694871932,
				-0.046980325132608414,
				0.9988614916801453
			],
			"scale":[
				1.0000001192092896,
				1,
				0.9999998807907104
			],
			"translation":[
				-1.9371509552001953e-06,
				35.965946197509766,
				-1.2514992704382166e-06
			]
		},
		{
			"children":[
				25
			],
			"name":"mixamorig:LeftUpLeg",
			"rotation":[
				0.008902257308363914,
				0.05449194461107254,
				-0.985411524772644,
				0.16098307073116302
			],
			"scale":[
				0.9999976754188538,
				0.9999998807907104,
				0.9999997019767761
			],
			"translation":[
				9.59358024597168,
				-4.162156105041504,
				-0.3589556813240051
			]
		},
		{
			"name":"mixamorig:RightToe_End",
			"rotation":[
				-2.7474017727513456e-08,
				-2.6955605747502887e-08,
				1.2456439435482025e-08,
				1
			],
			"scale":[
				1,
				1,
				0.9999999403953552
			],
			"translation":[
				2.0675361156463623e-07,
				7.820478439331055,
				1.0579824447631836e-06
			]
		},
		{
			"children":[
				27
			],
			"name":"mixamorig:RightToeBase",
			"rotation":[
				0.22176261246204376,
				0.0659598633646965,
				-0.015037111937999725,
				0.9727510213851929
			],
			"scale":[
				1,
				1,
				1.0000001192092896
			],
			"translation":[
				-3.7634745240211487e-06,
				18.91228675842285,
				-3.390014171600342e-06
			]
		},
		{
			"children":[
				28
			],
			"name":"mixamorig:RightFoot",
			"rotation":[
				0.5774589776992798,
				0.02062128111720085,
				-0.014592526480555534,
				0.8160287737846375
			],
			"scale":[
				0.9999999403953552,
				1.000000238418579,
				1
			],
			"translation":[
				-1.9371509552001953e-06,
				31.162019729614258,
				4.4330954551696777e-07
			]
		},
		{
			"children":[
				29
			],
			"name":"mixamorig:RightLeg",
			"rotation":[
				-0.003591463202610612,
				-0.00016837076691444963,
				0.04687167704105377,
				0.998894453048706
			],
			"translation":[
				-1.6093254089355469e-06,
				35.97215270996094,
				-1.0578305591479875e-06
			]
		},
		{
			"children":[
				30
			],
			"name":"mixamorig:RightUpLeg",
			"rotation":[
				0.00903863925486803,
				-0.05533794313669205,
				0.985369086265564,
				0.1609465628862381
			],
			"scale":[
				1.0000005960464478,
				1,
				1
			],
			"translation":[
				-9.59358024597168,
				-4.162156105041504,
				-0.35445624589920044
			]
		},
		{
			"children":[
				21,
				26,
				31
			],
			"name":"mixamorig:Hips",
			"rotation":[
				-0.7071067690849304,
				4.598687785303651e-17,
				-2.6803158534846377e-16,
				0.7071067690849304
			],
			"translation":[
				2.925450205974907e-14,
				12.04531478881836,
				-76.1270751953125
			]
		},
		{
			"mesh":0,
			"name":"Icosphere",
			"skin":0
		},
		{
			"children":[
				33,
				32
			],
			"name":"stepForwardsArm",
			"rotation":[
				0.7071068286895752,
				0,
				0,
				0.7071068286895752
			],
			"scale":[
				0.009999999776482582,
				0.009999999776482582,
				0.009999999776482582
			],
			"translation":[
				0,
				0,
				-0.0029677152633666992
			]
		}
	],
	"animations":[
		{
			"channels":[
				{
					"sampler":0,
					"target":{
						"node":32,
						"path":"translation"
					}
				},
				{
					"sampler":1,
					"target":{
						"node":32,
						"path":"rotation"
					}
				},
				{
					"sampler":2,
					"target":{
						"node":32,
						"path":"scale"
					}
				},
				{
					"sampler":3,
					"target":{
						"node":21,
						"path":"translation"
					}
				},
				{
					"sampler":4,
					"target":{
						"node":21,
						"path":"rotation"
					}
				},
				{
					"sampler":5,
					"target":{
						"node":21,
						"path":"scale"
					}
				},
				{
					"sampler":6,
					"target":{
						"node":20,
						"path":"translation"
					}
				},
				{
					"sampler":7,
					"target":{
						"node":20,
						"path":"rotation"
					}
				},
				{
					"sampler":8,
					"target":{
						"node":20,
						"path":"scale"
					}
				},
				{
					"sampler":9,
					"target":{
						"node":19,
						"path":"translation"
					}
				},
				{
					"sampler":10,
					"target":{
						"node":19,
						"path":"rotation"
					}
				},
				{
					"sampler":11,
					"target":{
						"node":19,
						"path":"scale"
					}
				},
				{
					"sampler":12,
					"target":{
						"node":2,
						"path":"translation"
					}
				},
				{
					"sampler":13,
					"target":{
						"node":2,
						"path":"rotation"
					}
				},
				{
					"sampler":14,
					"target":{
						"node":2,
						"path":"scale"
					}
				},
				{
					"sampler":15,
					"target":{
						"node":1,
						"path":"translation"
					}
				},
				{
					"sampler":16,
					"target":{
						"node":1,
						"path":"rotation"
					}
				},
				{
					"sampler":17,
					"target":{
						"node":1,
						"path":"scale"
					}
				},
				{
					"sampler":18,
					"target":{
						"node":0,
						"path":"translation"
					}
				},
				{
					"sampler":19,
					"target":{
						"node":0,
						"path":"rotation"
					}
				},
				{
					"sampler":20,
					"target":{
						"node":0,
						"path":"scale"
					}
				},
				{
					"sampler":21,
					"target":{
						"node":10,
						"path":"translation"
					}
				},
				{
					"sampler":22,
					"target":{
						"node":10,
						"path":"rotation"
					}
				},
				{
					"sampler":23,
					"target":{
						"node":10,
						"path":"scale"
					}
				},
				{
					"sampler":24,
					"target":{
						"node":9,
						"path":"translation"
					}
				},
				{
					"sampler":25,
					"target":{
						"node":9,
						"path":"rotation"
					}
				},
				{
					"sampler":26,
					"target":{
						"node":9,
						"path":"scale"
					}
				},
				{
					"sampler":27,
					"target":{
						"node":8,
						"path":"translation"
					}
				},
				{
					"sampler":28,
					"target":{
						"node":8,
						"path":"rotation"
					}
				},
				{
					"sampler":29,
					"target":{
						"node":8,
						"path":"scale"
					}
				},
				{
					"sampler":30,
					"target":{
						"node":7,
						"path":"translation"
					}
				},
				{
					"sampler":31,
					"target":{
						"node":7,
						"path":"rotation"
					}
				},
				{
					"sampler":32,
					"target":{
						"node":7,
						"path":"scale"
					}
				},
				{
					"sampler":33,
					"target":{
						"node":6,
						"path":"translation"
					}
				},
				{
					"sampler":34,
					"target":{
						"node":6,
						"path":"rotation"
					}
				},
				{
					"sampler":35,
					"target":{
						"node":6,
						"path":"scale"
					}
				},
				{
					"sampler":36,
					"target":{
						"node":5,
						"path":"translation"
					}
				},
				{
					"sampler":37,
					"target":{
						"node":5,
						"path":"rotation"
					}
				},
				{
					"sampler":38,
					"target":{
						"node":5,
						"path":"scale"
					}
				},
				{
					"sampler":39,
					"target":{
						"node":4,
						"path":"translation"
					}
				},
				{
					"sampler":40,
					"target":{
						"node":4,
						"path":"rotation"
					}
				},
				{
					"sampler":41,
					"target":{
						"node":4,
						"path":"scale"
					}
				},
				{
					"sampler":42,
					"target":{
						"node":3,
						"path":"translation"
					}
				},
				{
					"sampler":43,
					"target":{
						"node":3,
						"path":"rotation"
					}
				},
				{
					"sampler":44,
					"target":{
						"node":3,
						"path":"scale"
					}
				},
				{
					"sampler":45,
					"target":{
						"node":18,
						"path":"translation"
					}
				},
				{
					"sampler":46,
					"target":{
						"node":18,
						"path":"rotation"
					}
				},
				{
					"sampler":47,
					"target":{
						"node":18,
						"path":"scale"
					}
				},
				{
					"sampler":48,
					"target":{
						"node":17,
						"path":"translation"
					}
				},
				{
					"sampler":49,
					"target":{
						"node":17,
						"path":"rotation"
					}
				},
				{
					"sampler":50,
					"target":{
						"node":17,
						"path":"scale"
					}
				},
				{
					"sampler":51,
					"target":{
						"node":16,
						"path":"translation"
					}
				},
				{
					"sampler":52,
					"target":{
						"node":16,
						"path":"rotation"
					}
				},
				{
					"sampler":53,
					"target":{
						"node":16,
						"path":"scale"
					}
				},
				{
					"sampler":54,
					"target":{
						"node":15,
						"path":"translation"
					}
				},
				{
					"sampler":55,
					"target":{
						"node":15,
						"path":"rotation"
					}
				},
				{
					"sampler":56,
					"target":{
						"node":15,
						"path":"scale"
					}
				},
				{
					"sampler":57,
					"target":{
						"node":14,
						"path":"translation"
					}
				},
				{
					"sampler":58,
					"target":{
						"node":14,
						"path":"rotation"
					}
				},
				{
					"sampler":59,
					"target":{
						"node":14,
						"path":"scale"
					}
				},
				{
					"sampler":60,
					"target":{
						"node":13,
						"path":"translation"
					}
				},
				{
					"sampler":61,
					"target":{
						"node":13,
						"path":"rotation"
					}
				},
				{
					"sampler":62,
					"target":{
						"node":13,
						"path":"scale"
					}
				},
				{
					"sampler":63,
					"target":{
						"node":12,
						"path":"translation"
					}
				},
				{
					"sampler":64,
					"target":{
						"node":12,
						"path":"rotation"
					}
				},
				{
					"sampler":65,
					"target":{
						"node":12,
						"path":"scale"
					}
				},
				{
					"sampler":66,
					"target":{
						"node":11,
						"path":"translation"
					}
				},
				{
					"sampler":67,
					"target":{
						"node":11,
						"path":"rotation"
					}
				},
				{
					"sampler":68,
					"target":{
						"node":11,
						"path":"scale"
					}
				},
				{
					"sampler":69,
					"target":{
						"node":26,
						"path":"translation"
					}
				},
				{
					"sampler":70,
					"target":{
						"node":26,
						"path":"rotation"
					}
				},
				{
					"sampler":71,
					"target":{
						"node":26,
						"path":"scale"
					}
				},
				{
					"sampler":72,
					"target":{
						"node":25,
						"path":"translation"
					}
				},
				{
					"sampler":73,
					"target":{
						"node":25,
						"path":"rotation"
					}
				},
				{
					"sampler":74,
					"target":{
						"node":25,
						"path":"scale"
					}
				},
				{
					"sampler":75,
					"target":{
						"node":24,
						"path":"translation"
					}
				},
				{
					"sampler":76,
					"target":{
						"node":24,
						"path":"rotation"
					}
				},
				{
					"sampler":77,
					"target":{
						"node":24,
						"path":"scale"
					}
				},
				{
					"sampler":78,
					"target":{
						"node":23,
						"path":"translation"
					}
				},
				{
					"sampler":79,
					"target":{
						"node":23,
						"path":"rotation"
					}
				},
				{
					"sampler":80,
					"target":{
						"node":23,
						"path":"scale"
					}
				},
				{
					"sampler":81,
					"target":{
						"node":22,
						"path":"translation"
					}
				},
				{
					"sampler":82,
					"target":{
						"node":22,
						"path":"rotation"
					}
				},
				{
					"sampler":83,
					"target":{
						"node":22,
						"path":"scale"
					}
				},
				{
					"sampler":84,
					"target":{
						"node":31,
						"path":"translation"
					}
				},
				{
					"sampler":85,
					"target":{
						"node":31,
						"path":"rotation"
					}
				},
				{
					"sampler":86,
					"target":{
						"node":31,
						"path":"scale"
					}
				},
				{
					"sampler":87,
					"target":{
						"node":30,
						"path":"translation"
					}
				},
				{
					"sampler":88,
					"target":{
						"node":30,
						"path":"rotation"
					}
				},
				{
					"sampler":89,
					"target":{
						"node":30,
						"path":"scale"
					}
				},
				{
					"sampler":90,
					"target":{
						"node":29,
						"path":"translation"
					}
				},
				{
					"sampler":91,
					"target":{
						"node":29,
						"path":"rotation"
					}
				},
				{
					"sampler":92,
					"target":{
						"node":29,
						"path":"scale"
					}
				},
				{
					"sampler":93,
					"target":{
						"node":28,
						"path":"translation"
					}
				},
				{
					"sampler":94,
					"target":{
						"node":28,
						"path":"rotation"
					}
				},
				{
					"sampler":95,
					"target":{
						"node":28,
						"path":"scale"
					}
				},
				{
					"sampler":96,
					"target":{
						"node":27,
						"path":"translation"
					}
				},
				{
					"sampler":97,
					"target":{
						"node":27,
						"path":"rotation"
					}
				},
				{
					"sampler":98,
					"target":{
						"node":27,
						"path":"scale"
					}
				}
			],
			"name":"punchAnim",
			"samplers":[
				{
					"input":13,
					"interpolation":"LINEAR",
					"output":14
				},
				{
					"input":13,
					"interpolation":"LINEAR",
					"output":15
				},
				{
					"input":16,
					"interpolation":"LINEAR",
					"output":17
				},
				{
					"input":16,
					"interpolation":"LINEAR",
					"output":18
				},
				{
					"input":13,
					"interpolation":"LINEAR",
					"output":19
				},
				{
					"input":16,
					"interpolation":"LINEAR",
					"output":20
				},
				{
					"input":16,
					"interpolation":"LINEAR",
					"output":21
				},
				{
					"input":13,
					"interpolation":"LINEAR",
					"output":22
				},
				{
					"input":16,
					"interpolation":"STEP",
					"output":23
				},
				{
					"input":16,
					"interpolation":"LINEAR",
					"output":24
				},
				{
					"input":13,
					"interpolation":"LINEAR",
					"output":25
				},
				{
					"input":16,
					"interpolation":"LINEAR",
					"output":26
				},
				{
					"input":16,
					"interpolation":"LINEAR",
					"output":27
				},
				{
					"input":13,
					"interpolation":"LINEAR",
					"output":28
				},
				{
					"input":16,
					"interpolation":"LINEAR",
					"output":29
				},
				{
					"input":16,
					"interpolation":"LINEAR",
					"output":30
				},
				{
					"input":13,
					"interpolation":"LINEAR",
					"output":31
				},
				{
					"input":16,
					"interpolation":"LINEAR",
					"output":32
				},
				{
					"input":16,
					"interpolation":"STEP",
					"output":33
				},
				{
					"input":16,
					"interpolation":"STEP",
					"output":34
				},
				{
					"input":16,
					"interpolation":"STEP",
					"output":35
				},
				{
					"input":16,
					"interpolation":"LINEAR",
					"output":36
				},
				{
					"input":13,
					"interpolation":"LINEAR",
					"output":37
				},
				{
					"input":16,
					"interpolation":"STEP",
					"output":38
				},
				{
					"input":16,
					"interpolation":"LINEAR",
					"output":39
				},
				{
					"input":13,
					"interpolation":"LINEAR",
					"output":40
				},
				{
					"input":16,
					"interpolation":"STEP",
					"output":41
				},
				{
					"input":16,
					"interpolation":"LINEAR",
					"output":42
				},
				{
					"input":13,
					"interpolation":"LINEAR",
					"output":43
				},
				{
					"input":16,
					"interpolation":"LINEAR",
					"output":44
				},
				{
					"input":16,
					"interpolation":"LINEAR",
					"output":45
				},
				{
					"input":13,
					"interpolation":"LINEAR",
					"output":46
				},
				{
					"input":16,
					"interpolation":"STEP",
					"output":47
				},
				{
					"input":16,
					"interpolation":"LINEAR",
					"output":48
				},
				{
					"input":16,
					"interpolation":"LINEAR",
					"output":49
				},
				{
					"input":16,
					"interpolation":"LINEAR",
					"output":50
				},
				{
					"input":16,
					"interpolation":"LINEAR",
					"output":51
				},
				{
					"input":16,
					"interpolation":"LINEAR",
					"output":52
				},
				{
					"input":16,
					"interpolation":"LINEAR",
					"output":53
				},
				{
					"input":16,
					"interpolation":"LINEAR",
					"output":54
				},
				{
					"input":16,
					"interpolation":"STEP",
					"output":55
				},
				{
					"input":16,
					"interpolation":"STEP",
					"output":56
				},
				{
					"input":16,
					"interpolation":"STEP",
					"output":57
				},
				{
					"input":16,
					"interpolation":"STEP",
					"output":58
				},
				{
					"input":16,
					"interpolation":"STEP",
					"output":59
				},
				{
					"input":16,
					"interpolation":"LINEAR",
					"output":60
				},
				{
					"input":13,
					"interpolation":"LINEAR",
					"output":61
				},
				{
					"input":16,
					"interpolation":"LINEAR",
					"output":62
				},
				{
					"input":16,
					"interpolation":"LINEAR",
					"output":63
				},
				{
					"input":13,
					"interpolation":"LINEAR",
					"output":64
				},
				{
					"input":16,
					"interpolation":"STEP",
					"output":65
				},
				{
					"input":16,
					"interpolation":"LINEAR",
					"output":66
				},
				{
					"input":13,
					"interpolation":"LINEAR",
					"output":67
				},
				{
					"input":16,
					"interpolation":"LINEAR",
					"output":68
				},
				{
					"input":16,
					"interpolation":"LINEAR",
					"output":69
				},
				{
					"input":13,
					"interpolation":"LINEAR",
					"output":70
				},
				{
					"input":16,
					"interpolation":"LINEAR",
					"output":71
				},
				{
					"input":16,
					"interpolation":"LINEAR",
					"output":72
				},
				{
					"input":16,
					"interpolation":"LINEAR",
					"output":73
				},
				{
					"input":16,
					"interpolation":"LINEAR",
					"output":74
				},
				{
					"input":16,
					"interpolation":"LINEAR",
					"output":75
				},
				{
					"input":16,
					"interpolation":"LINEAR",
					"output":76
				},
				{
					"input":16,
					"interpolation":"STEP",
					"output":77
				},
				{
					"input":16,
					"interpolation":"LINEAR",
					"output":78
				},
				{
					"input":16,
					"interpolation":"LINEAR",
					"output":79
				},
				{
					"input":16,
					"interpolation":"STEP",
					"output":80
				},
				{
					"input":16,
					"interpolation":"STEP",
					"output":81
				},
				{
					"input":16,
					"interpolation":"STEP",
					"output":82
				},
				{
					"input":16,
					"interpolation":"STEP",
					"output":83
				},
				{
					"input":16,
					"interpolation":"LINEAR",
					"output":84
				},
				{
					"input":13,
					"interpolation":"LINEAR",
					"output":85
				},
				{
					"input":16,
					"interpolation":"LINEAR",
					"output":86
				},
				{
					"input":16,
					"interpolation":"LINEAR",
					"output":87
				},
				{
					"input":13,
					"interpolation":"LINEAR",
					"output":88
				},
				{
					"input":16,
					"interpolation":"STEP",
					"output":89
				},
				{
					"input":16,
					"interpolation":"LINEAR",
					"output":90
				},
				{
					"input":13,
					"interpolation":"LINEAR",
					"output":91
				},
				{
					"input":16,
					"interpolation":"LINEAR",
					"output":92
				},
				{
					"input":16,
					"interpolation":"LINEAR",
					"output":93
				},
				{
					"input":16,
					"interpolation":"LINEAR",
					"output":94
				},
				{
					"input":16,
					"interpolation":"STEP",
					"output":95
				},
				{
					"input":16,
					"interpolation":"STEP",
					"output":96
				},
				{
					"input":16,
					"interpolation":"STEP",
					"output":97
				},
				{
					"input":16,
					"interpolation":"STEP",
					"output":98
				},
				{
					"input":16,
					"interpolation":"LINEAR",
					"output":99
				},
				{
					"input":13,
					"interpolation":"LINEAR",
					"output":100
				},
				{
					"input":16,
					"interpolation":"LINEAR",
					"output":101
				},
				{
					"input":16,
					"interpolation":"LINEAR",
					"output":102
				},
				{
					"input":13,
					"interpolation":"LINEAR",
					"output":103
				},
				{
					"input":16,
					"interpolation":"LINEAR",
					"output":104
				},
				{
					"input":16,
					"interpolation":"LINEAR",
					"output":105
				},
				{
					"input":13,
					"interpolation":"LINEAR",
					"output":106
				},
				{
					"input":16,
					"interpolation":"LINEAR",
					"output":107
				},
				{
					"input":16,
					"interpolation":"LINEAR",
					"output":108
				},
				{
					"input":13,
					"interpolation":"LINEAR",
					"output":109
				},
				{
					"input":16,
					"interpolation":"LINEAR",
					"output":110
				},
				{
					"input":16,
					"interpolation":"STEP",
					"output":111
				},
				{
					"input":16,
					"interpolation":"STEP",
					"output":112
				},
				{
					"input":16,
					"interpolation":"STEP",
					"output":113
				}
			]
		},
		{
			"channels":[
				{
					"sampler":0,
					"target":{
						"node":32,
						"path":"translation"
					}
				},
				{
					"sampler":1,
					"target":{
						"node":32,
						"path":"rotation"
					}
				},
				{
					"sampler":2,
					"target":{
						"node":32,
						"path":"scale"
					}
				},
				{
					"sampler":3,
					"target":{
						"node":21,
						"path":"translation"
					}
				},
				{
					"sampler":4,
					"target":{
						"node":21,
						"path":"rotation"
					}
				},
				{
					"sampler":5,
					"target":{
						"node":21,
						"path":"scale"
					}
				},
				{
					"sampler":6,
					"target":{
						"node":20,
						"path":"translation"
					}
				},
				{
					"sampler":7,
					"target":{
						"node":20,
						"path":"rotation"
					}
				},
				{
					"sampler":8,
					"target":{
						"node":20,
						"path":"scale"
					}
				},
				{
					"sampler":9,
					"target":{
						"node":19,
						"path":"translation"
					}
				},
				{
					"sampler":10,
					"target":{
						"node":19,
						"path":"rotation"
					}
				},
				{
					"sampler":11,
					"target":{
						"node":19,
						"path":"scale"
					}
				},
				{
					"sampler":12,
					"target":{
						"node":2,
						"path":"translation"
					}
				},
				{
					"sampler":13,
					"target":{
						"node":2,
						"path":"rotation"
					}
				},
				{
					"sampler":14,
					"target":{
						"node":2,
						"path":"scale"
					}
				},
				{
					"sampler":15,
					"target":{
						"node":1,
						"path":"translation"
					}
				},
				{
					"sampler":16,
					"target":{
						"node":1,
						"path":"rotation"
					}
				},
				{
					"sampler":17,
					"target":{
						"node":1,
						"path":"scale"
					}
				},
				{
					"sampler":18,
					"target":{
						"node":0,
						"path":"translation"
					}
				},
				{
					"sampler":19,
					"target":{
						"node":0,
						"path":"rotation"
					}
				},
				{
					"sampler":20,
					"target":{
						"node":0,
						"path":"scale"
					}
				},
				{
					"sampler":21,
					"target":{
						"node":10,
						"path":"translation"
					}
				},
				{
					"sampler":22,
					"target":{
						"node":10,
						"path":"rotation"
					}
				},
				{
					"sampler":23,
					"target":{
						"node":10,
						"path":"scale"
					}
				},
				{
					"sampler":24,
					"target":{
						"node":9,
						"path":"translation"
					}
				},
				{
					"sampler":25,
					"target":{
						"node":9,
						"path":"rotation"
					}
				},
				{
					"sampler":26,
					"target":{
						"node":9,
						"path":"scale"
					}
				},
				{
					"sampler":27,
					"target":{
						"node":8,
						"path":"translation"
					}
				},
				{
					"sampler":28,
					"target":{
						"node":8,
						"path":"rotation"
					}
				},
				{
					"sampler":29,
					"target":{
						"node":8,
						"path":"scale"
					}
				},
				{
					"sampler":30,
					"target":{
						"node":7,
						"path":"translation"
					}
				},
				{
					"sampler":31,
					"target":{
						"node":7,
						"path":"rotation"
					}
				},
				{
					"sampler":32,
					"target":{
						"node":7,
						"path":"scale"
					}
				},
				{
					"sampler":33,
					"target":{
						"node":6,
						"path":"translation"
					}
				},
				{
					"sampler":34,
					"target":{
						"node":6,
						"path":"rotation"
					}
				},
				{
					"sampler":35,
					"target":{
						"node":6,
						"path":"scale"
					}
				},
				{
					"sampler":36,
					"target":{
						"node":5,
						"path":"translation"
					}
				},
				{
					"sampler":37,
					"target":{
						"node":5,
						"path":"rotation"
					}
				},
				{
					"sampler":38,
					"target":{
						"node":5,
						"path":"scale"
					}
				},
				{
					"sampler":39,
					"target":{
						"node":4,
						"path":"translation"
					}
				},
				{
					"sampler":40,
					"target":{
						"node":4,
						"path":"rotation"
					}
				},
				{
					"sampler":41,
					"target":{
						"node":4,
						"path":"scale"
					}
				},
				{
					"sampler":42,
					"target":{
						"node":3,
						"path":"translation"
					}
				},
				{
					"sampler":43,
					"target":{
						"node":3,
						"path":"rotation"
					}
				},
				{
					"sampler":44,
					"target":{
						"node":3,
						"path":"scale"
					}
				},
				{
					"sampler":45,
					"target":{
						"node":18,
						"path":"translation"
					}
				},
				{
					"sampler":46,
					"target":{
						"node":18,
						"path":"rotation"
					}
				},
				{
					"sampler":47,
					"target":{
						"node":18,
						"path":"scale"
					}
				},
				{
					"sampler":48,
					"target":{
						"node":17,
						"path":"translation"
					}
				},
				{
					"sampler":49,
					"target":{
						"node":17,
						"path":"rotation"
					}
				},
				{
					"sampler":50,
					"target":{
						"node":17,
						"path":"scale"
					}
				},
				{
					"sampler":51,
					"target":{
						"node":16,
						"path":"translation"
					}
				},
				{
					"sampler":52,
					"target":{
						"node":16,
						"path":"rotation"
					}
				},
				{
					"sampler":53,
					"target":{
						"node":16,
						"path":"scale"
					}
				},
				{
					"sampler":54,
					"target":{
						"node":15,
						"path":"translation"
					}
				},
				{
					"sampler":55,
					"target":{
						"node":15,
						"path":"rotation"
					}
				},
				{
					"sampler":56,
					"target":{
						"node":15,
						"path":"scale"
					}
				},
				{
					"sampler":57,
					"target":{
						"node":14,
						"path":"translation"
					}
				},
				{
					"sampler":58,
					"target":{
						"node":14,
						"path":"rotation"
					}
				},
				{
					"sampler":59,
					"target":{
						"node":14,
						"path":"scale"
					}
				},
				{
					"sampler":60,
					"target":{
						"node":13,
						"path":"translation"
					}
				},
				{
					"sampler":61,
					"target":{
						"node":13,
						"path":"rotation"
					}
				},
				{
					"sampler":62,
					"target":{
						"node":13,
						"path":"scale"
					}
				},
				{
					"sampler":63,
					"target":{
						"node":12,
						"path":"translation"
					}
				},
				{
					"sampler":64,
					"target":{
						"node":12,
						"path":"rotation"
					}
				},
				{
					"sampler":65,
					"target":{
						"node":12,
						"path":"scale"
					}
				},
				{
					"sampler":66,
					"target":{
						"node":11,
						"path":"translation"
					}
				},
				{
					"sampler":67,
					"target":{
						"node":11,
						"path":"rotation"
					}
				},
				{
					"sampler":68,
					"target":{
						"node":11,
						"path":"scale"
					}
				},
				{
					"sampler":69,
					"target":{
						"node":26,
						"path":"translation"
					}
				},
				{
					"sampler":70,
					"target":{
						"node":26,
						"path":"rotation"
					}
				},
				{
					"sampler":71,
					"target":{
						"node":26,
						"path":"scale"
					}
				},
				{
					"sampler":72,
					"target":{
						"node":25,
						"path":"translation"
					}
				},
				{
					"sampler":73,
					"target":{
						"node":25,
						"path":"rotation"
					}
				},
				{
					"sampler":74,
					"target":{
						"node":25,
						"path":"scale"
					}
				},
				{
					"sampler":75,
					"target":{
						"node":24,
						"path":"translation"
					}
				},
				{
					"sampler":76,
					"target":{
						"node":24,
						"path":"rotation"
					}
				},
				{
					"sampler":77,
					"target":{
						"node":24,
						"path":"scale"
					}
				},
				{
					"sampler":78,
					"target":{
						"node":23,
						"path":"translation"
					}
				},
				{
					"sampler":79,
					"target":{
						"node":23,
						"path":"rotation"
					}
				},
				{
					"sampler":80,
					"target":{
						"node":23,
						"path":"scale"
					}
				},
				{
					"sampler":81,
					"target":{
						"node":22,
						"path":"translation"
					}
				},
				{
					"sampler":82,
					"target":{
						"node":22,
						"path":"rotation"
					}
				},
				{
					"sampler":83,
					"target":{
						"node":22,
						"path":"scale"
					}
				},
				{
					"sampler":84,
					"target":{
						"node":31,
						"path":"translation"
					}
				},
				{
					"sampler":85,
					"target":{
						"node":31,
						"path":"rotation"
					}
				},
				{
					"sampler":86,
					"target":{
						"node":31,
						"path":"scale"
					}
				},
				{
					"sampler":87,
					"target":{
						"node":30,
						"path":"translation"
					}
				},
				{
					"sampler":88,
					"target":{
						"node":30,
						"path":"rotation"
					}
				},
				{
					"sampler":89,
					"target":{
						"node":30,
						"path":"scale"
					}
				},
				{
					"sampler":90,
					"target":{
						"node":29,
						"path":"translation"
					}
				},
				{
					"sampler":91,
					"target":{
						"node":29,
						"path":"rotation"
					}
				},
				{
					"sampler":92,
					"target":{
						"node":29,
						"path":"scale"
					}
				},
				{
					"sampler":93,
					"target":{
						"node":28,
						"path":"translation"
					}
				},
				{
					"sampler":94,
					"target":{
						"node":28,
						"path":"rotation"
					}
				},
				{
					"sampler":95,
					"target":{
						"node":28,
						"path":"scale"
					}
				},
				{
					"sampler":96,
					"target":{
						"node":27,
						"path":"translation"
					}
				},
				{
					"sampler":97,
					"target":{
						"node":27,
						"path":"rotation"
					}
				},
				{
					"sampler":98,
					"target":{
						"node":27,
						"path":"scale"
					}
				}
			],
			"name":"stepForwards",
			"samplers":[
				{
					"input":114,
					"interpolation":"LINEAR",
					"output":115
				},
				{
					"input":114,
					"interpolation":"LINEAR",
					"output":116
				},
				{
					"input":117,
					"interpolation":"STEP",
					"output":118
				},
				{
					"input":117,
					"interpolation":"LINEAR",
					"output":119
				},
				{
					"input":114,
					"interpolation":"LINEAR",
					"output":120
				},
				{
					"input":117,
					"interpolation":"STEP",
					"output":121
				},
				{
					"input":117,
					"interpolation":"LINEAR",
					"output":122
				},
				{
					"input":114,
					"interpolation":"LINEAR",
					"output":123
				},
				{
					"input":117,
					"interpolation":"LINEAR",
					"output":124
				},
				{
					"input":117,
					"interpolation":"LINEAR",
					"output":125
				},
				{
					"input":114,
					"interpolation":"LINEAR",
					"output":126
				},
				{
					"input":117,
					"interpolation":"LINEAR",
					"output":127
				},
				{
					"input":117,
					"interpolation":"LINEAR",
					"output":128
				},
				{
					"input":114,
					"interpolation":"LINEAR",
					"output":129
				},
				{
					"input":117,
					"interpolation":"STEP",
					"output":130
				},
				{
					"input":117,
					"interpolation":"LINEAR",
					"output":131
				},
				{
					"input":114,
					"interpolation":"LINEAR",
					"output":132
				},
				{
					"input":117,
					"interpolation":"LINEAR",
					"output":133
				},
				{
					"input":117,
					"interpolation":"STEP",
					"output":134
				},
				{
					"input":117,
					"interpolation":"STEP",
					"output":135
				},
				{
					"input":117,
					"interpolation":"STEP",
					"output":136
				},
				{
					"input":117,
					"interpolation":"LINEAR",
					"output":137
				},
				{
					"input":114,
					"interpolation":"LINEAR",
					"output":138
				},
				{
					"input":117,
					"interpolation":"STEP",
					"output":139
				},
				{
					"input":117,
					"interpolation":"LINEAR",
					"output":140
				},
				{
					"input":114,
					"interpolation":"LINEAR",
					"output":141
				},
				{
					"input":117,
					"interpolation":"LINEAR",
					"output":142
				},
				{
					"input":117,
					"interpolation":"LINEAR",
					"output":143
				},
				{
					"input":114,
					"interpolation":"LINEAR",
					"output":144
				},
				{
					"input":117,
					"interpolation":"STEP",
					"output":145
				},
				{
					"input":117,
					"interpolation":"LINEAR",
					"output":146
				},
				{
					"input":114,
					"interpolation":"LINEAR",
					"output":147
				},
				{
					"input":117,
					"interpolation":"LINEAR",
					"output":148
				},
				{
					"input":117,
					"interpolation":"LINEAR",
					"output":149
				},
				{
					"input":117,
					"interpolation":"LINEAR",
					"output":150
				},
				{
					"input":117,
					"interpolation":"LINEAR",
					"output":151
				},
				{
					"input":117,
					"interpolation":"LINEAR",
					"output":152
				},
				{
					"input":117,
					"interpolation":"LINEAR",
					"output":153
				},
				{
					"input":117,
					"interpolation":"STEP",
					"output":154
				},
				{
					"input":117,
					"interpolation":"LINEAR",
					"output":155
				},
				{
					"input":117,
					"interpolation":"STEP",
					"output":156
				},
				{
					"input":117,
					"interpolation":"STEP",
					"output":157
				},
				{
					"input":117,
					"interpolation":"STEP",
					"output":158
				},
				{
					"input":117,
					"interpolation":"STEP",
					"output":159
				},
				{
					"input":117,
					"interpolation":"STEP",
					"output":160
				},
				{
					"input":117,
					"interpolation":"LINEAR",
					"output":161
				},
				{
					"input":114,
					"interpolation":"LINEAR",
					"output":162
				},
				{
					"input":117,
					"interpolation":"STEP",
					"output":163
				},
				{
					"input":117,
					"interpolation":"LINEAR",
					"output":164
				},
				{
					"input":114,
					"interpolation":"LINEAR",
					"output":165
				},
				{
					"input":117,
					"interpolation":"LINEAR",
					"output":166
				},
				{
					"input":117,
					"interpolation":"LINEAR",
					"output":167
				},
				{
					"input":114,
					"interpolation":"LINEAR",
					"output":168
				},
				{
					"input":117,
					"interpolation":"STEP",
					"output":169
				},
				{
					"input":117,
					"interpolation":"LINEAR",
					"output":170
				},
				{
					"input":114,
					"interpolation":"LINEAR",
					"output":171
				},
				{
					"input":117,
					"interpolation":"STEP",
					"output":172
				},
				{
					"input":117,
					"interpolation":"LINEAR",
					"output":173
				},
				{
					"input":117,
					"interpolation":"LINEAR",
					"output":174
				},
				{
					"input":117,
					"interpolation":"STEP",
					"output":175
				},
				{
					"input":117,
					"interpolation":"LINEAR",
					"output":176
				},
				{
					"input":117,
					"interpolation":"LINEAR",
					"output":177
				},
				{
					"input":117,
					"interpolation":"STEP",
					"output":178
				},
				{
					"input":117,
					"interpolation":"LINEAR",
					"output":179
				},
				{
					"input":117,
					"interpolation":"LINEAR",
					"output":180
				},
				{
					"input":117,
					"interpolation":"LINEAR",
					"output":181
				},
				{
					"input":117,
					"interpolation":"STEP",
					"output":182
				},
				{
					"input":117,
					"interpolation":"STEP",
					"output":183
				},
				{
					"input":117,
					"interpolation":"STEP",
					"output":184
				},
				{
					"input":117,
					"interpolation":"LINEAR",
					"output":185
				},
				{
					"input":114,
					"interpolation":"LINEAR",
					"output":186
				},
				{
					"input":117,
					"interpolation":"STEP",
					"output":187
				},
				{
					"input":117,
					"interpolation":"LINEAR",
					"output":188
				},
				{
					"input":114,
					"interpolation":"LINEAR",
					"output":189
				},
				{
					"input":117,
					"interpolation":"LINEAR",
					"output":190
				},
				{
					"input":117,
					"interpolation":"LINEAR",
					"output":191
				},
				{
					"input":114,
					"interpolation":"LINEAR",
					"output":192
				},
				{
					"input":117,
					"interpolation":"LINEAR",
					"output":193
				},
				{
					"input":117,
					"interpolation":"LINEAR",
					"output":194
				},
				{
					"input":114,
					"interpolation":"LINEAR",
					"output":195
				},
				{
					"input":117,
					"interpolation":"STEP",
					"output":196
				},
				{
					"input":117,
					"interpolation":"STEP",
					"output":197
				},
				{
					"input":117,
					"interpolation":"STEP",
					"output":198
				},
				{
					"input":117,
					"interpolation":"STEP",
					"output":199
				},
				{
					"input":117,
					"interpolation":"LINEAR",
					"output":200
				},
				{
					"input":114,
					"interpolation":"LINEAR",
					"output":201
				},
				{
					"input":117,
					"interpolation":"LINEAR",
					"output":202
				},
				{
					"input":117,
					"interpolation":"LINEAR",
					"output":203
				},
				{
					"input":114,
					"interpolation":"LINEAR",
					"output":204
				},
				{
					"input":117,
					"interpolation":"LINEAR",
					"output":205
				},
				{
					"input":117,
					"interpolation":"LINEAR",
					"output":206
				},
				{
					"input":114,
					"interpolation":"LINEAR",
					"output":207
				},
				{
					"input":117,
					"interpolation":"STEP",
					"output":208
				},
				{
					"input":117,
					"interpolation":"LINEAR",
					"output":209
				},
				{
					"input":114,
					"interpolation":"LINEAR",
					"output":210
				},
				{
					"input":117,
					"interpolation":"LINEAR",
					"output":211
				},
				{
					"input":117,
					"interpolation":"STEP",
					"output":212
				},
				{
					"input":117,
					"interpolation":"STEP",
					"output":213
				},
				{
					"input":117,
					"interpolation":"STEP",
					"output":214
				}
			]
		}
	],
	"materials":[
		{
			"alphaMode":"BLEND",
			"doubleSided":true,
			"name":"Material.004",
			"pbrMetallicRoughness":{
				"baseColorTexture":{
					"index":0
				},
				"metallicFactor":0,
				"roughnessFactor":0.5
			}
		},
		{
			"alphaMode":"BLEND",
			"doubleSided":true,
			"name":"None.001",
			"pbrMetallicRoughness":{
				"baseColorTexture":{
					"index":1
				},
				"metallicFactor":0,
				"roughnessFactor":0.25464409589767456
			}
		}
	],
	"meshes":[
		{
			"name":"Icosphere",
			"primitives":[
				{
					"attributes":{
						"POSITION":0,
						"NORMAL":1,
						"TEXCOORD_0":2,
						"JOINTS_0":3,
						"WEIGHTS_0":4
					},
					"indices":5,
					"material":0
				},
				{
					"attributes":{
						"POSITION":6,
						"NORMAL":7,
						"TEXCOORD_0":8,
						"JOINTS_0":9,
						"WEIGHTS_0":10
					},
					"indices":11,
					"material":1
				}
			]
		}
	],
	"textures":[
		{
			"sampler":0,
			"source":0
		},
		{
			"sampler":0,
			"source":1
		}
	],
	"images":[
		{
			"mimeType":"image/png",
			"name":"Material-Material.004 Base Color",
			"uri":"Material-Material_004%20Base%20Color.png"
		},
		{
			"mimeType":"image/png",
			"name":"None-None.001 Base Color",
			"uri":"None-None_001%20Base%20Color.png"
		}
	],
	"skins":[
		{
			"inverseBindMatrices":12,
			"joints":[
				32,
				21,
				20,
				19,
				2,
				1,
				0,
				10,
				9,
				8,
				7,
				6,
				5,
				4,
				3,
				18,
				17,
				16,
				15,
				14,
				13,
				12,
				11,
				26,
				25,
				24,
				23,
				22,
				31,
				30,
				29,
				28,
				27
			],
			"name":"stepForwardsArm"
		}
	],
	"accessors":[
		{
			"bufferView":0,
			"componentType":5126,
			"count":240,
			"max":[
				0.34266701340675354,
				1.8510069847106934,
				0.49769705533981323
			],
			"min":[
				-0.34266701340675354,
				1.1383700370788574,
				-0.21493996679782867
			],
			"type":"VEC3"
		},
		{
			"bufferView":1,
			"componentType":5126,
			"count":240,
			"type":"VEC3"
		},
		{
			"bufferView":2,
			"componentType":5126,
			"count":240,
			"type":"VEC2"
		},
		{
			"bufferView":3,
			"componentType":5121,
			"count":240,
			"type":"VEC4"
		},
		{
			"bufferView":4,
			"componentType":5126,
			"count":240,
			"type":"VEC4"
		},
		{
			"bufferView":5,
			"componentType":5123,
			"count":240,
			"type":"SCALAR"
		},
		{
			"bufferView":6,
			"componentType":5126,
			"count":842,
			"max":[
				0.515425980091095,
				1.2071290016174316,
				0.356790155172348
			],
			"min":[
				-0.515425980091095,
				-0.006891005206853151,
				-0.05076189711689949
			],
			"type":"VEC3"
		},
		{
			"bufferView":7,
			"componentType":5126,
			"count":842,
			"type":"VEC3"
		},
		{
			"bufferView":8,
			"componentType":5126,
			"count":842,
			"type":"VEC2"
		},
		{
			"bufferView":9,
			"componentType":5121,
			"count":842,
			"type":"VEC4"
		},
		{
			"bufferView":10,
			"componentType":5126,
			"count":842,
			"type":"VEC4"
		},
		{
			"bufferView":11,
			"componentType":5123,
			"count":1188,
			"type":"SCALAR"
		},
		{
			"bufferView":12,
			"componentType":5126,
			"count":33,
			"type":"MAT4"
		},
		{
			"bufferView":13,
			"componentType":5126,
			"count":27,
			"max":[
				0.9
			],
			"min":[
				0.03333333333333333
			],
			"type":"SCALAR"
		},
		{
			"bufferView":14,
			"componentType":5126,
			"count":27,
			"type":"VEC3"
		},
		{
			"bufferView":15,
			"componentType":5126,
			"count":27,
			"type":"VEC4"
		},
		{
			"bufferView":16,
			"componentType":5126,
			"count":2,
			"max":[
				0.9
			],
			"min":[
				0.03333333333333333
			],
			"type":"SCALAR"
		},
		{
			"bufferView":17,
			"componentType":5126,
			"count":2,
			"type":"VEC3"
		},
		{
			"bufferView":18,
			"componentType":5126,
			"count":2,
			"type":"VEC3"
		},
		{
			"bufferView":19,
			"componentType":5126,
			"count":27,
			"type":"VEC4"
		},
		{
			"bufferView":20,
			"componentType":5126,
			"count":2,
			"type":"VEC3"
		},
		{
			"bufferView":21,
			"componentType":5126,
			"count":2,
			"type":"VEC3"
		},
		{
			"bufferView":22,
			"componentType":5126,
			"count":27,
			"type":"VEC4"
		},
		{
			"bufferView":23,
			"componentType":5126,
			"count":2,
			"type":"VEC3"
		},
		{
			"bufferView":24,
			"componentType":5126,
			"count":2,
			"type":"VEC3"
		},
		{
			"bufferView":25,
			"componentType":5126,
			"count":27,
			"type":"VEC4"
		},
		{
			"bufferView":26,
			"componentType":5126,
			"count":2,
			"type":"VEC3"
		},
		{
			"bufferView":27,
			"componentType":5126,
			"count":2,
			"type":"VEC3"
		},
		{
			"bufferView":28,
			"componentType":5126,
			"count":27,
			"type":"VEC4"
		},
		{
			"bufferView":29,
			"componentType":5126,
			"count":2,
			"type":"VEC3"
		},
		{
			"bufferView":30,
			"componentType":5126,
			"count":2,
			"type":"VEC3"
		},
		{
			"bufferView":31,
			"componentType":5126,
			"count":27,
			"type":"VEC4"
		},
		{
			"bufferView":32,
			"componentType":5126,
			"count":2,
			"type":"VEC3"
		},
		{
			"bufferView":33,
			"componentType":5126,
			"count":2,
			"type":"VEC3"
		},
		{
			"bufferView":34,
			"componentType":5126,
			"count":2,
			"type":"VEC4"
		},
		{
			"bufferView":35,
			"componentType":5126,
			"count":2,
			"type":"VEC3"
		},
		{
			"bufferView":36,
			"componentType":5126,
			"count":2,
			"type":"VEC3"
		},
		{
			"bufferView":37,
			"componentType":5126,
			"count":27,
			"type":"VEC4"
		},
		{
			"bufferView":38,
			"componentType":5126,
			"count":2,
			"type":"VEC3"
		},
		{
			"bufferView":39,
			"componentType":5126,
			"count":2,
			"type":"VEC3"
		},
		{
			"bufferView":40,
			"componentType":5126,
			"count":27,
			"type":"VEC4"
		},
		{
			"bufferView":41,
			"componentType":5126,
			"count":2,
			"type":"VEC3"
		},
		{
			"bufferView":42,
			"componentType":5126,
			"count":2,
			"type":"VEC3"
		},
		{
			"bufferView":43,
			"componentType":5126,
			"count":27,
			"type":"VEC4"
		},
		{
			"bufferView":44,
			"componentType":5126,
			"count":2,
			"type":"VEC3"
		},
		{
			"bufferView":45,
			"componentType":5126,
			"count":2,
			"type":"VEC3"
		},
		{
			"bufferView":46,
			"componentType":5126,
			"count":27,
			"type":"VEC4"
		},
		{
			"bufferView":47,
			"componentType":5126,
			"count":2,
			"type":"VEC3"
		},
		{
			"bufferView":48,
			"componentType":5126,
			"count":2,
			"type":"VEC3"
		},
		{
			"bufferView":49,
			"componentType":5126,
			"count":2,
			"type":"VEC4"
		},
		{
			"bufferView":50,
			"componentType":5126,
			"count":2,
			"type":"VEC3"
		},
		{
			"bufferView":51,
			"componentType":5126,
			"count":2,
			"type":"VEC3"
		},
		{
			"bufferView":52,
			"componentType":5126,
			"count":2,
			"type":"VEC4"
		},
		{
			"bufferView":53,
			"componentType":5126,
			"count":2,
			"type":"VEC3"
		},
		{
			"bufferView":54,
			"componentType":5126,
			"count":2,
			"type":"VEC3"
		},
		{
			"bufferView":55,
			"componentType":5126,
			"count":2,
			"type":"VEC4"
		},
		{
			"bufferView":56,
			"componentType":5126,
			"count":2,
			"type":"VEC3"
		},
		{
			"bufferView":57,
			"componentType":5126,
			"count":2,
			"type":"VEC3"
		},
		{
			"bufferView":58,
			"componentType":5126,
			"count":2,
			"type":"VEC4"
		},
		{
			"bufferView":59,
			"componentType":5126,
			"count":2,
			"type":"VEC3"
		},
		{
			"bufferView":60,
			"componentType":5126,
			"count":2,
			"type":"VEC3"
		},
		{
			"bufferView":61,
			"componentType":5126,
			"count":27,
			"type":"VEC4"
		},
		{
			"bufferView":62,
			"componentType":5126,
			"count":2,
			"type":"VEC3"
		},
		{
			"bufferView":63,
			"componentType":5126,
			"count":2,
			"type":"VEC3"
		},
		{
			"bufferView":64,
			"componentType":5126,
			"count":27,
			"type":"VEC4"
		},
		{
			"bufferView":65,
			"componentType":5126,
			"count":2,
			"type":"VEC3"
		},
		{
			"bufferView":66,
			"componentType":5126,
			"count":2,
			"type":"VEC3"
		},
		{
			"bufferView":67,
			"componentType":5126,
			"count":27,
			"type":"VEC4"
		},
		{
			"bufferView":68,
			"componentType":5126,
			"count":2,
			"type":"VEC3"
		},
		{
			"bufferView":69,
			"componentType":5126,
			"count":2,
			"type":"VEC3"
		},
		{
			"bufferView":70,
			"componentType":5126,
			"count":27,
			"type":"VEC4"
		},
		{
			"bufferView":71,
			"componentType":5126,
			"count":2,
			"type":"VEC3"
		},
		{
			"bufferView":72,
			"componentType":5126,
			"count":2,
			"type":"VEC3"
		},
		{
			"bufferView":73,
			"componentType":5126,
			"count":2,
			"type":"VEC4"
		},
		{
			"bufferView":74,
			"componentType":5126,
			"count":2,
			"type":"VEC3"
		},
		{
			"bufferView":75,
			"componentType":5126,
			"count":2,
			"type":"VEC3"
		},
		{
			"bufferView":76,
			"componentType":5126,
			"count":2,
			"type":"VEC4"
		},
		{
			"bufferView":77,
			"componentType":5126,
			"count":2,
			"type":"VEC3"
		},
		{
			"bufferView":78,
			"componentType":5126,
			"count":2,
			"type":"VEC3"
		},
		{
			"bufferView":79,
			"componentType":5126,
			"count":2,
			"type":"VEC4"
		},
		{
			"bufferView":80,
			"componentType":5126,
			"count":2,
			"type":"VEC3"
		},
		{
			"bufferView":81,
			"componentType":5126,
			"count":2,
			"type":"VEC3"
		},
		{
			"bufferView":82,
			"componentType":5126,
			"count":2,
			"type":"VEC4"
		},
		{
			"bufferView":83,
			"componentType":5126,
			"count":2,
			"type":"VEC3"
		},
		{
			"bufferView":84,
			"componentType":5126,
			"count":2,
			"type":"VEC3"
		},
		{
			"bufferView":85,
			"componentType":5126,
			"count":27,
			"type":"VEC4"
		},
		{
			"bufferView":86,
			"componentType":5126,
			"count":2,
			"type":"VEC3"
		},
		{
			"bufferView":87,
			"componentType":5126,
			"count":2,
			"type":"VEC3"
		},
		{
			"bufferView":88,
			"componentType":5126,
			"count":27,
			"type":"VEC4"
		},
		{
			"bufferView":89,
			"componentType":5126,
			"count":2,
			"type":"VEC3"
		},
		{
			"bufferView":90,
			"componentType":5126,
			"count":2,
			"type":"VEC3"
		},
		{
			"bufferView":91,
			"componentType":5126,
			"count":27,
			"type":"VEC4"
		},
		{
			"bufferView":92,
			"componentType":5126,
			"count":2,
			"type":"VEC3"
		},
		{
			"bufferView":93,
			"componentType":5126,
			"count":2,
			"type":"VEC3"
		},
		{
			"bufferView":94,
			"componentType":5126,
			"count":2,
			"type":"VEC4"
		},
		{
			"bufferView":95,
			"componentType":5126,
			"count":2,
			"type":"VEC3"
		},
		{
			"bufferView":96,
			"componentType":5126,
			"count":2,
			"type":"VEC3"
		},
		{
			"bufferView":97,
			"componentType":5126,
			"count":2,
			"type":"VEC4"
		},
		{
			"bufferView":98,
			"componentType":5126,
			"count":2,
			"type":"VEC3"
		},
		{
			"bufferView":99,
			"componentType":5126,
			"count":2,
			"type":"VEC3"
		},
		{
			"bufferView":100,
			"componentType":5126,
			"count":27,
			"type":"VEC4"
		},
		{
			"bufferView":101,
			"componentType":5126,
			"count":2,
			"type":"VEC3"
		},
		{
			"bufferView":102,
			"componentType":5126,
			"count":2,
			"type":"VEC3"
		},
		{
			"bufferView":103,
			"componentType":5126,
			"count":27,
			"type":"VEC4"
		},
		{
			"bufferView":104,
			"componentType":5126,
			"count":2,
			"type":"VEC3"
		},
		{
			"bufferView":105,
			"componentType":5126,
			"count":2,
			"type":"VEC3"
		},
		{
			"bufferView":106,
			"componentType":5126,
			"count":27,
			"type":"VEC4"
		},
		{
			"bufferView":107,
			"componentType":5126,
			"count":2,
			"type":"VEC3"
		},
		{
			"bufferView":108,
			"componentType":5126,
			"count":2,
			"type":"VEC3"
		},
		{
			"bufferView":109,
			"componentType":5126,
			"count":27,
			"type":"VEC4"
		},
		{
			"bufferView":110,
			"componentType":5126,
			"count":2,
			"type":"VEC3"
		},
		{
			"bufferView":111,
			"componentType":5126,
			"count":2,
			"type":"VEC3"
		},
		{
			"bufferView":112,
			"componentType":5126,
			"count":2,
			"type":"VEC4"
		},
		{
			"bufferView":113,
			"componentType":5126,
			"count":2,
			"type":"VEC3"
		},
		{
			"bufferView":114,
			"componentType":5126,
			"count":29,
			"max":[
				0.9666666666666667
			],
			"min":[
				0.03333333333333333
			],
			"type":"SCALAR"
		},
		{
			"bufferView":115,
			"componentType":5126,
			"count":29,
			"type":"VEC3"
		},
		{
			"bufferView":116,
			"componentType":5126,
			"count":29,
			"type":"VEC4"
		},
		{
			"bufferView":117,
			"componentType":5126,
			"count":2,
			"max":[
				0.9666666666666667
			],
			"min":[
				0.03333333333333333
			],
			"type":"SCALAR"
		},
		{
			"bufferView":118,
			"componentType":5126,
			"count":2,
			"type":"VEC3"
		},
		{
			"bufferView":119,
			"componentType":5126,
			"count":2,
			"type":"VEC3"
		},
		{
			"bufferView":120,
			"componentType":5126,
			"count":29,
			"type":"VEC4"
		},
		{
			"bufferView":121,
			"componentType":5126,
			"count":2,
			"type":"VEC3"
		},
		{
			"bufferView":122,
			"componentType":5126,
			"count":2,
			"type":"VEC3"
		},
		{
			"bufferView":123,
			"componentType":5126,
			"count":29,
			"type":"VEC4"
		},
		{
			"bufferView":124,
			"componentType":5126,
			"count":2,
			"type":"VEC3"
		},
		{
			"bufferView":125,
			"componentType":5126,
			"count":2,
			"type":"VEC3"
		},
		{
			"bufferView":126,
			"componentType":5126,
			"count":29,
			"type":"VEC4"
		},
		{
			"bufferView":127,
			"componentType":5126,
			"count":2,
			"type":"VEC3"
		},
		{
			"bufferView":128,
			"componentType":5126,
			"count":2,
			"type":"VEC3"
		},
		{
			"bufferView":129,
			"componentType":5126,
			"count":29,
			"type":"VEC4"
		},
		{
			"bufferView":130,
			"componentType":5126,
			"count":2,
			"type":"VEC3"
		},
		{
			"bufferView":131,
			"componentType":5126,
			"count":2,
			"type":"VEC3"
		},
		{
			"bufferView":132,
			"componentType":5126,
			"count":29,
			"type":"VEC4"
		},
		{
			"bufferView":133,
			"componentType":5126,
			"count":2,
			"type":"VEC3"
		},
		{
			"bufferView":134,
			"componentType":5126,
			"count":2,
			"type":"VEC3"
		},
		{
			"bufferView":135,
			"componentType":5126,
			"count":2,
			"type":"VEC4"
		},
		{
			"bufferView":136,
			"componentType":5126,
			"count":2,
			"type":"VEC3"
		},
		{
			"bufferView":137,
			"componentType":5126,
			"count":2,
			"type":"VEC3"
		},
		{
			"bufferView":138,
			"componentType":5126,
			"count":29,
			"type":"VEC4"
		},
		{
			"bufferView":139,
			"componentType":5126,
			"count":2,
			"type":"VEC3"
		},
		{
			"bufferView":140,
			"componentType":5126,
			"count":2,
			"type":"VEC3"
		},
		{
			"bufferView":141,
			"componentType":5126,
			"count":29,
			"type":"VEC4"
		},
		{
			"bufferView":142,
			"componentType":5126,
			"count":2,
			"type":"VEC3"
		},
		{
			"bufferView":143,
			"componentType":5126,
			"count":2,
			"type":"VEC3"
		},
		{
			"bufferView":144,
			"componentType":5126,
			"count":29,
			"type":"VEC4"
		},
		{
			"bufferView":145,
			"componentType":5126,
			"count":2,
			"type":"VEC3"
		},
		{
			"bufferView":146,
			"componentType":5126,
			"count":2,
			"type":"VEC3"
		},
		{
			"bufferView":147,
			"componentType":5126,
			"count":29,
			"type":"VEC4"
		},
		{
			"bufferView":148,
			"componentType":5126,
			"count":2,
			"type":"VEC3"
		},
		{
			"bufferView":149,
			"componentType":5126,
			"count":2,
			"type":"VEC3"
		},
		{
			"bufferView":150,
			"componentType":5126,
			"count":2,
			"type":"VEC4"
		},
		{
			"bufferView":151,
			"componentType":5126,
			"count":2,
			"type":"VEC3"
		},
		{
			"bufferView":152,
			"componentType":5126,
			"count":2,
			"type":"VEC3"
		},
		{
			"bufferView":153,
			"componentType":5126,
			"count":2,
			"type":"VEC4"
		},
		{
			"bufferView":154,
			"componentType":5126,
			"count":2,
			"type":"VEC3"
		},
		{
			"bufferView":155,
			"componentType":5126,
			"count":2,
			"type":"VEC3"
		},
		{
			"bufferView":156,
			"componentType":5126,
			"count":2,
			"type":"VEC4"
		},
		{
			"bufferView":157,
			"componentType":5126,
			"count":2,
			"type":"VEC3"
		},
		{
			"bufferView":158,
			"componentType":5126,
			"count":2,
			"type":"VEC3"
		},
		{
			"bufferView":159,
			"componentType":5126,
			"count":2,
			"type":"VEC4"
		},
		{
			"bufferView":160,
			"componentType":5126,
			"count":2,
			"type":"VEC3"
		},
		{
			"bufferView":161,
			"componentType":5126,
			"count":2,
			"type":"VEC3"
		},
		{
			"bufferView":162,
			"componentType":5126,
			"count":29,
			"type":"VEC4"
		},
		{
			"bufferView":163,
			"componentType":5126,
			"count":2,
			"type":"VEC3"
		},
		{
			"bufferView":164,
			"componentType":5126,
			"count":2,
			"type":"VEC3"
		},
		{
			"bufferView":165,
			"componentType":5126,
			"count":29,
			"type":"VEC4"
		},
		{
			"bufferView":166,
			"componentType":5126,
			"count":2,
			"type":"VEC3"
		},
		{
			"bufferView":167,
			"componentType":5126,
			"count":2,
			"type":"VEC3"
		},
		{
			"bufferView":168,
			"componentType":5126,
			"count":29,
			"type":"VEC4"
		},
		{
			"bufferView":169,
			"componentType":5126,
			"count":2,
			"type":"VEC3"
		},
		{
			"bufferView":170,
			"componentType":5126,
			"count":2,
			"type":"VEC3"
		},
		{
			"bufferView":171,
			"componentType":5126,
			"count":29,
			"type":"VEC4"
		},
		{
			"bufferView":172,
			"componentType":5126,
			"count":2,
			"type":"VEC3"
		},
		{
			"bufferView":173,
			"componentType":5126,
			"count":2,
			"type":"VEC3"
		},
		{
			"bufferView":174,
			"componentType":5126,
			"count":2,
			"type":"VEC4"
		},
		{
			"bufferView":175,
			"componentType":5126,
			"count":2,
			"type":"VEC3"
		},
		{
			"bufferView":176,
			"componentType":5126,
			"count":2,
			"type":"VEC3"
		},
		{
			"bufferView":177,
			"componentType":5126,
			"count":2,
			"type":"VEC4"
		},
		{
			"bufferView":178,
			"componentType":5126,
			"count":2,
			"type":"VEC3"
		},
		{
			"bufferView":179,
			"componentType":5126,
			"count":2,
			"type":"VEC3"
		},
		{
			"bufferView":180,
			"componentType":5126,
			"count":2,
			"type":"VEC4"
		},
		{
			"bufferView":181,
			"componentType":5126,
			"count":2,
			"type":"VEC3"
		},
		{
			"bufferView":182,
			"componentType":5126,
			"count":2,
			"type":"VEC3"
		},
		{
			"bufferView":183,
			"componentType":5126,
			"count":2,
			"type":"VEC4"
		},
		{
			"bufferView":184,
			"componentType":5126,
			"count":2,
			"type":"VEC3"
		},
		{
			"bufferView":185,
			"componentType":5126,
			"count":2,
			"type":"VEC3"
		},
		{
			"bufferView":186,
			"componentType":5126,
			"count":29,
			"type":"VEC4"
		},
		{
			"bufferView":187,
			"componentType":5126,
			"count":2,
			"type":"VEC3"
		},
		{
			"bufferView":188,
			"componentType":5126,
			"count":2,
			"type":"VEC3"
		},
		{
			"bufferView":189,
			"componentType":5126,
			"count":29,
			"type":"VEC4"
		},
		{
			"bufferView":190,
			"componentType":5126,
			"count":2,
			"type":"VEC3"
		},
		{
			"bufferView":191,
			"componentType":5126,
			"count":2,
			"type":"VEC3"
		},
		{
			"bufferView":192,
			"componentType":5126,
			"count":29,
			"type":"VEC4"
		},
		{
			"bufferView":193,
			"componentType":5126,
			"count":2,
			"type":"VEC3"
		},
		{
			"bufferView":194,
			"componentType":5126,
			"count":2,
			"type":"VEC3"
		},
		{
			"bufferView":195,
			"componentType":5126,
			"count":29,
			"type":"VEC4"
		},
		{
			"bufferView":196,
			"componentType":5126,
			"count":2,
			"type":"VEC3"
		},
		{
			"bufferView":197,
			"componentType":5126,
			"count":2,
			"type":"VEC3"
		},
		{
			"bufferView":198,
			"componentType":5126,
			"count":2,
			"type":"VEC4"
		},
		{
			"bufferView":199,
			"componentType":5126,
			"count":2,
			"type":"VEC3"
		},
		{
			"bufferView":200,
			"componentType":5126,
			"count":2,
			"type":"VEC3"
		},
		{
			"bufferView":201,
			"componentType":5126,
			"count":29,
			"type":"VEC4"
		},
		{
			"bufferView":202,
			"componentType":5126,
			"count":2,
			"type":"VEC3"
		},
		{
			"bufferView":203,
			"componentType":5126,
			"count":2,
			"type":"VEC3"
		},
		{
			"bufferView":204,
			"componentType":5126,
			"count":29,
			"type":"VEC4"
		},
		{
			"bufferView":205,
			"componentType":5126,
			"count":2,
			"type":"VEC3"
		},
		{
			"bufferView":206,
			"componentType":5126,
			"count":2,
			"type":"VEC3"
		},
		{
			"bufferView":207,
			"componentType":5126,
			"count":29,
			"type":"VEC4"
		},
		{
			"bufferView":208,
			"componentType":5126,
			"count":2,
			"type":"VEC3"
		},
		{
			"bufferView":209,
			"componentType":5126,
			"count":2,
			"type":"VEC3"
		},
		{
			"bufferView":210,
			"componentType":5126,
			"count":29,
			"type":"VEC4"
		},
		{
			"bufferView":211,
			"componentType":5126,
			"count":2,
			"type":"VEC3"
		},
		{
			"bufferView":212,
			"componentType":5126,
			"count":2,
			"type":"VEC3"
		},
		{
			"bufferView":213,
			"componentType":5126,
			"count":2,
			"type":"VEC4"
		},
		{
			"bufferView":214,
			"componentType":5126,
			"count":2,
			"type":"VEC3"
		}
	],
	"bufferViews":[
		{
			"buffer":0,
			"byteLength":2880,
			"byteOffset":0,
			"target":34962
		},
		{
			"buffer":0,
			"byteLength":2880,
			"byteOffset":2880,
			"target":34962
		},
		{
			"buffer":0,
			"byteLength":1920,
			"byteOffset":5760,
			"target":34962
		},
		{
			"buffer":0,
			"byteLength":960,
			"byteOffset":7680,
			"target":34962
		},
		{
			"buffer":0,
			"byteLength":3840,
			"byteOffset":8640,
			"target":34962
		},
		{
			"buffer":0,
			"byteLength":480,
			"byteOffset":12480,
			"target":34963
		},
		{
			"buffer":0,
			"byteLength":10104,
			"byteOffset":12960,
			"target":34962
		},
		{
			"buffer":0,
			"byteLength":10104,
			"byteOffset":23064,
			"target":34962
		},
		{
			"buffer":0,
			"byteLength":6736,
			"byteOffset":33168,
			"target":34962
		},
		{
			"buffer":0,
			"byteLength":3368,
			"byteOffset":39904,
			"target":34962
		},
		{
			"buffer":0,
			"byteLength":13472,
			"byteOffset":43272,
			"target":34962
		},
		{
			"buffer":0,
			"byteLength":2376,
			"byteOffset":56744,
			"target":34963
		},
		{
			"buffer":0,
			"byteLength":2112,
			"byteOffset":59120
		},
		{
			"buffer":0,
			"byteLength":108,
			"byteOffset":61232
		},
		{
			"buffer":0,
			"byteLength":324,
			"byteOffset":61340
		},
		{
			"buffer":0,
			"byteLength":432,
			"byteOffset":61664
		},
		{
			"buffer":0,
			"byteLength":8,
			"byteOffset":62096
		},
		{
			"buffer":0,
			"byteLength":24,
			"byteOffset":62104
		},
		{
			"buffer":0,
			"byteLength":24,
			"byteOffset":62128
		},
		{
			"buffer":0,
			"byteLength":432,
			"byteOffset":62152
		},
		{
			"buffer":0,
			"byteLength":24,
			"byteOffset":62584
		},
		{
			"buffer":0,
			"byteLength":24,
			"byteOffset":62608
		},
		{
			"buffer":0,
			"byteLength":432,
			"byteOffset":62632
		},
		{
			"buffer":0,
			"byteLength":24,
			"byteOffset":63064
		},
		{
			"buffer":0,
			"byteLength":24,
			"byteOffset":63088
		},
		{
			"buffer":0,
			"byteLength":432,
			"byteOffset":63112
		},
		{
			"buffer":0,
			"byteLength":24,
			"byteOffset":63544
		},
		{
			"buffer":0,
			"byteLength":24,
			"byteOffset":63568
		},
		{
			"buffer":0,
			"byteLength":432,
			"byteOffset":63592
		},
		{
			"buffer":0,
			"byteLength":24,
			"byteOffset":64024
		},
		{
			"buffer":0,
			"byteLength":24,
			"byteOffset":64048
		},
		{
			"buffer":0,
			"byteLength":432,
			"byteOffset":64072
		},
		{
			"buffer":0,
			"byteLength":24,
			"byteOffset":64504
		},
		{
			"buffer":0,
			"byteLength":24,
			"byteOffset":64528
		},
		{
			"buffer":0,
			"byteLength":32,
			"byteOffset":64552
		},
		{
			"buffer":0,
			"byteLength":24,
			"byteOffset":64584
		},
		{
			"buffer":0,
			"byteLength":24,
			"byteOffset":64608
		},
		{
			"buffer":0,
			"byteLength":432,
			"byteOffset":64632
		},
		{
			"buffer":0,
			"byteLength":24,
			"byteOffset":65064
		},
		{
			"buffer":0,
			"byteLength":24,
			"byteOffset":65088
		},
		{
			"buffer":0,
			"byteLength":432,
			"byteOffset":65112
		},
		{
			"buffer":0,
			"byteLength":24,
			"byteOffset":65544
		},
		{
			"buffer":0,
			"byteLength":24,
			"byteOffset":65568
		},
		{
			"buffer":0,
			"byteLength":432,
			"byteOffset":65592
		},
		{
			"buffer":0,
			"byteLength":24,
			"byteOffset":66024
		},
		{
			"buffer":0,
			"byteLength":24,
			"byteOffset":66048
		},
		{
			"buffer":0,
			"byteLength":432,
			"byteOffset":66072
		},
		{
			"buffer":0,
			"byteLength":24,
			"byteOffset":66504
		},
		{
			"buffer":0,
			"byteLength":24,
			"byteOffset":66528
		},
		{
			"buffer":0,
			"byteLength":32,
			"byteOffset":66552
		},
		{
			"buffer":0,
			"byteLength":24,
			"byteOffset":66584
		},
		{
			"buffer":0,
			"byteLength":24,
			"byteOffset":66608
		},
		{
			"buffer":0,
			"byteLength":32,
			"byteOffset":66632
		},
		{
			"buffer":0,
			"byteLength":24,
			"byteOffset":66664
		},
		{
			"buffer":0,
			"byteLength":24,
			"byteOffset":66688
		},
		{
			"buffer":0,
			"byteLength":32,
			"byteOffset":66712
		},
		{
			"buffer":0,
			"byteLength":24,
			"byteOffset":66744
		},
		{
			"buffer":0,
			"byteLength":24,
			"byteOffset":66768
		},
		{
			"buffer":0,
			"byteLength":32,
			"byteOffset":66792
		},
		{
			"buffer":0,
			"byteLength":24,
			"byteOffset":66824
		},
		{
			"buffer":0,
			"byteLength":24,
			"byteOffset":66848
		},
		{
			"buffer":0,
			"byteLength":432,
			"byteOffset":66872
		},
		{
			"buffer":0,
			"byteLength":24,
			"byteOffset":67304
		},
		{
			"buffer":0,
			"byteLength":24,
			"byteOffset":67328
		},
		{
			"buffer":0,
			"byteLength":432,
			"byteOffset":67352
		},
		{
			"buffer":0,
			"byteLength":24,
			"byteOffset":67784
		},
		{
			"buffer":0,
			"byteLength":24,
			"byteOffset":67808
		},
		{
			"buffer":0,
			"byteLength":432,
			"byteOffset":67832
		},
		{
			"buffer":0,
			"byteLength":24,
			"byteOffset":68264
		},
		{
			"buffer":0,
			"byteLength":24,
			"byteOffset":68288
		},
		{
			"buffer":0,
			"byteLength":432,
			"byteOffset":68312
		},
		{
			"buffer":0,
			"byteLength":24,
			"byteOffset":68744
		},
		{
			"buffer":0,
			"byteLength":24,
			"byteOffset":68768
		},
		{
			"buffer":0,
			"byteLength":32,
			"byteOffset":68792
		},
		{
			"buffer":0,
			"byteLength":24,
			"byteOffset":68824
		},
		{
			"buffer":0,
			"byteLength":24,
			"byteOffset":68848
		},
		{
			"buffer":0,
			"byteLength":32,
			"byteOffset":68872
		},
		{
			"buffer":0,
			"byteLength":24,
			"byteOffset":68904
		},
		{
			"buffer":0,
			"byteLength":24,
			"byteOffset":68928
		},
		{
			"buffer":0,
			"byteLength":32,
			"byteOffset":68952
		},
		{
			"buffer":0,
			"byteLength":24,
			"byteOffset":68984
		},
		{
			"buffer":0,
			"byteLength":24,
			"byteOffset":69008
		},
		{
			"buffer":0,
			"byteLength":32,
			"byteOffset":69032
		},
		{
			"buffer":0,
			"byteLength":24,
			"byteOffset":69064
		},
		{
			"buffer":0,
			"byteLength":24,
			"byteOffset":69088
		},
		{
			"buffer":0,
			"byteLength":432,
			"byteOffset":69112
		},
		{
			"buffer":0,
			"byteLength":24,
			"byteOffset":69544
		},
		{
			"buffer":0,
			"byteLength":24,
			"byteOffset":69568
		},
		{
			"buffer":0,
			"byteLength":432,
			"byteOffset":69592
		},
		{
			"buffer":0,
			"byteLength":24,
			"byteOffset":70024
		},
		{
			"buffer":0,
			"byteLength":24,
			"byteOffset":70048
		},
		{
			"buffer":0,
			"byteLength":432,
			"byteOffset":70072
		},
		{
			"buffer":0,
			"byteLength":24,
			"byteOffset":70504
		},
		{
			"buffer":0,
			"byteLength":24,
			"byteOffset":70528
		},
		{
			"buffer":0,
			"byteLength":32,
			"byteOffset":70552
		},
		{
			"buffer":0,
			"byteLength":24,
			"byteOffset":70584
		},
		{
			"buffer":0,
			"byteLength":24,
			"byteOffset":70608
		},
		{
			"buffer":0,
			"byteLength":32,
			"byteOffset":70632
		},
		{
			"buffer":0,
			"byteLength":24,
			"byteOffset":70664
		},
		{
			"buffer":0,
			"byteLength":24,
			"byteOffset":70688
		},
		{
			"buffer":0,
			"byteLength":432,
			"byteOffset":70712
		},
		{
			"buffer":0,
			"byteLength":24,
			"byteOffset":71144
		},
		{
			"buffer":0,
			"byteLength":24,
			"byteOffset":71168
		},
		{
			"buffer":0,
			"byteLength":432,
			"byteOffset":71192
		},
		{
			"buffer":0,
			"byteLength":24,
			"byteOffset":71624
		},
		{
			"buffer":0,
			"byteLength":24,
			"byteOffset":71648
		},
		{
			"buffer":0,
			"byteLength":432,
			"byteOffset":71672
		},
		{
			"buffer":0,
			"byteLength":24,
			"byteOffset":72104
		},
		{
			"buffer":0,
			"byteLength":24,
			"byteOffset":72128
		},
		{
			"buffer":0,
			"byteLength":432,
			"byteOffset":72152
		},
		{
			"buffer":0,
			"byteLength":24,
			"byteOffset":72584
		},
		{
			"buffer":0,
			"byteLength":24,
			"byteOffset":72608
		},
		{
			"buffer":0,
			"byteLength":32,
			"byteOffset":72632
		},
		{
			"buffer":0,
			"byteLength":24,
			"byteOffset":72664
		},
		{
			"buffer":0,
			"byteLength":116,
			"byteOffset":72688
		},
		{
			"buffer":0,
			"byteLength":348,
			"byteOffset":72804
		},
		{
			"buffer":0,
			"byteLength":464,
			"byteOffset":73152
		},
		{
			"buffer":0,
			"byteLength":8,
			"byteOffset":73616
		},
		{
			"buffer":0,
			"byteLength":24,
			"byteOffset":73624
		},
		{
			"buffer":0,
			"byteLength":24,
			"byteOffset":73648
		},
		{
			"buffer":0,
			"byteLength":464,
			"byteOffset":73672
		},
		{
			"buffer":0,
			"byteLength":24,
			"byteOffset":74136
		},
		{
			"buffer":0,
			"byteLength":24,
			"byteOffset":74160
		},
		{
			"buffer":0,
			"byteLength":464,
			"byteOffset":74184
		},
		{
			"buffer":0,
			"byteLength":24,
			"byteOffset":74648
		},
		{
			"buffer":0,
			"byteLength":24,
			"byteOffset":74672
		},
		{
			"buffer":0,
			"byteLength":464,
			"byteOffset":74696
		},
		{
			"buffer":0,
			"byteLength":24,
			"byteOffset":75160
		},
		{
			"buffer":0,
			"byteLength":24,
			"byteOffset":75184
		},
		{
			"buffer":0,
			"byteLength":464,
			"byteOffset":75208
		},
		{
			"buffer":0,
			"byteLength":24,
			"byteOffset":75672
		},
		{
			"buffer":0,
			"byteLength":24,
			"byteOffset":75696
		},
		{
			"buffer":0,
			"byteLength":464,
			"byteOffset":75720
		},
		{
			"buffer":0,
			"byteLength":24,
			"byteOffset":76184
		},
		{
			"buffer":0,
			"byteLength":24,
			"byteOffset":76208
		},
		{
			"buffer":0,
			"byteLength":32,
			"byteOffset":76232
		},
		{
			"buffer":0,
			"byteLength":24,
			"byteOffset":76264
		},
		{
			"buffer":0,
			"byteLength":24,
			"byteOffset":76288
		},
		{
			"buffer":0,
			"byteLength":464,
			"byteOffset":76312
		},
		{
			"buffer":0,
			"byteLength":24,
			"byteOffset":76776
		},
		{
			"buffer":0,
			"byteLength":24,
			"byteOffset":76800
		},
		{
			"buffer":0,
			"byteLength":464,
			"byteOffset":76824
		},
		{
			"buffer":0,
			"byteLength":24,
			"byteOffset":77288
		},
		{
			"buffer":0,
			"byteLength":24,
			"byteOffset":77312
		},
		{
			"buffer":0,
			"byteLength":464,
			"byteOffset":77336
		},
		{
			"buffer":0,
			"byteLength":24,
			"byteOffset":77800
		},
		{
			"buffer":0,
			"byteLength":24,
			"byteOffset":77824
		},
		{
			"buffer":0,
			"byteLength":464,
			"byteOffset":77848
		},
		{
			"buffer":0,
			"byteLength":24,
			"byteOffset":78312
		},
		{
			"buffer":0,
			"byteLength":24,
			"byteOffset":78336
		},
		{
			"buffer":0,
			"byteLength":32,
			"byteOffset":78360
		},
		{
			"buffer":0,
			"byteLength":24,
			"byteOffset":78392
		},
		{
			"buffer":0,
			"byteLength":24,
			"byteOffset":78416
		},
		{
			"buffer":0,
			"byteLength":32,
			"byteOffset":78440
		},
		{
			"buffer":0,
			"byteLength":24,
			"byteOffset":78472
		},
		{
			"buffer":0,
			"byteLength":24,
			"byteOffset":78496
		},
		{
			"buffer":0,
			"byteLength":32,
			"byteOffset":78520
		},
		{
			"buffer":0,
			"byteLength":24,
			"byteOffset":78552
		},
		{
			"buffer":0,
			"byteLength":24,
			"byteOffset":78576
		},
		{
			"buffer":0,
			"byteLength":32,
			"byteOffset":78600
		},
		{
			"buffer":0,
			"byteLength":24,
			"byteOffset":78632
		},
		{
			"buffer":0,
			"byteLength":24,
			"byteOffset":78656
		},
		{
			"buffer":0,
			"byteLength":464,
			"byteOffset":78680
		},
		{
			"buffer":0,
			"byteLength":24,
			"byteOffset":79144
		},
		{
			"buffer":0,
			"byteLength":24,
			"byteOffset":79168
		},
		{
			"buffer":0,
			"byteLength":464,
			"byteOffset":79192
		},
		{
			"buffer":0,
			"byteLength":24,
			"byteOffset":79656
		},
		{
			"buffer":0,
			"byteLength":24,
			"byteOffset":79680
		},
		{
			"buffer":0,
			"byteLength":464,
			"byteOffset":79704
		},
		{
			"buffer":0,
			"byteLength":24,
			"byteOffset":80168
		},
		{
			"buffer":0,
			"byteLength":24,
			"byteOffset":80192
		},
		{
			"buffer":0,
			"byteLength":464,
			"byteOffset":80216
		},
		{
			"buffer":0,
			"byteLength":24,
			"byteOffset":80680
		},
		{
			"buffer":0,
			"byteLength":24,
			"byteOffset":80704
		},
		{
			"buffer":0,
			"byteLength":32,
			"byteOffset":80728
		},
		{
			"buffer":0,
			"byteLength":24,
			"byteOffset":80760
		},
		{
			"buffer":0,
			"byteLength":24,
			"byteOffset":80784
		},
		{
			"buffer":0,
			"byteLength":32,
			"byteOffset":80808
		},
		{
			"buffer":0,
			"byteLength":24,
			"byteOffset":80840
		},
		{
			"buffer":0,
			"byteLength":24,
			"byteOffset":80864
		},
		{
			"buffer":0,
			"byteLength":32,
			"byteOffset":80888
		},
		{
			"buffer":0,
			"byteLength":24,
			"byteOffset":80920
		},
		{
			"buffer":0,
			"byteLength":24,
			"byteOffset":80944
		},
		{
			"buffer":0,
			"byteLength":32,
			"byteOffset":80968
		},
		{
			"buffer":0,
			"byteLength":24,
			"byteOffset":81000
		},
		{
			"buffer":0,
			"byteLength":24,
			"byteOffset":81024
		},
		{
			"buffer":0,
			"byteLength":464,
			"byteOffset":81048
		},
		{
			"buffer":0,
			"byteLength":24,
			"byteOffset":81512
		},
		{
			"buffer":0,
			"byteLength":24,
			"byteOffset":81536
		},
		{
			"buffer":0,
			"byteLength":464,
			"byteOffset":81560
		},
		{
			"buffer":0,
			"byteLength":24,
			"byteOffset":82024
		},
		{
			"buffer":0,
			"byteLength":24,
			"byteOffset":82048
		},
		{
			"buffer":0,
			"byteLength":464,
			"byteOffset":82072
		},
		{
			"buffer":0,
			"byteLength":24,
			"byteOffset":82536
		},
		{
			"buffer":0,
			"byteLength":24,
			"byteOffset":82560
		},
		{
			"buffer":0,
			"byteLength":464,
			"byteOffset":82584
		},
		{
			"buffer":0,
			"byteLength":24,
			"byteOffset":83048
		},
		{
			"buffer":0,
			"byteLength":24,
			"byteOffset":83072
		},
		{
			"buffer":0,
			"byteLength":32,
			"byteOffset":83096
		},
		{
			"buffer":0,
			"byteLength":24,
			"byteOffset":83128
		},
		{
			"buffer":0,
			"byteLength":24,
			"byteOffset":83152
		},
		{
			"buffer":0,
			"byteLength":464,
			"byteOffset":83176
		},
		{
			"buffer":0,
			"byteLength":24,
			"byteOffset":83640
		},
		{
			"buffer":0,
			"byteLength":24,
			"byteOffset":83664
		},
		{
			"buffer":0,
			"byteLength":464,
			"byteOffset":83688
		},
		{
			"buffer":0,
			"byteLength":24,
			"byteOffset":84152
		},
		{
			"buffer":0,
			"byteLength":24,
			"byteOffset":84176
		},
		{
			"buffer":0,
			"byteLength":464,
			"byteOffset":84200
		},
		{
			"buffer":0,
			"byteLength":24,
			"byteOffset":84664
		},
		{
			"buffer":0,
			"byteLength":24,
			"byteOffset":84688
		},
		{
			"buffer":0,
			"byteLength":464,
			"byteOffset":84712
		},
		{
			"buffer":0,
			"byteLength":24,
			"byteOffset":85176
		},
		{
			"buffer":0,
			"byteLength":24,
			"byteOffset":85200
		},
		{
			"buffer":0,
			"byteLength":32,
			"byteOffset":85224
		},
		{
			"buffer":0,
			"byteLength":24,
			"byteOffset":85256
		}
	],
	"samplers":[
		{
			"magFilter":9729,
			"minFilter":9987
		}
	],
	"buffers":[
		{
			"byteLength":85280,
			"uri":"animatedSun.bin"
		}
	]
}
