# Blender 4.5.3 LTS
# www.blender.org
mtllib zemlja-proto.mtl
o Icosphere.001
v 0.000000 1.405859 0.082173
v 0.169099 1.508713 0.227782
v -0.064589 1.493963 0.302267
v -0.209018 1.532578 0.107266
v -0.064589 1.571191 -0.087735
v 0.169099 1.556442 -0.013250
v 0.064589 1.699003 0.342869
v -0.169099 1.713752 0.268384
v -0.169099 1.761481 0.027351
v 0.064589 1.776230 -0.047134
v 0.209018 1.737616 0.147867
v -0.000000 1.864335 0.172960
v -0.037964 1.417398 0.203571
v 0.099393 1.426068 0.159790
v 0.061430 1.477854 0.289158
v 0.198787 1.514578 0.103702
v 0.099393 1.454122 0.018116
v -0.122857 1.440095 0.088953
v -0.160822 1.491882 0.218320
v -0.037964 1.462791 -0.025665
v -0.160822 1.537275 -0.010917
v 0.061430 1.551301 -0.081755
v 0.222252 1.621070 0.198404
v 0.222252 1.649124 0.056729
v 0.000000 1.589704 0.356805
v 0.137359 1.598373 0.313024
v -0.222252 1.621070 0.198404
v -0.137359 1.598373 0.313024
v -0.137359 1.671821 -0.057891
v -0.222252 1.649124 0.056729
v 0.137359 1.671821 -0.057891
v -0.000000 1.680490 -0.101671
v 0.160822 1.732919 0.266050
v -0.061430 1.718892 0.336888
v -0.198787 1.755616 0.151432
v -0.061430 1.792340 -0.034025
v 0.160822 1.778312 0.036813
v 0.037964 1.807403 0.280799
v 0.122857 1.830099 0.166181
v -0.099393 1.816072 0.237018
v -0.099393 1.844126 0.095343
v 0.037964 1.852796 0.051563
v 0.278452 0.235177 0.023958
v 0.278452 0.235177 0.023958
v 0.278452 0.235177 0.023958
v 0.278452 0.235177 0.023958
v 0.278161 0.358719 0.016543
v 0.278161 0.358719 0.016543
v 0.278161 0.358719 0.016543
v 0.278161 0.358719 0.016543
v 0.217362 0.340686 0.080384
v 0.217362 0.340686 0.080384
v 0.217362 0.340686 0.080384
v 0.217362 0.340686 0.080384
v 0.240140 0.225827 0.066759
v 0.240140 0.225827 0.066759
v 0.240140 0.225827 0.066759
v 0.240140 0.225827 0.066759
v 0.150426 0.352775 0.024612
v 0.150426 0.352775 0.024612
v 0.150426 0.352775 0.024612
v 0.150426 0.352775 0.024612
v 0.200374 0.234071 0.024571
v 0.200374 0.234071 0.024571
v 0.200374 0.234071 0.024571
v 0.200374 0.234071 0.024571
v 0.204093 0.357665 -0.021527
v 0.204093 0.357665 -0.021527
v 0.204093 0.357665 -0.021527
v 0.204093 0.357665 -0.021527
v 0.236520 0.260792 -0.023344
v 0.236520 0.260792 -0.023344
v 0.236520 0.260792 -0.023344
v 0.236520 0.260792 -0.023344
v 0.265299 0.035063 -0.018369
v 0.265299 0.035063 -0.018369
v 0.265299 0.035063 -0.018369
v 0.265299 0.035063 -0.018369
v 0.317731 0.035063 0.027384
v 0.317731 0.035063 0.027384
v 0.317731 0.035063 0.027384
v 0.317731 0.035063 0.027384
v 0.323070 -0.008244 0.022786
v 0.323070 -0.008244 0.022786
v 0.323070 -0.008244 0.022786
v 0.323070 -0.008244 0.022786
v 0.267689 -0.008244 -0.017824
v 0.267689 -0.008244 -0.017824
v 0.267689 -0.008244 -0.017824
v 0.154853 0.451877 0.060247
v 0.154853 0.451877 0.060247
v 0.154853 0.451877 0.060247
v 0.154853 0.451877 0.060247
v 0.196551 0.454413 0.004714
v 0.196551 0.454413 0.004714
v 0.196551 0.454413 0.004714
v 0.196551 0.454413 0.004714
v 0.073134 0.647737 0.095414
v 0.073134 0.647737 0.095414
v 0.073134 0.647737 0.095414
v 0.073134 0.647737 0.095414
v 0.147789 0.656519 -0.001196
v 0.147789 0.656519 -0.001196
v 0.147789 0.656519 -0.001196
v 0.147789 0.656519 -0.001196
v 0.238928 0.457095 0.053756
v 0.238928 0.457095 0.053756
v 0.238928 0.457095 0.053756
v 0.238928 0.457095 0.053756
v 0.196492 0.454406 0.117831
v 0.196492 0.454406 0.117831
v 0.196492 0.454406 0.117831
v 0.196492 0.454406 0.117831
v 0.222429 0.665274 0.078659
v 0.222429 0.665274 0.078659
v 0.222429 0.665274 0.078659
v 0.222429 0.665274 0.078659
v 0.082273 0.839998 0.006926
v 0.082273 0.839998 0.006926
v 0.082273 0.839998 0.006926
v 0.082273 0.839998 0.006926
v 0.082273 0.839998 0.006926
v 0.140187 0.895673 0.085806
v 0.140187 0.895673 0.085806
v 0.140187 0.895673 0.085806
v 0.140187 0.895673 0.085806
v 0.147789 0.656519 0.174135
v 0.147789 0.656519 0.174135
v 0.147789 0.656519 0.174135
v 0.147789 0.656519 0.174135
v 0.082273 0.839998 0.164686
v 0.082273 0.839998 0.164686
v 0.082273 0.839998 0.164686
v 0.082273 0.839998 0.164686
v 0.082273 0.839998 0.164686
v -0.000000 0.784324 0.085806
v -0.000000 0.784324 0.085806
v -0.000000 0.784324 0.085806
v -0.000000 0.784324 0.085806
v -0.000000 0.784324 0.085806
v -0.000000 0.784324 0.085806
v -0.000000 0.784324 0.085806
v -0.000000 0.784324 0.085806
v 0.257773 0.123713 -0.003809
v 0.257773 0.123713 -0.003809
v 0.257773 0.123713 -0.003809
v 0.257773 0.123713 -0.003809
v 0.305434 0.067987 0.028066
v 0.305434 0.067987 0.028066
v 0.305434 0.067987 0.028066
v 0.305434 0.067987 0.028066
v 0.305434 0.067987 0.028066
v 0.228411 0.067987 0.034541
v 0.228411 0.067987 0.034541
v 0.228411 0.067987 0.034541
v 0.228411 0.067987 0.034541
v 0.228411 0.067987 0.034541
v 0.264924 0.098429 0.067353
v 0.264924 0.098429 0.067353
v 0.264924 0.098429 0.067353
v 0.264924 0.098429 0.067353
v 0.275297 -0.006098 0.073821
v 0.275297 -0.006098 0.073821
v 0.275297 -0.006098 0.073821
v 0.219594 -0.008244 0.034850
v 0.219594 -0.008244 0.034850
v 0.219594 -0.008244 0.034850
v 0.219594 -0.008244 0.034850
v 0.222051 0.035063 0.038539
v 0.222051 0.035063 0.038539
v 0.222051 0.035063 0.038539
v 0.222051 0.035063 0.038539
v 0.231047 -0.008244 0.199166
v 0.231047 -0.008244 0.199166
v 0.231047 -0.008244 0.199166
v 0.235343 0.019806 0.204370
v 0.235343 0.019806 0.204370
v 0.235343 0.019806 0.204370
v 0.235343 0.019806 0.204370
v 0.287348 -0.008244 0.214261
v 0.287348 -0.008244 0.214261
v 0.287348 -0.008244 0.214261
v 0.287348 -0.008244 0.214261
v 0.288131 0.019806 0.224596
v 0.288131 0.019806 0.224596
v 0.288131 0.019806 0.224596
v 0.288131 0.019806 0.224596
v 0.336232 0.019806 0.193214
v 0.336232 0.019806 0.193214
v 0.336232 0.019806 0.193214
v 0.336232 0.019806 0.193214
v 0.340156 -0.008244 0.187101
v 0.340156 -0.008244 0.187101
v 0.340156 -0.008244 0.187101
v 0.314239 0.044239 0.108918
v 0.314239 0.044239 0.108918
v 0.314239 0.044239 0.108918
v 0.237216 0.044239 0.115393
v 0.237216 0.044239 0.115393
v 0.237216 0.044239 0.115393
v 0.278415 0.037855 0.140442
v 0.278415 0.037855 0.140442
v 0.278415 0.037855 0.140442
v 0.278415 0.037855 0.140442
v 0.062730 0.970600 0.041289
v 0.062730 0.970600 0.041289
v 0.062730 0.970600 0.041289
v 0.062730 0.970600 0.041289
v 0.125459 0.959468 0.100356
v 0.125459 0.959468 0.100356
v 0.125459 0.959468 0.100356
v 0.125459 0.959468 0.100356
v 0.116833 1.020877 0.107873
v 0.116833 1.020877 0.107873
v 0.116833 1.020877 0.107873
v 0.116833 1.020877 0.107873
v 0.073966 1.024887 0.053261
v 0.073966 1.024887 0.053261
v 0.073966 1.024887 0.053261
v 0.073966 1.024887 0.053261
v 0.087039 1.108067 0.054491
v 0.087039 1.108067 0.054491
v 0.087039 1.108067 0.054491
v 0.087039 1.108067 0.054491
v 0.119410 1.098741 0.106911
v 0.119410 1.098741 0.106911
v 0.119410 1.098741 0.106911
v 0.119410 1.098741 0.106911
v 0.000000 0.932570 0.189022
v 0.000000 0.932570 0.189022
v 0.000000 0.932570 0.189022
v 0.000000 0.932570 0.189022
v 0.076268 0.946019 0.167673
v 0.076268 0.946019 0.167673
v 0.076268 0.946019 0.167673
v 0.076268 0.946019 0.167673
v 0.071955 1.014543 0.172207
v 0.071955 1.014543 0.172207
v 0.071955 1.014543 0.172207
v 0.071955 1.014543 0.172207
v -0.000000 1.023599 0.190575
v -0.000000 1.023599 0.190575
v -0.000000 1.023599 0.190575
v -0.000000 1.023599 0.190575
v 0.071955 1.088934 0.172488
v 0.071955 1.088934 0.172488
v 0.071955 1.088934 0.172488
v 0.071955 1.088934 0.172488
v -0.000000 1.107491 0.191185
v -0.000000 1.107491 0.191185
v -0.000000 1.107491 0.191185
v -0.000000 1.107491 0.191185
v -0.000000 1.171321 0.207811
v -0.000000 1.171321 0.207811
v -0.000000 1.171321 0.207811
v -0.000000 1.171321 0.207811
v 0.043163 1.169522 0.195825
v 0.043163 1.169522 0.195825
v 0.043163 1.169522 0.195825
v 0.043163 1.169522 0.195825
v 0.081397 1.247397 0.180094
v 0.081397 1.247397 0.180094
v 0.081397 1.247397 0.180094
v 0.081397 1.247397 0.180094
v 0.000000 1.258218 0.197655
v 0.000000 1.258218 0.197655
v 0.000000 1.258218 0.197655
v 0.000000 1.258218 0.197655
v 0.150729 1.161887 0.095817
v 0.150729 1.161887 0.095817
v 0.150729 1.161887 0.095817
v 0.150729 1.161887 0.095817
v 0.119086 1.187325 0.024642
v 0.119086 1.187325 0.024642
v 0.119086 1.187325 0.024642
v 0.119086 1.187325 0.024642
v 0.143685 1.253209 -0.006604
v 0.143685 1.253209 -0.006604
v 0.143685 1.253209 -0.006604
v 0.143685 1.253209 -0.006604
v 0.143685 1.253209 -0.006604
v 0.165331 1.228961 0.073735
v 0.165331 1.228961 0.073735
v 0.165331 1.228961 0.073735
v 0.165331 1.228961 0.073735
v 0.165331 1.228961 0.073735
v -0.000000 1.328754 0.153353
v -0.000000 1.328754 0.153353
v -0.000000 1.328754 0.153353
v -0.000000 1.328754 0.153353
v 0.125653 1.337564 0.138676
v 0.125653 1.337564 0.138676
v 0.125653 1.337564 0.138676
v 0.125653 1.337564 0.138676
v 0.051210 1.371511 0.092896
v 0.051210 1.371511 0.092896
v 0.051210 1.371511 0.092896
v 0.051210 1.371511 0.092896
v -0.000000 1.365901 0.104275
v -0.000000 1.365901 0.104275
v -0.000000 1.365901 0.104275
v -0.000000 1.365901 0.104275
v 0.000000 0.807950 0.175564
v 0.000000 0.807950 0.175564
v 0.000000 0.807950 0.175564
v 0.000000 0.807950 0.175564
v 0.000000 0.891696 0.000292
v 0.000000 0.891696 0.000292
v 0.000000 0.891696 0.000292
v 0.000000 0.891696 0.000292
v 0.102421 1.380016 0.055474
v 0.102421 1.380016 0.055474
v 0.102421 1.380016 0.055474
v 0.102421 1.380016 0.055474
v 0.051210 1.383400 0.028418
v 0.051210 1.383400 0.028418
v 0.051210 1.383400 0.028418
v 0.051210 1.383400 0.028418
v 0.032912 1.411366 0.028392
v 0.032912 1.411366 0.028392
v 0.032912 1.411366 0.028392
v 0.032912 1.411366 0.028392
v 0.059182 1.404527 0.067874
v 0.059182 1.404527 0.067874
v 0.059182 1.404527 0.067874
v 0.059182 1.404527 0.067874
v 0.177842 1.338884 0.074074
v 0.177842 1.338884 0.074074
v 0.177842 1.338884 0.074074
v 0.177842 1.338884 0.074074
v 0.177842 1.338884 0.074074
v 0.220215 1.361701 0.034451
v 0.220215 1.361701 0.034451
v 0.220215 1.361701 0.034451
v 0.220215 1.361701 0.034451
v 0.032912 1.437364 0.039118
v 0.032912 1.437364 0.039118
v 0.046848 1.430525 0.078601
v 0.046848 1.430525 0.078601
v 0.032912 1.398388 0.104394
v 0.032912 1.398388 0.104394
v 0.032912 1.398388 0.104394
v 0.032912 1.398388 0.104394
v -0.000000 1.392250 0.114871
v -0.000000 1.392250 0.114871
v -0.000000 1.392250 0.114871
v -0.000000 1.392250 0.114871
v 0.032912 1.424387 0.115121
v 0.032912 1.424387 0.115121
v -0.000000 1.418248 0.125598
v -0.000000 1.418248 0.125598
v -0.000000 1.444204 0.026498
v -0.000000 1.444204 0.026498
v -0.000000 1.418206 0.015771
v -0.000000 1.418206 0.015771
v -0.000000 1.418206 0.015771
v -0.000000 1.418206 0.015771
v -0.000000 1.386119 -0.003803
v -0.000000 1.386119 -0.003803
v -0.000000 1.386119 -0.003803
v -0.000000 1.386119 -0.003803
v 0.156224 1.346146 -0.033230
v 0.156224 1.346146 -0.033230
v 0.156224 1.346146 -0.033230
v 0.156224 1.346146 -0.033230
v -0.000000 1.368413 -0.015332
v -0.000000 1.368413 -0.015332
v -0.000000 1.368413 -0.015332
v -0.000000 1.368413 -0.015332
v -0.000000 1.202140 -0.023319
v -0.000000 1.202140 -0.023319
v -0.000000 1.202140 -0.023319
v -0.000000 1.202140 -0.023319
v -0.000000 1.281230 -0.035639
v -0.000000 1.281230 -0.035639
v -0.000000 1.281230 -0.035639
v -0.000000 1.281230 -0.035639
v -0.000000 0.981733 0.023024
v -0.000000 0.981733 0.023024
v -0.000000 0.981733 0.023024
v -0.000000 0.981733 0.023024
v -0.000000 1.031806 0.036527
v -0.000000 1.031806 0.036527
v -0.000000 1.031806 0.036527
v -0.000000 1.031806 0.036527
v -0.000000 1.113880 0.014860
v -0.000000 1.113880 0.014860
v -0.000000 1.113880 0.014860
v -0.000000 1.113880 0.014860
v 0.217353 1.138551 0.018179
v 0.217353 1.138551 0.018179
v 0.217353 1.138551 0.018179
v 0.217353 1.138551 0.018179
v 0.276139 1.173697 -0.030351
v 0.276139 1.173697 -0.030351
v 0.276139 1.173697 -0.030351
v 0.276139 1.173697 -0.030351
v 0.318057 1.063148 -0.014485
v 0.318057 1.063148 -0.014485
v 0.318057 1.063148 -0.014485
v 0.318057 1.063148 -0.014485
v 0.273685 1.052345 0.016580
v 0.273685 1.052345 0.016580
v 0.273685 1.052345 0.016580
v 0.273685 1.052345 0.016580
v 0.283365 1.078585 0.066048
v 0.283365 1.078585 0.066048
v 0.283365 1.078585 0.066048
v 0.283365 1.078585 0.066048
v 0.293848 0.969325 0.051643
v 0.293848 0.969325 0.051643
v 0.293848 0.969325 0.051643
v 0.293848 0.969325 0.051643
v 0.317953 1.019094 0.114996
v 0.317953 1.019094 0.114996
v 0.317953 1.019094 0.114996
v 0.317953 1.019094 0.114996
v 0.223084 1.181476 0.094769
v 0.223084 1.181476 0.094769
v 0.223084 1.181476 0.094769
v 0.223084 1.181476 0.094769
v 0.281870 1.216470 0.046462
v 0.281870 1.216470 0.046462
v 0.281870 1.216470 0.046462
v 0.281870 1.216470 0.046462
v 0.281870 1.216470 0.046462
v 0.327737 1.089170 0.034983
v 0.327737 1.089170 0.034983
v 0.327737 1.089170 0.034983
v 0.327737 1.089170 0.034983
v 0.364775 0.987362 0.010286
v 0.364775 0.987362 0.010286
v 0.364775 0.987362 0.010286
v 0.364775 0.987362 0.010286
v 0.427885 0.835772 0.153690
v 0.427885 0.835772 0.153690
v 0.427885 0.835772 0.153690
v 0.427885 0.835772 0.153690
v 0.399475 0.841875 0.164159
v 0.399475 0.841875 0.164159
v 0.399475 0.841875 0.164159
v 0.399475 0.841875 0.164159
v 0.388880 1.037179 0.074742
v 0.388880 1.037179 0.074742
v 0.388880 1.037179 0.074742
v 0.388880 1.037179 0.074742
v 0.431520 0.833921 0.258612
v 0.431520 0.833921 0.258612
v 0.431520 0.833921 0.258612
v 0.431520 0.833921 0.258612
v 0.437538 0.789743 0.200041
v 0.437538 0.789743 0.200041
v 0.437538 0.789743 0.200041
v 0.437538 0.789743 0.200041
v 0.457027 0.724727 0.232218
v 0.457027 0.724727 0.232218
v 0.457027 0.724727 0.232218
v 0.462221 0.741890 0.268265
v 0.462221 0.741890 0.268265
v 0.462221 0.741890 0.268265
v 0.410549 0.865786 0.180271
v 0.410549 0.865786 0.180271
v 0.410549 0.865786 0.180271
v 0.410549 0.865786 0.180271
v 0.438959 0.859683 0.169802
v 0.438959 0.859683 0.169802
v 0.438959 0.859683 0.169802
v 0.438959 0.859683 0.169802
v 0.472113 0.714591 0.209463
v 0.472113 0.714591 0.209463
v 0.472113 0.714591 0.209463
v 0.481131 0.731754 0.245509
v 0.481131 0.731754 0.245509
v 0.481131 0.731754 0.245509
v 0.482840 0.816779 0.222909
v 0.482840 0.816779 0.222909
v 0.482840 0.816779 0.222909
v 0.482840 0.816779 0.222909
v 0.457912 0.772602 0.164338
v 0.457912 0.772602 0.164338
v 0.457912 0.772602 0.164338
v 0.457912 0.772602 0.164338
v -0.278452 0.235177 0.023958
v -0.278452 0.235177 0.023958
v -0.278452 0.235177 0.023958
v -0.278452 0.235177 0.023958
v -0.240140 0.225827 0.066759
v -0.240140 0.225827 0.066759
v -0.240140 0.225827 0.066759
v -0.240140 0.225827 0.066759
v -0.217362 0.340686 0.080384
v -0.217362 0.340686 0.080384
v -0.217362 0.340686 0.080384
v -0.217362 0.340686 0.080384
v -0.278161 0.358719 0.016543
v -0.278161 0.358719 0.016543
v -0.278161 0.358719 0.016543
v -0.278161 0.358719 0.016543
v -0.200374 0.234071 0.024571
v -0.200374 0.234071 0.024571
v -0.200374 0.234071 0.024571
v -0.200374 0.234071 0.024571
v -0.150426 0.352775 0.024612
v -0.150426 0.352775 0.024612
v -0.150426 0.352775 0.024612
v -0.150426 0.352775 0.024612
v -0.236520 0.260792 -0.023344
v -0.236520 0.260792 -0.023344
v -0.236520 0.260792 -0.023344
v -0.236520 0.260792 -0.023344
v -0.204093 0.357665 -0.021527
v -0.204093 0.357665 -0.021527
v -0.204093 0.357665 -0.021527
v -0.204093 0.357665 -0.021527
v -0.265299 0.035063 -0.018369
v -0.265299 0.035063 -0.018369
v -0.265299 0.035063 -0.018369
v -0.265299 0.035063 -0.018369
v -0.267689 -0.008244 -0.017824
v -0.267689 -0.008244 -0.017824
v -0.267689 -0.008244 -0.017824
v -0.323070 -0.008244 0.022786
v -0.323070 -0.008244 0.022786
v -0.323070 -0.008244 0.022786
v -0.323070 -0.008244 0.022786
v -0.317731 0.035063 0.027384
v -0.317731 0.035063 0.027384
v -0.317731 0.035063 0.027384
v -0.317731 0.035063 0.027384
v -0.196551 0.454413 0.004714
v -0.196551 0.454413 0.004714
v -0.196551 0.454413 0.004714
v -0.196551 0.454413 0.004714
v -0.154853 0.451877 0.060247
v -0.154853 0.451877 0.060247
v -0.154853 0.451877 0.060247
v -0.154853 0.451877 0.060247
v -0.147789 0.656519 -0.001196
v -0.147789 0.656519 -0.001196
v -0.147789 0.656519 -0.001196
v -0.147789 0.656519 -0.001196
v -0.073134 0.647737 0.095414
v -0.073134 0.647737 0.095414
v -0.073134 0.647737 0.095414
v -0.073134 0.647737 0.095414
v -0.196492 0.454406 0.117831
v -0.196492 0.454406 0.117831
v -0.196492 0.454406 0.117831
v -0.196492 0.454406 0.117831
v -0.238928 0.457095 0.053756
v -0.238928 0.457095 0.053756
v -0.238928 0.457095 0.053756
v -0.238928 0.457095 0.053756
v -0.222429 0.665274 0.078659
v -0.222429 0.665274 0.078659
v -0.222429 0.665274 0.078659
v -0.222429 0.665274 0.078659
v -0.140187 0.895673 0.085806
v -0.140187 0.895673 0.085806
v -0.140187 0.895673 0.085806
v -0.140187 0.895673 0.085806
v -0.082273 0.839998 0.006926
v -0.082273 0.839998 0.006926
v -0.082273 0.839998 0.006926
v -0.082273 0.839998 0.006926
v -0.082273 0.839998 0.006926
v -0.147789 0.656519 0.174135
v -0.147789 0.656519 0.174135
v -0.147789 0.656519 0.174135
v -0.147789 0.656519 0.174135
v -0.082273 0.839998 0.164686
v -0.082273 0.839998 0.164686
v -0.082273 0.839998 0.164686
v -0.082273 0.839998 0.164686
v -0.082273 0.839998 0.164686
v -0.257773 0.123713 -0.003809
v -0.257773 0.123713 -0.003809
v -0.257773 0.123713 -0.003809
v -0.257773 0.123713 -0.003809
v -0.305434 0.067987 0.028066
v -0.305434 0.067987 0.028066
v -0.305434 0.067987 0.028066
v -0.305434 0.067987 0.028066
v -0.305434 0.067987 0.028066
v -0.228411 0.067987 0.034541
v -0.228411 0.067987 0.034541
v -0.228411 0.067987 0.034541
v -0.228411 0.067987 0.034541
v -0.228411 0.067987 0.034541
v -0.264924 0.098429 0.067353
v -0.264924 0.098429 0.067353
v -0.264924 0.098429 0.067353
v -0.264924 0.098429 0.067353
v -0.275297 -0.006098 0.073821
v -0.275297 -0.006098 0.073821
v -0.275297 -0.006098 0.073821
v -0.219594 -0.008244 0.034850
v -0.219594 -0.008244 0.034850
v -0.219594 -0.008244 0.034850
v -0.219594 -0.008244 0.034850
v -0.222051 0.035063 0.038539
v -0.222051 0.035063 0.038539
v -0.222051 0.035063 0.038539
v -0.222051 0.035063 0.038539
v -0.235343 0.019806 0.204370
v -0.235343 0.019806 0.204370
v -0.235343 0.019806 0.204370
v -0.235343 0.019806 0.204370
v -0.231047 -0.008244 0.199166
v -0.231047 -0.008244 0.199166
v -0.231047 -0.008244 0.199166
v -0.287348 -0.008244 0.214261
v -0.287348 -0.008244 0.214261
v -0.287348 -0.008244 0.214261
v -0.287348 -0.008244 0.214261
v -0.288131 0.019806 0.224596
v -0.288131 0.019806 0.224596
v -0.288131 0.019806 0.224596
v -0.288131 0.019806 0.224596
v -0.336232 0.019806 0.193214
v -0.336232 0.019806 0.193214
v -0.336232 0.019806 0.193214
v -0.336232 0.019806 0.193214
v -0.340156 -0.008244 0.187101
v -0.340156 -0.008244 0.187101
v -0.340156 -0.008244 0.187101
v -0.314239 0.044239 0.108918
v -0.314239 0.044239 0.108918
v -0.314239 0.044239 0.108918
v -0.278415 0.037855 0.140442
v -0.278415 0.037855 0.140442
v -0.278415 0.037855 0.140442
v -0.278415 0.037855 0.140442
v -0.237216 0.044239 0.115393
v -0.237216 0.044239 0.115393
v -0.237216 0.044239 0.115393
v -0.125459 0.959468 0.100356
v -0.125459 0.959468 0.100356
v -0.125459 0.959468 0.100356
v -0.125459 0.959468 0.100356
v -0.062730 0.970600 0.041289
v -0.062730 0.970600 0.041289
v -0.062730 0.970600 0.041289
v -0.062730 0.970600 0.041289
v -0.116833 1.020877 0.107873
v -0.116833 1.020877 0.107873
v -0.116833 1.020877 0.107873
v -0.116833 1.020877 0.107873
v -0.119410 1.098741 0.106911
v -0.119410 1.098741 0.106911
v -0.119410 1.098741 0.106911
v -0.119410 1.098741 0.106911
v -0.087039 1.108067 0.054491
v -0.087039 1.108067 0.054491
v -0.087039 1.108067 0.054491
v -0.087039 1.108067 0.054491
v -0.073966 1.024887 0.053261
v -0.073966 1.024887 0.053261
v -0.073966 1.024887 0.053261
v -0.073966 1.024887 0.053261
v -0.071955 1.014543 0.172207
v -0.071955 1.014543 0.172207
v -0.071955 1.014543 0.172207
v -0.071955 1.014543 0.172207
v -0.076268 0.946019 0.167673
v -0.076268 0.946019 0.167673
v -0.076268 0.946019 0.167673
v -0.076268 0.946019 0.167673
v -0.071955 1.088934 0.172488
v -0.071955 1.088934 0.172488
v -0.071955 1.088934 0.172488
v -0.071955 1.088934 0.172488
v -0.081397 1.247397 0.180094
v -0.081397 1.247397 0.180094
v -0.081397 1.247397 0.180094
v -0.081397 1.247397 0.180094
v -0.043163 1.169522 0.195825
v -0.043163 1.169522 0.195825
v -0.043163 1.169522 0.195825
v -0.043163 1.169522 0.195825
v -0.150729 1.161887 0.095817
v -0.150729 1.161887 0.095817
v -0.150729 1.161887 0.095817
v -0.150729 1.161887 0.095817
v -0.165331 1.228961 0.073735
v -0.165331 1.228961 0.073735
v -0.165331 1.228961 0.073735
v -0.165331 1.228961 0.073735
v -0.165331 1.228961 0.073735
v -0.143685 1.253209 -0.006604
v -0.143685 1.253209 -0.006604
v -0.143685 1.253209 -0.006604
v -0.143685 1.253209 -0.006604
v -0.143685 1.253209 -0.006604
v -0.119086 1.187325 0.024642
v -0.119086 1.187325 0.024642
v -0.119086 1.187325 0.024642
v -0.119086 1.187325 0.024642
v -0.051210 1.371511 0.092896
v -0.051210 1.371511 0.092896
v -0.051210 1.371511 0.092896
v -0.051210 1.371511 0.092896
v -0.125653 1.337564 0.138676
v -0.125653 1.337564 0.138676
v -0.125653 1.337564 0.138676
v -0.125653 1.337564 0.138676
v -0.102421 1.380016 0.055474
v -0.102421 1.380016 0.055474
v -0.102421 1.380016 0.055474
v -0.102421 1.380016 0.055474
v -0.059182 1.404527 0.067874
v -0.059182 1.404527 0.067874
v -0.059182 1.404527 0.067874
v -0.059182 1.404527 0.067874
v -0.032912 1.411366 0.028392
v -0.032912 1.411366 0.028392
v -0.032912 1.411366 0.028392
v -0.032912 1.411366 0.028392
v -0.051210 1.383400 0.028418
v -0.051210 1.383400 0.028418
v -0.051210 1.383400 0.028418
v -0.051210 1.383400 0.028418
v -0.177842 1.338884 0.074074
v -0.177842 1.338884 0.074074
v -0.177842 1.338884 0.074074
v -0.177842 1.338884 0.074074
v -0.177842 1.338884 0.074074
v -0.220215 1.361701 0.034451
v -0.220215 1.361701 0.034451
v -0.220215 1.361701 0.034451
v -0.220215 1.361701 0.034451
v -0.046848 1.430525 0.078601
v -0.046848 1.430525 0.078601
v -0.032912 1.437364 0.039118
v -0.032912 1.437364 0.039118
v -0.032912 1.398388 0.104394
v -0.032912 1.398388 0.104394
v -0.032912 1.398388 0.104394
v -0.032912 1.398388 0.104394
v -0.032912 1.424387 0.115121
v -0.032912 1.424387 0.115121
v -0.156224 1.346146 -0.033230
v -0.156224 1.346146 -0.033230
v -0.156224 1.346146 -0.033230
v -0.156224 1.346146 -0.033230
v -0.217353 1.138551 0.018179
v -0.217353 1.138551 0.018179
v -0.217353 1.138551 0.018179
v -0.217353 1.138551 0.018179
v -0.273685 1.052345 0.016580
v -0.273685 1.052345 0.016580
v -0.273685 1.052345 0.016580
v -0.273685 1.052345 0.016580
v -0.318057 1.063148 -0.014485
v -0.318057 1.063148 -0.014485
v -0.318057 1.063148 -0.014485
v -0.318057 1.063148 -0.014485
v -0.276139 1.173697 -0.030351
v -0.276139 1.173697 -0.030351
v -0.276139 1.173697 -0.030351
v -0.276139 1.173697 -0.030351
v -0.283365 1.078585 0.066048
v -0.283365 1.078585 0.066048
v -0.283365 1.078585 0.066048
v -0.283365 1.078585 0.066048
v -0.317953 1.019094 0.114996
v -0.317953 1.019094 0.114996
v -0.317953 1.019094 0.114996
v -0.317953 1.019094 0.114996
v -0.293848 0.969325 0.051643
v -0.293848 0.969325 0.051643
v -0.293848 0.969325 0.051643
v -0.293848 0.969325 0.051643
v -0.223084 1.181476 0.094769
v -0.223084 1.181476 0.094769
v -0.223084 1.181476 0.094769
v -0.223084 1.181476 0.094769
v -0.327737 1.089170 0.034983
v -0.327737 1.089170 0.034983
v -0.327737 1.089170 0.034983
v -0.327737 1.089170 0.034983
v -0.281870 1.216470 0.046462
v -0.281870 1.216470 0.046462
v -0.281870 1.216470 0.046462
v -0.281870 1.216470 0.046462
v -0.281870 1.216470 0.046462
v -0.399475 0.841875 0.164159
v -0.399475 0.841875 0.164159
v -0.399475 0.841875 0.164159
v -0.399475 0.841875 0.164159
v -0.427885 0.835772 0.153690
v -0.427885 0.835772 0.153690
v -0.427885 0.835772 0.153690
v -0.427885 0.835772 0.153690
v -0.364775 0.987362 0.010286
v -0.364775 0.987362 0.010286
v -0.364775 0.987362 0.010286
v -0.364775 0.987362 0.010286
v -0.388880 1.037179 0.074742
v -0.388880 1.037179 0.074742
v -0.388880 1.037179 0.074742
v -0.388880 1.037179 0.074742
v -0.431520 0.833921 0.258612
v -0.431520 0.833921 0.258612
v -0.431520 0.833921 0.258612
v -0.431520 0.833921 0.258612
v -0.462221 0.741890 0.268265
v -0.462221 0.741890 0.268265
v -0.462221 0.741890 0.268265
v -0.457027 0.724727 0.232218
v -0.457027 0.724727 0.232218
v -0.457027 0.724727 0.232218
v -0.437538 0.789743 0.200041
v -0.437538 0.789743 0.200041
v -0.437538 0.789743 0.200041
v -0.437538 0.789743 0.200041
v -0.410549 0.865786 0.180271
v -0.410549 0.865786 0.180271
v -0.410549 0.865786 0.180271
v -0.410549 0.865786 0.180271
v -0.438959 0.859683 0.169802
v -0.438959 0.859683 0.169802
v -0.438959 0.859683 0.169802
v -0.438959 0.859683 0.169802
v -0.481131 0.731754 0.245509
v -0.481131 0.731754 0.245509
v -0.481131 0.731754 0.245509
v -0.472113 0.714591 0.209463
v -0.472113 0.714591 0.209463
v -0.472113 0.714591 0.209463
v -0.482840 0.816779 0.222909
v -0.482840 0.816779 0.222909
v -0.482840 0.816779 0.222909
v -0.482840 0.816779 0.222909
v -0.457912 0.772602 0.164338
v -0.457912 0.772602 0.164338
v -0.457912 0.772602 0.164338
v -0.457912 0.772602 0.164338
vn 0.1024 -0.9868 0.1258
vn 0.7002 -0.7012 0.1344
vn -0.2680 -0.9634 0.0078
vn -0.2680 -0.8877 -0.3743
vn 0.1024 -0.8643 -0.4924
vn 0.9050 -0.3762 0.1988
vn 0.0247 -0.5074 0.8614
vn -0.8897 -0.3853 0.2449
vn -0.5746 -0.1786 -0.7987
vn 0.5346 -0.1730 -0.8272
vn 0.8026 -0.2365 0.5476
vn -0.3066 -0.3065 0.9011
vn -0.9921 -0.1232 -0.0244
vn -0.3066 0.0600 -0.9500
vn 0.8026 -0.0100 -0.5964
vn 0.4089 0.5270 0.7450
vn -0.4713 0.5358 0.7005
vn -0.7002 0.7012 -0.1344
vn 0.0385 0.7945 -0.6060
vn 0.7240 0.6869 -0.0625
vn 0.2680 0.9634 -0.0078
vn 0.4911 0.8488 -0.1957
vn 0.4089 0.7712 -0.4879
vn -0.1024 0.9868 -0.1258
vn -0.1876 0.8917 -0.4120
vn -0.4713 0.7624 -0.4435
vn -0.3313 0.9256 0.1833
vn -0.6071 0.7795 0.1544
vn -0.7002 0.5970 0.3915
vn -0.1024 0.8643 0.4924
vn -0.1876 0.6674 0.7207
vn 0.0385 0.5036 0.8630
vn 0.2680 0.8877 0.3743
vn 0.4911 0.7102 0.5044
vn 0.7240 0.6113 0.3196
vn 0.8897 0.3853 -0.2449
vn 0.7947 0.2962 -0.5299
vn 0.5746 0.4695 -0.6703
vn -0.0247 0.5074 -0.8614
vn -0.3035 0.3655 -0.8799
vn -0.5346 0.4752 -0.6989
vn -0.9050 0.3762 -0.1988
vn -0.9822 0.1840 0.0364
vn -0.9050 0.2720 0.3271
vn -0.5346 0.1730 0.8272
vn -0.3035 0.0026 0.9528
vn -0.0247 0.1408 0.9897
vn 0.5746 0.1786 0.7987
vn 0.7947 0.0719 0.6028
vn 0.8897 0.2629 0.3733
vn 0.3066 0.3065 -0.9011
vn 0.3035 -0.0026 -0.9528
vn 0.0247 -0.1408 -0.9897
vn -0.8026 0.2365 -0.5476
vn -0.7947 -0.0719 -0.6028
vn -0.8897 -0.2629 -0.3733
vn -0.8026 0.0100 0.5964
vn -0.7947 -0.2962 0.5299
vn -0.5746 -0.4695 0.6703
vn 0.3066 -0.0600 0.9500
vn 0.3035 -0.3655 0.8799
vn 0.5346 -0.4752 0.6989
vn 0.9921 0.1232 0.0244
vn 0.9822 -0.1840 -0.0364
vn 0.9050 -0.2720 -0.3271
vn 0.4713 -0.5358 -0.7005
vn 0.1876 -0.6674 -0.7207
vn -0.0385 -0.5036 -0.8630
vn -0.4089 -0.5270 -0.7450
vn -0.4911 -0.7102 -0.5044
vn -0.7240 -0.6113 -0.3196
vn -0.7240 -0.6869 0.0625
vn -0.4911 -0.8488 0.1957
vn -0.4089 -0.7712 0.4879
vn 0.7002 -0.5970 -0.3915
vn 0.6071 -0.7795 -0.1544
vn 0.3313 -0.9256 -0.1833
vn -0.0385 -0.7945 0.6060
vn 0.1876 -0.8917 0.4120
vn 0.4713 -0.7624 0.4435
vn 0.7248 0.0522 0.6870
vn 0.7247 0.0522 0.6870
vn -0.6801 -0.2520 0.6885
vn -0.6800 -0.2520 0.6885
vn -0.6802 -0.2521 0.6883
vn -0.6586 -0.2455 -0.7114
vn -0.6585 -0.2455 -0.7114
vn 0.6008 0.0689 -0.7964
vn 0.6005 0.0691 -0.7966
vn 0.6010 0.0687 -0.7963
vn 0.6225 0.0919 -0.7772
vn 0.6226 0.0919 -0.7772
vn -0.7221 0.1980 -0.6629
vn -0.7219 0.1982 -0.6630
vn -0.7221 0.1979 -0.6629
vn -0.7223 0.1977 -0.6627
vn -0.7695 -0.2079 -0.6039
vn -0.7694 -0.2079 -0.6039
vn 0.7782 -0.0005 0.6280
vn 0.7782 -0.0005 0.6281
vn 0.7784 -0.0006 0.6277
vn 0.5477 0.3746 -0.7481
vn 0.5475 0.3743 -0.7484
vn 0.5479 0.3748 -0.7479
vn -0.7052 -0.2784 0.6520
vn -0.7050 -0.2786 0.6522
vn -0.7053 -0.2784 0.6520
vn -0.7055 -0.2782 0.6518
vn 0.6828 0.2688 -0.6793
vn 0.6828 0.2689 -0.6793
vn 0.8058 0.0109 0.5921
vn 0.7259 0.1466 -0.6720
vn -0.6916 -0.3693 0.6207
vn -0.6917 -0.3693 0.6206
vn -0.6396 -0.2335 0.7324
vn -0.6397 -0.2335 0.7324
vn -0.6586 -0.2886 -0.6949
vn -0.6587 -0.2888 -0.6947
vn -0.6586 -0.2885 -0.6950
vn -0.6585 -0.2883 -0.6952
vn 0.7198 0.2605 0.6435
vn 0.7198 0.2606 0.6435
vn 0.7197 0.2605 0.6435
vn 0.6877 0.0528 -0.7240
vn 0.6880 0.0527 -0.7238
vn 0.6878 0.0528 -0.7240
vn 0.6876 0.0528 -0.7242
vn -0.6925 -0.1806 -0.6985
vn -0.6925 -0.1806 -0.6984
vn -0.6922 -0.1807 -0.6987
vn -0.6833 -0.0970 0.7237
vn -0.6833 -0.0969 0.7236
vn -0.6833 -0.0970 0.7236
vn -0.6833 -0.0969 0.7237
vn 0.7319 0.1393 0.6670
vn 0.0031 -0.9997 0.0232
vn 0.0027 -0.9997 0.0232
vn 0.0022 -0.9997 0.0232
vn -0.9934 0.0842 0.0783
vn -0.9934 0.0842 0.0784
vn -0.9934 0.0843 0.0783
vn -0.9934 0.0843 0.0784
vn 0.0234 -0.9997 -0.0089
vn 0.0234 -0.9997 -0.0088
vn -0.7679 0.0238 -0.6401
vn -0.7679 0.0239 -0.6401
vn -0.2998 -0.2293 0.9260
vn -0.3000 -0.2290 0.9261
vn -0.2998 -0.2294 0.9260
vn -0.2997 -0.2297 0.9260
vn 0.4895 -0.2200 0.8438
vn 0.4896 -0.2203 0.8436
vn 0.4894 -0.2197 0.8439
vn 0.8699 0.4930 -0.0182
vn 0.8698 0.4930 -0.0182
vn 0.8696 0.4934 -0.0183
vn 0.8695 0.4936 -0.0183
vn -0.5568 0.6920 0.4594
vn -0.5568 0.6921 0.4594
vn -0.5562 0.6922 0.4600
vn -0.5562 0.6922 0.4599
vn 0.5530 0.7619 0.3372
vn 0.5533 0.7617 0.3373
vn 0.5527 0.7621 0.3372
vn -0.0249 -0.9997 -0.0047
vn -0.0250 -0.9997 -0.0047
vn 0.9847 0.1428 -0.0995
vn 0.9847 0.1428 -0.0996
vn 0.0960 0.9693 0.2264
vn 0.0959 0.9693 0.2264
vn -0.0498 0.9695 0.2402
vn -0.0498 0.9695 0.2401
vn -0.8066 0.0435 -0.5894
vn -0.8067 0.0434 -0.5894
vn -0.9232 0.3581 0.1393
vn -0.9233 0.3581 0.1393
vn -0.9230 0.3587 0.1395
vn -0.9231 0.3584 0.1394
vn 0.6674 0.1989 -0.7176
vn 0.6676 0.1989 -0.7175
vn 0.6673 0.1988 -0.7177
vn 0.6721 0.2901 -0.6813
vn 0.6721 0.2899 -0.6814
vn 0.8110 -0.0779 -0.5798
vn 0.8110 -0.0778 -0.5798
vn 0.2595 -0.0298 0.9653
vn 0.2598 -0.0301 0.9652
vn 0.7356 0.0964 -0.6705
vn 0.7355 0.0961 -0.6707
vn 0.7356 0.0963 -0.6705
vn 0.7358 0.0967 -0.6703
vn 0.2484 -0.0054 0.9687
vn 0.2484 -0.0054 0.9686
vn 0.2484 -0.0055 0.9686
vn 0.2485 -0.0055 0.9686
vn 0.2390 0.0964 0.9662
vn 0.2390 0.0963 0.9662
vn 0.2389 0.0964 0.9662
vn 0.8115 -0.4073 -0.4190
vn 0.8113 -0.4075 -0.4192
vn 0.8117 -0.4071 -0.4188
vn 0.7240 -0.4680 -0.5067
vn 0.7241 -0.4679 -0.5067
vn 0.7244 -0.4677 -0.5065
vn 0.7242 -0.4679 -0.5067
vn 0.2139 -0.2201 0.9517
vn 0.2146 -0.2205 0.9515
vn 0.0209 0.8078 0.5890
vn 0.0209 0.8079 0.5890
vn 0.0209 0.8078 0.5891
vn 0.1427 0.4350 0.8891
vn 0.1429 0.4347 0.8892
vn 0.1427 0.4349 0.8891
vn 0.1425 0.4353 0.8890
vn 0.3796 -0.8947 0.2355
vn -0.3120 -0.5919 -0.7432
vn 0.5095 0.7115 -0.4839
vn 0.5095 0.7115 -0.4840
vn 0.5094 0.7118 -0.4836
vn 0.2027 0.9201 0.3351
vn 0.2028 0.9201 0.3351
vn 0.2028 0.9204 0.3343
vn 0.2028 0.9202 0.3347
vn 0.8559 0.3573 -0.3739
vn 0.8558 0.3571 -0.3742
vn 0.8559 0.3575 -0.3736
vn 0.2781 -0.2851 0.9172
vn 0.2781 -0.2851 0.9173
vn 0.2784 -0.2854 0.9171
vn 0.3432 -0.3582 0.8683
vn 0.3979 0.3499 -0.8481
vn 0.4662 0.3991 -0.7895
vn 0.4662 0.3990 -0.7895
vn 0.4660 0.3993 -0.7896
vn 0.1346 0.9091 -0.3943
vn 0.1345 0.9093 -0.3937
vn 0.1346 0.9092 -0.3941
vn 0.1344 0.9093 -0.3938
vn 0.5968 0.3881 0.7023
vn 0.5970 0.3878 0.7023
vn 0.5968 0.3881 0.7022
vn 0.5968 0.3884 0.7021
vn 0.8754 0.0082 0.4833
vn 0.8754 0.0079 0.4834
vn 0.8754 0.0083 0.4833
vn 0.8755 0.0086 0.4832
vn 0.2831 0.8840 0.3720
vn 0.2831 0.8842 0.3717
vn 0.2831 0.8839 0.3724
vn 0.7747 -0.0912 0.6258
vn 0.7745 -0.0914 0.6260
vn 0.7746 -0.0912 0.6258
vn 0.2193 -0.3148 -0.9235
vn 0.2194 -0.3151 -0.9234
vn 0.2193 -0.3147 -0.9235
vn 0.2192 -0.3144 -0.9236
vn 0.2678 0.2012 -0.9422
vn 0.3221 -0.4085 -0.8541
vn 0.3220 -0.4084 -0.8541
vn 0.3171 -0.1411 -0.9378
vn 0.3169 -0.1408 -0.9379
vn 0.3172 -0.1411 -0.9378
vn 0.3174 -0.1414 -0.9377
vn 0.7249 -0.0859 0.6835
vn 0.7247 -0.0862 0.6837
vn 0.7250 -0.0856 0.6834
vn 0.8114 0.0266 0.5838
vn 0.8115 0.0267 0.5838
vn 0.8159 -0.0108 0.5781
vn 0.8157 -0.0112 0.5784
vn 0.8156 -0.0114 0.5785
vn 0.7286 -0.0708 0.6812
vn 0.7288 -0.0705 0.6811
vn 0.7285 -0.0712 0.6814
vn 0.7983 0.0358 0.6012
vn 0.7981 0.0353 0.6014
vn 0.7982 0.0354 0.6014
vn 0.7981 0.0354 0.6014
vn 0.0309 -0.0372 -0.9988
vn 0.0307 -0.0368 -0.9988
vn 0.0310 -0.0375 -0.9988
vn -0.4926 -0.3048 -0.8151
vn -0.4928 -0.3052 -0.8148
vn -0.4928 -0.3052 -0.8149
vn -0.4929 -0.3053 -0.8148
vn -0.9199 -0.1367 0.3676
vn -0.9200 -0.1367 0.3673
vn -0.9198 -0.1368 0.3677
vn -0.7577 -0.5286 0.3827
vn 0.9001 0.3269 -0.2879
vn 0.9001 0.3269 -0.2880
vn 0.7494 0.4036 -0.5249
vn 0.7494 0.4035 -0.5249
vn 0.7495 0.4040 -0.5244
vn 0.7496 0.4040 -0.5243
vn -0.7878 -0.5802 0.2065
vn -0.7880 -0.5801 0.2062
vn -0.7876 -0.5804 0.2068
vn -0.3505 -0.3211 -0.8798
vn -0.3503 -0.3208 -0.8800
vn -0.3506 -0.3214 -0.8796
vn 0.5710 0.1215 0.8119
vn -0.2442 -0.7315 -0.6366
vn -0.2445 -0.7316 -0.6364
vn -0.2445 -0.7317 -0.6363
vn 0.7709 0.4006 -0.4953
vn 0.7708 0.4009 -0.4951
vn 0.7710 0.4003 -0.4954
vn -0.3855 -0.4631 -0.7981
vn -0.3854 -0.4629 -0.7982
vn 0.2278 0.7185 0.6571
vn 0.2276 0.7186 0.6572
vn -0.9517 -0.2613 0.1611
vn -0.9517 -0.2612 0.1611
vn -0.9517 -0.2613 0.1615
vn -0.8032 -0.2154 0.5553
vn -0.8032 -0.2155 0.5553
vn -0.8031 -0.2153 0.5556
vn 0.3363 0.5242 0.7824
vn 0.3362 0.5242 0.7824
vn 0.9112 0.0151 -0.4117
vn 0.9111 0.0148 -0.4119
vn 0.2432 0.1948 0.9502
vn 0.2432 0.1949 0.9502
vn 0.2433 0.1948 0.9502
vn 0.2436 0.1949 0.9501
vn 0.5596 0.3014 0.7720
vn 0.0297 -0.9049 0.4245
vn 0.0295 -0.9047 0.4249
vn 0.0292 -0.9046 0.4254
vn 0.0293 -0.9046 0.4252
vn 0.6743 0.2378 0.6991
vn 0.6742 0.2379 0.6992
vn 0.6746 0.2376 0.6989
vn 0.9513 -0.0601 -0.3024
vn 0.9514 -0.0597 -0.3022
vn -0.8471 -0.4290 -0.3136
vn -0.8471 -0.4290 -0.3137
vn -0.6878 -0.5814 -0.4346
vn -0.6878 -0.5817 -0.4342
vn -0.6881 -0.5816 -0.4338
vn 0.7930 0.2085 -0.5724
vn 0.7930 0.2082 -0.5725
vn 0.4168 0.8631 0.2853
vn 0.4165 0.8632 0.2853
vn -0.9227 -0.2515 0.2922
vn -0.9228 -0.2516 0.2919
vn -0.9228 -0.2517 0.2915
vn 0.2164 -0.0638 0.9742
vn 0.2163 -0.0638 0.9742
vn 0.2731 0.2636 -0.9252
vn -0.7248 0.0522 0.6870
vn 0.6801 -0.2520 0.6885
vn 0.6803 -0.2522 0.6882
vn 0.6801 -0.2520 0.6884
vn 0.6586 -0.2455 -0.7114
vn 0.6585 -0.2455 -0.7114
vn -0.6008 0.0689 -0.7964
vn -0.6010 0.0688 -0.7963
vn -0.6005 0.0692 -0.7966
vn -0.6225 0.0919 -0.7772
vn -0.6226 0.0919 -0.7772
vn 0.7221 0.1980 -0.6629
vn 0.7223 0.1977 -0.6627
vn 0.7221 0.1979 -0.6629
vn 0.7219 0.1982 -0.6630
vn 0.7695 -0.2079 -0.6039
vn -0.7782 -0.0005 0.6280
vn -0.7783 -0.0006 0.6279
vn -0.7780 -0.0004 0.6282
vn -0.5477 0.3746 -0.7481
vn -0.5479 0.3748 -0.7479
vn -0.5474 0.3744 -0.7484
vn 0.7052 -0.2784 0.6520
vn 0.7055 -0.2782 0.6518
vn 0.7053 -0.2784 0.6520
vn 0.7050 -0.2786 0.6522
vn -0.6828 0.2688 -0.6793
vn -0.6828 0.2689 -0.6793
vn -0.8058 0.0109 0.5921
vn -0.7259 0.1466 -0.6720
vn 0.6916 -0.3693 0.6207
vn 0.6919 -0.3692 0.6205
vn 0.6396 -0.2335 0.7324
vn 0.6397 -0.2335 0.7324
vn 0.6586 -0.2886 -0.6949
vn 0.6585 -0.2883 -0.6952
vn 0.6586 -0.2885 -0.6950
vn 0.6588 -0.2888 -0.6947
vn -0.7198 0.2605 0.6435
vn -0.7197 0.2605 0.6435
vn -0.6877 0.0528 -0.7240
vn -0.6876 0.0528 -0.7241
vn -0.6878 0.0528 -0.7240
vn -0.6879 0.0527 -0.7239
vn 0.6925 -0.1806 -0.6985
vn 0.6922 -0.1807 -0.6987
vn 0.6925 -0.1806 -0.6984
vn 0.6833 -0.0969 0.7237
vn 0.6833 -0.0969 0.7236
vn -0.7319 0.1393 0.6670
vn -0.0031 -0.9997 0.0232
vn -0.0027 -0.9997 0.0232
vn 0.9934 0.0842 0.0783
vn 0.9934 0.0843 0.0784
vn 0.9934 0.0843 0.0783
vn -0.0234 -0.9997 -0.0089
vn -0.0234 -0.9997 -0.0088
vn 0.7679 0.0238 -0.6401
vn 0.7679 0.0239 -0.6401
vn 0.2998 -0.2293 0.9260
vn 0.2997 -0.2297 0.9260
vn 0.2998 -0.2294 0.9260
vn 0.3000 -0.2290 0.9261
vn -0.4895 -0.2200 0.8438
vn -0.4894 -0.2197 0.8439
vn -0.4896 -0.2203 0.8436
vn -0.8699 0.4930 -0.0182
vn -0.8695 0.4936 -0.0183
vn -0.8696 0.4934 -0.0183
vn -0.8698 0.4930 -0.0182
vn 0.5568 0.6920 0.4594
vn 0.5562 0.6922 0.4599
vn 0.5562 0.6922 0.4600
vn 0.5568 0.6921 0.4594
vn -0.5530 0.7619 0.3372
vn -0.5527 0.7621 0.3372
vn -0.5533 0.7617 0.3373
vn 0.0249 -0.9997 -0.0047
vn 0.0250 -0.9997 -0.0047
vn -0.9847 0.1428 -0.0996
vn -0.9847 0.1428 -0.0995
vn -0.0960 0.9693 0.2264
vn -0.0959 0.9693 0.2264
vn 0.0498 0.9695 0.2402
vn 0.0498 0.9695 0.2401
vn 0.8066 0.0435 -0.5894
vn 0.8066 0.0436 -0.5895
vn 0.9232 0.3581 0.1393
vn 0.9231 0.3584 0.1393
vn 0.9230 0.3587 0.1394
vn 0.9233 0.3581 0.1392
vn -0.6675 0.1990 -0.7176
vn -0.6673 0.1988 -0.7177
vn -0.6675 0.1990 -0.7175
vn -0.6721 0.2899 -0.6814
vn -0.8110 -0.0779 -0.5798
vn -0.8111 -0.0779 -0.5798
vn -0.8110 -0.0778 -0.5798
vn -0.2596 -0.0298 0.9653
vn -0.2595 -0.0298 0.9653
vn -0.2598 -0.0301 0.9652
vn -0.7356 0.0964 -0.6705
vn -0.7358 0.0966 -0.6703
vn -0.7356 0.0963 -0.6705
vn -0.7355 0.0961 -0.6707
vn -0.2484 -0.0054 0.9687
vn -0.2485 -0.0055 0.9686
vn -0.2484 -0.0055 0.9686
vn -0.2484 -0.0054 0.9686
vn -0.2390 0.0964 0.9662
vn -0.2389 0.0965 0.9662
vn -0.2390 0.0963 0.9662
vn -0.8115 -0.4073 -0.4190
vn -0.8117 -0.4071 -0.4188
vn -0.8113 -0.4075 -0.4192
vn -0.7241 -0.4679 -0.5067
vn -0.7242 -0.4679 -0.5066
vn -0.2142 -0.2202 0.9516
vn -0.2146 -0.2205 0.9515
vn -0.0209 0.8078 0.5890
vn -0.0209 0.8078 0.5891
vn -0.1427 0.4350 0.8891
vn -0.1424 0.4352 0.8890
vn -0.1427 0.4349 0.8891
vn -0.1429 0.4347 0.8892
vn -0.3796 -0.8947 0.2355
vn 0.3120 -0.5919 -0.7432
vn -0.5095 0.7115 -0.4839
vn -0.5094 0.7117 -0.4836
vn -0.5095 0.7115 -0.4840
vn -0.5097 0.7114 -0.4838
vn -0.2028 0.9201 0.3351
vn -0.2028 0.9204 0.3343
vn -0.2029 0.9201 0.3351
vn -0.2028 0.9202 0.3347
vn -0.8559 0.3573 -0.3739
vn -0.8559 0.3575 -0.3736
vn -0.8559 0.3570 -0.3742
vn -0.2781 -0.2851 0.9172
vn -0.2784 -0.2854 0.9171
vn -0.2781 -0.2851 0.9173
vn -0.3432 -0.3582 0.8683
vn -0.3979 0.3499 -0.8481
vn -0.4662 0.3991 -0.7895
vn -0.4660 0.3994 -0.7895
vn -0.4662 0.3990 -0.7895
vn -0.1346 0.9092 -0.3940
vn -0.1345 0.9093 -0.3937
vn -0.1345 0.9090 -0.3944
vn -0.1343 0.9093 -0.3940
vn -0.1346 0.9092 -0.3941
vn -0.5968 0.3881 0.7023
vn -0.5969 0.3884 0.7020
vn -0.5968 0.3881 0.7022
vn -0.5969 0.3878 0.7024
vn -0.8754 0.0082 0.4833
vn -0.8754 0.0086 0.4833
vn -0.8754 0.0083 0.4833
vn -0.8754 0.0079 0.4833
vn -0.2831 0.8840 0.3720
vn -0.2831 0.8839 0.3724
vn -0.2830 0.8842 0.3717
vn -0.7747 -0.0912 0.6258
vn -0.7746 -0.0912 0.6258
vn -0.7748 -0.0910 0.6256
vn -0.2193 -0.3148 -0.9235
vn -0.2191 -0.3144 -0.9236
vn -0.2193 -0.3147 -0.9235
vn -0.2194 -0.3151 -0.9234
vn -0.2678 0.2012 -0.9422
vn -0.3221 -0.4085 -0.8541
vn -0.3220 -0.4084 -0.8541
vn -0.3171 -0.1411 -0.9378
vn -0.3174 -0.1414 -0.9377
vn -0.3172 -0.1411 -0.9378
vn -0.3170 -0.1408 -0.9379
vn -0.7249 -0.0859 0.6835
vn -0.7251 -0.0857 0.6833
vn -0.7247 -0.0862 0.6837
vn -0.8114 0.0267 0.5838
vn -0.8115 0.0267 0.5838
vn -0.8114 0.0266 0.5838
vn -0.8159 -0.0108 0.5781
vn -0.8157 -0.0112 0.5784
vn -0.8156 -0.0114 0.5785
vn -0.7286 -0.0708 0.6812
vn -0.7285 -0.0711 0.6814
vn -0.7288 -0.0705 0.6811
vn -0.7983 0.0358 0.6012
vn -0.7981 0.0354 0.6014
vn -0.7981 0.0353 0.6015
vn -0.0309 -0.0372 -0.9988
vn -0.0310 -0.0375 -0.9988
vn -0.0306 -0.0369 -0.9989
vn 0.4926 -0.3048 -0.8151
vn 0.4928 -0.3052 -0.8148
vn 0.4928 -0.3052 -0.8149
vn 0.4927 -0.3050 -0.8150
vn 0.9199 -0.1367 0.3676
vn 0.9199 -0.1367 0.3677
vn 0.9200 -0.1367 0.3673
vn 0.7577 -0.5286 0.3827
vn -0.9001 0.3269 -0.2879
vn -0.7494 0.4036 -0.5249
vn -0.7495 0.4040 -0.5244
vn -0.7494 0.4035 -0.5249
vn 0.7878 -0.5802 0.2065
vn 0.7877 -0.5803 0.2069
vn 0.7880 -0.5801 0.2062
vn 0.3505 -0.3211 -0.8798
vn 0.3506 -0.3214 -0.8796
vn 0.3503 -0.3208 -0.8800
vn -0.5710 0.1215 0.8119
vn 0.2442 -0.7315 -0.6366
vn 0.2445 -0.7316 -0.6363
vn 0.2445 -0.7316 -0.6364
vn -0.7709 0.4006 -0.4953
vn -0.7709 0.4003 -0.4955
vn -0.7708 0.4009 -0.4951
vn 0.3855 -0.4631 -0.7981
vn -0.2278 0.7185 0.6571
vn -0.2276 0.7186 0.6572
vn 0.9517 -0.2613 0.1611
vn 0.9517 -0.2613 0.1614
vn 0.8032 -0.2154 0.5553
vn 0.8031 -0.2153 0.5556
vn 0.8033 -0.2154 0.5553
vn -0.3363 0.5242 0.7824
vn -0.3362 0.5242 0.7824
vn -0.9112 0.0151 -0.4117
vn -0.9111 0.0148 -0.4119
vn -0.2432 0.1948 0.9502
vn -0.2436 0.1948 0.9501
vn -0.2433 0.1948 0.9502
vn -0.2432 0.1951 0.9502
vn -0.5596 0.3014 0.7720
vn -0.0294 -0.9047 0.4250
vn -0.0293 -0.9047 0.4251
vn -0.6743 0.2378 0.6991
vn -0.6746 0.2375 0.6990
vn -0.6741 0.2379 0.6992
vn -0.9513 -0.0601 -0.3024
vn -0.9514 -0.0597 -0.3022
vn 0.8471 -0.4290 -0.3136
vn 0.8471 -0.4290 -0.3137
vn 0.6879 -0.5814 -0.4346
vn 0.6882 -0.5815 -0.4338
vn 0.6881 -0.5816 -0.4338
vn 0.6878 -0.5817 -0.4342
vn -0.7930 0.2085 -0.5724
vn -0.7930 0.2082 -0.5725
vn -0.4168 0.8631 0.2853
vn -0.4165 0.8632 0.2852
vn 0.9227 -0.2515 0.2922
vn 0.9228 -0.2517 0.2915
vn 0.9228 -0.2516 0.2919
vn -0.2164 -0.0638 0.9742
vn -0.2163 -0.0638 0.9742
vn -0.2731 0.2636 -0.9252
vt 0.181819 0.000000
vt 0.227273 0.078731
vt 0.136365 0.078731
vt 0.272728 0.157461
vt 0.318182 0.078731
vt 0.363637 0.157461
vt 0.909091 0.000000
vt 0.954545 0.078731
vt 0.863636 0.078731
vt 0.727273 0.000000
vt 0.772727 0.078731
vt 0.681818 0.078731
vt 0.545455 0.000000
vt 0.590909 0.078731
vt 0.500000 0.078731
vt 0.318182 0.236191
vt 0.090910 0.157461
vt 0.181819 0.157461
vt 0.136365 0.236191
vt 0.818182 0.157461
vt 0.909091 0.157461
vt 0.863636 0.236191
vt 0.636364 0.157461
vt 0.727273 0.157461
vt 0.681818 0.236191
vt 0.454546 0.157461
vt 0.545455 0.157461
vt 0.500000 0.236191
vt 0.227273 0.236191
vt 0.045455 0.236191
vt 0.772727 0.236191
vt 0.590909 0.236191
vt 0.409092 0.236191
vt 0.181819 0.314921
vt 0.272728 0.314921
vt 0.227273 0.393651
vt 0.000000 0.314921
vt 0.090910 0.314921
vt 0.045455 0.393651
vt 0.727273 0.314921
vt 0.818182 0.314921
vt 0.772727 0.393651
vt 0.545455 0.314921
vt 0.636364 0.314921
vt 0.590909 0.393651
vt 0.363637 0.314921
vt 0.454546 0.314921
vt 0.409092 0.393651
vt 0.500000 0.393651
vt 0.454546 0.472382
vt 0.681818 0.393651
vt 0.636364 0.472382
vt 0.863636 0.393651
vt 0.818182 0.472382
vt 0.909091 0.314921
vt 0.136365 0.393651
vt 0.090910 0.472382
vt 0.318182 0.393651
vt 0.272728 0.472382
vt 0.954545 0.236191
vt 1.000000 0.157461
vt 0.409092 0.078731
vt 0.363637 0.000000
vt 0.000000 0.000000
s 0
usemtl Material.002
f 1/1/1 14/2/1 13/3/1
f 2/4/2 14/5/2 16/6/2
f 1/7/3 13/8/3 18/9/3
f 1/10/4 18/11/4 20/12/4
f 1/13/5 20/14/5 17/15/5
f 2/4/6 16/6/6 23/16/6
f 3/17/7 15/18/7 25/19/7
f 4/20/8 19/21/8 27/22/8
f 5/23/9 21/24/9 29/25/9
f 6/26/10 22/27/10 31/28/10
f 2/4/11 23/16/11 26/29/11
f 3/17/12 25/19/12 28/30/12
f 4/20/13 27/22/13 30/31/13
f 5/23/14 29/25/14 32/32/14
f 6/26/15 31/28/15 24/33/15
f 7/34/16 33/35/16 38/36/16
f 8/37/17 34/38/17 40/39/17
f 9/40/18 35/41/18 41/42/18
f 10/43/19 36/44/19 42/45/19
f 11/46/20 37/47/20 39/48/20
f 39/48/21 42/49/21 12/50/21
f 39/48/22 37/47/22 42/49/22
f 37/47/23 10/43/23 42/49/23
f 42/45/24 41/51/24 12/52/24
f 42/45/25 36/44/25 41/51/25
f 36/44/26 9/40/26 41/51/26
f 41/42/27 40/53/27 12/54/27
f 41/42/28 35/41/28 40/53/28
f 35/41/29 8/55/29 40/53/29
f 40/39/30 38/56/30 12/57/30
f 40/39/31 34/38/31 38/56/31
f 34/38/32 7/34/32 38/56/32
f 38/36/33 39/58/33 12/59/33
f 38/36/34 33/35/34 39/58/34
f 33/35/35 11/46/35 39/58/35
f 24/33/36 37/47/36 11/46/36
f 24/33/37 31/28/37 37/47/37
f 31/28/38 10/43/38 37/47/38
f 32/32/39 36/44/39 10/43/39
f 32/32/40 29/25/40 36/44/40
f 29/25/41 9/40/41 36/44/41
f 30/31/42 35/41/42 9/40/42
f 30/31/43 27/22/43 35/41/43
f 27/22/44 8/55/44 35/41/44
f 28/30/45 34/38/45 8/37/45
f 28/30/46 25/19/46 34/38/46
f 25/19/47 7/34/47 34/38/47
f 26/29/48 33/35/48 7/34/48
f 26/29/49 23/16/49 33/35/49
f 23/16/50 11/46/50 33/35/50
f 31/28/51 32/32/51 10/43/51
f 31/28/52 22/27/52 32/32/52
f 22/27/53 5/23/53 32/32/53
f 29/25/54 30/31/54 9/40/54
f 29/25/55 21/24/55 30/31/55
f 21/24/56 4/20/56 30/31/56
f 27/22/57 28/60/57 8/55/57
f 27/22/58 19/21/58 28/60/58
f 19/21/59 3/61/59 28/60/59
f 25/19/60 26/29/60 7/34/60
f 25/19/61 15/18/61 26/29/61
f 15/18/62 2/4/62 26/29/62
f 23/16/63 24/33/63 11/46/63
f 23/16/64 16/6/64 24/33/64
f 16/6/65 6/26/65 24/33/65
f 17/15/66 22/27/66 6/26/66
f 17/15/67 20/14/67 22/27/67
f 20/14/68 5/23/68 22/27/68
f 20/12/69 21/24/69 5/23/69
f 20/12/70 18/11/70 21/24/70
f 18/11/71 4/20/71 21/24/71
f 18/9/72 19/21/72 4/20/72
f 18/9/73 13/8/73 19/21/73
f 13/8/74 3/61/74 19/21/74
f 16/6/75 17/62/75 6/26/75
f 16/6/76 14/5/76 17/62/76
f 14/5/77 1/63/77 17/62/77
f 13/3/78 15/18/78 3/17/78
f 13/3/79 14/2/79 15/18/79
f 14/2/80 2/4/80 15/18/80
s 1
usemtl None
f 45/64/81 49/64/81 53/64/82
f 45/64/81 53/64/82 57/64/81
f 56/64/83 52/64/84 61/64/83
f 56/64/83 61/64/83 65/64/85
f 66/64/86 62/64/87 68/64/87
f 66/64/86 68/64/87 72/64/86
f 73/64/88 70/64/89 48/64/88
f 73/64/88 48/64/88 43/64/90
f 77/64/91 79/64/91 85/64/92
f 77/64/91 85/64/92 89/64/91
f 67/64/93 59/64/94 91/64/95
f 67/64/93 91/64/95 95/64/96
f 94/64/97 90/64/97 98/64/98
f 94/64/97 98/64/98 102/64/97
f 54/64/99 50/64/100 108/64/99
f 54/64/99 108/64/99 112/64/101
f 47/64/102 69/64/103 96/64/102
f 47/64/102 96/64/102 106/64/104
f 60/64/105 51/64/106 110/64/107
f 60/64/105 110/64/107 92/64/108
f 114/64/109 104/64/110 122/64/109
f 114/64/109 122/64/109 124/64/109
f 113/64/111 109/64/111 117/64/111
f 113/64/111 117/64/111 130/64/111
f 107/64/112 97/64/112 105/64/112
f 107/64/112 105/64/112 116/64/112
f 93/64/113 111/64/114 127/64/113
f 93/64/113 127/64/113 99/64/113
f 101/64/115 128/64/116 131/64/115
f 101/64/115 131/64/115 137/64/115
f 103/64/117 100/64/118 136/64/119
f 103/64/117 136/64/119 118/64/120
f 129/64/121 115/64/122 125/64/123
f 129/64/121 125/64/123 134/64/123
f 147/64/124 74/64/125 44/64/126
f 147/64/124 44/64/126 150/64/127
f 155/64/128 63/64/129 71/64/129
f 155/64/128 71/64/129 145/64/130
f 158/64/131 55/64/132 64/64/133
f 158/64/131 64/64/133 156/64/134
f 151/64/135 46/64/135 58/64/135
f 151/64/135 58/64/135 161/64/135
f 163/64/136 167/64/137 88/64/138
f 163/64/136 88/64/138 84/64/137
f 169/64/139 165/64/140 173/64/141
f 169/64/139 173/64/141 176/64/142
f 168/64/143 164/64/144 182/64/144
f 168/64/143 182/64/144 175/64/143
f 172/64/145 76/64/145 87/64/145
f 172/64/145 87/64/145 166/64/146
f 184/64/147 178/64/148 174/64/149
f 184/64/147 174/64/149 180/64/150
f 189/64/151 187/64/152 183/64/151
f 189/64/151 183/64/151 193/64/153
f 81/64/154 152/64/155 197/64/156
f 81/64/154 197/64/156 190/64/157
f 159/64/158 157/64/159 199/64/160
f 159/64/158 199/64/160 201/64/161
f 148/64/162 160/64/163 204/64/164
f 148/64/162 204/64/164 196/64/162
f 162/64/165 83/64/165 192/64/165
f 162/64/165 192/64/165 181/64/166
f 86/64/167 82/64/167 191/64/168
f 86/64/167 191/64/168 194/64/167
f 195/64/169 203/64/170 186/64/170
f 195/64/169 186/64/170 188/64/169
f 202/64/171 200/64/171 179/64/172
f 202/64/171 179/64/172 185/64/172
f 154/64/173 144/64/173 75/64/174
f 154/64/173 75/64/174 171/64/173
f 153/64/175 170/64/176 177/64/177
f 153/64/175 177/64/177 198/64/178
f 146/64/179 149/64/180 80/64/181
f 146/64/179 80/64/181 78/64/181
f 123/64/182 121/64/183 207/64/183
f 123/64/182 207/64/183 209/64/183
f 214/64/184 220/64/184 224/64/184
f 214/64/184 224/64/184 227/64/185
f 232/64/186 234/64/186 238/64/187
f 232/64/186 238/64/187 244/64/186
f 210/64/188 208/64/189 219/64/190
f 210/64/188 219/64/190 213/64/191
f 243/64/192 237/64/193 246/64/194
f 243/64/192 246/64/194 252/64/195
f 256/64/196 258/64/197 262/64/198
f 256/64/196 262/64/198 268/64/196
f 272/64/199 276/64/200 281/64/199
f 272/64/199 281/64/199 286/64/201
f 225/64/202 223/64/203 275/64/204
f 225/64/202 275/64/204 269/64/205
f 251/64/206 245/64/207 257/64/207
f 251/64/206 257/64/207 255/64/207
f 289/64/208 291/64/208 295/64/209
f 289/64/208 295/64/209 301/64/210
f 267/64/211 261/64/212 292/64/213
f 267/64/211 292/64/213 290/64/214
s 0
f 133/64/215 306/64/215 141/64/215
f 307/64/216 119/64/216 139/64/216
s 1
f 313/64/217 318/64/217 321/64/218
f 313/64/217 321/64/218 323/64/219
f 327/64/220 333/64/221 311/64/222
f 333/64/221 316/64/223 311/64/222
f 325/64/224 322/64/225 337/64/224
f 325/64/224 337/64/224 338/64/226
f 302/64/227 296/64/228 340/64/228
f 302/64/227 340/64/228 346/64/229
s 0
f 347/64/230 341/64/230 348/64/230
f 347/64/230 348/64/230 351/64/230
f 336/64/231 319/64/231 356/64/231
f 336/64/231 356/64/231 353/64/231
s 1
f 320/64/232 317/64/233 361/64/232
f 320/64/232 361/64/232 357/64/234
f 360/64/235 315/64/236 332/64/237
f 332/64/237 364/64/238 369/64/237
f 332/64/237 369/64/237 360/64/235
f 342/64/239 298/64/240 314/64/241
f 342/64/239 314/64/241 324/64/242
f 349/64/243 343/64/244 326/64/245
f 349/64/243 326/64/245 339/64/246
f 297/64/247 293/64/248 329/64/247
f 297/64/247 329/64/247 312/64/249
f 294/64/250 264/64/251 285/64/252
f 294/64/250 285/64/252 331/64/250
f 280/64/253 273/64/254 372/64/255
f 280/64/253 372/64/255 377/64/256
f 217/64/257 205/64/257 380/64/257
f 217/64/257 380/64/257 384/64/257
f 274/64/258 222/64/258 389/64/259
f 274/64/258 389/64/259 373/64/259
f 221/64/260 218/64/261 385/64/262
f 221/64/260 385/64/262 388/64/263
f 263/64/264 259/64/265 270/64/264
f 263/64/264 270/64/264 284/64/266
f 239/64/267 236/64/267 212/64/268
f 239/64/267 212/64/268 215/64/267
f 248/64/269 240/64/270 216/64/271
f 248/64/269 216/64/271 228/64/270
f 260/64/272 247/64/273 226/64/272
f 260/64/272 226/64/272 271/64/274
f 235/64/275 135/64/276 126/64/277
f 235/64/275 126/64/277 211/64/278
f 376/64/279 368/64/280 363/64/279
f 376/64/279 363/64/279 279/64/281
f 392/64/282 394/64/283 398/64/284
f 392/64/282 398/64/284 404/64/285
f 406/64/286 402/64/287 410/64/286
f 406/64/286 410/64/286 414/64/288
f 419/64/289 391/64/289 403/64/289
f 419/64/289 403/64/289 407/64/289
f 397/64/290 426/64/290 430/64/290
f 397/64/290 430/64/290 401/64/291
f 365/64/292 335/64/293 425/64/294
f 365/64/292 425/64/294 396/64/295
f 282/64/296 277/64/297 390/64/296
f 282/64/296 390/64/296 418/64/298
f 278/64/299 362/64/300 395/64/299
f 278/64/299 395/64/299 393/64/301
f 409/64/302 428/64/302 424/64/302
f 409/64/302 424/64/302 421/64/302
f 413/64/303 432/64/303 436/64/304
f 413/64/303 436/64/304 442/64/305
f 400/64/306 429/64/307 445/64/306
f 400/64/306 445/64/306 433/64/308
f 405/64/309 399/64/309 431/64/310
f 405/64/309 431/64/310 412/64/309
f 427/64/311 408/64/311 416/64/312
f 427/64/311 416/64/312 443/64/311
f 447/64/313 451/64/314 455/64/313
f 447/64/313 455/64/313 458/64/315
f 415/64/316 411/64/317 440/64/318
f 415/64/316 440/64/318 462/64/318
f 444/64/319 417/64/320 463/64/319
f 444/64/319 463/64/319 465/64/319
f 434/64/321 446/64/321 468/64/321
f 434/64/321 468/64/321 438/64/322
f 328/64/323 283/64/324 420/64/325
f 328/64/323 420/64/325 422/64/326
s 0
f 423/64/327 334/64/327 330/64/327
s 1
f 457/64/328 470/64/329 472/64/330
f 457/64/328 472/64/330 459/64/331
f 476/64/332 450/64/333 460/64/332
f 476/64/332 460/64/332 473/64/334
f 482/64/335 478/64/335 474/64/335
f 482/64/335 474/64/335 471/64/336
f 453/64/337 479/64/337 469/64/338
f 453/64/337 469/64/338 456/64/338
f 441/64/339 435/64/340 480/64/341
f 441/64/339 480/64/341 454/64/341
f 437/64/342 467/64/343 477/64/342
f 437/64/342 477/64/342 481/64/342
f 466/64/344 464/64/345 449/64/344
f 466/64/344 449/64/344 475/64/344
f 461/64/346 439/64/347 452/64/347
f 461/64/346 452/64/347 448/64/348
f 231/64/349 305/64/349 132/64/350
f 231/64/349 132/64/350 233/64/349
f 206/64/351 120/64/351 309/64/351
f 206/64/351 309/64/351 381/64/351
f 484/64/352 488/64/352 492/64/352
f 484/64/352 492/64/352 496/64/352
f 489/64/353 500/64/354 504/64/355
f 489/64/353 504/64/355 493/64/353
f 499/64/356 509/64/356 513/64/357
f 499/64/356 513/64/357 503/64/357
f 508/64/358 486/64/359 497/64/358
f 508/64/358 497/64/358 511/64/360
f 516/64/361 519/64/361 523/64/362
f 516/64/361 523/64/362 529/64/361
f 514/64/363 532/64/364 536/64/365
f 514/64/363 536/64/365 506/64/366
f 533/64/367 541/64/367 545/64/367
f 533/64/367 545/64/367 537/64/367
f 491/64/368 547/64/369 551/64/368
f 491/64/368 551/64/368 495/64/370
f 498/64/371 553/64/372 531/64/371
f 498/64/371 531/64/371 512/64/373
f 505/64/374 535/64/375 549/64/376
f 505/64/374 549/64/376 494/64/377
f 557/64/378 560/64/378 562/64/378
f 557/64/378 562/64/378 539/64/379
f 546/64/380 567/64/380 554/64/380
f 546/64/380 554/64/380 550/64/380
f 552/64/381 555/64/381 538/64/381
f 552/64/381 538/64/381 530/64/381
f 534/64/382 544/64/382 570/64/382
f 534/64/382 570/64/382 548/64/383
f 542/64/384 142/64/384 575/64/384
f 542/64/384 575/64/384 569/64/385
f 540/64/386 566/64/387 143/64/388
f 540/64/386 143/64/388 543/64/389
f 568/64/390 572/64/391 559/64/390
f 568/64/390 559/64/390 556/64/390
f 576/64/392 582/64/393 485/64/394
f 576/64/392 485/64/394 507/64/395
f 587/64/396 578/64/397 510/64/398
f 587/64/396 510/64/398 502/64/398
f 593/64/399 586/64/399 501/64/400
f 593/64/399 501/64/400 490/64/400
f 581/64/401 590/64/401 487/64/401
f 581/64/401 487/64/401 483/64/401
f 595/64/402 524/64/403 520/64/403
f 595/64/402 520/64/403 598/64/403
f 604/64/404 608/64/405 611/64/406
f 604/64/404 611/64/406 600/64/404
f 597/64/407 609/64/408 613/64/408
f 597/64/407 613/64/408 594/64/408
f 601/64/409 599/64/410 521/64/409
f 601/64/409 521/64/409 517/64/409
f 619/64/411 615/64/412 610/64/413
f 619/64/411 610/64/413 606/64/414
f 622/64/415 625/64/416 612/64/415
f 622/64/415 612/64/415 616/64/417
f 527/64/418 621/64/419 627/64/420
f 527/64/418 627/64/420 580/64/421
f 592/64/422 633/64/423 635/64/424
f 592/64/422 635/64/424 585/64/425
f 584/64/426 628/64/426 630/64/427
f 584/64/426 630/64/427 591/64/428
f 596/64/429 614/64/430 626/64/429
f 596/64/429 626/64/429 525/64/429
f 522/64/431 624/64/432 620/64/431
f 522/64/431 620/64/431 526/64/432
f 629/64/433 623/64/433 617/64/434
f 629/64/433 617/64/434 631/64/434
f 632/64/435 618/64/436 605/64/436
f 632/64/435 605/64/436 634/64/435
f 588/64/437 602/64/437 518/64/438
f 588/64/437 518/64/438 579/64/437
f 589/64/439 636/64/440 607/64/441
f 589/64/439 607/64/441 603/64/442
f 577/64/443 515/64/444 528/64/444
f 577/64/443 528/64/444 583/64/445
f 561/64/446 640/64/446 642/64/446
f 561/64/446 642/64/446 563/64/446
f 647/64/447 650/64/448 653/64/449
f 647/64/447 653/64/449 657/64/449
f 229/64/450 241/64/451 663/64/452
f 229/64/450 663/64/452 667/64/451
f 639/64/453 648/64/454 658/64/455
f 639/64/453 658/64/455 641/64/456
f 242/64/457 249/64/458 671/64/459
f 242/64/457 671/64/459 664/64/460
f 253/64/461 265/64/461 675/64/462
f 253/64/461 675/64/462 679/64/463
f 681/64/464 685/64/465 690/64/464
f 681/64/464 690/64/464 695/64/466
f 652/64/467 684/64/468 696/64/468
f 652/64/467 696/64/468 654/64/467
f 250/64/469 254/64/470 680/64/470
f 250/64/469 680/64/470 672/64/470
f 288/64/471 300/64/472 702/64/471
f 288/64/471 702/64/471 706/64/471
f 266/64/473 287/64/474 705/64/475
f 266/64/473 705/64/475 676/64/476
s 0
f 573/64/477 138/64/477 303/64/477
f 310/64/478 140/64/478 565/64/478
s 1
f 708/64/479 714/64/480 716/64/481
f 708/64/479 716/64/481 719/64/482
f 727/64/483 710/64/484 730/64/485
f 710/64/484 721/64/486 730/64/485
f 712/64/487 733/64/488 734/64/487
f 712/64/487 734/64/487 715/64/489
f 299/64/490 345/64/491 739/64/492
f 299/64/490 739/64/492 701/64/492
f 344/64/493 350/64/493 741/64/493
s 0
f 344/64/493 741/64/493 738/64/493
f 735/64/494 352/64/494 355/64/494
f 735/64/494 355/64/494 718/64/494
s 1
f 717/64/495 354/64/496 358/64/495
f 717/64/495 358/64/495 720/64/497
f 731/64/498 722/64/499 359/64/500
f 359/64/500 366/64/501 743/64/502
f 359/64/500 743/64/502 731/64/498
f 737/64/503 713/64/504 707/64/505
f 737/64/503 707/64/505 699/64/506
f 740/64/507 732/64/508 711/64/509
f 740/64/507 711/64/509 736/64/510
f 700/64/511 709/64/512 725/64/511
f 700/64/511 725/64/511 704/64/513
f 703/64/514 723/64/515 686/64/515
f 703/64/514 686/64/515 673/64/516
f 691/64/517 374/64/518 371/64/519
f 691/64/517 371/64/519 698/64/520
f 660/64/521 383/64/521 379/64/521
f 660/64/521 379/64/521 644/64/521
f 697/64/522 370/64/523 386/64/522
f 697/64/522 386/64/522 655/64/522
f 656/64/524 387/64/525 382/64/526
f 656/64/524 382/64/526 659/64/527
f 674/64/528 687/64/529 683/64/528
f 674/64/528 683/64/528 678/64/530
f 662/64/531 646/64/531 637/64/532
f 662/64/531 637/64/532 665/64/533
f 669/64/534 649/64/535 645/64/536
f 669/64/534 645/64/536 661/64/535
f 677/64/537 682/64/538 651/64/537
f 677/64/537 651/64/537 670/64/539
f 666/64/540 638/64/541 558/64/542
f 666/64/540 558/64/542 571/64/541
f 375/64/543 692/64/544 744/64/543
f 375/64/543 744/64/543 367/64/545
f 747/64/546 751/64/547 757/64/548
f 747/64/546 757/64/548 761/64/549
f 765/64/550 769/64/551 773/64/550
f 765/64/550 773/64/550 753/64/552
f 776/64/553 764/64/553 752/64/553
f 776/64/553 752/64/553 748/64/553
f 758/64/554 754/64/554 778/64/554
f 758/64/554 778/64/554 782/64/554
f 742/64/555 759/64/556 783/64/556
f 742/64/555 783/64/556 728/64/557
f 689/64/558 777/64/559 749/64/558
f 689/64/558 749/64/558 694/64/560
f 693/64/561 746/64/562 760/64/561
f 693/64/561 760/64/561 745/64/563
f 762/64/564 774/64/564 784/64/564
f 762/64/564 784/64/564 780/64/564
f 770/64/565 787/64/566 793/64/567
f 770/64/565 793/64/567 797/64/565
f 755/64/568 796/64/569 800/64/568
f 755/64/568 800/64/568 779/64/570
f 750/64/571 771/64/571 798/64/571
f 750/64/571 798/64/571 756/64/571
f 781/64/572 802/64/572 767/64/573
f 781/64/572 767/64/573 763/64/572
f 806/64/574 809/64/575 812/64/574
f 806/64/574 812/64/574 816/64/574
f 768/64/576 819/64/577 789/64/577
f 768/64/576 789/64/577 772/64/578
f 801/64/579 824/64/579 818/64/579
f 801/64/579 818/64/579 766/64/580
f 795/64/581 791/64/582 821/64/581
f 795/64/581 821/64/581 799/64/581
f 726/64/583 786/64/584 775/64/585
f 726/64/583 775/64/585 688/64/586
s 0
f 785/64/587 724/64/587 729/64/587
s 1
f 810/64/588 808/64/589 827/64/589
f 810/64/588 827/64/589 829/64/588
f 833/64/590 826/64/591 807/64/590
f 833/64/590 807/64/590 803/64/592
f 835/64/593 828/64/594 825/64/593
f 835/64/593 825/64/593 831/64/593
f 814/64/595 811/64/596 830/64/596
f 814/64/595 830/64/596 838/64/595
f 788/64/597 813/64/598 837/64/599
f 788/64/597 837/64/599 794/64/600
f 792/64/601 836/64/601 832/64/601
f 792/64/601 832/64/601 822/64/602
f 823/64/603 834/64/603 804/64/603
f 823/64/603 804/64/603 817/64/604
f 820/64/605 805/64/606 815/64/607
f 820/64/605 815/64/607 790/64/607
f 230/64/608 668/64/609 574/64/609
f 230/64/608 574/64/609 304/64/608
f 643/64/610 378/64/610 308/64/610
f 643/64/610 308/64/610 564/64/610
o Icosphere.002
v 0.314496 1.817332 -0.115186
v 0.401329 1.883665 -0.052099
v 0.281330 1.883665 -0.013108
v 0.207165 1.883666 -0.115186
v 0.281330 1.883665 -0.217264
v 0.401329 1.883665 -0.178273
v 0.347663 1.990998 -0.013108
v 0.227663 1.990998 -0.052099
v 0.227663 1.990998 -0.178273
v 0.347663 1.990998 -0.217264
v 0.421827 1.990998 -0.115186
v 0.314496 2.057332 -0.115186
v 0.295001 1.835253 -0.055186
v 0.365535 1.835253 -0.078104
v 0.346040 1.874243 -0.018104
v 0.416574 1.874243 -0.115186
v 0.365535 1.835253 -0.152267
v 0.251409 1.835254 -0.115186
v 0.231913 1.874243 -0.055186
v 0.295001 1.835253 -0.175185
v 0.231913 1.874243 -0.175185
v 0.346040 1.874243 -0.212267
v 0.428623 1.937332 -0.078104
v 0.428623 1.937332 -0.152267
v 0.314496 1.937332 0.004814
v 0.385030 1.937332 -0.018104
v 0.200369 1.937332 -0.078104
v 0.243962 1.937332 -0.018104
v 0.243962 1.937332 -0.212268
v 0.200369 1.937332 -0.152267
v 0.385030 1.937332 -0.212268
v 0.314496 1.937332 -0.235186
v 0.397079 2.000420 -0.055186
v 0.282952 2.000420 -0.018104
v 0.212418 2.000420 -0.115186
v 0.282952 2.000420 -0.212267
v 0.397079 2.000420 -0.175185
v 0.333991 2.039410 -0.055186
v 0.377584 2.039410 -0.115186
v 0.263457 2.039410 -0.078104
v 0.263457 2.039410 -0.152267
v 0.333991 2.039410 -0.175185
vn 0.1024 -0.9435 0.3151
vn 0.7002 -0.6617 0.2680
vn -0.2680 -0.9435 0.1947
vn -0.2680 -0.9435 -0.1947
vn 0.1024 -0.9435 -0.3151
vn 0.9050 -0.3304 0.2680
vn 0.0247 -0.3304 0.9435
vn -0.8897 -0.3304 0.3151
vn -0.5746 -0.3304 -0.7488
vn 0.5346 -0.3304 -0.7779
vn 0.8026 -0.1256 0.5831
vn -0.3066 -0.1256 0.9435
vn -0.9921 -0.1256 -0.0000
vn -0.3066 -0.1256 -0.9435
vn 0.8026 -0.1256 -0.5831
vn 0.4089 0.6617 0.6284
vn -0.4713 0.6617 0.5831
vn -0.7002 0.6617 -0.2680
vn 0.0385 0.6617 -0.7488
vn 0.7240 0.6617 -0.1947
vn 0.2680 0.9435 -0.1947
vn 0.4911 0.7947 -0.3568
vn 0.4089 0.6617 -0.6284
vn -0.1024 0.9435 -0.3151
vn -0.1876 0.7947 -0.5773
vn -0.4713 0.6617 -0.5831
vn -0.3313 0.9435 -0.0000
vn -0.6071 0.7947 -0.0000
vn -0.7002 0.6617 0.2680
vn -0.1024 0.9435 0.3151
vn -0.1876 0.7947 0.5773
vn 0.0385 0.6617 0.7488
vn 0.2680 0.9435 0.1947
vn 0.4911 0.7947 0.3568
vn 0.7240 0.6617 0.1947
vn 0.8897 0.3304 -0.3151
vn 0.7947 0.1876 -0.5773
vn 0.5746 0.3304 -0.7488
vn -0.0247 0.3304 -0.9435
vn -0.3035 0.1876 -0.9342
vn -0.5346 0.3304 -0.7779
vn -0.9050 0.3304 -0.2680
vn -0.9822 0.1876 -0.0000
vn -0.9050 0.3304 0.2680
vn -0.5346 0.3304 0.7779
vn -0.3035 0.1876 0.9342
vn -0.0247 0.3304 0.9435
vn 0.5746 0.3304 0.7488
vn 0.7947 0.1876 0.5773
vn 0.8897 0.3304 0.3151
vn 0.3066 0.1256 -0.9435
vn 0.3035 -0.1876 -0.9342
vn 0.0247 -0.3304 -0.9435
vn -0.8026 0.1256 -0.5831
vn -0.7947 -0.1876 -0.5773
vn -0.8897 -0.3304 -0.3151
vn -0.8026 0.1256 0.5831
vn -0.7947 -0.1876 0.5773
vn -0.5746 -0.3304 0.7488
vn 0.3066 0.1256 0.9435
vn 0.3035 -0.1876 0.9342
vn 0.5346 -0.3304 0.7779
vn 0.9921 0.1256 -0.0000
vn 0.9822 -0.1876 -0.0000
vn 0.9050 -0.3304 -0.2680
vn 0.4713 -0.6617 -0.5831
vn 0.1876 -0.7947 -0.5773
vn -0.0385 -0.6617 -0.7488
vn -0.4089 -0.6617 -0.6284
vn -0.4911 -0.7947 -0.3568
vn -0.7240 -0.6617 -0.1947
vn -0.7240 -0.6617 0.1947
vn -0.4911 -0.7947 0.3568
vn -0.4089 -0.6617 0.6284
vn 0.7002 -0.6617 -0.2680
vn 0.6071 -0.7947 -0.0000
vn 0.3313 -0.9435 -0.0000
vn -0.0385 -0.6617 0.7488
vn 0.1876 -0.7947 0.5773
vn 0.4713 -0.6617 0.5831
vt 0.181819 0.000000
vt 0.227273 0.078731
vt 0.136365 0.078731
vt 0.272728 0.157461
vt 0.318182 0.078731
vt 0.363637 0.157461
vt 0.909091 0.000000
vt 0.954545 0.078731
vt 0.863636 0.078731
vt 0.727273 0.000000
vt 0.772727 0.078731
vt 0.681818 0.078731
vt 0.545455 0.000000
vt 0.590909 0.078731
vt 0.500000 0.078731
vt 0.318182 0.236191
vt 0.090910 0.157461
vt 0.181819 0.157461
vt 0.136365 0.236191
vt 0.818182 0.157461
vt 0.909091 0.157461
vt 0.863636 0.236191
vt 0.636364 0.157461
vt 0.727273 0.157461
vt 0.681818 0.236191
vt 0.454546 0.157461
vt 0.545455 0.157461
vt 0.500000 0.236191
vt 0.227273 0.236191
vt 0.045455 0.236191
vt 0.772727 0.236191
vt 0.590909 0.236191
vt 0.409092 0.236191
vt 0.181819 0.314921
vt 0.272728 0.314921
vt 0.227273 0.393651
vt 0.000000 0.314921
vt 0.090910 0.314921
vt 0.045455 0.393651
vt 0.727273 0.314921
vt 0.818182 0.314921
vt 0.772727 0.393651
vt 0.545455 0.314921
vt 0.636364 0.314921
vt 0.590909 0.393651
vt 0.363637 0.314921
vt 0.454546 0.314921
vt 0.409092 0.393651
vt 0.500000 0.393651
vt 0.454546 0.472382
vt 0.681818 0.393651
vt 0.636364 0.472382
vt 0.863636 0.393651
vt 0.818182 0.472382
vt 0.909091 0.314921
vt 0.136365 0.393651
vt 0.090910 0.472382
vt 0.318182 0.393651
vt 0.272728 0.472382
vt 0.954545 0.236191
vt 1.000000 0.157461
vt 0.409092 0.078731
vt 0.363637 0.000000
s 0
usemtl Material.003
f 839/65/611 852/66/611 851/67/611
f 840/68/612 852/69/612 854/70/612
f 839/71/613 851/72/613 856/73/613
f 839/74/614 856/75/614 858/76/614
f 839/77/615 858/78/615 855/79/615
f 840/68/616 854/70/616 861/80/616
f 841/81/617 853/82/617 863/83/617
f 842/84/618 857/85/618 865/86/618
f 843/87/619 859/88/619 867/89/619
f 844/90/620 860/91/620 869/92/620
f 840/68/621 861/80/621 864/93/621
f 841/81/622 863/83/622 866/94/622
f 842/84/623 865/86/623 868/95/623
f 843/87/624 867/89/624 870/96/624
f 844/90/625 869/92/625 862/97/625
f 845/98/626 871/99/626 876/100/626
f 846/101/627 872/102/627 878/103/627
f 847/104/628 873/105/628 879/106/628
f 848/107/629 874/108/629 880/109/629
f 849/110/630 875/111/630 877/112/630
f 877/112/631 880/113/631 850/114/631
f 877/112/632 875/111/632 880/113/632
f 875/111/633 848/107/633 880/113/633
f 880/109/634 879/115/634 850/116/634
f 880/109/635 874/108/635 879/115/635
f 874/108/636 847/104/636 879/115/636
f 879/106/637 878/117/637 850/118/637
f 879/106/638 873/105/638 878/117/638
f 873/105/639 846/119/639 878/117/639
f 878/103/640 876/120/640 850/121/640
f 878/103/641 872/102/641 876/120/641
f 872/102/642 845/98/642 876/120/642
f 876/100/643 877/122/643 850/123/643
f 876/100/644 871/99/644 877/122/644
f 871/99/645 849/110/645 877/122/645
f 862/97/646 875/111/646 849/110/646
f 862/97/647 869/92/647 875/111/647
f 869/92/648 848/107/648 875/111/648
f 870/96/649 874/108/649 848/107/649
f 870/96/650 867/89/650 874/108/650
f 867/89/651 847/104/651 874/108/651
f 868/95/652 873/105/652 847/104/652
f 868/95/653 865/86/653 873/105/653
f 865/86/654 846/119/654 873/105/654
f 866/94/655 872/102/655 846/101/655
f 866/94/656 863/83/656 872/102/656
f 863/83/657 845/98/657 872/102/657
f 864/93/658 871/99/658 845/98/658
f 864/93/659 861/80/659 871/99/659
f 861/80/660 849/110/660 871/99/660
f 869/92/661 870/96/661 848/107/661
f 869/92/662 860/91/662 870/96/662
f 860/91/663 843/87/663 870/96/663
f 867/89/664 868/95/664 847/104/664
f 867/89/665 859/88/665 868/95/665
f 859/88/666 842/84/666 868/95/666
f 865/86/667 866/124/667 846/119/667
f 865/86/668 857/85/668 866/124/668
f 857/85/669 841/125/669 866/124/669
f 863/83/670 864/93/670 845/98/670
f 863/83/671 853/82/671 864/93/671
f 853/82/672 840/68/672 864/93/672
f 861/80/673 862/97/673 849/110/673
f 861/80/674 854/70/674 862/97/674
f 854/70/675 844/90/675 862/97/675
f 855/79/676 860/91/676 844/90/676
f 855/79/677 858/78/677 860/91/677
f 858/78/678 843/87/678 860/91/678
f 858/76/679 859/88/679 843/87/679
f 858/76/680 856/75/680 859/88/680
f 856/75/681 842/84/681 859/88/681
f 856/73/682 857/85/682 842/84/682
f 856/73/683 851/72/683 857/85/683
f 851/72/684 841/125/684 857/85/684
f 854/70/685 855/126/685 844/90/685
f 854/70/686 852/69/686 855/126/686
f 852/69/687 839/127/687 855/126/687
f 851/67/688 853/82/688 841/81/688
f 851/67/689 852/66/689 853/82/689
f 852/66/690 840/68/690 853/82/690
