{
	"asset":{
		"generator":"Khronos glTF Blender I/O v4.5.48",
		"version":"2.0"
	},
	"scene":0,
	"scenes":[
		{
			"name":"Scene",
			"nodes":[
				3,
				4
			]
		}
	],
	"nodes":[
		{
			"name":"BASE_Low_Poly_Man_Cube.001_0",
			"rotation":[
				0.70710688829422,
				0,
				0,
				0.7071066498756409
			]
		},
		{
			"children":[
				0
			],
			"name":"GLTF_SceneRootNode",
			"rotation":[
				0.70710688829422,
				0,
				0,
				0.7071066498756409
			]
		},
		{
			"children":[
				1
			],
			"name":"root"
		},
		{
			"children":[
				2
			],
			"name":"body",
			"rotation":[
				-0.70710688829422,
				0,
				0,
				0.7071066498756409
			]
		},
		{
			"mesh":0,
			"name":"Icosphere",
			"rotation":[
				0.07434582710266113,
				0,
				0,
				0.9972325563430786
			],
			"scale":[
				3.0025110244750977,
				3.002511501312256,
				3.002511501312256
			],
			"translation":[
				0,
				1.4946881532669067,
				0.14434660971164703
			]
		}
	],
	"materials":[
		{
			"doubleSided":true,
			"name":"Material.004",
			"pbrMetallicRoughness":{
				"baseColorFactor":[
					0.8005450963973999,
					0.7867882251739502,
					0,
					1
				],
				"metallicFactor":0,
				"roughnessFactor":0.5
			}
		},
		{
			"doubleSided":true,
			"name":"None.001",
			"pbrMetallicRoughness":{
				"baseColorFactor":[
					0.8007591962814331,
					0.3181471824645996,
					0,
					1
				],
				"metallicFactor":0,
				"roughnessFactor":0.2546440064907074
			}
		}
	],
	"meshes":[
		{
			"name":"Icosphere.003",
			"primitives":[
				{
					"attributes":{
						"POSITION":0,
						"NORMAL":1,
						"TEXCOORD_0":2
					},
					"indices":3,
					"material":0
				},
				{
					"attributes":{
						"POSITION":4,
						"NORMAL":5,
						"TEXCOORD_0":6
					},
					"indices":7,
					"material":1
				}
			]
		}
	],
	"accessors":[
		{
			"bufferView":0,
			"componentType":5126,
			"count":240,
			"max":[
				0.11412696540355682,
				0.12000000476837158,
				0.12000000476837158
			],
			"min":[
				-0.11412696540355682,
				-0.12000000476837158,
				-0.12000000476837158
			],
			"type":"VEC3"
		},
		{
			"bufferView":1,
			"componentType":5126,
			"count":240,
			"type":"VEC3"
		},
		{
			"bufferView":2,
			"componentType":5126,
			"count":240,
			"type":"VEC2"
		},
		{
			"bufferView":3,
			"componentType":5123,
			"count":240,
			"type":"SCALAR"
		},
		{
			"bufferView":4,
			"componentType":5126,
			"count":800,
			"max":[
				0.17166513204574585,
				-0.09967419505119324,
				0.12465998530387878
			],
			"min":[
				-0.17166513204574585,
				-0.5028882026672363,
				-0.04397274926304817
			],
			"type":"VEC3"
		},
		{
			"bufferView":5,
			"componentType":5126,
			"count":800,
			"type":"VEC3"
		},
		{
			"bufferView":6,
			"componentType":5126,
			"count":800,
			"type":"VEC2"
		},
		{
			"bufferView":7,
			"componentType":5123,
			"count":1188,
			"type":"SCALAR"
		}
	],
	"bufferViews":[
		{
			"buffer":0,
			"byteLength":2880,
			"byteOffset":0,
			"target":34962
		},
		{
			"buffer":0,
			"byteLength":2880,
			"byteOffset":2880,
			"target":34962
		},
		{
			"buffer":0,
			"byteLength":1920,
			"byteOffset":5760,
			"target":34962
		},
		{
			"buffer":0,
			"byteLength":480,
			"byteOffset":7680,
			"target":34963
		},
		{
			"buffer":0,
			"byteLength":9600,
			"byteOffset":8160,
			"target":34962
		},
		{
			"buffer":0,
			"byteLength":9600,
			"byteOffset":17760,
			"target":34962
		},
		{
			"buffer":0,
			"byteLength":6400,
			"byteOffset":27360,
			"target":34962
		},
		{
			"buffer":0,
			"byteLength":2376,
			"byteOffset":33760,
			"target":34963
		}
	],
	"buffers":[
		{
			"byteLength":36136,
			"uri":"sonce-proto.bin"
		}
	]
}
