{
	"asset":{
		"generator":"Khronos glTF Blender I/O v4.5.48",
		"version":"2.0"
	},
	"scene":0,
	"scenes":[
		{
			"name":"Scene",
			"nodes":[
				2,
				3,
				4
			]
		}
	],
	"nodes":[
		{
			"name":"BASE_Low_Poly_Man_Cube.001_0",
			"rotation":[
				0.70710688829422,
				0,
				0,
				0.7071066498756409
			]
		},
		{
			"children":[
				0
			],
			"name":"GLTF_SceneRootNode",
			"rotation":[
				0.70710688829422,
				0,
				0,
				0.7071066498756409
			]
		},
		{
			"children":[
				1
			],
			"name":"root"
		},
		{
			"mesh":0,
			"name":"Icosphere.001",
			"rotation":[
				0.09758898615837097,
				0,
				0,
				0.9952268004417419
			],
			"scale":[
				1.9474092721939087,
				1.9474092721939087,
				1.9474092721939087
			],
			"translation":[
				0,
				1.6350969076156616,
				0.12756666541099548
			]
		},
		{
			"mesh":1,
			"name":"Icosphere.002",
			"translation":[
				0.31449612975120544,
				1.9373317956924438,
				-0.11518571525812149
			]
		}
	],
	"materials":[
		{
			"doubleSided":true,
			"name":"Material.002",
			"pbrMetallicRoughness":{
				"baseColorFactor":[
					0.10017392039299011,
					0.2572917640209198,
					0.8005210161209106,
					1
				],
				"metallicFactor":0,
				"roughnessFactor":0.5
			}
		},
		{
			"doubleSided":true,
			"name":"None",
			"pbrMetallicRoughness":{
				"baseColorFactor":[
					0.07286415249109268,
					0.2086528241634369,
					0.8002121448516846,
					1
				],
				"metallicFactor":0,
				"roughnessFactor":0.2546440064907074
			}
		},
		{
			"doubleSided":true,
			"name":"Material.003",
			"pbrMetallicRoughness":{
				"baseColorFactor":[
					0.20357584953308105,
					0.19585910439491272,
					0.20712262392044067,
					1
				],
				"metallicFactor":0,
				"roughnessFactor":0.5
			}
		}
	],
	"meshes":[
		{
			"name":"Icosphere.001",
			"primitives":[
				{
					"attributes":{
						"POSITION":0,
						"NORMAL":1,
						"TEXCOORD_0":2
					},
					"indices":3,
					"material":0
				},
				{
					"attributes":{
						"POSITION":4,
						"NORMAL":5,
						"TEXCOORD_0":6
					},
					"indices":7,
					"material":1
				}
			]
		},
		{
			"name":"Icosphere.002",
			"primitives":[
				{
					"attributes":{
						"POSITION":8,
						"NORMAL":9,
						"TEXCOORD_0":10
					},
					"indices":3,
					"material":2
				}
			]
		}
	],
	"accessors":[
		{
			"bufferView":0,
			"componentType":5126,
			"count":240,
			"max":[
				0.11412696540355682,
				0.12000000476837158,
				0.12000000476837158
			],
			"min":[
				-0.11412696540355682,
				-0.12000000476837158,
				-0.12000000476837158
			],
			"type":"VEC3"
		},
		{
			"bufferView":1,
			"componentType":5126,
			"count":240,
			"type":"VEC3"
		},
		{
			"bufferView":2,
			"componentType":5126,
			"count":240,
			"type":"VEC2"
		},
		{
			"bufferView":3,
			"componentType":5123,
			"count":240,
			"type":"SCALAR"
		},
		{
			"bufferView":4,
			"componentType":5126,
			"count":796,
			"max":[
				0.24793964624404907,
				-0.1062379851937294,
				0.20999471843242645
			],
			"min":[
				-0.24793967604637146,
				-0.8422890305519104,
				-0.05217491090297699
			],
			"type":"VEC3"
		},
		{
			"bufferView":5,
			"componentType":5126,
			"count":796,
			"type":"VEC3"
		},
		{
			"bufferView":6,
			"componentType":5126,
			"count":796,
			"type":"VEC2"
		},
		{
			"bufferView":7,
			"componentType":5123,
			"count":1188,
			"type":"SCALAR"
		},
		{
			"bufferView":8,
			"componentType":5126,
			"count":240,
			"max":[
				0.11412696540355682,
				0.12000000476837158,
				0.12000000476837158
			],
			"min":[
				-0.11412696540355682,
				-0.12000000476837158,
				-0.12000000476837158
			],
			"type":"VEC3"
		},
		{
			"bufferView":9,
			"componentType":5126,
			"count":240,
			"type":"VEC3"
		},
		{
			"bufferView":10,
			"componentType":5126,
			"count":240,
			"type":"VEC2"
		}
	],
	"bufferViews":[
		{
			"buffer":0,
			"byteLength":2880,
			"byteOffset":0,
			"target":34962
		},
		{
			"buffer":0,
			"byteLength":2880,
			"byteOffset":2880,
			"target":34962
		},
		{
			"buffer":0,
			"byteLength":1920,
			"byteOffset":5760,
			"target":34962
		},
		{
			"buffer":0,
			"byteLength":480,
			"byteOffset":7680,
			"target":34963
		},
		{
			"buffer":0,
			"byteLength":9552,
			"byteOffset":8160,
			"target":34962
		},
		{
			"buffer":0,
			"byteLength":9552,
			"byteOffset":17712,
			"target":34962
		},
		{
			"buffer":0,
			"byteLength":6368,
			"byteOffset":27264,
			"target":34962
		},
		{
			"buffer":0,
			"byteLength":2376,
			"byteOffset":33632,
			"target":34963
		},
		{
			"buffer":0,
			"byteLength":2880,
			"byteOffset":36008,
			"target":34962
		},
		{
			"buffer":0,
			"byteLength":2880,
			"byteOffset":38888,
			"target":34962
		},
		{
			"buffer":0,
			"byteLength":1920,
			"byteOffset":41768,
			"target":34962
		}
	],
	"buffers":[
		{
			"byteLength":43688,
			"uri":"zemlja-proto.bin"
		}
	]
}
