{
	"asset":{
		"generator":"Khronos glTF Blender I/O v5.0.21",
		"version":"2.0"
	},
	"scene":0,
	"scenes":[
		{
			"name":"Scene",
			"nodes":[
				2,
				38
			]
		}
	],
	"nodes":[
		{
			"name":"BASE_Low_Poly_Man_Cube.001_0",
			"rotation":[
				0.70710688829422,
				0,
				0,
				0.7071066498756409
			]
		},
		{
			"children":[
				0
			],
			"name":"GLTF_SceneRootNode",
			"rotation":[
				0.70710688829422,
				0,
				0,
				0.7071066498756409
			]
		},
		{
			"children":[
				1
			],
			"name":"root"
		},
		{
			"name":"mixamorig:HeadTop_End",
			"rotation":[
				-2.117582368135751e-22,
				0,
				0,
				1
			],
			"scale":[
				1,
				1.0000001192092896,
				1
			],
			"translation":[
				0,
				40.07148361206055,
				13.955284118652344
			]
		},
		{
			"children":[
				3
			],
			"name":"mixamorig:Head",
			"rotation":[
				-5.618841836252386e-09,
				0,
				0,
				1
			],
			"scale":[
				1,
				1.0000001192092896,
				1
			],
			"translation":[
				0,
				8.246321678161621,
				2.871860980987549
			]
		},
		{
			"children":[
				4
			],
			"name":"mixamorig:Neck",
			"rotation":[
				0.061160583049058914,
				0,
				0,
				0.9981279969215393
			],
			"scale":[
				1,
				0.9999999403953552,
				0.9999999403953552
			],
			"translation":[
				2.2737367544323206e-13,
				14.023544311523438,
				-2.1457672119140625e-06
			]
		},
		{
			"name":"mixamorig:LeftHandIndex4",
			"rotation":[
				-3.725290742551124e-09,
				-5.587935891782081e-09,
				1.3969839507410597e-08,
				1
			],
			"scale":[
				1,
				0.9999999403953552,
				0.9999999403953552
			],
			"translation":[
				-0.8070297241210938,
				1.7994422912597656,
				-0.4148750305175781
			]
		},
		{
			"children":[
				6
			],
			"name":"mixamorig:LeftHandIndex3",
			"rotation":[
				-4.4889756622978894e-07,
				2.0675365419720038e-07,
				6.286427947088669e-07,
				1
			],
			"scale":[
				0.9999998807907104,
				0.9999998807907104,
				0.9999997615814209
			],
			"translation":[
				0.0178985595703125,
				3.683558464050293,
				-0.13343048095703125
			]
		},
		{
			"children":[
				7
			],
			"name":"mixamorig:LeftHandIndex2",
			"rotation":[
				4.8428768195663e-07,
				7.078050856534901e-08,
				-5.988403586343338e-07,
				1
			],
			"scale":[
				1.0000001192092896,
				1.0000001192092896,
				1.0000001192092896
			],
			"translation":[
				6.67572021484375e-06,
				2.319761276245117,
				1.430511474609375e-06
			]
		},
		{
			"children":[
				8
			],
			"name":"mixamorig:LeftHandIndex1",
			"rotation":[
				0.16468892991542816,
				-0.010570003651082516,
				-0.06316804140806198,
				0.9842640161514282
			],
			"scale":[
				1.0000001192092896,
				1.0000001192092896,
				0.9999999403953552
			],
			"translation":[
				0,
				5.223123550415039,
				2.384185791015625e-07
			]
		},
		{
			"children":[
				9
			],
			"name":"mixamorig:LeftHand",
			"rotation":[
				-0.03578140214085579,
				-0.0012209953274577856,
				0.03407895937561989,
				0.9987776279449463
			],
			"scale":[
				0.9999998807907104,
				1,
				0.9999998807907104
			],
			"translation":[
				-9.5367431640625e-07,
				30.770315170288086,
				-2.1457672119140625e-06
			]
		},
		{
			"children":[
				10
			],
			"name":"mixamorig:LeftForeArm",
			"rotation":[
				0.007732131984084845,
				0.027383260428905487,
				0.2716323733329773,
				0.961980402469635
			],
			"scale":[
				0.9999999403953552,
				0.9999998211860657,
				0.9999998211860657
			],
			"translation":[
				-3.933906555175781e-06,
				27.98671531677246,
				1.1101365089416504e-05
			]
		},
		{
			"children":[
				11
			],
			"name":"mixamorig:LeftArm",
			"rotation":[
				0.32565635442733765,
				0.07642218470573425,
				-0.026419002562761307,
				0.9420242309570312
			],
			"scale":[
				0.9999998807907104,
				1,
				1
			],
			"translation":[
				3.814697265625e-06,
				11.012123107910156,
				4.172325134277344e-07
			]
		},
		{
			"children":[
				12
			],
			"name":"mixamorig:LeftShoulder",
			"rotation":[
				0.5664880275726318,
				0.413991779088974,
				-0.5923466682434082,
				0.39601460099220276
			],
			"scale":[
				0.9999999403953552,
				1,
				0.9999998807907104
			],
			"translation":[
				5.151220798492432,
				12.124249458312988,
				-0.23096895217895508
			]
		},
		{
			"name":"mixamorig:RightHandIndex4",
			"rotation":[
				1.3038517820973539e-08,
				5.029142258194952e-08,
				4.6566128730773926e-09,
				1
			],
			"scale":[
				1,
				0.9999999403953552,
				0.9999999403953552
			],
			"translation":[
				0.6908550262451172,
				1.7910337448120117,
				-0.5437345504760742
			]
		},
		{
			"children":[
				14
			],
			"name":"mixamorig:RightHandIndex3",
			"rotation":[
				-1.0598450899124146e-06,
				3.935769200325012e-06,
				8.102506399154663e-08,
				1
			],
			"scale":[
				0.9999999403953552,
				1,
				1
			],
			"translation":[
				0.06207275390625,
				3.8378677368164062,
				0.0665898323059082
			]
		},
		{
			"children":[
				15
			],
			"name":"mixamorig:RightHandIndex2",
			"rotation":[
				3.693625330924988e-06,
				-1.6139820218086243e-05,
				-1.119449848374643e-06,
				1
			],
			"scale":[
				0.9999998807907104,
				0.9999999403953552,
				1.0000001192092896
			],
			"translation":[
				-1.9073486328125e-06,
				2.2994532585144043,
				7.62939453125e-06
			]
		},
		{
			"children":[
				16
			],
			"name":"mixamorig:RightHandIndex1",
			"rotation":[
				0.17080484330654144,
				0.019561655819416046,
				0.11201725900173187,
				0.9787212014198303
			],
			"scale":[
				1.0000001192092896,
				1.0000001192092896,
				1
			],
			"translation":[
				7.62939453125e-06,
				5.301299095153809,
				-2.86102294921875e-06
			]
		},
		{
			"children":[
				17
			],
			"name":"mixamorig:RightHand",
			"rotation":[
				-0.037237294018268585,
				0.0014838437782600522,
				-0.03979760780930519,
				0.9985125660896301
			],
			"scale":[
				0.9999998807907104,
				0.9999998807907104,
				0.9999998807907104
			],
			"translation":[
				-2.86102294921875e-06,
				30.775737762451172,
				3.933906555175781e-06
			]
		},
		{
			"children":[
				18
			],
			"name":"mixamorig:RightForeArm",
			"rotation":[
				0.007590081077069044,
				-0.026764780282974243,
				-0.2727263271808624,
				0.9616893529891968
			],
			"scale":[
				1,
				0.9999998807907104,
				0.9999999403953552
			],
			"translation":[
				3.2782554626464844e-07,
				27.98781967163086,
				1.341104507446289e-06
			]
		},
		{
			"children":[
				19
			],
			"name":"mixamorig:RightArm",
			"rotation":[
				0.32563450932502747,
				-0.07751265913248062,
				0.026796899735927582,
				0.9419320225715637
			],
			"scale":[
				0.9999998807907104,
				1,
				0.9999999403953552
			],
			"translation":[
				-7.152557373046875e-07,
				11.012123107910156,
				-1.2218952178955078e-06
			]
		},
		{
			"children":[
				20
			],
			"name":"mixamorig:RightShoulder",
			"rotation":[
				0.566162109375,
				-0.4142298102378845,
				0.592608630657196,
				0.3958400785923004
			],
			"scale":[
				0.9999997019767761,
				0.9999997615814209,
				0.9999998211860657
			],
			"translation":[
				-5.151220798492432,
				12.124896049499512,
				-0.23622679710388184
			]
		},
		{
			"children":[
				5,
				13,
				21
			],
			"name":"mixamorig:Spine2",
			"rotation":[
				1.8440186977386475e-07,
				0,
				0,
				1
			],
			"translation":[
				2.2737367544323206e-13,
				12.465378761291504,
				4.76837158203125e-07
			]
		},
		{
			"children":[
				22
			],
			"name":"mixamorig:Spine1",
			"rotation":[
				-1.471489667892456e-07,
				0,
				0,
				1
			],
			"translation":[
				2.2737367544323206e-13,
				10.907218933105469,
				2.384185791015625e-06
			]
		},
		{
			"children":[
				23
			],
			"name":"mixamorig:Spine",
			"rotation":[
				-0.0611606240272522,
				0,
				0,
				0.9981279969215393
			],
			"scale":[
				1,
				0.9999998807907104,
				1
			],
			"translation":[
				-2.2737367544323206e-13,
				9.279105186462402,
				-1.141445279121399
			]
		},
		{
			"name":"mixamorig:LeftToe_End",
			"rotation":[
				2.5203918951888227e-08,
				-3.005334292538464e-07,
				1.603330161970007e-07,
				1
			],
			"scale":[
				0.9999999403953552,
				0.9999999403953552,
				1
			],
			"translation":[
				3.8370490074157715e-07,
				5.786299228668213,
				-7.897615432739258e-07
			]
		},
		{
			"children":[
				25
			],
			"name":"mixamorig:LeftToeBase",
			"rotation":[
				0.3259066343307495,
				-0.044600341469049454,
				0.015394201502203941,
				0.9442238807678223
			],
			"translation":[
				-4.075467586517334e-06,
				16.23103904724121,
				5.662441253662109e-07
			]
		},
		{
			"children":[
				26
			],
			"name":"mixamorig:LeftFoot",
			"rotation":[
				0.4683729410171509,
				-0.012826903723180294,
				0.006800714880228043,
				0.8834115862846375
			],
			"scale":[
				0.9999999403953552,
				1.0000001192092896,
				1.0000001192092896
			],
			"translation":[
				3.1031668186187744e-06,
				36.07756805419922,
				-5.75091689825058e-07
			]
		},
		{
			"children":[
				27
			],
			"name":"mixamorig:LeftLeg",
			"rotation":[
				-0.000565779977478087,
				2.5371362426085398e-05,
				-0.0440034344792366,
				0.9990312457084656
			],
			"scale":[
				0.9999999403953552,
				0.9999999403953552,
				0.9999998211860657
			],
			"translation":[
				4.0978193283081055e-07,
				41.756858825683594,
				2.171254891436547e-07
			]
		},
		{
			"children":[
				28
			],
			"name":"mixamorig:LeftUpLeg",
			"rotation":[
				0.005023842677474022,
				0.03754886984825134,
				-0.9904524683952332,
				0.1325470358133316
			],
			"scale":[
				0.9999971985816956,
				0.9999999403953552,
				0.9999997019767761
			],
			"translation":[
				8.866194725036621,
				-5.151611804962158,
				-0.2509157955646515
			]
		},
		{
			"name":"mixamorig:RightToe_End",
			"rotation":[
				-3.766035661101341e-08,
				1.18525349535048e-08,
				8.629285730421543e-09,
				1
			],
			"translation":[
				2.078711986541748e-06,
				5.7820611000061035,
				-5.960464477539063e-08
			]
		},
		{
			"children":[
				30
			],
			"name":"mixamorig:RightToeBase",
			"rotation":[
				0.3271254897117615,
				0.04446503892540932,
				-0.015411763451993465,
				0.943808376789093
			],
			"scale":[
				0.9999999403953552,
				1,
				1
			],
			"translation":[
				-1.2516975402832031e-06,
				16.17818832397461,
				-3.8743019104003906e-07
			]
		},
		{
			"children":[
				31
			],
			"name":"mixamorig:RightFoot",
			"rotation":[
				0.4696556031703949,
				0.012381002306938171,
				-0.006587324198335409,
				0.8827383518218994
			],
			"scale":[
				1.0000001192092896,
				1,
				1
			],
			"translation":[
				-8.530914783477783e-07,
				36.093177795410156,
				-6.258487701416016e-07
			]
		},
		{
			"children":[
				32
			],
			"name":"mixamorig:RightLeg",
			"rotation":[
				-0.00637549115344882,
				-0.0002823481918312609,
				0.04408351704478264,
				0.9990074634552002
			],
			"scale":[
				0.9999999403953552,
				1,
				0.9999998807907104
			],
			"translation":[
				5.4836273193359375e-06,
				41.74033737182617,
				-2.926475417552865e-07
			]
		},
		{
			"children":[
				33
			],
			"name":"mixamorig:RightUpLeg",
			"rotation":[
				0.004641347099095583,
				-0.03466758877038956,
				0.9905503988265991,
				0.13261421024799347
			],
			"scale":[
				0.9999992847442627,
				1,
				0.9999999403953552
			],
			"translation":[
				-8.866194725036621,
				-5.151611804962158,
				-0.2715952694416046
			]
		},
		{
			"children":[
				24,
				29,
				34
			],
			"name":"mixamorig:Hips",
			"rotation":[
				-0.7071067690849304,
				0,
				0,
				0.7071067690849304
			],
			"translation":[
				-3.1789140848559327e-06,
				9.006712913513184,
				-90.15689849853516
			]
		},
		{
			"mesh":0,
			"name":"earth",
			"skin":0
		},
		{
			"mesh":1,
			"name":"Icosphere.002",
			"skin":0
		},
		{
			"children":[
				36,
				37,
				35
			],
			"name":"Armature",
			"rotation":[
				0.7071068286895752,
				0,
				0,
				0.7071068286895752
			],
			"scale":[
				0.009999999776482582,
				0.009999999776482582,
				0.009999999776482582
			]
		}
	],
	"animations":[
		{
			"channels":[
				{
					"sampler":0,
					"target":{
						"node":35,
						"path":"translation"
					}
				},
				{
					"sampler":1,
					"target":{
						"node":35,
						"path":"rotation"
					}
				},
				{
					"sampler":2,
					"target":{
						"node":35,
						"path":"scale"
					}
				},
				{
					"sampler":3,
					"target":{
						"node":24,
						"path":"translation"
					}
				},
				{
					"sampler":4,
					"target":{
						"node":24,
						"path":"rotation"
					}
				},
				{
					"sampler":5,
					"target":{
						"node":24,
						"path":"scale"
					}
				},
				{
					"sampler":6,
					"target":{
						"node":23,
						"path":"translation"
					}
				},
				{
					"sampler":7,
					"target":{
						"node":23,
						"path":"rotation"
					}
				},
				{
					"sampler":8,
					"target":{
						"node":23,
						"path":"scale"
					}
				},
				{
					"sampler":9,
					"target":{
						"node":22,
						"path":"translation"
					}
				},
				{
					"sampler":10,
					"target":{
						"node":22,
						"path":"rotation"
					}
				},
				{
					"sampler":11,
					"target":{
						"node":22,
						"path":"scale"
					}
				},
				{
					"sampler":12,
					"target":{
						"node":5,
						"path":"translation"
					}
				},
				{
					"sampler":13,
					"target":{
						"node":5,
						"path":"rotation"
					}
				},
				{
					"sampler":14,
					"target":{
						"node":5,
						"path":"scale"
					}
				},
				{
					"sampler":15,
					"target":{
						"node":4,
						"path":"translation"
					}
				},
				{
					"sampler":16,
					"target":{
						"node":4,
						"path":"rotation"
					}
				},
				{
					"sampler":17,
					"target":{
						"node":4,
						"path":"scale"
					}
				},
				{
					"sampler":18,
					"target":{
						"node":3,
						"path":"translation"
					}
				},
				{
					"sampler":19,
					"target":{
						"node":3,
						"path":"rotation"
					}
				},
				{
					"sampler":20,
					"target":{
						"node":3,
						"path":"scale"
					}
				},
				{
					"sampler":21,
					"target":{
						"node":13,
						"path":"translation"
					}
				},
				{
					"sampler":22,
					"target":{
						"node":13,
						"path":"rotation"
					}
				},
				{
					"sampler":23,
					"target":{
						"node":13,
						"path":"scale"
					}
				},
				{
					"sampler":24,
					"target":{
						"node":12,
						"path":"translation"
					}
				},
				{
					"sampler":25,
					"target":{
						"node":12,
						"path":"rotation"
					}
				},
				{
					"sampler":26,
					"target":{
						"node":12,
						"path":"scale"
					}
				},
				{
					"sampler":27,
					"target":{
						"node":11,
						"path":"translation"
					}
				},
				{
					"sampler":28,
					"target":{
						"node":11,
						"path":"rotation"
					}
				},
				{
					"sampler":29,
					"target":{
						"node":11,
						"path":"scale"
					}
				},
				{
					"sampler":30,
					"target":{
						"node":10,
						"path":"translation"
					}
				},
				{
					"sampler":31,
					"target":{
						"node":10,
						"path":"rotation"
					}
				},
				{
					"sampler":32,
					"target":{
						"node":10,
						"path":"scale"
					}
				},
				{
					"sampler":33,
					"target":{
						"node":9,
						"path":"translation"
					}
				},
				{
					"sampler":34,
					"target":{
						"node":9,
						"path":"rotation"
					}
				},
				{
					"sampler":35,
					"target":{
						"node":9,
						"path":"scale"
					}
				},
				{
					"sampler":36,
					"target":{
						"node":8,
						"path":"translation"
					}
				},
				{
					"sampler":37,
					"target":{
						"node":8,
						"path":"rotation"
					}
				},
				{
					"sampler":38,
					"target":{
						"node":8,
						"path":"scale"
					}
				},
				{
					"sampler":39,
					"target":{
						"node":7,
						"path":"translation"
					}
				},
				{
					"sampler":40,
					"target":{
						"node":7,
						"path":"rotation"
					}
				},
				{
					"sampler":41,
					"target":{
						"node":7,
						"path":"scale"
					}
				},
				{
					"sampler":42,
					"target":{
						"node":6,
						"path":"translation"
					}
				},
				{
					"sampler":43,
					"target":{
						"node":6,
						"path":"rotation"
					}
				},
				{
					"sampler":44,
					"target":{
						"node":6,
						"path":"scale"
					}
				},
				{
					"sampler":45,
					"target":{
						"node":21,
						"path":"translation"
					}
				},
				{
					"sampler":46,
					"target":{
						"node":21,
						"path":"rotation"
					}
				},
				{
					"sampler":47,
					"target":{
						"node":21,
						"path":"scale"
					}
				},
				{
					"sampler":48,
					"target":{
						"node":20,
						"path":"translation"
					}
				},
				{
					"sampler":49,
					"target":{
						"node":20,
						"path":"rotation"
					}
				},
				{
					"sampler":50,
					"target":{
						"node":20,
						"path":"scale"
					}
				},
				{
					"sampler":51,
					"target":{
						"node":19,
						"path":"translation"
					}
				},
				{
					"sampler":52,
					"target":{
						"node":19,
						"path":"rotation"
					}
				},
				{
					"sampler":53,
					"target":{
						"node":19,
						"path":"scale"
					}
				},
				{
					"sampler":54,
					"target":{
						"node":18,
						"path":"translation"
					}
				},
				{
					"sampler":55,
					"target":{
						"node":18,
						"path":"rotation"
					}
				},
				{
					"sampler":56,
					"target":{
						"node":18,
						"path":"scale"
					}
				},
				{
					"sampler":57,
					"target":{
						"node":17,
						"path":"translation"
					}
				},
				{
					"sampler":58,
					"target":{
						"node":17,
						"path":"rotation"
					}
				},
				{
					"sampler":59,
					"target":{
						"node":17,
						"path":"scale"
					}
				},
				{
					"sampler":60,
					"target":{
						"node":16,
						"path":"translation"
					}
				},
				{
					"sampler":61,
					"target":{
						"node":16,
						"path":"rotation"
					}
				},
				{
					"sampler":62,
					"target":{
						"node":16,
						"path":"scale"
					}
				},
				{
					"sampler":63,
					"target":{
						"node":15,
						"path":"translation"
					}
				},
				{
					"sampler":64,
					"target":{
						"node":15,
						"path":"rotation"
					}
				},
				{
					"sampler":65,
					"target":{
						"node":15,
						"path":"scale"
					}
				},
				{
					"sampler":66,
					"target":{
						"node":14,
						"path":"translation"
					}
				},
				{
					"sampler":67,
					"target":{
						"node":14,
						"path":"rotation"
					}
				},
				{
					"sampler":68,
					"target":{
						"node":14,
						"path":"scale"
					}
				},
				{
					"sampler":69,
					"target":{
						"node":29,
						"path":"translation"
					}
				},
				{
					"sampler":70,
					"target":{
						"node":29,
						"path":"rotation"
					}
				},
				{
					"sampler":71,
					"target":{
						"node":29,
						"path":"scale"
					}
				},
				{
					"sampler":72,
					"target":{
						"node":28,
						"path":"translation"
					}
				},
				{
					"sampler":73,
					"target":{
						"node":28,
						"path":"rotation"
					}
				},
				{
					"sampler":74,
					"target":{
						"node":28,
						"path":"scale"
					}
				},
				{
					"sampler":75,
					"target":{
						"node":27,
						"path":"translation"
					}
				},
				{
					"sampler":76,
					"target":{
						"node":27,
						"path":"rotation"
					}
				},
				{
					"sampler":77,
					"target":{
						"node":27,
						"path":"scale"
					}
				},
				{
					"sampler":78,
					"target":{
						"node":26,
						"path":"translation"
					}
				},
				{
					"sampler":79,
					"target":{
						"node":26,
						"path":"rotation"
					}
				},
				{
					"sampler":80,
					"target":{
						"node":26,
						"path":"scale"
					}
				},
				{
					"sampler":81,
					"target":{
						"node":25,
						"path":"translation"
					}
				},
				{
					"sampler":82,
					"target":{
						"node":25,
						"path":"rotation"
					}
				},
				{
					"sampler":83,
					"target":{
						"node":25,
						"path":"scale"
					}
				},
				{
					"sampler":84,
					"target":{
						"node":34,
						"path":"translation"
					}
				},
				{
					"sampler":85,
					"target":{
						"node":34,
						"path":"rotation"
					}
				},
				{
					"sampler":86,
					"target":{
						"node":34,
						"path":"scale"
					}
				},
				{
					"sampler":87,
					"target":{
						"node":33,
						"path":"translation"
					}
				},
				{
					"sampler":88,
					"target":{
						"node":33,
						"path":"rotation"
					}
				},
				{
					"sampler":89,
					"target":{
						"node":33,
						"path":"scale"
					}
				},
				{
					"sampler":90,
					"target":{
						"node":32,
						"path":"translation"
					}
				},
				{
					"sampler":91,
					"target":{
						"node":32,
						"path":"rotation"
					}
				},
				{
					"sampler":92,
					"target":{
						"node":32,
						"path":"scale"
					}
				},
				{
					"sampler":93,
					"target":{
						"node":31,
						"path":"translation"
					}
				},
				{
					"sampler":94,
					"target":{
						"node":31,
						"path":"rotation"
					}
				},
				{
					"sampler":95,
					"target":{
						"node":31,
						"path":"scale"
					}
				},
				{
					"sampler":96,
					"target":{
						"node":30,
						"path":"translation"
					}
				},
				{
					"sampler":97,
					"target":{
						"node":30,
						"path":"rotation"
					}
				},
				{
					"sampler":98,
					"target":{
						"node":30,
						"path":"scale"
					}
				}
			],
			"name":"Hit",
			"samplers":[
				{
					"input":18,
					"interpolation":"LINEAR",
					"output":19
				},
				{
					"input":18,
					"interpolation":"LINEAR",
					"output":20
				},
				{
					"input":21,
					"interpolation":"STEP",
					"output":22
				},
				{
					"input":21,
					"interpolation":"STEP",
					"output":23
				},
				{
					"input":18,
					"interpolation":"LINEAR",
					"output":24
				},
				{
					"input":21,
					"interpolation":"STEP",
					"output":25
				},
				{
					"input":21,
					"interpolation":"STEP",
					"output":26
				},
				{
					"input":18,
					"interpolation":"LINEAR",
					"output":27
				},
				{
					"input":21,
					"interpolation":"STEP",
					"output":28
				},
				{
					"input":21,
					"interpolation":"STEP",
					"output":29
				},
				{
					"input":18,
					"interpolation":"LINEAR",
					"output":30
				},
				{
					"input":21,
					"interpolation":"STEP",
					"output":31
				},
				{
					"input":21,
					"interpolation":"STEP",
					"output":32
				},
				{
					"input":18,
					"interpolation":"LINEAR",
					"output":33
				},
				{
					"input":21,
					"interpolation":"STEP",
					"output":34
				},
				{
					"input":21,
					"interpolation":"LINEAR",
					"output":35
				},
				{
					"input":18,
					"interpolation":"LINEAR",
					"output":36
				},
				{
					"input":21,
					"interpolation":"LINEAR",
					"output":37
				},
				{
					"input":21,
					"interpolation":"STEP",
					"output":38
				},
				{
					"input":21,
					"interpolation":"STEP",
					"output":39
				},
				{
					"input":21,
					"interpolation":"STEP",
					"output":40
				},
				{
					"input":21,
					"interpolation":"STEP",
					"output":41
				},
				{
					"input":18,
					"interpolation":"LINEAR",
					"output":42
				},
				{
					"input":21,
					"interpolation":"STEP",
					"output":43
				},
				{
					"input":21,
					"interpolation":"STEP",
					"output":44
				},
				{
					"input":18,
					"interpolation":"LINEAR",
					"output":45
				},
				{
					"input":21,
					"interpolation":"STEP",
					"output":46
				},
				{
					"input":21,
					"interpolation":"STEP",
					"output":47
				},
				{
					"input":18,
					"interpolation":"LINEAR",
					"output":48
				},
				{
					"input":21,
					"interpolation":"STEP",
					"output":49
				},
				{
					"input":21,
					"interpolation":"STEP",
					"output":50
				},
				{
					"input":18,
					"interpolation":"LINEAR",
					"output":51
				},
				{
					"input":21,
					"interpolation":"STEP",
					"output":52
				},
				{
					"input":21,
					"interpolation":"STEP",
					"output":53
				},
				{
					"input":18,
					"interpolation":"LINEAR",
					"output":54
				},
				{
					"input":21,
					"interpolation":"STEP",
					"output":55
				},
				{
					"input":21,
					"interpolation":"STEP",
					"output":56
				},
				{
					"input":18,
					"interpolation":"LINEAR",
					"output":57
				},
				{
					"input":21,
					"interpolation":"STEP",
					"output":58
				},
				{
					"input":21,
					"interpolation":"STEP",
					"output":59
				},
				{
					"input":18,
					"interpolation":"LINEAR",
					"output":60
				},
				{
					"input":21,
					"interpolation":"STEP",
					"output":61
				},
				{
					"input":21,
					"interpolation":"STEP",
					"output":62
				},
				{
					"input":21,
					"interpolation":"STEP",
					"output":63
				},
				{
					"input":21,
					"interpolation":"STEP",
					"output":64
				},
				{
					"input":21,
					"interpolation":"STEP",
					"output":65
				},
				{
					"input":18,
					"interpolation":"LINEAR",
					"output":66
				},
				{
					"input":21,
					"interpolation":"STEP",
					"output":67
				},
				{
					"input":21,
					"interpolation":"STEP",
					"output":68
				},
				{
					"input":18,
					"interpolation":"LINEAR",
					"output":69
				},
				{
					"input":21,
					"interpolation":"STEP",
					"output":70
				},
				{
					"input":21,
					"interpolation":"STEP",
					"output":71
				},
				{
					"input":18,
					"interpolation":"LINEAR",
					"output":72
				},
				{
					"input":21,
					"interpolation":"STEP",
					"output":73
				},
				{
					"input":21,
					"interpolation":"STEP",
					"output":74
				},
				{
					"input":18,
					"interpolation":"LINEAR",
					"output":75
				},
				{
					"input":21,
					"interpolation":"STEP",
					"output":76
				},
				{
					"input":21,
					"interpolation":"STEP",
					"output":77
				},
				{
					"input":18,
					"interpolation":"LINEAR",
					"output":78
				},
				{
					"input":21,
					"interpolation":"STEP",
					"output":79
				},
				{
					"input":21,
					"interpolation":"STEP",
					"output":80
				},
				{
					"input":18,
					"interpolation":"LINEAR",
					"output":81
				},
				{
					"input":21,
					"interpolation":"STEP",
					"output":82
				},
				{
					"input":21,
					"interpolation":"STEP",
					"output":83
				},
				{
					"input":18,
					"interpolation":"LINEAR",
					"output":84
				},
				{
					"input":21,
					"interpolation":"STEP",
					"output":85
				},
				{
					"input":21,
					"interpolation":"STEP",
					"output":86
				},
				{
					"input":21,
					"interpolation":"STEP",
					"output":87
				},
				{
					"input":21,
					"interpolation":"STEP",
					"output":88
				},
				{
					"input":21,
					"interpolation":"STEP",
					"output":89
				},
				{
					"input":18,
					"interpolation":"LINEAR",
					"output":90
				},
				{
					"input":21,
					"interpolation":"STEP",
					"output":91
				},
				{
					"input":21,
					"interpolation":"STEP",
					"output":92
				},
				{
					"input":18,
					"interpolation":"LINEAR",
					"output":93
				},
				{
					"input":21,
					"interpolation":"STEP",
					"output":94
				},
				{
					"input":21,
					"interpolation":"STEP",
					"output":95
				},
				{
					"input":18,
					"interpolation":"LINEAR",
					"output":96
				},
				{
					"input":21,
					"interpolation":"STEP",
					"output":97
				},
				{
					"input":21,
					"interpolation":"STEP",
					"output":98
				},
				{
					"input":18,
					"interpolation":"LINEAR",
					"output":99
				},
				{
					"input":21,
					"interpolation":"STEP",
					"output":100
				},
				{
					"input":21,
					"interpolation":"STEP",
					"output":101
				},
				{
					"input":21,
					"interpolation":"STEP",
					"output":102
				},
				{
					"input":21,
					"interpolation":"STEP",
					"output":88
				},
				{
					"input":21,
					"interpolation":"STEP",
					"output":103
				},
				{
					"input":18,
					"interpolation":"LINEAR",
					"output":104
				},
				{
					"input":21,
					"interpolation":"STEP",
					"output":105
				},
				{
					"input":21,
					"interpolation":"STEP",
					"output":106
				},
				{
					"input":18,
					"interpolation":"LINEAR",
					"output":107
				},
				{
					"input":21,
					"interpolation":"STEP",
					"output":108
				},
				{
					"input":21,
					"interpolation":"STEP",
					"output":109
				},
				{
					"input":18,
					"interpolation":"LINEAR",
					"output":110
				},
				{
					"input":21,
					"interpolation":"STEP",
					"output":46
				},
				{
					"input":21,
					"interpolation":"STEP",
					"output":111
				},
				{
					"input":18,
					"interpolation":"LINEAR",
					"output":112
				},
				{
					"input":21,
					"interpolation":"STEP",
					"output":113
				},
				{
					"input":21,
					"interpolation":"STEP",
					"output":114
				},
				{
					"input":21,
					"interpolation":"STEP",
					"output":115
				},
				{
					"input":21,
					"interpolation":"STEP",
					"output":116
				}
			]
		},
		{
			"channels":[
				{
					"sampler":0,
					"target":{
						"node":35,
						"path":"translation"
					}
				},
				{
					"sampler":1,
					"target":{
						"node":35,
						"path":"rotation"
					}
				},
				{
					"sampler":2,
					"target":{
						"node":35,
						"path":"scale"
					}
				},
				{
					"sampler":3,
					"target":{
						"node":24,
						"path":"translation"
					}
				},
				{
					"sampler":4,
					"target":{
						"node":24,
						"path":"rotation"
					}
				},
				{
					"sampler":5,
					"target":{
						"node":24,
						"path":"scale"
					}
				},
				{
					"sampler":6,
					"target":{
						"node":23,
						"path":"translation"
					}
				},
				{
					"sampler":7,
					"target":{
						"node":23,
						"path":"rotation"
					}
				},
				{
					"sampler":8,
					"target":{
						"node":23,
						"path":"scale"
					}
				},
				{
					"sampler":9,
					"target":{
						"node":22,
						"path":"translation"
					}
				},
				{
					"sampler":10,
					"target":{
						"node":22,
						"path":"rotation"
					}
				},
				{
					"sampler":11,
					"target":{
						"node":22,
						"path":"scale"
					}
				},
				{
					"sampler":12,
					"target":{
						"node":5,
						"path":"translation"
					}
				},
				{
					"sampler":13,
					"target":{
						"node":5,
						"path":"rotation"
					}
				},
				{
					"sampler":14,
					"target":{
						"node":5,
						"path":"scale"
					}
				},
				{
					"sampler":15,
					"target":{
						"node":4,
						"path":"translation"
					}
				},
				{
					"sampler":16,
					"target":{
						"node":4,
						"path":"rotation"
					}
				},
				{
					"sampler":17,
					"target":{
						"node":4,
						"path":"scale"
					}
				},
				{
					"sampler":18,
					"target":{
						"node":3,
						"path":"translation"
					}
				},
				{
					"sampler":19,
					"target":{
						"node":3,
						"path":"rotation"
					}
				},
				{
					"sampler":20,
					"target":{
						"node":3,
						"path":"scale"
					}
				},
				{
					"sampler":21,
					"target":{
						"node":13,
						"path":"translation"
					}
				},
				{
					"sampler":22,
					"target":{
						"node":13,
						"path":"rotation"
					}
				},
				{
					"sampler":23,
					"target":{
						"node":13,
						"path":"scale"
					}
				},
				{
					"sampler":24,
					"target":{
						"node":12,
						"path":"translation"
					}
				},
				{
					"sampler":25,
					"target":{
						"node":12,
						"path":"rotation"
					}
				},
				{
					"sampler":26,
					"target":{
						"node":12,
						"path":"scale"
					}
				},
				{
					"sampler":27,
					"target":{
						"node":11,
						"path":"translation"
					}
				},
				{
					"sampler":28,
					"target":{
						"node":11,
						"path":"rotation"
					}
				},
				{
					"sampler":29,
					"target":{
						"node":11,
						"path":"scale"
					}
				},
				{
					"sampler":30,
					"target":{
						"node":10,
						"path":"translation"
					}
				},
				{
					"sampler":31,
					"target":{
						"node":10,
						"path":"rotation"
					}
				},
				{
					"sampler":32,
					"target":{
						"node":10,
						"path":"scale"
					}
				},
				{
					"sampler":33,
					"target":{
						"node":9,
						"path":"translation"
					}
				},
				{
					"sampler":34,
					"target":{
						"node":9,
						"path":"rotation"
					}
				},
				{
					"sampler":35,
					"target":{
						"node":9,
						"path":"scale"
					}
				},
				{
					"sampler":36,
					"target":{
						"node":8,
						"path":"translation"
					}
				},
				{
					"sampler":37,
					"target":{
						"node":8,
						"path":"rotation"
					}
				},
				{
					"sampler":38,
					"target":{
						"node":8,
						"path":"scale"
					}
				},
				{
					"sampler":39,
					"target":{
						"node":7,
						"path":"translation"
					}
				},
				{
					"sampler":40,
					"target":{
						"node":7,
						"path":"rotation"
					}
				},
				{
					"sampler":41,
					"target":{
						"node":7,
						"path":"scale"
					}
				},
				{
					"sampler":42,
					"target":{
						"node":6,
						"path":"translation"
					}
				},
				{
					"sampler":43,
					"target":{
						"node":6,
						"path":"rotation"
					}
				},
				{
					"sampler":44,
					"target":{
						"node":6,
						"path":"scale"
					}
				},
				{
					"sampler":45,
					"target":{
						"node":21,
						"path":"translation"
					}
				},
				{
					"sampler":46,
					"target":{
						"node":21,
						"path":"rotation"
					}
				},
				{
					"sampler":47,
					"target":{
						"node":21,
						"path":"scale"
					}
				},
				{
					"sampler":48,
					"target":{
						"node":20,
						"path":"translation"
					}
				},
				{
					"sampler":49,
					"target":{
						"node":20,
						"path":"rotation"
					}
				},
				{
					"sampler":50,
					"target":{
						"node":20,
						"path":"scale"
					}
				},
				{
					"sampler":51,
					"target":{
						"node":19,
						"path":"translation"
					}
				},
				{
					"sampler":52,
					"target":{
						"node":19,
						"path":"rotation"
					}
				},
				{
					"sampler":53,
					"target":{
						"node":19,
						"path":"scale"
					}
				},
				{
					"sampler":54,
					"target":{
						"node":18,
						"path":"translation"
					}
				},
				{
					"sampler":55,
					"target":{
						"node":18,
						"path":"rotation"
					}
				},
				{
					"sampler":56,
					"target":{
						"node":18,
						"path":"scale"
					}
				},
				{
					"sampler":57,
					"target":{
						"node":17,
						"path":"translation"
					}
				},
				{
					"sampler":58,
					"target":{
						"node":17,
						"path":"rotation"
					}
				},
				{
					"sampler":59,
					"target":{
						"node":17,
						"path":"scale"
					}
				},
				{
					"sampler":60,
					"target":{
						"node":16,
						"path":"translation"
					}
				},
				{
					"sampler":61,
					"target":{
						"node":16,
						"path":"rotation"
					}
				},
				{
					"sampler":62,
					"target":{
						"node":16,
						"path":"scale"
					}
				},
				{
					"sampler":63,
					"target":{
						"node":15,
						"path":"translation"
					}
				},
				{
					"sampler":64,
					"target":{
						"node":15,
						"path":"rotation"
					}
				},
				{
					"sampler":65,
					"target":{
						"node":15,
						"path":"scale"
					}
				},
				{
					"sampler":66,
					"target":{
						"node":14,
						"path":"translation"
					}
				},
				{
					"sampler":67,
					"target":{
						"node":14,
						"path":"rotation"
					}
				},
				{
					"sampler":68,
					"target":{
						"node":14,
						"path":"scale"
					}
				},
				{
					"sampler":69,
					"target":{
						"node":29,
						"path":"translation"
					}
				},
				{
					"sampler":70,
					"target":{
						"node":29,
						"path":"rotation"
					}
				},
				{
					"sampler":71,
					"target":{
						"node":29,
						"path":"scale"
					}
				},
				{
					"sampler":72,
					"target":{
						"node":28,
						"path":"translation"
					}
				},
				{
					"sampler":73,
					"target":{
						"node":28,
						"path":"rotation"
					}
				},
				{
					"sampler":74,
					"target":{
						"node":28,
						"path":"scale"
					}
				},
				{
					"sampler":75,
					"target":{
						"node":27,
						"path":"translation"
					}
				},
				{
					"sampler":76,
					"target":{
						"node":27,
						"path":"rotation"
					}
				},
				{
					"sampler":77,
					"target":{
						"node":27,
						"path":"scale"
					}
				},
				{
					"sampler":78,
					"target":{
						"node":26,
						"path":"translation"
					}
				},
				{
					"sampler":79,
					"target":{
						"node":26,
						"path":"rotation"
					}
				},
				{
					"sampler":80,
					"target":{
						"node":26,
						"path":"scale"
					}
				},
				{
					"sampler":81,
					"target":{
						"node":25,
						"path":"translation"
					}
				},
				{
					"sampler":82,
					"target":{
						"node":25,
						"path":"rotation"
					}
				},
				{
					"sampler":83,
					"target":{
						"node":25,
						"path":"scale"
					}
				},
				{
					"sampler":84,
					"target":{
						"node":34,
						"path":"translation"
					}
				},
				{
					"sampler":85,
					"target":{
						"node":34,
						"path":"rotation"
					}
				},
				{
					"sampler":86,
					"target":{
						"node":34,
						"path":"scale"
					}
				},
				{
					"sampler":87,
					"target":{
						"node":33,
						"path":"translation"
					}
				},
				{
					"sampler":88,
					"target":{
						"node":33,
						"path":"rotation"
					}
				},
				{
					"sampler":89,
					"target":{
						"node":33,
						"path":"scale"
					}
				},
				{
					"sampler":90,
					"target":{
						"node":32,
						"path":"translation"
					}
				},
				{
					"sampler":91,
					"target":{
						"node":32,
						"path":"rotation"
					}
				},
				{
					"sampler":92,
					"target":{
						"node":32,
						"path":"scale"
					}
				},
				{
					"sampler":93,
					"target":{
						"node":31,
						"path":"translation"
					}
				},
				{
					"sampler":94,
					"target":{
						"node":31,
						"path":"rotation"
					}
				},
				{
					"sampler":95,
					"target":{
						"node":31,
						"path":"scale"
					}
				},
				{
					"sampler":96,
					"target":{
						"node":30,
						"path":"translation"
					}
				},
				{
					"sampler":97,
					"target":{
						"node":30,
						"path":"rotation"
					}
				},
				{
					"sampler":98,
					"target":{
						"node":30,
						"path":"scale"
					}
				}
			],
			"name":"Idle",
			"samplers":[
				{
					"input":117,
					"interpolation":"LINEAR",
					"output":118
				},
				{
					"input":117,
					"interpolation":"LINEAR",
					"output":119
				},
				{
					"input":120,
					"interpolation":"LINEAR",
					"output":121
				},
				{
					"input":120,
					"interpolation":"LINEAR",
					"output":122
				},
				{
					"input":117,
					"interpolation":"LINEAR",
					"output":123
				},
				{
					"input":120,
					"interpolation":"LINEAR",
					"output":124
				},
				{
					"input":120,
					"interpolation":"LINEAR",
					"output":125
				},
				{
					"input":117,
					"interpolation":"LINEAR",
					"output":126
				},
				{
					"input":120,
					"interpolation":"STEP",
					"output":127
				},
				{
					"input":120,
					"interpolation":"LINEAR",
					"output":128
				},
				{
					"input":117,
					"interpolation":"LINEAR",
					"output":129
				},
				{
					"input":120,
					"interpolation":"LINEAR",
					"output":130
				},
				{
					"input":120,
					"interpolation":"LINEAR",
					"output":131
				},
				{
					"input":117,
					"interpolation":"LINEAR",
					"output":132
				},
				{
					"input":120,
					"interpolation":"LINEAR",
					"output":133
				},
				{
					"input":120,
					"interpolation":"LINEAR",
					"output":134
				},
				{
					"input":117,
					"interpolation":"LINEAR",
					"output":135
				},
				{
					"input":120,
					"interpolation":"LINEAR",
					"output":136
				},
				{
					"input":120,
					"interpolation":"STEP",
					"output":137
				},
				{
					"input":120,
					"interpolation":"STEP",
					"output":138
				},
				{
					"input":120,
					"interpolation":"STEP",
					"output":139
				},
				{
					"input":120,
					"interpolation":"LINEAR",
					"output":140
				},
				{
					"input":117,
					"interpolation":"LINEAR",
					"output":141
				},
				{
					"input":120,
					"interpolation":"STEP",
					"output":142
				},
				{
					"input":120,
					"interpolation":"LINEAR",
					"output":143
				},
				{
					"input":117,
					"interpolation":"LINEAR",
					"output":144
				},
				{
					"input":120,
					"interpolation":"LINEAR",
					"output":145
				},
				{
					"input":120,
					"interpolation":"LINEAR",
					"output":146
				},
				{
					"input":117,
					"interpolation":"LINEAR",
					"output":147
				},
				{
					"input":120,
					"interpolation":"LINEAR",
					"output":148
				},
				{
					"input":120,
					"interpolation":"LINEAR",
					"output":149
				},
				{
					"input":117,
					"interpolation":"LINEAR",
					"output":150
				},
				{
					"input":120,
					"interpolation":"STEP",
					"output":52
				},
				{
					"input":120,
					"interpolation":"LINEAR",
					"output":151
				},
				{
					"input":120,
					"interpolation":"LINEAR",
					"output":152
				},
				{
					"input":120,
					"interpolation":"LINEAR",
					"output":153
				},
				{
					"input":120,
					"interpolation":"LINEAR",
					"output":154
				},
				{
					"input":120,
					"interpolation":"LINEAR",
					"output":155
				},
				{
					"input":120,
					"interpolation":"STEP",
					"output":156
				},
				{
					"input":120,
					"interpolation":"LINEAR",
					"output":157
				},
				{
					"input":120,
					"interpolation":"LINEAR",
					"output":158
				},
				{
					"input":120,
					"interpolation":"STEP",
					"output":159
				},
				{
					"input":120,
					"interpolation":"STEP",
					"output":160
				},
				{
					"input":120,
					"interpolation":"STEP",
					"output":161
				},
				{
					"input":120,
					"interpolation":"STEP",
					"output":162
				},
				{
					"input":120,
					"interpolation":"LINEAR",
					"output":163
				},
				{
					"input":117,
					"interpolation":"LINEAR",
					"output":164
				},
				{
					"input":120,
					"interpolation":"LINEAR",
					"output":165
				},
				{
					"input":120,
					"interpolation":"LINEAR",
					"output":166
				},
				{
					"input":117,
					"interpolation":"LINEAR",
					"output":167
				},
				{
					"input":120,
					"interpolation":"LINEAR",
					"output":168
				},
				{
					"input":120,
					"interpolation":"LINEAR",
					"output":169
				},
				{
					"input":117,
					"interpolation":"LINEAR",
					"output":170
				},
				{
					"input":120,
					"interpolation":"STEP",
					"output":171
				},
				{
					"input":120,
					"interpolation":"LINEAR",
					"output":172
				},
				{
					"input":117,
					"interpolation":"LINEAR",
					"output":173
				},
				{
					"input":120,
					"interpolation":"STEP",
					"output":174
				},
				{
					"input":120,
					"interpolation":"LINEAR",
					"output":175
				},
				{
					"input":120,
					"interpolation":"LINEAR",
					"output":176
				},
				{
					"input":120,
					"interpolation":"LINEAR",
					"output":177
				},
				{
					"input":120,
					"interpolation":"LINEAR",
					"output":178
				},
				{
					"input":120,
					"interpolation":"LINEAR",
					"output":179
				},
				{
					"input":120,
					"interpolation":"STEP",
					"output":180
				},
				{
					"input":120,
					"interpolation":"LINEAR",
					"output":181
				},
				{
					"input":120,
					"interpolation":"LINEAR",
					"output":182
				},
				{
					"input":120,
					"interpolation":"STEP",
					"output":183
				},
				{
					"input":120,
					"interpolation":"STEP",
					"output":184
				},
				{
					"input":120,
					"interpolation":"STEP",
					"output":185
				},
				{
					"input":120,
					"interpolation":"STEP",
					"output":186
				},
				{
					"input":120,
					"interpolation":"LINEAR",
					"output":187
				},
				{
					"input":117,
					"interpolation":"LINEAR",
					"output":188
				},
				{
					"input":120,
					"interpolation":"LINEAR",
					"output":189
				},
				{
					"input":120,
					"interpolation":"LINEAR",
					"output":190
				},
				{
					"input":117,
					"interpolation":"LINEAR",
					"output":191
				},
				{
					"input":120,
					"interpolation":"STEP",
					"output":192
				},
				{
					"input":120,
					"interpolation":"LINEAR",
					"output":193
				},
				{
					"input":117,
					"interpolation":"LINEAR",
					"output":194
				},
				{
					"input":120,
					"interpolation":"LINEAR",
					"output":195
				},
				{
					"input":120,
					"interpolation":"LINEAR",
					"output":196
				},
				{
					"input":117,
					"interpolation":"LINEAR",
					"output":197
				},
				{
					"input":120,
					"interpolation":"STEP",
					"output":198
				},
				{
					"input":120,
					"interpolation":"STEP",
					"output":199
				},
				{
					"input":120,
					"interpolation":"STEP",
					"output":200
				},
				{
					"input":120,
					"interpolation":"STEP",
					"output":201
				},
				{
					"input":120,
					"interpolation":"LINEAR",
					"output":202
				},
				{
					"input":117,
					"interpolation":"LINEAR",
					"output":203
				},
				{
					"input":120,
					"interpolation":"STEP",
					"output":204
				},
				{
					"input":120,
					"interpolation":"LINEAR",
					"output":205
				},
				{
					"input":117,
					"interpolation":"LINEAR",
					"output":206
				},
				{
					"input":120,
					"interpolation":"LINEAR",
					"output":207
				},
				{
					"input":120,
					"interpolation":"LINEAR",
					"output":208
				},
				{
					"input":117,
					"interpolation":"LINEAR",
					"output":209
				},
				{
					"input":120,
					"interpolation":"LINEAR",
					"output":210
				},
				{
					"input":120,
					"interpolation":"LINEAR",
					"output":211
				},
				{
					"input":117,
					"interpolation":"LINEAR",
					"output":212
				},
				{
					"input":120,
					"interpolation":"STEP",
					"output":213
				},
				{
					"input":120,
					"interpolation":"STEP",
					"output":214
				},
				{
					"input":120,
					"interpolation":"STEP",
					"output":215
				},
				{
					"input":120,
					"interpolation":"STEP",
					"output":139
				}
			]
		}
	],
	"materials":[
		{
			"doubleSided":true,
			"name":"Material.001",
			"pbrMetallicRoughness":{
				"baseColorTexture":{
					"index":0
				},
				"metallicFactor":0,
				"roughnessFactor":0.5
			}
		},
		{
			"doubleSided":true,
			"name":"Material.006",
			"pbrMetallicRoughness":{
				"baseColorTexture":{
					"index":1
				},
				"metallicFactor":0,
				"roughnessFactor":0.5
			}
		}
	],
	"meshes":[
		{
			"name":"earth.001",
			"primitives":[
				{
					"attributes":{
						"POSITION":0,
						"NORMAL":1,
						"TEXCOORD_0":2,
						"JOINTS_0":3,
						"WEIGHTS_0":4
					},
					"indices":5,
					"material":0
				},
				{
					"attributes":{
						"POSITION":6,
						"NORMAL":7,
						"TEXCOORD_0":8,
						"JOINTS_0":9,
						"WEIGHTS_0":10
					},
					"indices":11,
					"material":0
				}
			]
		},
		{
			"name":"Icosphere.001",
			"primitives":[
				{
					"attributes":{
						"POSITION":13,
						"NORMAL":14,
						"TEXCOORD_0":15,
						"JOINTS_0":16,
						"WEIGHTS_0":17
					},
					"indices":5,
					"material":1
				}
			]
		}
	],
	"textures":[
		{
			"sampler":0,
			"source":0
		},
		{
			"sampler":0,
			"source":1
		}
	],
	"images":[
		{
			"mimeType":"image/jpeg",
			"name":"0zaq_ag24_210203",
			"uri":"0zaq_ag24_210203.jpg"
		},
		{
			"mimeType":"image/jpeg",
			"name":"moonImg",
			"uri":"moonImg.jpg"
		}
	],
	"skins":[
		{
			"inverseBindMatrices":12,
			"joints":[
				35,
				24,
				23,
				22,
				5,
				4,
				3,
				13,
				12,
				11,
				10,
				9,
				8,
				7,
				6,
				21,
				20,
				19,
				18,
				17,
				16,
				15,
				14,
				29,
				28,
				27,
				26,
				25,
				34,
				33,
				32,
				31,
				30
			],
			"name":"Armature"
		}
	],
	"accessors":[
		{
			"bufferView":0,
			"componentType":5126,
			"count":240,
			"max":[
				0.22225187718868256,
				1.8643348217010498,
				0.3568045496940613
			],
			"min":[
				-0.22225187718868256,
				1.4058589935302734,
				-0.10167138278484344
			],
			"type":"VEC3"
		},
		{
			"bufferView":1,
			"componentType":5126,
			"count":240,
			"type":"VEC3"
		},
		{
			"bufferView":2,
			"componentType":5126,
			"count":240,
			"type":"VEC2"
		},
		{
			"bufferView":3,
			"componentType":5121,
			"count":240,
			"type":"VEC4"
		},
		{
			"bufferView":4,
			"componentType":5126,
			"count":240,
			"type":"VEC4"
		},
		{
			"bufferView":5,
			"componentType":5123,
			"count":240,
			"type":"SCALAR"
		},
		{
			"bufferView":6,
			"componentType":5126,
			"count":842,
			"max":[
				0.4828399121761322,
				1.4442042112350464,
				0.26826536655426025
			],
			"min":[
				-0.482839971780777,
				-0.008243918418884277,
				-0.03563861548900604
			],
			"type":"VEC3"
		},
		{
			"bufferView":7,
			"componentType":5126,
			"count":842,
			"type":"VEC3"
		},
		{
			"bufferView":8,
			"componentType":5126,
			"count":842,
			"type":"VEC2"
		},
		{
			"bufferView":9,
			"componentType":5121,
			"count":842,
			"type":"VEC4"
		},
		{
			"bufferView":10,
			"componentType":5126,
			"count":842,
			"type":"VEC4"
		},
		{
			"bufferView":11,
			"componentType":5123,
			"count":1188,
			"type":"SCALAR"
		},
		{
			"bufferView":12,
			"componentType":5126,
			"count":33,
			"type":"MAT4"
		},
		{
			"bufferView":13,
			"componentType":5126,
			"count":240,
			"max":[
				0.4286230802536011,
				2.0573318004608154,
				0.004814140498638153
			],
			"min":[
				0.20036913454532623,
				1.8173317909240723,
				-0.23518586158752441
			],
			"type":"VEC3"
		},
		{
			"bufferView":14,
			"componentType":5126,
			"count":240,
			"type":"VEC3"
		},
		{
			"bufferView":15,
			"componentType":5126,
			"count":240,
			"type":"VEC2"
		},
		{
			"bufferView":16,
			"componentType":5121,
			"count":240,
			"type":"VEC4"
		},
		{
			"bufferView":17,
			"componentType":5126,
			"count":240,
			"type":"VEC4"
		},
		{
			"bufferView":18,
			"componentType":5126,
			"count":171,
			"max":[
				5.7
			],
			"min":[
				0.03333333333333333
			],
			"type":"SCALAR"
		},
		{
			"bufferView":19,
			"componentType":5126,
			"count":171,
			"type":"VEC3"
		},
		{
			"bufferView":20,
			"componentType":5126,
			"count":171,
			"type":"VEC4"
		},
		{
			"bufferView":21,
			"componentType":5126,
			"count":2,
			"max":[
				5.7
			],
			"min":[
				0.03333333333333333
			],
			"type":"SCALAR"
		},
		{
			"bufferView":22,
			"componentType":5126,
			"count":2,
			"type":"VEC3"
		},
		{
			"bufferView":23,
			"componentType":5126,
			"count":2,
			"type":"VEC3"
		},
		{
			"bufferView":24,
			"componentType":5126,
			"count":171,
			"type":"VEC4"
		},
		{
			"bufferView":25,
			"componentType":5126,
			"count":2,
			"type":"VEC3"
		},
		{
			"bufferView":26,
			"componentType":5126,
			"count":2,
			"type":"VEC3"
		},
		{
			"bufferView":27,
			"componentType":5126,
			"count":171,
			"type":"VEC4"
		},
		{
			"bufferView":28,
			"componentType":5126,
			"count":2,
			"type":"VEC3"
		},
		{
			"bufferView":29,
			"componentType":5126,
			"count":2,
			"type":"VEC3"
		},
		{
			"bufferView":30,
			"componentType":5126,
			"count":171,
			"type":"VEC4"
		},
		{
			"bufferView":31,
			"componentType":5126,
			"count":2,
			"type":"VEC3"
		},
		{
			"bufferView":32,
			"componentType":5126,
			"count":2,
			"type":"VEC3"
		},
		{
			"bufferView":33,
			"componentType":5126,
			"count":171,
			"type":"VEC4"
		},
		{
			"bufferView":34,
			"componentType":5126,
			"count":2,
			"type":"VEC3"
		},
		{
			"bufferView":35,
			"componentType":5126,
			"count":2,
			"type":"VEC3"
		},
		{
			"bufferView":36,
			"componentType":5126,
			"count":171,
			"type":"VEC4"
		},
		{
			"bufferView":37,
			"componentType":5126,
			"count":2,
			"type":"VEC3"
		},
		{
			"bufferView":38,
			"componentType":5126,
			"count":2,
			"type":"VEC3"
		},
		{
			"bufferView":39,
			"componentType":5126,
			"count":2,
			"type":"VEC4"
		},
		{
			"bufferView":40,
			"componentType":5126,
			"count":2,
			"type":"VEC3"
		},
		{
			"bufferView":41,
			"componentType":5126,
			"count":2,
			"type":"VEC3"
		},
		{
			"bufferView":42,
			"componentType":5126,
			"count":171,
			"type":"VEC4"
		},
		{
			"bufferView":43,
			"componentType":5126,
			"count":2,
			"type":"VEC3"
		},
		{
			"bufferView":44,
			"componentType":5126,
			"count":2,
			"type":"VEC3"
		},
		{
			"bufferView":45,
			"componentType":5126,
			"count":171,
			"type":"VEC4"
		},
		{
			"bufferView":46,
			"componentType":5126,
			"count":2,
			"type":"VEC3"
		},
		{
			"bufferView":47,
			"componentType":5126,
			"count":2,
			"type":"VEC3"
		},
		{
			"bufferView":48,
			"componentType":5126,
			"count":171,
			"type":"VEC4"
		},
		{
			"bufferView":49,
			"componentType":5126,
			"count":2,
			"type":"VEC3"
		},
		{
			"bufferView":50,
			"componentType":5126,
			"count":2,
			"type":"VEC3"
		},
		{
			"bufferView":51,
			"componentType":5126,
			"count":171,
			"type":"VEC4"
		},
		{
			"bufferView":52,
			"componentType":5126,
			"count":2,
			"type":"VEC3"
		},
		{
			"bufferView":53,
			"componentType":5126,
			"count":2,
			"type":"VEC3"
		},
		{
			"bufferView":54,
			"componentType":5126,
			"count":171,
			"type":"VEC4"
		},
		{
			"bufferView":55,
			"componentType":5126,
			"count":2,
			"type":"VEC3"
		},
		{
			"bufferView":56,
			"componentType":5126,
			"count":2,
			"type":"VEC3"
		},
		{
			"bufferView":57,
			"componentType":5126,
			"count":171,
			"type":"VEC4"
		},
		{
			"bufferView":58,
			"componentType":5126,
			"count":2,
			"type":"VEC3"
		},
		{
			"bufferView":59,
			"componentType":5126,
			"count":2,
			"type":"VEC3"
		},
		{
			"bufferView":60,
			"componentType":5126,
			"count":171,
			"type":"VEC4"
		},
		{
			"bufferView":61,
			"componentType":5126,
			"count":2,
			"type":"VEC3"
		},
		{
			"bufferView":62,
			"componentType":5126,
			"count":2,
			"type":"VEC3"
		},
		{
			"bufferView":63,
			"componentType":5126,
			"count":2,
			"type":"VEC4"
		},
		{
			"bufferView":64,
			"componentType":5126,
			"count":2,
			"type":"VEC3"
		},
		{
			"bufferView":65,
			"componentType":5126,
			"count":2,
			"type":"VEC3"
		},
		{
			"bufferView":66,
			"componentType":5126,
			"count":171,
			"type":"VEC4"
		},
		{
			"bufferView":67,
			"componentType":5126,
			"count":2,
			"type":"VEC3"
		},
		{
			"bufferView":68,
			"componentType":5126,
			"count":2,
			"type":"VEC3"
		},
		{
			"bufferView":69,
			"componentType":5126,
			"count":171,
			"type":"VEC4"
		},
		{
			"bufferView":70,
			"componentType":5126,
			"count":2,
			"type":"VEC3"
		},
		{
			"bufferView":71,
			"componentType":5126,
			"count":2,
			"type":"VEC3"
		},
		{
			"bufferView":72,
			"componentType":5126,
			"count":171,
			"type":"VEC4"
		},
		{
			"bufferView":73,
			"componentType":5126,
			"count":2,
			"type":"VEC3"
		},
		{
			"bufferView":74,
			"componentType":5126,
			"count":2,
			"type":"VEC3"
		},
		{
			"bufferView":75,
			"componentType":5126,
			"count":171,
			"type":"VEC4"
		},
		{
			"bufferView":76,
			"componentType":5126,
			"count":2,
			"type":"VEC3"
		},
		{
			"bufferView":77,
			"componentType":5126,
			"count":2,
			"type":"VEC3"
		},
		{
			"bufferView":78,
			"componentType":5126,
			"count":171,
			"type":"VEC4"
		},
		{
			"bufferView":79,
			"componentType":5126,
			"count":2,
			"type":"VEC3"
		},
		{
			"bufferView":80,
			"componentType":5126,
			"count":2,
			"type":"VEC3"
		},
		{
			"bufferView":81,
			"componentType":5126,
			"count":171,
			"type":"VEC4"
		},
		{
			"bufferView":82,
			"componentType":5126,
			"count":2,
			"type":"VEC3"
		},
		{
			"bufferView":83,
			"componentType":5126,
			"count":2,
			"type":"VEC3"
		},
		{
			"bufferView":84,
			"componentType":5126,
			"count":171,
			"type":"VEC4"
		},
		{
			"bufferView":85,
			"componentType":5126,
			"count":2,
			"type":"VEC3"
		},
		{
			"bufferView":86,
			"componentType":5126,
			"count":2,
			"type":"VEC3"
		},
		{
			"bufferView":87,
			"componentType":5126,
			"count":2,
			"type":"VEC4"
		},
		{
			"bufferView":88,
			"componentType":5126,
			"count":2,
			"type":"VEC3"
		},
		{
			"bufferView":89,
			"componentType":5126,
			"count":2,
			"type":"VEC3"
		},
		{
			"bufferView":90,
			"componentType":5126,
			"count":171,
			"type":"VEC4"
		},
		{
			"bufferView":91,
			"componentType":5126,
			"count":2,
			"type":"VEC3"
		},
		{
			"bufferView":92,
			"componentType":5126,
			"count":2,
			"type":"VEC3"
		},
		{
			"bufferView":93,
			"componentType":5126,
			"count":171,
			"type":"VEC4"
		},
		{
			"bufferView":94,
			"componentType":5126,
			"count":2,
			"type":"VEC3"
		},
		{
			"bufferView":95,
			"componentType":5126,
			"count":2,
			"type":"VEC3"
		},
		{
			"bufferView":96,
			"componentType":5126,
			"count":171,
			"type":"VEC4"
		},
		{
			"bufferView":97,
			"componentType":5126,
			"count":2,
			"type":"VEC3"
		},
		{
			"bufferView":98,
			"componentType":5126,
			"count":2,
			"type":"VEC3"
		},
		{
			"bufferView":99,
			"componentType":5126,
			"count":171,
			"type":"VEC4"
		},
		{
			"bufferView":100,
			"componentType":5126,
			"count":2,
			"type":"VEC3"
		},
		{
			"bufferView":101,
			"componentType":5126,
			"count":2,
			"type":"VEC3"
		},
		{
			"bufferView":102,
			"componentType":5126,
			"count":2,
			"type":"VEC4"
		},
		{
			"bufferView":103,
			"componentType":5126,
			"count":2,
			"type":"VEC3"
		},
		{
			"bufferView":104,
			"componentType":5126,
			"count":171,
			"type":"VEC4"
		},
		{
			"bufferView":105,
			"componentType":5126,
			"count":2,
			"type":"VEC3"
		},
		{
			"bufferView":106,
			"componentType":5126,
			"count":2,
			"type":"VEC3"
		},
		{
			"bufferView":107,
			"componentType":5126,
			"count":171,
			"type":"VEC4"
		},
		{
			"bufferView":108,
			"componentType":5126,
			"count":2,
			"type":"VEC3"
		},
		{
			"bufferView":109,
			"componentType":5126,
			"count":2,
			"type":"VEC3"
		},
		{
			"bufferView":110,
			"componentType":5126,
			"count":171,
			"type":"VEC4"
		},
		{
			"bufferView":111,
			"componentType":5126,
			"count":2,
			"type":"VEC3"
		},
		{
			"bufferView":112,
			"componentType":5126,
			"count":171,
			"type":"VEC4"
		},
		{
			"bufferView":113,
			"componentType":5126,
			"count":2,
			"type":"VEC3"
		},
		{
			"bufferView":114,
			"componentType":5126,
			"count":2,
			"type":"VEC3"
		},
		{
			"bufferView":115,
			"componentType":5126,
			"count":2,
			"type":"VEC4"
		},
		{
			"bufferView":116,
			"componentType":5126,
			"count":2,
			"type":"VEC3"
		},
		{
			"bufferView":117,
			"componentType":5126,
			"count":179,
			"max":[
				5.966666666666667
			],
			"min":[
				0.03333333333333333
			],
			"type":"SCALAR"
		},
		{
			"bufferView":118,
			"componentType":5126,
			"count":179,
			"type":"VEC3"
		},
		{
			"bufferView":119,
			"componentType":5126,
			"count":179,
			"type":"VEC4"
		},
		{
			"bufferView":120,
			"componentType":5126,
			"count":2,
			"max":[
				5.966666666666667
			],
			"min":[
				0.03333333333333333
			],
			"type":"SCALAR"
		},
		{
			"bufferView":121,
			"componentType":5126,
			"count":2,
			"type":"VEC3"
		},
		{
			"bufferView":122,
			"componentType":5126,
			"count":2,
			"type":"VEC3"
		},
		{
			"bufferView":123,
			"componentType":5126,
			"count":179,
			"type":"VEC4"
		},
		{
			"bufferView":124,
			"componentType":5126,
			"count":2,
			"type":"VEC3"
		},
		{
			"bufferView":125,
			"componentType":5126,
			"count":2,
			"type":"VEC3"
		},
		{
			"bufferView":126,
			"componentType":5126,
			"count":179,
			"type":"VEC4"
		},
		{
			"bufferView":127,
			"componentType":5126,
			"count":2,
			"type":"VEC3"
		},
		{
			"bufferView":128,
			"componentType":5126,
			"count":2,
			"type":"VEC3"
		},
		{
			"bufferView":129,
			"componentType":5126,
			"count":179,
			"type":"VEC4"
		},
		{
			"bufferView":130,
			"componentType":5126,
			"count":2,
			"type":"VEC3"
		},
		{
			"bufferView":131,
			"componentType":5126,
			"count":2,
			"type":"VEC3"
		},
		{
			"bufferView":132,
			"componentType":5126,
			"count":179,
			"type":"VEC4"
		},
		{
			"bufferView":133,
			"componentType":5126,
			"count":2,
			"type":"VEC3"
		},
		{
			"bufferView":134,
			"componentType":5126,
			"count":2,
			"type":"VEC3"
		},
		{
			"bufferView":135,
			"componentType":5126,
			"count":179,
			"type":"VEC4"
		},
		{
			"bufferView":136,
			"componentType":5126,
			"count":2,
			"type":"VEC3"
		},
		{
			"bufferView":137,
			"componentType":5126,
			"count":2,
			"type":"VEC3"
		},
		{
			"bufferView":138,
			"componentType":5126,
			"count":2,
			"type":"VEC4"
		},
		{
			"bufferView":139,
			"componentType":5126,
			"count":2,
			"type":"VEC3"
		},
		{
			"bufferView":140,
			"componentType":5126,
			"count":2,
			"type":"VEC3"
		},
		{
			"bufferView":141,
			"componentType":5126,
			"count":179,
			"type":"VEC4"
		},
		{
			"bufferView":142,
			"componentType":5126,
			"count":2,
			"type":"VEC3"
		},
		{
			"bufferView":143,
			"componentType":5126,
			"count":2,
			"type":"VEC3"
		},
		{
			"bufferView":144,
			"componentType":5126,
			"count":179,
			"type":"VEC4"
		},
		{
			"bufferView":145,
			"componentType":5126,
			"count":2,
			"type":"VEC3"
		},
		{
			"bufferView":146,
			"componentType":5126,
			"count":2,
			"type":"VEC3"
		},
		{
			"bufferView":147,
			"componentType":5126,
			"count":179,
			"type":"VEC4"
		},
		{
			"bufferView":148,
			"componentType":5126,
			"count":2,
			"type":"VEC3"
		},
		{
			"bufferView":149,
			"componentType":5126,
			"count":2,
			"type":"VEC3"
		},
		{
			"bufferView":150,
			"componentType":5126,
			"count":179,
			"type":"VEC4"
		},
		{
			"bufferView":151,
			"componentType":5126,
			"count":2,
			"type":"VEC3"
		},
		{
			"bufferView":152,
			"componentType":5126,
			"count":2,
			"type":"VEC4"
		},
		{
			"bufferView":153,
			"componentType":5126,
			"count":2,
			"type":"VEC3"
		},
		{
			"bufferView":154,
			"componentType":5126,
			"count":2,
			"type":"VEC3"
		},
		{
			"bufferView":155,
			"componentType":5126,
			"count":2,
			"type":"VEC4"
		},
		{
			"bufferView":156,
			"componentType":5126,
			"count":2,
			"type":"VEC3"
		},
		{
			"bufferView":157,
			"componentType":5126,
			"count":2,
			"type":"VEC3"
		},
		{
			"bufferView":158,
			"componentType":5126,
			"count":2,
			"type":"VEC4"
		},
		{
			"bufferView":159,
			"componentType":5126,
			"count":2,
			"type":"VEC3"
		},
		{
			"bufferView":160,
			"componentType":5126,
			"count":2,
			"type":"VEC3"
		},
		{
			"bufferView":161,
			"componentType":5126,
			"count":2,
			"type":"VEC4"
		},
		{
			"bufferView":162,
			"componentType":5126,
			"count":2,
			"type":"VEC3"
		},
		{
			"bufferView":163,
			"componentType":5126,
			"count":2,
			"type":"VEC3"
		},
		{
			"bufferView":164,
			"componentType":5126,
			"count":179,
			"type":"VEC4"
		},
		{
			"bufferView":165,
			"componentType":5126,
			"count":2,
			"type":"VEC3"
		},
		{
			"bufferView":166,
			"componentType":5126,
			"count":2,
			"type":"VEC3"
		},
		{
			"bufferView":167,
			"componentType":5126,
			"count":179,
			"type":"VEC4"
		},
		{
			"bufferView":168,
			"componentType":5126,
			"count":2,
			"type":"VEC3"
		},
		{
			"bufferView":169,
			"componentType":5126,
			"count":2,
			"type":"VEC3"
		},
		{
			"bufferView":170,
			"componentType":5126,
			"count":179,
			"type":"VEC4"
		},
		{
			"bufferView":171,
			"componentType":5126,
			"count":2,
			"type":"VEC3"
		},
		{
			"bufferView":172,
			"componentType":5126,
			"count":2,
			"type":"VEC3"
		},
		{
			"bufferView":173,
			"componentType":5126,
			"count":179,
			"type":"VEC4"
		},
		{
			"bufferView":174,
			"componentType":5126,
			"count":2,
			"type":"VEC3"
		},
		{
			"bufferView":175,
			"componentType":5126,
			"count":2,
			"type":"VEC3"
		},
		{
			"bufferView":176,
			"componentType":5126,
			"count":2,
			"type":"VEC4"
		},
		{
			"bufferView":177,
			"componentType":5126,
			"count":2,
			"type":"VEC3"
		},
		{
			"bufferView":178,
			"componentType":5126,
			"count":2,
			"type":"VEC3"
		},
		{
			"bufferView":179,
			"componentType":5126,
			"count":2,
			"type":"VEC4"
		},
		{
			"bufferView":180,
			"componentType":5126,
			"count":2,
			"type":"VEC3"
		},
		{
			"bufferView":181,
			"componentType":5126,
			"count":2,
			"type":"VEC3"
		},
		{
			"bufferView":182,
			"componentType":5126,
			"count":2,
			"type":"VEC4"
		},
		{
			"bufferView":183,
			"componentType":5126,
			"count":2,
			"type":"VEC3"
		},
		{
			"bufferView":184,
			"componentType":5126,
			"count":2,
			"type":"VEC3"
		},
		{
			"bufferView":185,
			"componentType":5126,
			"count":2,
			"type":"VEC4"
		},
		{
			"bufferView":186,
			"componentType":5126,
			"count":2,
			"type":"VEC3"
		},
		{
			"bufferView":187,
			"componentType":5126,
			"count":2,
			"type":"VEC3"
		},
		{
			"bufferView":188,
			"componentType":5126,
			"count":179,
			"type":"VEC4"
		},
		{
			"bufferView":189,
			"componentType":5126,
			"count":2,
			"type":"VEC3"
		},
		{
			"bufferView":190,
			"componentType":5126,
			"count":2,
			"type":"VEC3"
		},
		{
			"bufferView":191,
			"componentType":5126,
			"count":179,
			"type":"VEC4"
		},
		{
			"bufferView":192,
			"componentType":5126,
			"count":2,
			"type":"VEC3"
		},
		{
			"bufferView":193,
			"componentType":5126,
			"count":2,
			"type":"VEC3"
		},
		{
			"bufferView":194,
			"componentType":5126,
			"count":179,
			"type":"VEC4"
		},
		{
			"bufferView":195,
			"componentType":5126,
			"count":2,
			"type":"VEC3"
		},
		{
			"bufferView":196,
			"componentType":5126,
			"count":2,
			"type":"VEC3"
		},
		{
			"bufferView":197,
			"componentType":5126,
			"count":179,
			"type":"VEC4"
		},
		{
			"bufferView":198,
			"componentType":5126,
			"count":2,
			"type":"VEC3"
		},
		{
			"bufferView":199,
			"componentType":5126,
			"count":2,
			"type":"VEC3"
		},
		{
			"bufferView":200,
			"componentType":5126,
			"count":2,
			"type":"VEC4"
		},
		{
			"bufferView":201,
			"componentType":5126,
			"count":2,
			"type":"VEC3"
		},
		{
			"bufferView":202,
			"componentType":5126,
			"count":2,
			"type":"VEC3"
		},
		{
			"bufferView":203,
			"componentType":5126,
			"count":179,
			"type":"VEC4"
		},
		{
			"bufferView":204,
			"componentType":5126,
			"count":2,
			"type":"VEC3"
		},
		{
			"bufferView":205,
			"componentType":5126,
			"count":2,
			"type":"VEC3"
		},
		{
			"bufferView":206,
			"componentType":5126,
			"count":179,
			"type":"VEC4"
		},
		{
			"bufferView":207,
			"componentType":5126,
			"count":2,
			"type":"VEC3"
		},
		{
			"bufferView":208,
			"componentType":5126,
			"count":2,
			"type":"VEC3"
		},
		{
			"bufferView":209,
			"componentType":5126,
			"count":179,
			"type":"VEC4"
		},
		{
			"bufferView":210,
			"componentType":5126,
			"count":2,
			"type":"VEC3"
		},
		{
			"bufferView":211,
			"componentType":5126,
			"count":2,
			"type":"VEC3"
		},
		{
			"bufferView":212,
			"componentType":5126,
			"count":179,
			"type":"VEC4"
		},
		{
			"bufferView":213,
			"componentType":5126,
			"count":2,
			"type":"VEC3"
		},
		{
			"bufferView":214,
			"componentType":5126,
			"count":2,
			"type":"VEC3"
		},
		{
			"bufferView":215,
			"componentType":5126,
			"count":2,
			"type":"VEC4"
		}
	],
	"bufferViews":[
		{
			"buffer":0,
			"byteLength":2880,
			"byteOffset":0,
			"target":34962
		},
		{
			"buffer":0,
			"byteLength":2880,
			"byteOffset":2880,
			"target":34962
		},
		{
			"buffer":0,
			"byteLength":1920,
			"byteOffset":5760,
			"target":34962
		},
		{
			"buffer":0,
			"byteLength":960,
			"byteOffset":7680,
			"target":34962
		},
		{
			"buffer":0,
			"byteLength":3840,
			"byteOffset":8640,
			"target":34962
		},
		{
			"buffer":0,
			"byteLength":480,
			"byteOffset":12480,
			"target":34963
		},
		{
			"buffer":0,
			"byteLength":10104,
			"byteOffset":12960,
			"target":34962
		},
		{
			"buffer":0,
			"byteLength":10104,
			"byteOffset":23064,
			"target":34962
		},
		{
			"buffer":0,
			"byteLength":6736,
			"byteOffset":33168,
			"target":34962
		},
		{
			"buffer":0,
			"byteLength":3368,
			"byteOffset":39904,
			"target":34962
		},
		{
			"buffer":0,
			"byteLength":13472,
			"byteOffset":43272,
			"target":34962
		},
		{
			"buffer":0,
			"byteLength":2376,
			"byteOffset":56744,
			"target":34963
		},
		{
			"buffer":0,
			"byteLength":2112,
			"byteOffset":59120
		},
		{
			"buffer":0,
			"byteLength":2880,
			"byteOffset":61232,
			"target":34962
		},
		{
			"buffer":0,
			"byteLength":2880,
			"byteOffset":64112,
			"target":34962
		},
		{
			"buffer":0,
			"byteLength":1920,
			"byteOffset":66992,
			"target":34962
		},
		{
			"buffer":0,
			"byteLength":960,
			"byteOffset":68912,
			"target":34962
		},
		{
			"buffer":0,
			"byteLength":3840,
			"byteOffset":69872,
			"target":34962
		},
		{
			"buffer":0,
			"byteLength":684,
			"byteOffset":73712
		},
		{
			"buffer":0,
			"byteLength":2052,
			"byteOffset":74396
		},
		{
			"buffer":0,
			"byteLength":2736,
			"byteOffset":76448
		},
		{
			"buffer":0,
			"byteLength":8,
			"byteOffset":79184
		},
		{
			"buffer":0,
			"byteLength":24,
			"byteOffset":79192
		},
		{
			"buffer":0,
			"byteLength":24,
			"byteOffset":79216
		},
		{
			"buffer":0,
			"byteLength":2736,
			"byteOffset":79240
		},
		{
			"buffer":0,
			"byteLength":24,
			"byteOffset":81976
		},
		{
			"buffer":0,
			"byteLength":24,
			"byteOffset":82000
		},
		{
			"buffer":0,
			"byteLength":2736,
			"byteOffset":82024
		},
		{
			"buffer":0,
			"byteLength":24,
			"byteOffset":84760
		},
		{
			"buffer":0,
			"byteLength":24,
			"byteOffset":84784
		},
		{
			"buffer":0,
			"byteLength":2736,
			"byteOffset":84808
		},
		{
			"buffer":0,
			"byteLength":24,
			"byteOffset":87544
		},
		{
			"buffer":0,
			"byteLength":24,
			"byteOffset":87568
		},
		{
			"buffer":0,
			"byteLength":2736,
			"byteOffset":87592
		},
		{
			"buffer":0,
			"byteLength":24,
			"byteOffset":90328
		},
		{
			"buffer":0,
			"byteLength":24,
			"byteOffset":90352
		},
		{
			"buffer":0,
			"byteLength":2736,
			"byteOffset":90376
		},
		{
			"buffer":0,
			"byteLength":24,
			"byteOffset":93112
		},
		{
			"buffer":0,
			"byteLength":24,
			"byteOffset":93136
		},
		{
			"buffer":0,
			"byteLength":32,
			"byteOffset":93160
		},
		{
			"buffer":0,
			"byteLength":24,
			"byteOffset":93192
		},
		{
			"buffer":0,
			"byteLength":24,
			"byteOffset":93216
		},
		{
			"buffer":0,
			"byteLength":2736,
			"byteOffset":93240
		},
		{
			"buffer":0,
			"byteLength":24,
			"byteOffset":95976
		},
		{
			"buffer":0,
			"byteLength":24,
			"byteOffset":96000
		},
		{
			"buffer":0,
			"byteLength":2736,
			"byteOffset":96024
		},
		{
			"buffer":0,
			"byteLength":24,
			"byteOffset":98760
		},
		{
			"buffer":0,
			"byteLength":24,
			"byteOffset":98784
		},
		{
			"buffer":0,
			"byteLength":2736,
			"byteOffset":98808
		},
		{
			"buffer":0,
			"byteLength":24,
			"byteOffset":101544
		},
		{
			"buffer":0,
			"byteLength":24,
			"byteOffset":101568
		},
		{
			"buffer":0,
			"byteLength":2736,
			"byteOffset":101592
		},
		{
			"buffer":0,
			"byteLength":24,
			"byteOffset":104328
		},
		{
			"buffer":0,
			"byteLength":24,
			"byteOffset":104352
		},
		{
			"buffer":0,
			"byteLength":2736,
			"byteOffset":104376
		},
		{
			"buffer":0,
			"byteLength":24,
			"byteOffset":107112
		},
		{
			"buffer":0,
			"byteLength":24,
			"byteOffset":107136
		},
		{
			"buffer":0,
			"byteLength":2736,
			"byteOffset":107160
		},
		{
			"buffer":0,
			"byteLength":24,
			"byteOffset":109896
		},
		{
			"buffer":0,
			"byteLength":24,
			"byteOffset":109920
		},
		{
			"buffer":0,
			"byteLength":2736,
			"byteOffset":109944
		},
		{
			"buffer":0,
			"byteLength":24,
			"byteOffset":112680
		},
		{
			"buffer":0,
			"byteLength":24,
			"byteOffset":112704
		},
		{
			"buffer":0,
			"byteLength":32,
			"byteOffset":112728
		},
		{
			"buffer":0,
			"byteLength":24,
			"byteOffset":112760
		},
		{
			"buffer":0,
			"byteLength":24,
			"byteOffset":112784
		},
		{
			"buffer":0,
			"byteLength":2736,
			"byteOffset":112808
		},
		{
			"buffer":0,
			"byteLength":24,
			"byteOffset":115544
		},
		{
			"buffer":0,
			"byteLength":24,
			"byteOffset":115568
		},
		{
			"buffer":0,
			"byteLength":2736,
			"byteOffset":115592
		},
		{
			"buffer":0,
			"byteLength":24,
			"byteOffset":118328
		},
		{
			"buffer":0,
			"byteLength":24,
			"byteOffset":118352
		},
		{
			"buffer":0,
			"byteLength":2736,
			"byteOffset":118376
		},
		{
			"buffer":0,
			"byteLength":24,
			"byteOffset":121112
		},
		{
			"buffer":0,
			"byteLength":24,
			"byteOffset":121136
		},
		{
			"buffer":0,
			"byteLength":2736,
			"byteOffset":121160
		},
		{
			"buffer":0,
			"byteLength":24,
			"byteOffset":123896
		},
		{
			"buffer":0,
			"byteLength":24,
			"byteOffset":123920
		},
		{
			"buffer":0,
			"byteLength":2736,
			"byteOffset":123944
		},
		{
			"buffer":0,
			"byteLength":24,
			"byteOffset":126680
		},
		{
			"buffer":0,
			"byteLength":24,
			"byteOffset":126704
		},
		{
			"buffer":0,
			"byteLength":2736,
			"byteOffset":126728
		},
		{
			"buffer":0,
			"byteLength":24,
			"byteOffset":129464
		},
		{
			"buffer":0,
			"byteLength":24,
			"byteOffset":129488
		},
		{
			"buffer":0,
			"byteLength":2736,
			"byteOffset":129512
		},
		{
			"buffer":0,
			"byteLength":24,
			"byteOffset":132248
		},
		{
			"buffer":0,
			"byteLength":24,
			"byteOffset":132272
		},
		{
			"buffer":0,
			"byteLength":32,
			"byteOffset":132296
		},
		{
			"buffer":0,
			"byteLength":24,
			"byteOffset":132328
		},
		{
			"buffer":0,
			"byteLength":24,
			"byteOffset":132352
		},
		{
			"buffer":0,
			"byteLength":2736,
			"byteOffset":132376
		},
		{
			"buffer":0,
			"byteLength":24,
			"byteOffset":135112
		},
		{
			"buffer":0,
			"byteLength":24,
			"byteOffset":135136
		},
		{
			"buffer":0,
			"byteLength":2736,
			"byteOffset":135160
		},
		{
			"buffer":0,
			"byteLength":24,
			"byteOffset":137896
		},
		{
			"buffer":0,
			"byteLength":24,
			"byteOffset":137920
		},
		{
			"buffer":0,
			"byteLength":2736,
			"byteOffset":137944
		},
		{
			"buffer":0,
			"byteLength":24,
			"byteOffset":140680
		},
		{
			"buffer":0,
			"byteLength":24,
			"byteOffset":140704
		},
		{
			"buffer":0,
			"byteLength":2736,
			"byteOffset":140728
		},
		{
			"buffer":0,
			"byteLength":24,
			"byteOffset":143464
		},
		{
			"buffer":0,
			"byteLength":24,
			"byteOffset":143488
		},
		{
			"buffer":0,
			"byteLength":32,
			"byteOffset":143512
		},
		{
			"buffer":0,
			"byteLength":24,
			"byteOffset":143544
		},
		{
			"buffer":0,
			"byteLength":2736,
			"byteOffset":143568
		},
		{
			"buffer":0,
			"byteLength":24,
			"byteOffset":146304
		},
		{
			"buffer":0,
			"byteLength":24,
			"byteOffset":146328
		},
		{
			"buffer":0,
			"byteLength":2736,
			"byteOffset":146352
		},
		{
			"buffer":0,
			"byteLength":24,
			"byteOffset":149088
		},
		{
			"buffer":0,
			"byteLength":24,
			"byteOffset":149112
		},
		{
			"buffer":0,
			"byteLength":2736,
			"byteOffset":149136
		},
		{
			"buffer":0,
			"byteLength":24,
			"byteOffset":151872
		},
		{
			"buffer":0,
			"byteLength":2736,
			"byteOffset":151896
		},
		{
			"buffer":0,
			"byteLength":24,
			"byteOffset":154632
		},
		{
			"buffer":0,
			"byteLength":24,
			"byteOffset":154656
		},
		{
			"buffer":0,
			"byteLength":32,
			"byteOffset":154680
		},
		{
			"buffer":0,
			"byteLength":24,
			"byteOffset":154712
		},
		{
			"buffer":0,
			"byteLength":716,
			"byteOffset":154736
		},
		{
			"buffer":0,
			"byteLength":2148,
			"byteOffset":155452
		},
		{
			"buffer":0,
			"byteLength":2864,
			"byteOffset":157600
		},
		{
			"buffer":0,
			"byteLength":8,
			"byteOffset":160464
		},
		{
			"buffer":0,
			"byteLength":24,
			"byteOffset":160472
		},
		{
			"buffer":0,
			"byteLength":24,
			"byteOffset":160496
		},
		{
			"buffer":0,
			"byteLength":2864,
			"byteOffset":160520
		},
		{
			"buffer":0,
			"byteLength":24,
			"byteOffset":163384
		},
		{
			"buffer":0,
			"byteLength":24,
			"byteOffset":163408
		},
		{
			"buffer":0,
			"byteLength":2864,
			"byteOffset":163432
		},
		{
			"buffer":0,
			"byteLength":24,
			"byteOffset":166296
		},
		{
			"buffer":0,
			"byteLength":24,
			"byteOffset":166320
		},
		{
			"buffer":0,
			"byteLength":2864,
			"byteOffset":166344
		},
		{
			"buffer":0,
			"byteLength":24,
			"byteOffset":169208
		},
		{
			"buffer":0,
			"byteLength":24,
			"byteOffset":169232
		},
		{
			"buffer":0,
			"byteLength":2864,
			"byteOffset":169256
		},
		{
			"buffer":0,
			"byteLength":24,
			"byteOffset":172120
		},
		{
			"buffer":0,
			"byteLength":24,
			"byteOffset":172144
		},
		{
			"buffer":0,
			"byteLength":2864,
			"byteOffset":172168
		},
		{
			"buffer":0,
			"byteLength":24,
			"byteOffset":175032
		},
		{
			"buffer":0,
			"byteLength":24,
			"byteOffset":175056
		},
		{
			"buffer":0,
			"byteLength":32,
			"byteOffset":175080
		},
		{
			"buffer":0,
			"byteLength":24,
			"byteOffset":175112
		},
		{
			"buffer":0,
			"byteLength":24,
			"byteOffset":175136
		},
		{
			"buffer":0,
			"byteLength":2864,
			"byteOffset":175160
		},
		{
			"buffer":0,
			"byteLength":24,
			"byteOffset":178024
		},
		{
			"buffer":0,
			"byteLength":24,
			"byteOffset":178048
		},
		{
			"buffer":0,
			"byteLength":2864,
			"byteOffset":178072
		},
		{
			"buffer":0,
			"byteLength":24,
			"byteOffset":180936
		},
		{
			"buffer":0,
			"byteLength":24,
			"byteOffset":180960
		},
		{
			"buffer":0,
			"byteLength":2864,
			"byteOffset":180984
		},
		{
			"buffer":0,
			"byteLength":24,
			"byteOffset":183848
		},
		{
			"buffer":0,
			"byteLength":24,
			"byteOffset":183872
		},
		{
			"buffer":0,
			"byteLength":2864,
			"byteOffset":183896
		},
		{
			"buffer":0,
			"byteLength":24,
			"byteOffset":186760
		},
		{
			"buffer":0,
			"byteLength":32,
			"byteOffset":186784
		},
		{
			"buffer":0,
			"byteLength":24,
			"byteOffset":186816
		},
		{
			"buffer":0,
			"byteLength":24,
			"byteOffset":186840
		},
		{
			"buffer":0,
			"byteLength":32,
			"byteOffset":186864
		},
		{
			"buffer":0,
			"byteLength":24,
			"byteOffset":186896
		},
		{
			"buffer":0,
			"byteLength":24,
			"byteOffset":186920
		},
		{
			"buffer":0,
			"byteLength":32,
			"byteOffset":186944
		},
		{
			"buffer":0,
			"byteLength":24,
			"byteOffset":186976
		},
		{
			"buffer":0,
			"byteLength":24,
			"byteOffset":187000
		},
		{
			"buffer":0,
			"byteLength":32,
			"byteOffset":187024
		},
		{
			"buffer":0,
			"byteLength":24,
			"byteOffset":187056
		},
		{
			"buffer":0,
			"byteLength":24,
			"byteOffset":187080
		},
		{
			"buffer":0,
			"byteLength":2864,
			"byteOffset":187104
		},
		{
			"buffer":0,
			"byteLength":24,
			"byteOffset":189968
		},
		{
			"buffer":0,
			"byteLength":24,
			"byteOffset":189992
		},
		{
			"buffer":0,
			"byteLength":2864,
			"byteOffset":190016
		},
		{
			"buffer":0,
			"byteLength":24,
			"byteOffset":192880
		},
		{
			"buffer":0,
			"byteLength":24,
			"byteOffset":192904
		},
		{
			"buffer":0,
			"byteLength":2864,
			"byteOffset":192928
		},
		{
			"buffer":0,
			"byteLength":24,
			"byteOffset":195792
		},
		{
			"buffer":0,
			"byteLength":24,
			"byteOffset":195816
		},
		{
			"buffer":0,
			"byteLength":2864,
			"byteOffset":195840
		},
		{
			"buffer":0,
			"byteLength":24,
			"byteOffset":198704
		},
		{
			"buffer":0,
			"byteLength":24,
			"byteOffset":198728
		},
		{
			"buffer":0,
			"byteLength":32,
			"byteOffset":198752
		},
		{
			"buffer":0,
			"byteLength":24,
			"byteOffset":198784
		},
		{
			"buffer":0,
			"byteLength":24,
			"byteOffset":198808
		},
		{
			"buffer":0,
			"byteLength":32,
			"byteOffset":198832
		},
		{
			"buffer":0,
			"byteLength":24,
			"byteOffset":198864
		},
		{
			"buffer":0,
			"byteLength":24,
			"byteOffset":198888
		},
		{
			"buffer":0,
			"byteLength":32,
			"byteOffset":198912
		},
		{
			"buffer":0,
			"byteLength":24,
			"byteOffset":198944
		},
		{
			"buffer":0,
			"byteLength":24,
			"byteOffset":198968
		},
		{
			"buffer":0,
			"byteLength":32,
			"byteOffset":198992
		},
		{
			"buffer":0,
			"byteLength":24,
			"byteOffset":199024
		},
		{
			"buffer":0,
			"byteLength":24,
			"byteOffset":199048
		},
		{
			"buffer":0,
			"byteLength":2864,
			"byteOffset":199072
		},
		{
			"buffer":0,
			"byteLength":24,
			"byteOffset":201936
		},
		{
			"buffer":0,
			"byteLength":24,
			"byteOffset":201960
		},
		{
			"buffer":0,
			"byteLength":2864,
			"byteOffset":201984
		},
		{
			"buffer":0,
			"byteLength":24,
			"byteOffset":204848
		},
		{
			"buffer":0,
			"byteLength":24,
			"byteOffset":204872
		},
		{
			"buffer":0,
			"byteLength":2864,
			"byteOffset":204896
		},
		{
			"buffer":0,
			"byteLength":24,
			"byteOffset":207760
		},
		{
			"buffer":0,
			"byteLength":24,
			"byteOffset":207784
		},
		{
			"buffer":0,
			"byteLength":2864,
			"byteOffset":207808
		},
		{
			"buffer":0,
			"byteLength":24,
			"byteOffset":210672
		},
		{
			"buffer":0,
			"byteLength":24,
			"byteOffset":210696
		},
		{
			"buffer":0,
			"byteLength":32,
			"byteOffset":210720
		},
		{
			"buffer":0,
			"byteLength":24,
			"byteOffset":210752
		},
		{
			"buffer":0,
			"byteLength":24,
			"byteOffset":210776
		},
		{
			"buffer":0,
			"byteLength":2864,
			"byteOffset":210800
		},
		{
			"buffer":0,
			"byteLength":24,
			"byteOffset":213664
		},
		{
			"buffer":0,
			"byteLength":24,
			"byteOffset":213688
		},
		{
			"buffer":0,
			"byteLength":2864,
			"byteOffset":213712
		},
		{
			"buffer":0,
			"byteLength":24,
			"byteOffset":216576
		},
		{
			"buffer":0,
			"byteLength":24,
			"byteOffset":216600
		},
		{
			"buffer":0,
			"byteLength":2864,
			"byteOffset":216624
		},
		{
			"buffer":0,
			"byteLength":24,
			"byteOffset":219488
		},
		{
			"buffer":0,
			"byteLength":24,
			"byteOffset":219512
		},
		{
			"buffer":0,
			"byteLength":2864,
			"byteOffset":219536
		},
		{
			"buffer":0,
			"byteLength":24,
			"byteOffset":222400
		},
		{
			"buffer":0,
			"byteLength":24,
			"byteOffset":222424
		},
		{
			"buffer":0,
			"byteLength":32,
			"byteOffset":222448
		}
	],
	"samplers":[
		{
			"magFilter":9729,
			"minFilter":9987
		}
	],
	"buffers":[
		{
			"byteLength":222480,
			"uri":"zemljaAnimation.bin"
		}
	]
}
