# Blender 4.5.3 LTS
# www.blender.org
mtllib sonce-proto.mtl
o Icosphere
v 0.000000 1.138370 0.090921
v 0.260717 1.307248 0.307779
v -0.099583 1.289889 0.423556
v -0.322263 1.335337 0.120454
v -0.099583 1.380782 -0.182648
v 0.260717 1.363423 -0.066872
v 0.099583 1.608594 0.471342
v -0.260717 1.625954 0.355565
v -0.260717 1.682128 -0.019086
v 0.099583 1.699487 -0.134862
v 0.322263 1.654039 0.168239
v -0.000000 1.851007 0.197772
v -0.058533 1.164872 0.277057
v 0.153244 1.175075 0.209006
v 0.094712 1.264136 0.404525
v 0.306490 1.307359 0.116259
v 0.153244 1.208094 -0.011206
v -0.189421 1.191585 0.098900
v -0.247956 1.280646 0.294417
v -0.058533 1.218297 -0.079258
v -0.247956 1.334071 -0.061899
v 0.094712 1.350580 -0.172007
v 0.342667 1.478179 0.254454
v 0.342667 1.511197 0.034240
v 0.000000 1.441263 0.500665
v 0.211780 1.451466 0.432614
v -0.342667 1.478179 0.254454
v -0.211780 1.451466 0.432614
v -0.211780 1.537910 -0.143921
v -0.342667 1.511197 0.034240
v 0.211780 1.537910 -0.143921
v -0.000000 1.548114 -0.211972
v 0.247956 1.655305 0.350592
v -0.094712 1.638796 0.460700
v -0.306490 1.682018 0.172434
v -0.094712 1.725240 -0.115831
v 0.247956 1.708730 -0.005724
v 0.058533 1.771079 0.367951
v 0.189421 1.797791 0.189793
v -0.153244 1.781283 0.299900
v -0.153244 1.814301 0.079687
v 0.058533 1.824504 0.011636
v 0.297244 0.196571 0.032129
v 0.297244 0.196571 0.032129
v 0.297244 0.196571 0.032129
v 0.297244 0.196571 0.032129
v 0.296934 0.299833 0.022185
v 0.296934 0.299833 0.022185
v 0.296934 0.299833 0.022185
v 0.296934 0.299833 0.022185
v 0.232032 0.284760 0.107799
v 0.232032 0.284760 0.107799
v 0.232032 0.284760 0.107799
v 0.232032 0.284760 0.107799
v 0.256347 0.188756 0.089528
v 0.256347 0.188756 0.089528
v 0.256347 0.188756 0.089528
v 0.256347 0.188756 0.089528
v 0.160578 0.294865 0.033006
v 0.160578 0.294865 0.033006
v 0.160578 0.294865 0.033006
v 0.160578 0.294865 0.033006
v 0.213897 0.195647 0.032951
v 0.213897 0.195647 0.032951
v 0.213897 0.195647 0.032951
v 0.213897 0.195647 0.032951
v 0.217867 0.298952 -0.028869
v 0.217867 0.298952 -0.028869
v 0.217867 0.298952 -0.028869
v 0.217867 0.298952 -0.028869
v 0.252483 0.217981 -0.031306
v 0.252483 0.217981 -0.031306
v 0.252483 0.217981 -0.031306
v 0.252483 0.217981 -0.031306
v 0.283204 0.029307 -0.024634
v 0.283204 0.029307 -0.024634
v 0.283204 0.029307 -0.024634
v 0.283204 0.029307 -0.024634
v 0.339174 0.029307 0.036723
v 0.339174 0.029307 0.036723
v 0.339174 0.029307 0.036723
v 0.339174 0.029307 0.036723
v 0.344874 -0.006891 0.030557
v 0.344874 -0.006891 0.030557
v 0.344874 -0.006891 0.030557
v 0.344874 -0.006891 0.030557
v 0.285755 -0.006891 -0.023903
v 0.285755 -0.006891 -0.023903
v 0.285755 -0.006891 -0.023903
v 0.165304 0.377699 0.080795
v 0.165304 0.377699 0.080795
v 0.165304 0.377699 0.080795
v 0.165304 0.377699 0.080795
v 0.209816 0.379818 0.006322
v 0.209816 0.379818 0.006322
v 0.209816 0.379818 0.006322
v 0.209816 0.379818 0.006322
v 0.078070 0.541407 0.127956
v 0.078070 0.541407 0.127956
v 0.078070 0.541407 0.127956
v 0.078070 0.541407 0.127956
v 0.157763 0.548747 -0.001604
v 0.157763 0.548747 -0.001604
v 0.157763 0.548747 -0.001604
v 0.157763 0.548747 -0.001604
v 0.255053 0.382060 0.072090
v 0.255053 0.382060 0.072090
v 0.255053 0.382060 0.072090
v 0.255053 0.382060 0.072090
v 0.209753 0.379812 0.158018
v 0.209753 0.379812 0.158018
v 0.209753 0.379812 0.158018
v 0.209753 0.379812 0.158018
v 0.237441 0.556065 0.105486
v 0.237441 0.556065 0.105486
v 0.237441 0.556065 0.105486
v 0.237441 0.556065 0.105486
v 0.087826 0.702107 0.009288
v 0.087826 0.702107 0.009288
v 0.087826 0.702107 0.009288
v 0.087826 0.702107 0.009288
v 0.087826 0.702107 0.009288
v 0.149648 0.748643 0.115071
v 0.149648 0.748643 0.115071
v 0.149648 0.748643 0.115071
v 0.149648 0.748643 0.115071
v 0.157763 0.548747 0.233525
v 0.157763 0.548747 0.233525
v 0.157763 0.548747 0.233525
v 0.157763 0.548747 0.233525
v 0.087826 0.702107 0.220853
v 0.087826 0.702107 0.220853
v 0.087826 0.702107 0.220853
v 0.087826 0.702107 0.220853
v 0.087826 0.702107 0.220853
v 0.000000 0.655572 0.115071
v 0.000000 0.655572 0.115071
v 0.000000 0.655572 0.115071
v 0.000000 0.655572 0.115071
v 0.000000 0.655572 0.115071
v 0.000000 0.655572 0.115071
v 0.000000 0.655572 0.115071
v 0.000000 0.655572 0.115071
v 0.275170 0.103405 -0.005108
v 0.275170 0.103405 -0.005108
v 0.275170 0.103405 -0.005108
v 0.275170 0.103405 -0.005108
v 0.326047 0.056827 0.037638
v 0.326047 0.056827 0.037638
v 0.326047 0.056827 0.037638
v 0.326047 0.056827 0.037638
v 0.326047 0.056827 0.037638
v 0.243826 0.056826 0.046321
v 0.243826 0.056826 0.046321
v 0.243826 0.056826 0.046321
v 0.243826 0.056826 0.046321
v 0.243826 0.056826 0.046321
v 0.282804 0.082271 0.090324
v 0.282804 0.082271 0.090324
v 0.282804 0.082271 0.090324
v 0.282804 0.082271 0.090324
v 0.293877 -0.005097 0.098998
v 0.293877 -0.005097 0.098998
v 0.293877 -0.005097 0.098998
v 0.234414 -0.006891 0.046736
v 0.234414 -0.006891 0.046736
v 0.234414 -0.006891 0.046736
v 0.234414 -0.006891 0.046736
v 0.237037 0.029307 0.051683
v 0.237037 0.029307 0.051683
v 0.237037 0.029307 0.051683
v 0.237037 0.029307 0.051683
v 0.246640 -0.006891 0.267093
v 0.246640 -0.006891 0.267093
v 0.246640 -0.006891 0.267093
v 0.251226 0.016555 0.274072
v 0.251226 0.016555 0.274072
v 0.251226 0.016555 0.274072
v 0.251226 0.016555 0.274072
v 0.306741 -0.006891 0.287336
v 0.306741 -0.006891 0.287336
v 0.306741 -0.006891 0.287336
v 0.306741 -0.006891 0.287336
v 0.307577 0.016555 0.301196
v 0.307577 0.016555 0.301196
v 0.307577 0.016555 0.301196
v 0.307577 0.016555 0.301196
v 0.358924 0.016555 0.259111
v 0.358924 0.016555 0.259111
v 0.358924 0.016555 0.259111
v 0.358924 0.016555 0.259111
v 0.363113 -0.006891 0.250913
v 0.363113 -0.006891 0.250913
v 0.363113 -0.006891 0.250913
v 0.335447 0.036977 0.146065
v 0.335447 0.036977 0.146065
v 0.335447 0.036977 0.146065
v 0.253226 0.036977 0.154748
v 0.253226 0.036977 0.154748
v 0.253226 0.036977 0.154748
v 0.297205 0.031641 0.188340
v 0.297205 0.031641 0.188340
v 0.297205 0.031641 0.188340
v 0.297205 0.031641 0.188340
v 0.066964 0.811270 0.055371
v 0.066964 0.811270 0.055371
v 0.066964 0.811270 0.055371
v 0.066964 0.811270 0.055371
v 0.133926 0.801965 0.134583
v 0.133926 0.801965 0.134583
v 0.133926 0.801965 0.134583
v 0.133926 0.801965 0.134583
v 0.124718 0.853294 0.144664
v 0.124718 0.853294 0.144664
v 0.124718 0.853294 0.144664
v 0.124718 0.853294 0.144664
v 0.078958 0.856645 0.071426
v 0.078958 0.856645 0.071426
v 0.078958 0.856645 0.071426
v 0.078958 0.856645 0.071426
v 0.092913 0.926171 0.073076
v 0.092913 0.926171 0.073076
v 0.092913 0.926171 0.073076
v 0.092913 0.926171 0.073076
v 0.127469 0.918376 0.143374
v 0.127469 0.918376 0.143374
v 0.127469 0.918376 0.143374
v 0.127469 0.918376 0.143374
v 0.000000 0.779483 0.253489
v 0.000000 0.779483 0.253489
v 0.000000 0.779483 0.253489
v 0.000000 0.779483 0.253489
v 0.081415 0.790724 0.224859
v 0.081415 0.790724 0.224859
v 0.081415 0.790724 0.224859
v 0.081415 0.790724 0.224859
v 0.076811 0.847999 0.230939
v 0.076811 0.847999 0.230939
v 0.076811 0.847999 0.230939
v 0.076811 0.847999 0.230939
v 0.000000 0.855569 0.255572
v 0.000000 0.855569 0.255572
v 0.000000 0.855569 0.255572
v 0.000000 0.855569 0.255572
v 0.076811 0.910179 0.231316
v 0.076811 0.910179 0.231316
v 0.076811 0.910179 0.231316
v 0.076811 0.910179 0.231316
v 0.000000 0.925689 0.256390
v 0.000000 0.925689 0.256390
v 0.000000 0.925689 0.256390
v 0.000000 0.925689 0.256390
v -0.000000 0.979041 0.278686
v -0.000000 0.979041 0.278686
v -0.000000 0.979041 0.278686
v -0.000000 0.979041 0.278686
v 0.046076 0.977538 0.262612
v 0.046076 0.977538 0.262612
v 0.046076 0.977538 0.262612
v 0.046076 0.977538 0.262612
v 0.086890 1.042629 0.241516
v 0.086890 1.042629 0.241516
v 0.086890 1.042629 0.241516
v 0.086890 1.042629 0.241516
v 0.000000 1.051674 0.265067
v 0.000000 1.051674 0.265067
v 0.000000 1.051674 0.265067
v 0.000000 1.051674 0.265067
v 0.160902 0.971156 0.128496
v 0.160902 0.971156 0.128496
v 0.160902 0.971156 0.128496
v 0.160902 0.971156 0.128496
v 0.127123 0.992418 0.033047
v 0.127123 0.992418 0.033047
v 0.127123 0.992418 0.033047
v 0.127123 0.992418 0.033047
v 0.153382 1.047487 -0.008856
v 0.153382 1.047487 -0.008856
v 0.153382 1.047487 -0.008856
v 0.153382 1.047487 -0.008856
v 0.153382 1.047487 -0.008856
v 0.176489 1.027219 0.098883
v 0.176489 1.027219 0.098883
v 0.176489 1.027219 0.098883
v 0.176489 1.027219 0.098883
v 0.176489 1.027219 0.098883
v -0.000000 1.110631 0.205655
v -0.000000 1.110631 0.205655
v -0.000000 1.110631 0.205655
v -0.000000 1.110631 0.205655
v 0.134133 1.117995 0.185973
v 0.134133 1.117995 0.185973
v 0.134133 1.117995 0.185973
v 0.134133 1.117995 0.185973
v 0.054666 1.146369 0.124579
v 0.054666 1.146369 0.124579
v 0.054666 1.146369 0.124579
v 0.054666 1.146369 0.124579
v 0.000000 1.141680 0.139839
v 0.000000 1.141680 0.139839
v 0.000000 1.141680 0.139839
v 0.000000 1.141680 0.139839
v 0.000000 0.675320 0.235441
v 0.000000 0.675320 0.235441
v 0.000000 0.675320 0.235441
v 0.000000 0.675320 0.235441
v -0.000000 0.745319 0.000392
v -0.000000 0.745319 0.000392
v -0.000000 0.745319 0.000392
v -0.000000 0.745319 0.000392
v 0.109333 1.153478 0.074394
v 0.109333 1.153478 0.074394
v 0.109333 1.153478 0.074394
v 0.109333 1.153478 0.074394
v 0.054666 1.156306 0.038110
v 0.054666 1.156306 0.038110
v 0.054666 1.156306 0.038110
v 0.054666 1.156306 0.038110
v 0.035133 1.179681 0.038076
v 0.035133 1.179681 0.038076
v 0.035133 1.179681 0.038076
v 0.035133 1.179681 0.038076
v 0.063176 1.173965 0.091023
v 0.063176 1.173965 0.091023
v 0.063176 1.173965 0.091023
v 0.063176 1.173965 0.091023
v 0.189844 1.119098 0.099338
v 0.189844 1.119098 0.099338
v 0.189844 1.119098 0.099338
v 0.189844 1.119098 0.099338
v 0.189844 1.119098 0.099338
v 0.235077 1.138169 0.046201
v 0.235077 1.138169 0.046201
v 0.235077 1.138169 0.046201
v 0.235077 1.138169 0.046201
v 0.035133 1.201412 0.052460
v 0.035133 1.201412 0.052460
v 0.050010 1.195695 0.105409
v 0.050010 1.195695 0.105409
v 0.035133 1.168834 0.139998
v 0.035133 1.168834 0.139998
v 0.035133 1.168834 0.139998
v 0.035133 1.168834 0.139998
v -0.000000 1.163703 0.154049
v -0.000000 1.163703 0.154049
v -0.000000 1.163703 0.154049
v -0.000000 1.163703 0.154049
v 0.035133 1.190565 0.154384
v 0.035133 1.190565 0.154384
v -0.000000 1.185434 0.168434
v -0.000000 1.185434 0.168434
v -0.000000 1.207129 0.035536
v -0.000000 1.207129 0.035536
v -0.000000 1.185399 0.021150
v -0.000000 1.185399 0.021150
v -0.000000 1.185399 0.021150
v -0.000000 1.185399 0.021150
v -0.000000 1.158579 -0.005100
v -0.000000 1.158579 -0.005100
v -0.000000 1.158579 -0.005100
v -0.000000 1.158579 -0.005100
v 0.166767 1.125168 -0.044563
v 0.166767 1.125168 -0.044563
v 0.166767 1.125168 -0.044563
v 0.166767 1.125168 -0.044563
v 0.000000 1.143779 -0.020561
v 0.000000 1.143779 -0.020561
v 0.000000 1.143779 -0.020561
v 0.000000 1.143779 -0.020561
v 0.000000 1.004801 -0.031272
v 0.000000 1.004801 -0.031272
v 0.000000 1.004801 -0.031272
v 0.000000 1.004801 -0.031272
v 0.000000 1.070908 -0.047794
v 0.000000 1.070908 -0.047794
v 0.000000 1.070908 -0.047794
v 0.000000 1.070908 -0.047794
v 0.000000 0.820575 0.030877
v 0.000000 0.820575 0.030877
v 0.000000 0.820575 0.030877
v 0.000000 0.820575 0.030877
v 0.000000 0.862429 0.048985
v 0.000000 0.862429 0.048985
v 0.000000 0.862429 0.048985
v 0.000000 0.862429 0.048985
v -0.000000 0.931030 0.019928
v -0.000000 0.931030 0.019928
v -0.000000 0.931030 0.019928
v -0.000000 0.931030 0.019928
v 0.232022 0.951651 0.024379
v 0.232022 0.951651 0.024379
v 0.232022 0.951651 0.024379
v 0.232022 0.951651 0.024379
v 0.294775 0.981027 -0.040702
v 0.294775 0.981027 -0.040702
v 0.294775 0.981027 -0.040702
v 0.294775 0.981027 -0.040702
v 0.339522 0.888626 -0.019425
v 0.339522 0.888626 -0.019425
v 0.339522 0.888626 -0.019425
v 0.339522 0.888626 -0.019425
v 0.292156 0.879596 0.022235
v 0.292156 0.879596 0.022235
v 0.292156 0.879596 0.022235
v 0.292156 0.879596 0.022235
v 0.302489 0.901529 0.088574
v 0.302489 0.901529 0.088574
v 0.302489 0.901529 0.088574
v 0.302489 0.901529 0.088574
v 0.313680 0.810204 0.069256
v 0.313680 0.810204 0.069256
v 0.313680 0.810204 0.069256
v 0.313680 0.810204 0.069256
v 0.339411 0.851803 0.154216
v 0.339411 0.851803 0.154216
v 0.339411 0.851803 0.154216
v 0.339411 0.851803 0.154216
v 0.238140 0.987529 0.127091
v 0.238140 0.987529 0.127091
v 0.238140 0.987529 0.127091
v 0.238140 0.987529 0.127091
v 0.300893 1.016779 0.062308
v 0.300893 1.016779 0.062308
v 0.300893 1.016779 0.062308
v 0.300893 1.016779 0.062308
v 0.300893 1.016779 0.062308
v 0.349856 0.910376 0.046914
v 0.349856 0.910376 0.046914
v 0.349856 0.910376 0.046914
v 0.349856 0.910376 0.046914
v 0.389393 0.825280 0.013794
v 0.389393 0.825280 0.013794
v 0.389393 0.825280 0.013794
v 0.389393 0.825280 0.013794
v 0.456763 0.698575 0.206107
v 0.456763 0.698575 0.206107
v 0.456763 0.698575 0.206107
v 0.456763 0.698575 0.206107
v 0.426435 0.703676 0.220147
v 0.426435 0.703676 0.220147
v 0.426435 0.703676 0.220147
v 0.426435 0.703676 0.220147
v 0.415125 0.866920 0.100233
v 0.415125 0.866920 0.100233
v 0.415125 0.866920 0.100233
v 0.415125 0.866920 0.100233
v 0.460643 0.697028 0.346813
v 0.460643 0.697028 0.346813
v 0.460643 0.697028 0.346813
v 0.460643 0.697028 0.346813
v 0.467067 0.660102 0.268266
v 0.467067 0.660102 0.268266
v 0.467067 0.660102 0.268266
v 0.467067 0.660102 0.268266
v 0.487871 0.605759 0.311417
v 0.487871 0.605759 0.311417
v 0.487871 0.605759 0.311417
v 0.493416 0.620104 0.359758
v 0.493416 0.620104 0.359758
v 0.493416 0.620104 0.359758
v 0.438257 0.723662 0.241754
v 0.438257 0.723662 0.241754
v 0.438257 0.723662 0.241754
v 0.438257 0.723662 0.241754
v 0.468584 0.718561 0.227714
v 0.468584 0.718561 0.227714
v 0.468584 0.718561 0.227714
v 0.468584 0.718561 0.227714
v 0.503976 0.597286 0.280902
v 0.503976 0.597286 0.280902
v 0.503976 0.597286 0.280902
v 0.513602 0.611632 0.329241
v 0.513602 0.611632 0.329241
v 0.513602 0.611632 0.329241
v 0.515426 0.682700 0.298934
v 0.515426 0.682700 0.298934
v 0.515426 0.682700 0.298934
v 0.515426 0.682700 0.298934
v 0.488816 0.645775 0.220387
v 0.488816 0.645775 0.220387
v 0.488816 0.645775 0.220387
v 0.488816 0.645775 0.220387
v -0.297244 0.196571 0.032129
v -0.297244 0.196571 0.032129
v -0.297244 0.196571 0.032129
v -0.297244 0.196571 0.032129
v -0.256347 0.188756 0.089528
v -0.256347 0.188756 0.089528
v -0.256347 0.188756 0.089528
v -0.256347 0.188756 0.089528
v -0.232032 0.284760 0.107799
v -0.232032 0.284760 0.107799
v -0.232032 0.284760 0.107799
v -0.232032 0.284760 0.107799
v -0.296934 0.299833 0.022185
v -0.296934 0.299833 0.022185
v -0.296934 0.299833 0.022185
v -0.296934 0.299833 0.022185
v -0.213897 0.195647 0.032951
v -0.213897 0.195647 0.032951
v -0.213897 0.195647 0.032951
v -0.213897 0.195647 0.032951
v -0.160578 0.294865 0.033006
v -0.160578 0.294865 0.033006
v -0.160578 0.294865 0.033006
v -0.160578 0.294865 0.033006
v -0.252483 0.217981 -0.031306
v -0.252483 0.217981 -0.031306
v -0.252483 0.217981 -0.031306
v -0.252483 0.217981 -0.031306
v -0.217867 0.298952 -0.028869
v -0.217867 0.298952 -0.028869
v -0.217867 0.298952 -0.028869
v -0.217867 0.298952 -0.028869
v -0.283204 0.029307 -0.024634
v -0.283204 0.029307 -0.024634
v -0.283204 0.029307 -0.024634
v -0.283204 0.029307 -0.024634
v -0.285755 -0.006891 -0.023903
v -0.285755 -0.006891 -0.023903
v -0.285755 -0.006891 -0.023903
v -0.344874 -0.006891 0.030557
v -0.344874 -0.006891 0.030557
v -0.344874 -0.006891 0.030557
v -0.344874 -0.006891 0.030557
v -0.339174 0.029307 0.036723
v -0.339174 0.029307 0.036723
v -0.339174 0.029307 0.036723
v -0.339174 0.029307 0.036723
v -0.209816 0.379818 0.006322
v -0.209816 0.379818 0.006322
v -0.209816 0.379818 0.006322
v -0.209816 0.379818 0.006322
v -0.165304 0.377699 0.080795
v -0.165304 0.377699 0.080795
v -0.165304 0.377699 0.080795
v -0.165304 0.377699 0.080795
v -0.157763 0.548747 -0.001604
v -0.157763 0.548747 -0.001604
v -0.157763 0.548747 -0.001604
v -0.157763 0.548747 -0.001604
v -0.078070 0.541407 0.127956
v -0.078070 0.541407 0.127956
v -0.078070 0.541407 0.127956
v -0.078070 0.541407 0.127956
v -0.209753 0.379812 0.158018
v -0.209753 0.379812 0.158018
v -0.209753 0.379812 0.158018
v -0.209753 0.379812 0.158018
v -0.255053 0.382060 0.072090
v -0.255053 0.382060 0.072090
v -0.255053 0.382060 0.072090
v -0.255053 0.382060 0.072090
v -0.237441 0.556065 0.105486
v -0.237441 0.556065 0.105486
v -0.237441 0.556065 0.105486
v -0.237441 0.556065 0.105486
v -0.149648 0.748643 0.115071
v -0.149648 0.748643 0.115071
v -0.149648 0.748643 0.115071
v -0.149648 0.748643 0.115071
v -0.087826 0.702107 0.009288
v -0.087826 0.702107 0.009288
v -0.087826 0.702107 0.009288
v -0.087826 0.702107 0.009288
v -0.087826 0.702107 0.009288
v -0.157763 0.548747 0.233525
v -0.157763 0.548747 0.233525
v -0.157763 0.548747 0.233525
v -0.157763 0.548747 0.233525
v -0.087826 0.702107 0.220853
v -0.087826 0.702107 0.220853
v -0.087826 0.702107 0.220853
v -0.087826 0.702107 0.220853
v -0.087826 0.702107 0.220853
v -0.275170 0.103405 -0.005108
v -0.275170 0.103405 -0.005108
v -0.275170 0.103405 -0.005108
v -0.275170 0.103405 -0.005108
v -0.326047 0.056827 0.037638
v -0.326047 0.056827 0.037638
v -0.326047 0.056827 0.037638
v -0.326047 0.056827 0.037638
v -0.326047 0.056827 0.037638
v -0.243826 0.056826 0.046321
v -0.243826 0.056826 0.046321
v -0.243826 0.056826 0.046321
v -0.243826 0.056826 0.046321
v -0.243826 0.056826 0.046321
v -0.282804 0.082271 0.090324
v -0.282804 0.082271 0.090324
v -0.282804 0.082271 0.090324
v -0.282804 0.082271 0.090324
v -0.293877 -0.005097 0.098998
v -0.293877 -0.005097 0.098998
v -0.293877 -0.005097 0.098998
v -0.234414 -0.006891 0.046736
v -0.234414 -0.006891 0.046736
v -0.234414 -0.006891 0.046736
v -0.234414 -0.006891 0.046736
v -0.237037 0.029307 0.051683
v -0.237037 0.029307 0.051683
v -0.237037 0.029307 0.051683
v -0.237037 0.029307 0.051683
v -0.251226 0.016555 0.274072
v -0.251226 0.016555 0.274072
v -0.251226 0.016555 0.274072
v -0.251226 0.016555 0.274072
v -0.246640 -0.006891 0.267093
v -0.246640 -0.006891 0.267093
v -0.246640 -0.006891 0.267093
v -0.306741 -0.006891 0.287336
v -0.306741 -0.006891 0.287336
v -0.306741 -0.006891 0.287336
v -0.306741 -0.006891 0.287336
v -0.307577 0.016555 0.301196
v -0.307577 0.016555 0.301196
v -0.307577 0.016555 0.301196
v -0.307577 0.016555 0.301196
v -0.358924 0.016555 0.259111
v -0.358924 0.016555 0.259111
v -0.358924 0.016555 0.259111
v -0.358924 0.016555 0.259111
v -0.363113 -0.006891 0.250913
v -0.363113 -0.006891 0.250913
v -0.363113 -0.006891 0.250913
v -0.335447 0.036977 0.146065
v -0.335447 0.036977 0.146065
v -0.335447 0.036977 0.146065
v -0.297205 0.031641 0.188340
v -0.297205 0.031641 0.188340
v -0.297205 0.031641 0.188340
v -0.297205 0.031641 0.188340
v -0.253226 0.036977 0.154748
v -0.253226 0.036977 0.154748
v -0.253226 0.036977 0.154748
v -0.133926 0.801965 0.134583
v -0.133926 0.801965 0.134583
v -0.133926 0.801965 0.134583
v -0.133926 0.801965 0.134583
v -0.066964 0.811270 0.055371
v -0.066964 0.811270 0.055371
v -0.066964 0.811270 0.055371
v -0.066964 0.811270 0.055371
v -0.124718 0.853294 0.144664
v -0.124718 0.853294 0.144664
v -0.124718 0.853294 0.144664
v -0.124718 0.853294 0.144664
v -0.127469 0.918376 0.143374
v -0.127469 0.918376 0.143374
v -0.127469 0.918376 0.143374
v -0.127469 0.918376 0.143374
v -0.092913 0.926171 0.073076
v -0.092913 0.926171 0.073076
v -0.092913 0.926171 0.073076
v -0.092913 0.926171 0.073076
v -0.078958 0.856645 0.071426
v -0.078958 0.856645 0.071426
v -0.078958 0.856645 0.071426
v -0.078958 0.856645 0.071426
v -0.076811 0.847999 0.230939
v -0.076811 0.847999 0.230939
v -0.076811 0.847999 0.230939
v -0.076811 0.847999 0.230939
v -0.081415 0.790724 0.224859
v -0.081415 0.790724 0.224859
v -0.081415 0.790724 0.224859
v -0.081415 0.790724 0.224859
v -0.076811 0.910179 0.231316
v -0.076811 0.910179 0.231316
v -0.076811 0.910179 0.231316
v -0.076811 0.910179 0.231316
v -0.086890 1.042629 0.241516
v -0.086890 1.042629 0.241516
v -0.086890 1.042629 0.241516
v -0.086890 1.042629 0.241516
v -0.046076 0.977538 0.262612
v -0.046076 0.977538 0.262612
v -0.046076 0.977538 0.262612
v -0.046076 0.977538 0.262612
v -0.160902 0.971156 0.128496
v -0.160902 0.971156 0.128496
v -0.160902 0.971156 0.128496
v -0.160902 0.971156 0.128496
v -0.176489 1.027219 0.098883
v -0.176489 1.027219 0.098883
v -0.176489 1.027219 0.098883
v -0.176489 1.027219 0.098883
v -0.176489 1.027219 0.098883
v -0.153382 1.047487 -0.008856
v -0.153382 1.047487 -0.008856
v -0.153382 1.047487 -0.008856
v -0.153382 1.047487 -0.008856
v -0.153382 1.047487 -0.008856
v -0.127123 0.992418 0.033047
v -0.127123 0.992418 0.033047
v -0.127123 0.992418 0.033047
v -0.127123 0.992418 0.033047
v -0.054666 1.146369 0.124579
v -0.054666 1.146369 0.124579
v -0.054666 1.146369 0.124579
v -0.054666 1.146369 0.124579
v -0.134133 1.117995 0.185973
v -0.134133 1.117995 0.185973
v -0.134133 1.117995 0.185973
v -0.134133 1.117995 0.185973
v -0.109333 1.153478 0.074394
v -0.109333 1.153478 0.074394
v -0.109333 1.153478 0.074394
v -0.109333 1.153478 0.074394
v -0.063176 1.173965 0.091023
v -0.063176 1.173965 0.091023
v -0.063176 1.173965 0.091023
v -0.063176 1.173965 0.091023
v -0.035133 1.179681 0.038076
v -0.035133 1.179681 0.038076
v -0.035133 1.179681 0.038076
v -0.035133 1.179681 0.038076
v -0.054666 1.156306 0.038110
v -0.054666 1.156306 0.038110
v -0.054666 1.156306 0.038110
v -0.054666 1.156306 0.038110
v -0.189844 1.119098 0.099338
v -0.189844 1.119098 0.099338
v -0.189844 1.119098 0.099338
v -0.189844 1.119098 0.099338
v -0.189844 1.119098 0.099338
v -0.235077 1.138169 0.046201
v -0.235077 1.138169 0.046201
v -0.235077 1.138169 0.046201
v -0.235077 1.138169 0.046201
v -0.050010 1.195695 0.105409
v -0.050010 1.195695 0.105409
v -0.035133 1.201412 0.052460
v -0.035133 1.201412 0.052460
v -0.035133 1.168834 0.139998
v -0.035133 1.168834 0.139998
v -0.035133 1.168834 0.139998
v -0.035133 1.168834 0.139998
v -0.035133 1.190565 0.154384
v -0.035133 1.190565 0.154384
v -0.166767 1.125168 -0.044563
v -0.166767 1.125168 -0.044563
v -0.166767 1.125168 -0.044563
v -0.166767 1.125168 -0.044563
v -0.232022 0.951651 0.024379
v -0.232022 0.951651 0.024379
v -0.232022 0.951651 0.024379
v -0.232022 0.951651 0.024379
v -0.292156 0.879596 0.022235
v -0.292156 0.879596 0.022235
v -0.292156 0.879596 0.022235
v -0.292156 0.879596 0.022235
v -0.339522 0.888626 -0.019425
v -0.339522 0.888626 -0.019425
v -0.339522 0.888626 -0.019425
v -0.339522 0.888626 -0.019425
v -0.294775 0.981027 -0.040702
v -0.294775 0.981027 -0.040702
v -0.294775 0.981027 -0.040702
v -0.294775 0.981027 -0.040702
v -0.302489 0.901529 0.088574
v -0.302489 0.901529 0.088574
v -0.302489 0.901529 0.088574
v -0.302489 0.901529 0.088574
v -0.339411 0.851803 0.154216
v -0.339411 0.851803 0.154216
v -0.339411 0.851803 0.154216
v -0.339411 0.851803 0.154216
v -0.313680 0.810204 0.069256
v -0.313680 0.810204 0.069256
v -0.313680 0.810204 0.069256
v -0.313680 0.810204 0.069256
v -0.238140 0.987529 0.127091
v -0.238140 0.987529 0.127091
v -0.238140 0.987529 0.127091
v -0.238140 0.987529 0.127091
v -0.349856 0.910376 0.046914
v -0.349856 0.910376 0.046914
v -0.349856 0.910376 0.046914
v -0.349856 0.910376 0.046914
v -0.300893 1.016779 0.062308
v -0.300893 1.016779 0.062308
v -0.300893 1.016779 0.062308
v -0.300893 1.016779 0.062308
v -0.300893 1.016779 0.062308
v -0.426435 0.703676 0.220147
v -0.426435 0.703676 0.220147
v -0.426435 0.703676 0.220147
v -0.426435 0.703676 0.220147
v -0.456763 0.698575 0.206107
v -0.456763 0.698575 0.206107
v -0.456763 0.698575 0.206107
v -0.456763 0.698575 0.206107
v -0.389393 0.825280 0.013794
v -0.389393 0.825280 0.013794
v -0.389393 0.825280 0.013794
v -0.389393 0.825280 0.013794
v -0.415125 0.866920 0.100233
v -0.415125 0.866920 0.100233
v -0.415125 0.866920 0.100233
v -0.415125 0.866920 0.100233
v -0.460643 0.697028 0.346813
v -0.460643 0.697028 0.346813
v -0.460643 0.697028 0.346813
v -0.460643 0.697028 0.346813
v -0.493416 0.620104 0.359758
v -0.493416 0.620104 0.359758
v -0.493416 0.620104 0.359758
v -0.487871 0.605759 0.311417
v -0.487871 0.605759 0.311417
v -0.487871 0.605759 0.311417
v -0.467067 0.660102 0.268266
v -0.467067 0.660102 0.268266
v -0.467067 0.660102 0.268266
v -0.467067 0.660102 0.268266
v -0.438257 0.723662 0.241754
v -0.438257 0.723662 0.241754
v -0.438257 0.723662 0.241754
v -0.438257 0.723662 0.241754
v -0.468584 0.718561 0.227714
v -0.468584 0.718561 0.227714
v -0.468584 0.718561 0.227714
v -0.468584 0.718561 0.227714
v -0.513602 0.611632 0.329241
v -0.513602 0.611632 0.329241
v -0.513602 0.611632 0.329241
v -0.503976 0.597286 0.280902
v -0.503976 0.597286 0.280902
v -0.503976 0.597286 0.280902
v -0.515426 0.682700 0.298934
v -0.515426 0.682700 0.298934
v -0.515426 0.682700 0.298934
v -0.515426 0.682700 0.298934
v -0.488816 0.645775 0.220387
v -0.488816 0.645775 0.220387
v -0.488816 0.645775 0.220387
v -0.488816 0.645775 0.220387
vn 0.1024 -0.9798 0.1717
vn 0.7002 -0.6941 0.1670
vn -0.2680 -0.9620 0.0527
vn -0.2680 -0.9042 -0.3325
vn 0.1024 -0.8864 -0.4515
vn 0.9050 -0.3665 0.2161
vn 0.0247 -0.4666 0.8841
vn -0.8897 -0.3735 0.2626
vn -0.5746 -0.2157 -0.7895
vn 0.5346 -0.2114 -0.8183
vn 0.8026 -0.2107 0.5581
vn -0.3066 -0.2641 0.9145
vn -0.9921 -0.1242 -0.0186
vn -0.3066 0.0157 -0.9517
vn 0.8026 -0.0378 -0.5953
vn 0.4089 0.5612 0.7196
vn -0.4713 0.5679 0.6748
vn -0.7002 0.6941 -0.1670
vn 0.0385 0.7654 -0.6424
vn 0.7240 0.6833 -0.0945
vn 0.2680 0.9620 -0.0527
vn 0.4911 0.8388 -0.2350
vn 0.4089 0.7476 -0.5234
vn -0.1024 0.9798 -0.1717
vn -0.1876 0.8715 -0.4531
vn -0.4713 0.7408 -0.4786
vn -0.3313 0.9331 0.1399
vn -0.6071 0.7859 0.1178
vn -0.7002 0.6146 0.3632
vn -0.1024 0.8864 0.4515
vn -0.1876 0.7003 0.6888
vn 0.0385 0.5434 0.8386
vn 0.2680 0.9042 0.3325
vn 0.4911 0.7330 0.4707
vn 0.7240 0.6255 0.2907
vn 0.8897 0.3735 -0.2626
vn 0.7947 0.2711 -0.5431
vn 0.5746 0.4378 -0.6915
vn -0.0247 0.4666 -0.8841
vn -0.3035 0.3240 -0.8960
vn -0.5346 0.4421 -0.7203
vn -0.9050 0.3665 -0.2161
vn -0.9822 0.1855 0.0278
vn -0.9050 0.2870 0.3141
vn -0.5346 0.2114 0.8183
vn -0.3035 0.0470 0.9517
vn -0.0247 0.1868 0.9821
vn 0.5746 0.2157 0.7895
vn 0.7947 0.0999 0.5988
vn 0.8897 0.2800 0.3606
vn 0.3066 0.2641 -0.9145
vn 0.3035 -0.0470 -0.9517
vn 0.0247 -0.1868 -0.9821
vn -0.8026 0.2107 -0.5581
vn -0.7947 -0.0999 -0.5988
vn -0.8897 -0.2800 -0.3606
vn -0.8026 0.0378 0.5953
vn -0.7947 -0.2711 0.5431
vn -0.5746 -0.4378 0.6915
vn 0.3066 -0.0157 0.9517
vn 0.3035 -0.3240 0.8960
vn 0.5346 -0.4421 0.7203
vn 0.9921 0.1242 0.0186
vn 0.9822 -0.1855 -0.0278
vn 0.9050 -0.2870 -0.3141
vn 0.4713 -0.5679 -0.6748
vn 0.1876 -0.7003 -0.6888
vn -0.0385 -0.5434 -0.8386
vn -0.4089 -0.5612 -0.7196
vn -0.4911 -0.7330 -0.4707
vn -0.7240 -0.6255 -0.2907
vn -0.7240 -0.6833 0.0945
vn -0.4911 -0.8388 0.2350
vn -0.4089 -0.7476 0.5234
vn 0.7002 -0.6146 -0.3632
vn 0.6071 -0.7859 -0.1178
vn 0.3313 -0.9331 -0.1399
vn -0.0385 -0.7654 0.6424
vn 0.1876 -0.8715 0.4531
vn 0.4713 -0.7408 0.4786
vn 0.7938 0.0715 0.6039
vn 0.7968 0.0694 0.6002
vn 0.7978 0.0754 0.5982
vn 0.7955 0.0781 0.6008
vn -0.7234 -0.3392 0.6014
vn -0.7342 -0.3370 0.5894
vn -0.7349 -0.3521 0.5796
vn -0.7261 -0.3529 0.5901
vn -0.7053 -0.3426 -0.6207
vn -0.7118 -0.3483 -0.6099
vn -0.7215 -0.3371 -0.6048
vn -0.7137 -0.3311 -0.6172
vn 0.6479 0.1200 -0.7522
vn 0.6718 0.1533 -0.7247
vn 0.7107 0.0843 -0.6984
vn 0.6797 0.0340 -0.7327
vn 0.6994 0.1066 -0.7067
vn 0.6991 0.1599 -0.6969
vn 0.7058 0.1572 -0.6908
vn 0.7042 0.1026 -0.7026
vn -0.7906 0.2567 -0.5559
vn -0.7687 0.3010 -0.5644
vn -0.7624 0.2873 -0.5799
vn -0.7839 0.2397 -0.5727
vn -0.8128 -0.2799 -0.5109
vn -0.8129 -0.2828 -0.5091
vn -0.8145 -0.2818 -0.5071
vn -0.8147 -0.2794 -0.5081
vn 0.8505 -0.0063 0.5259
vn 0.8445 0.0148 0.5354
vn 0.8302 0.0046 0.5574
vn 0.8357 -0.0189 0.5489
vn 0.5961 0.5179 -0.6135
vn 0.5936 0.4824 -0.6442
vn 0.5612 0.4926 -0.6651
vn 0.5646 0.5162 -0.6440
vn -0.7586 -0.3614 0.5421
vn -0.7405 -0.3986 0.5411
vn -0.7316 -0.3917 0.5579
vn -0.7558 -0.3451 0.5565
vn 0.7286 0.3660 -0.5789
vn 0.7285 0.3681 -0.5777
vn 0.7303 0.3671 -0.5761
vn 0.7302 0.3653 -0.5774
vn 0.8579 0.0126 0.5136
vn 0.8608 0.0108 0.5089
vn 0.8669 0.0145 0.4982
vn 0.8644 0.0180 0.5025
vn 0.7852 0.2025 -0.5851
vn 0.7868 0.2066 -0.5815
vn 0.7902 0.2042 -0.5778
vn 0.7894 0.2003 -0.5803
vn -0.7013 -0.4851 0.5223
vn -0.7112 -0.4767 0.5166
vn -0.7187 -0.4838 0.4994
vn -0.7110 -0.4920 0.5024
vn -0.6873 -0.3291 0.6476
vn -0.7000 -0.3127 0.6420
vn -0.7078 -0.3218 0.6289
vn -0.6962 -0.3362 0.6343
vn -0.6984 -0.3706 -0.6123
vn -0.6877 -0.4166 -0.5946
vn -0.7088 -0.4132 -0.5717
vn -0.7203 -0.3584 -0.5939
vn 0.7555 0.3541 0.5512
vn 0.7621 0.3464 0.5470
vn 0.7684 0.3522 0.5343
vn 0.7629 0.3561 0.5396
vn 0.7749 0.0837 -0.6265
vn 0.7619 0.0525 -0.6456
vn 0.7515 0.0684 -0.6562
vn 0.7639 0.0956 -0.6382
vn -0.7605 -0.2511 -0.5988
vn -0.7544 -0.2479 -0.6079
vn -0.7472 -0.2534 -0.6144
vn -0.7530 -0.2532 -0.6074
vn -0.7667 -0.1327 0.6282
vn -0.7550 -0.1488 0.6386
vn -0.7501 -0.1338 0.6477
vn -0.7594 -0.1224 0.6390
vn 0.7931 0.1918 0.5780
vn 0.7950 0.1911 0.5757
vn 0.7959 0.1933 0.5738
vn 0.7938 0.1941 0.5764
vn 0.0029 -0.9999 0.0144
vn -0.0024 -0.9999 0.0151
vn 0.0016 -0.9999 0.0145
vn 0.0067 -0.9999 0.0138
vn -0.9934 0.0962 0.0627
vn -0.9930 0.0978 0.0657
vn -0.9904 0.1243 0.0601
vn -0.9910 0.1225 0.0546
vn 0.0169 -0.9998 -0.0047
vn 0.0114 -0.9999 -0.0035
vn 0.0195 -0.9998 -0.0064
vn 0.0238 -0.9997 -0.0077
vn -0.8271 0.0617 -0.5587
vn -0.8314 0.0046 -0.5557
vn -0.8372 0.0038 -0.5469
vn -0.8322 0.0620 -0.5510
vn -0.3423 -0.3744 0.8618
vn -0.3738 -0.2930 0.8800
vn -0.3675 -0.3102 0.8767
vn -0.3362 -0.3853 0.8594
vn 0.5598 -0.2835 0.7786
vn 0.5490 -0.3513 0.7584
vn 0.5542 -0.3513 0.7546
vn 0.5648 -0.2806 0.7761
vn 0.8281 0.5604 -0.0149
vn 0.8239 0.5661 -0.0275
vn 0.7971 0.6038 -0.0019
vn 0.8034 0.5954 -0.0015
vn -0.5146 0.7902 0.3330
vn -0.5035 0.7609 0.4093
vn -0.4903 0.8092 0.3237
vn -0.5221 0.8078 0.2736
vn 0.4859 0.8385 0.2467
vn 0.4787 0.8440 0.2419
vn 0.4979 0.8358 0.2315
vn 0.5457 0.8031 0.2393
vn -0.0191 -0.9998 -0.0053
vn -0.0164 -0.9998 -0.0067
vn -0.0199 -0.9998 -0.0002
vn -0.0230 -0.9997 0.0013
vn 0.9809 0.1782 -0.0786
vn 0.9807 0.1787 -0.0793
vn 0.9792 0.1863 -0.0799
vn 0.9794 0.1858 -0.0790
vn 0.0786 0.9863 0.1453
vn 0.0949 0.9848 0.1457
vn 0.0760 0.9868 0.1431
vn 0.0643 0.9878 0.1421
vn -0.0386 0.9881 0.1490
vn -0.0466 0.9887 0.1424
vn -0.0409 0.9871 0.1548
vn -0.0339 0.9862 0.1619
vn -0.8614 0.0717 -0.5029
vn -0.8625 0.0529 -0.5033
vn -0.8643 0.0536 -0.5002
vn -0.8634 0.0737 -0.4991
vn -0.9105 0.4008 0.1015
vn -0.9053 0.4106 0.1090
vn -0.8794 0.4646 0.1041
vn -0.9336 0.3464 0.0913
vn 0.7273 0.2731 -0.6296
vn 0.7262 0.2886 -0.6239
vn 0.7344 0.2927 -0.6123
vn 0.7322 0.2703 -0.6252
vn 0.7152 0.3986 -0.5741
vn 0.7173 0.3910 -0.5768
vn 0.7143 0.3917 -0.5799
vn 0.7125 0.3986 -0.5775
vn 0.8717 -0.0938 -0.4809
vn 0.8650 -0.1198 -0.4873
vn 0.8562 -0.1172 -0.5032
vn 0.8630 -0.0917 -0.4969
vn 0.3170 -0.0438 0.9474
vn 0.3230 -0.0560 0.9447
vn 0.3228 -0.0510 0.9451
vn 0.3170 -0.0391 0.9476
vn 0.8073 0.1624 -0.5673
vn 0.8097 0.0984 -0.5785
vn 0.7951 0.1028 -0.5977
vn 0.7939 0.1639 -0.5856
vn 0.3069 -0.0089 0.9517
vn 0.3063 -0.0075 0.9519
vn 0.3064 -0.0081 0.9519
vn 0.3069 -0.0096 0.9517
vn 0.2906 0.1529 0.9445
vn 0.3016 0.1326 0.9442
vn 0.2955 0.1481 0.9438
vn 0.2899 0.1606 0.9435
vn 0.8133 -0.4879 -0.3170
vn 0.7924 -0.5194 -0.3197
vn 0.7795 -0.5290 -0.3355
vn 0.8011 -0.4959 -0.3352
vn 0.7126 -0.5817 -0.3922
vn 0.7085 -0.5869 -0.3919
vn 0.7056 -0.5873 -0.3965
vn 0.7089 -0.5826 -0.3975
vn 0.2604 -0.3398 0.9037
vn 0.2547 -0.3300 0.9090
vn 0.2537 -0.3359 0.9071
vn 0.2611 -0.3469 0.9008
vn 0.0169 0.9108 0.4125
vn 0.0195 0.9096 0.4150
vn 0.0189 0.9102 0.4138
vn 0.0154 0.9116 0.4109
vn 0.1512 0.6167 0.7725
vn 0.1776 0.5734 0.7998
vn 0.1635 0.6014 0.7821
vn 0.1461 0.6253 0.7666
vn 0.3116 -0.9377 0.1538
vn -0.3091 -0.7489 -0.5861
vn 0.4517 0.8275 -0.3336
vn 0.4801 0.8037 -0.3515
vn 0.4715 0.7876 -0.3967
vn 0.4556 0.7762 -0.4358
vn 0.1623 0.9783 0.1289
vn 0.1655 0.9746 0.1506
vn 0.1510 0.9232 0.3535
vn 0.1370 0.9135 0.3831
vn 0.8315 0.4828 -0.2748
vn 0.8753 0.4052 -0.2640
vn 0.8561 0.4062 -0.3196
vn 0.8177 0.4712 -0.3306
vn 0.3285 -0.4369 0.8374
vn 0.3206 -0.4054 0.8561
vn 0.3173 -0.4116 0.8543
vn 0.3251 -0.4418 0.8362
vn 0.3826 -0.5100 0.7704
vn 0.4411 0.4954 -0.7483
vn 0.5105 0.5296 -0.6774
vn 0.5052 0.5245 -0.6854
vn 0.4917 0.5571 -0.6692
vn 0.4881 0.5637 -0.6663
vn 0.0825 0.9736 -0.2127
vn 0.1286 0.9282 -0.3491
vn 0.1190 0.9541 -0.2750
vn 0.1201 0.9510 -0.2850
vn 0.1303 0.9763 -0.1726
vn 0.6414 0.4600 0.6139
vn 0.6454 0.4141 0.6419
vn 0.6121 0.5484 0.5697
vn 0.6076 0.5359 0.5862
vn 0.9102 -0.0582 0.4101
vn 0.9087 -0.0611 0.4130
vn 0.9161 0.0733 0.3943
vn 0.9132 0.0809 0.3994
vn 0.2343 0.9441 0.2320
vn 0.2343 0.9281 0.2894
vn 0.2377 0.9360 0.2597
vn 0.2348 0.9529 0.1918
vn 0.8343 -0.1257 0.5368
vn 0.8344 -0.1260 0.5366
vn 0.8347 -0.1251 0.5364
vn 0.8345 -0.1250 0.5367
vn 0.2512 -0.4992 -0.8293
vn 0.2448 -0.5072 -0.8264
vn 0.2479 -0.4143 -0.8757
vn 0.2564 -0.3942 -0.8826
vn 0.3261 0.2936 -0.8986
vn 0.3298 0.2799 -0.9016
vn 0.3140 0.3207 -0.8936
vn 0.3112 0.3308 -0.8909
vn 0.3531 -0.5752 -0.7379
vn 0.3495 -0.5768 -0.7384
vn 0.3500 -0.5647 -0.7474
vn 0.3547 -0.5625 -0.7469
vn 0.3657 -0.1873 -0.9117
vn 0.3654 -0.1535 -0.9181
vn 0.3949 -0.2391 -0.8871
vn 0.3844 -0.2605 -0.8856
vn 0.7811 -0.1613 0.6032
vn 0.7946 -0.1659 0.5840
vn 0.8055 -0.0701 0.5885
vn 0.7873 -0.0625 0.6134
vn 0.8664 0.0308 0.4984
vn 0.8677 0.0309 0.4960
vn 0.8679 0.0422 0.4950
vn 0.8667 0.0424 0.4969
vn 0.8717 -0.0120 0.4899
vn 0.8704 -0.0119 0.4922
vn 0.8698 -0.0186 0.4931
vn 0.8711 -0.0186 0.4907
vn 0.8115 -0.0523 0.5821
vn 0.8036 -0.0352 0.5942
vn 0.7831 -0.1591 0.6012
vn 0.7964 -0.1549 0.5846
vn 0.8562 0.0457 0.5147
vn 0.8570 0.0455 0.5132
vn 0.8567 0.0522 0.5132
vn 0.8564 0.0532 0.5136
vn 0.0191 0.0428 -0.9989
vn 0.0157 0.0921 -0.9956
vn 0.0555 -0.1478 -0.9875
vn 0.0588 -0.1930 -0.9794
vn -0.5457 -0.4315 -0.7184
vn -0.5459 -0.4311 -0.7184
vn -0.5455 -0.4314 -0.7185
vn -0.5456 -0.4324 -0.7179
vn -0.9341 -0.1752 0.3109
vn -0.9315 -0.1767 0.3180
vn -0.9413 -0.1777 0.2872
vn -0.9411 -0.1823 0.2847
vn -0.7107 -0.6395 0.2932
vn -0.7128 -0.6363 0.2948
vn -0.7204 -0.6351 0.2787
vn -0.7192 -0.6364 0.2789
vn 0.8845 0.4041 -0.2332
vn 0.8787 0.4169 -0.2326
vn 0.8846 0.4149 -0.2128
vn 0.8912 0.3996 -0.2146
vn 0.7591 0.5287 -0.3798
vn 0.7708 0.4857 -0.4122
vn 0.7309 0.4981 -0.4666
vn 0.7219 0.5273 -0.4482
vn -0.7009 -0.6894 0.1829
vn -0.7278 -0.6573 0.1954
vn -0.7341 -0.6692 0.1152
vn -0.7255 -0.6816 0.0952
vn -0.3998 -0.4554 -0.7955
vn -0.4053 -0.4258 -0.8090
vn -0.3931 -0.4618 -0.7951
vn -0.3867 -0.4918 -0.7801
vn 0.6534 0.1770 0.7360
vn 0.6503 0.1796 0.7381
vn 0.6499 0.1776 0.7390
vn 0.6525 0.1754 0.7373
vn -0.2271 -0.8577 -0.4613
vn -0.2268 -0.8597 -0.4578
vn -0.2148 -0.8529 -0.4758
vn -0.2146 -0.8428 -0.4936
vn 0.7733 0.4927 -0.3990
vn 0.7506 0.5257 -0.4003
vn 0.7630 0.5169 -0.3881
vn 0.7794 0.4904 -0.3901
vn -0.4031 -0.6193 -0.6738
vn -0.4022 -0.6262 -0.6679
vn -0.4077 -0.6257 -0.6650
vn -0.4091 -0.6186 -0.6708
vn 0.2073 0.8495 0.4852
vn 0.2071 0.8487 0.4866
vn 0.2125 0.8489 0.4839
vn 0.2135 0.8494 0.4826
vn -0.9334 -0.3306 0.1396
vn -0.9353 -0.3241 0.1422
vn -0.9379 -0.3301 0.1062
vn -0.9393 -0.3263 0.1060
vn -0.8371 -0.2887 0.4646
vn -0.8310 -0.2992 0.4689
vn -0.8397 -0.2791 0.4658
vn -0.8583 -0.2483 0.4491
vn 0.3465 0.6873 0.6384
vn 0.3447 0.6885 0.6380
vn 0.3425 0.6851 0.6430
vn 0.3471 0.6800 0.6459
vn 0.9401 0.0222 -0.3403
vn 0.9376 0.0350 -0.3460
vn 0.9424 0.0095 -0.3343
vn 0.9496 -0.0287 -0.3120
vn 0.2442 0.2909 0.9251
vn 0.1636 0.2406 0.9568
vn 0.2798 0.2965 0.9131
vn 0.3196 0.3198 0.8920
vn 0.6109 0.4203 0.6709
vn 0.0245 -0.9594 0.2809
vn 0.0245 -0.9593 0.2813
vn 0.0243 -0.9594 0.2810
vn 0.0244 -0.9595 0.2806
vn 0.7411 0.3191 0.5907
vn 0.7252 0.3512 0.5923
vn 0.7070 0.3318 0.6245
vn 0.7312 0.2773 0.6232
vn 0.9678 -0.0715 -0.2414
vn 0.9665 -0.0916 -0.2398
vn 0.9629 -0.0884 -0.2548
vn 0.9675 -0.0520 -0.2475
vn -0.8146 -0.5257 -0.2451
vn -0.8128 -0.5276 -0.2470
vn -0.8153 -0.5297 -0.2339
vn -0.8183 -0.5267 -0.2302
vn -0.6789 -0.6826 -0.2706
vn -0.6667 -0.6893 -0.2836
vn -0.6265 -0.6788 -0.3831
vn -0.6282 -0.6669 -0.4008
vn 0.8388 0.2782 -0.4679
vn 0.8455 0.2260 -0.4837
vn 0.8322 0.2770 -0.4804
vn 0.8239 0.3010 -0.4802
vn 0.3530 0.9157 0.1921
vn 0.3648 0.9133 0.1809
vn 0.3468 0.9187 0.1891
vn 0.3395 0.9206 0.1930
vn -0.9331 -0.2626 0.2456
vn -0.9389 -0.2906 0.1845
vn -0.9157 -0.3265 0.2342
vn -0.9061 -0.3302 0.2646
vn 0.2601 -0.1062 0.9597
vn 0.2586 -0.1273 0.9576
vn 0.2753 -0.0935 0.9568
vn 0.2789 -0.0696 0.9578
vn 0.3164 0.3941 -0.8629
vn 0.3157 0.4024 -0.8593
vn 0.3233 0.3914 -0.8616
vn 0.3271 0.3799 -0.8653
vn -0.7938 0.0715 0.6039
vn -0.7955 0.0781 0.6008
vn -0.7978 0.0754 0.5982
vn -0.7968 0.0694 0.6002
vn 0.7234 -0.3392 0.6014
vn 0.7262 -0.3530 0.5899
vn 0.7349 -0.3521 0.5796
vn 0.7342 -0.3370 0.5894
vn 0.7053 -0.3426 -0.6207
vn 0.7137 -0.3311 -0.6172
vn 0.7215 -0.3371 -0.6048
vn 0.7118 -0.3483 -0.6099
vn -0.6479 0.1200 -0.7522
vn -0.6797 0.0340 -0.7327
vn -0.7107 0.0843 -0.6984
vn -0.6718 0.1533 -0.7247
vn -0.6994 0.1066 -0.7067
vn -0.7042 0.1026 -0.7026
vn -0.7058 0.1572 -0.6908
vn -0.6991 0.1599 -0.6969
vn 0.7906 0.2567 -0.5559
vn 0.7839 0.2397 -0.5727
vn 0.7624 0.2873 -0.5799
vn 0.7687 0.3010 -0.5644
vn 0.8128 -0.2799 -0.5109
vn 0.8147 -0.2794 -0.5081
vn 0.8145 -0.2818 -0.5071
vn 0.8129 -0.2828 -0.5091
vn -0.8505 -0.0063 0.5259
vn -0.8357 -0.0189 0.5489
vn -0.8302 0.0046 0.5575
vn -0.8444 0.0149 0.5356
vn -0.5961 0.5179 -0.6135
vn -0.5646 0.5163 -0.6440
vn -0.5612 0.4926 -0.6651
vn -0.5935 0.4824 -0.6442
vn 0.7586 -0.3614 0.5421
vn 0.7558 -0.3451 0.5565
vn 0.7316 -0.3917 0.5579
vn 0.7405 -0.3986 0.5411
vn -0.7286 0.3660 -0.5789
vn -0.7302 0.3653 -0.5774
vn -0.7303 0.3671 -0.5761
vn -0.7285 0.3681 -0.5777
vn -0.8579 0.0126 0.5136
vn -0.8644 0.0180 0.5025
vn -0.8669 0.0145 0.4982
vn -0.8608 0.0107 0.5089
vn -0.7852 0.2025 -0.5851
vn -0.7894 0.2003 -0.5803
vn -0.7902 0.2042 -0.5778
vn -0.7868 0.2066 -0.5815
vn 0.7013 -0.4851 0.5223
vn 0.7110 -0.4920 0.5024
vn 0.7187 -0.4838 0.4994
vn 0.7112 -0.4767 0.5166
vn 0.6873 -0.3291 0.6476
vn 0.6962 -0.3362 0.6343
vn 0.7078 -0.3218 0.6289
vn 0.7000 -0.3127 0.6420
vn 0.6984 -0.3706 -0.6123
vn 0.7203 -0.3584 -0.5939
vn 0.7088 -0.4132 -0.5717
vn 0.6877 -0.4165 -0.5946
vn -0.7555 0.3541 0.5512
vn -0.7629 0.3561 0.5396
vn -0.7684 0.3522 0.5343
vn -0.7621 0.3464 0.5470
vn -0.7749 0.0837 -0.6265
vn -0.7638 0.0956 -0.6384
vn -0.7515 0.0684 -0.6562
vn -0.7619 0.0525 -0.6456
vn 0.7605 -0.2511 -0.5988
vn 0.7530 -0.2532 -0.6074
vn 0.7472 -0.2534 -0.6144
vn 0.7544 -0.2478 -0.6079
vn 0.7667 -0.1327 0.6282
vn 0.7594 -0.1224 0.6390
vn 0.7501 -0.1338 0.6477
vn 0.7550 -0.1488 0.6386
vn -0.7931 0.1918 0.5780
vn -0.7938 0.1941 0.5764
vn -0.7959 0.1933 0.5738
vn -0.7950 0.1911 0.5757
vn -0.0029 -0.9999 0.0144
vn -0.0067 -0.9999 0.0138
vn -0.0019 -0.9999 0.0145
vn 0.0024 -0.9999 0.0151
vn 0.9934 0.0962 0.0627
vn 0.9910 0.1225 0.0546
vn 0.9904 0.1243 0.0600
vn 0.9930 0.0978 0.0657
vn -0.0169 -0.9998 -0.0047
vn -0.0238 -0.9997 -0.0077
vn -0.0195 -0.9998 -0.0064
vn -0.0114 -0.9999 -0.0035
vn 0.8271 0.0617 -0.5587
vn 0.8322 0.0621 -0.5510
vn 0.8372 0.0038 -0.5469
vn 0.8314 0.0046 -0.5557
vn 0.3423 -0.3744 0.8618
vn 0.3362 -0.3853 0.8593
vn 0.3675 -0.3102 0.8767
vn 0.3738 -0.2930 0.8800
vn -0.5598 -0.2835 0.7786
vn -0.5648 -0.2806 0.7761
vn -0.5542 -0.3513 0.7546
vn -0.5490 -0.3513 0.7584
vn -0.8281 0.5604 -0.0149
vn -0.8034 0.5954 -0.0015
vn -0.7971 0.6038 -0.0019
vn -0.8239 0.5661 -0.0275
vn 0.5146 0.7902 0.3330
vn 0.5221 0.8078 0.2736
vn 0.4904 0.8092 0.3237
vn 0.5035 0.7609 0.4093
vn -0.4859 0.8385 0.2467
vn -0.5457 0.8031 0.2393
vn -0.4979 0.8358 0.2315
vn -0.4787 0.8440 0.2418
vn 0.0191 -0.9998 -0.0053
vn 0.0230 -0.9997 0.0013
vn 0.0199 -0.9998 -0.0002
vn 0.0164 -0.9998 -0.0067
vn -0.9808 0.1782 -0.0786
vn -0.9794 0.1858 -0.0790
vn -0.9792 0.1863 -0.0799
vn -0.9807 0.1787 -0.0793
vn -0.0786 0.9863 0.1453
vn -0.0643 0.9878 0.1421
vn -0.0760 0.9868 0.1431
vn -0.0949 0.9848 0.1457
vn 0.0386 0.9881 0.1490
vn 0.0339 0.9862 0.1619
vn 0.0409 0.9871 0.1548
vn 0.0466 0.9887 0.1424
vn 0.8614 0.0717 -0.5029
vn 0.8634 0.0737 -0.4991
vn 0.8643 0.0536 -0.5002
vn 0.8625 0.0529 -0.5033
vn 0.9105 0.4008 0.1015
vn 0.9336 0.3464 0.0912
vn 0.8794 0.4646 0.1041
vn 0.9053 0.4106 0.1090
vn -0.7272 0.2730 -0.6297
vn -0.7322 0.2703 -0.6252
vn -0.7344 0.2928 -0.6123
vn -0.7262 0.2887 -0.6240
vn -0.7152 0.3986 -0.5741
vn -0.7125 0.3986 -0.5775
vn -0.7143 0.3917 -0.5799
vn -0.7173 0.3910 -0.5768
vn -0.8717 -0.0938 -0.4809
vn -0.8630 -0.0917 -0.4968
vn -0.8562 -0.1171 -0.5032
vn -0.8650 -0.1197 -0.4873
vn -0.3170 -0.0438 0.9474
vn -0.3170 -0.0391 0.9476
vn -0.3229 -0.0511 0.9451
vn -0.3230 -0.0560 0.9447
vn -0.8073 0.1624 -0.5673
vn -0.7939 0.1639 -0.5856
vn -0.7951 0.1028 -0.5977
vn -0.8097 0.0984 -0.5785
vn -0.3069 -0.0089 0.9517
vn -0.3069 -0.0096 0.9517
vn -0.3064 -0.0081 0.9519
vn -0.3063 -0.0075 0.9519
vn -0.2906 0.1529 0.9445
vn -0.2899 0.1606 0.9435
vn -0.2955 0.1481 0.9438
vn -0.3016 0.1326 0.9442
vn -0.8133 -0.4879 -0.3170
vn -0.8011 -0.4959 -0.3352
vn -0.7795 -0.5290 -0.3355
vn -0.7924 -0.5194 -0.3197
vn -0.7126 -0.5817 -0.3922
vn -0.7089 -0.5826 -0.3975
vn -0.7055 -0.5874 -0.3966
vn -0.7085 -0.5869 -0.3919
vn -0.2601 -0.3396 0.9039
vn -0.2611 -0.3469 0.9008
vn -0.2537 -0.3359 0.9071
vn -0.2547 -0.3300 0.9090
vn -0.0169 0.9108 0.4125
vn -0.0154 0.9116 0.4109
vn -0.0189 0.9102 0.4138
vn -0.0195 0.9096 0.4150
vn -0.1512 0.6167 0.7725
vn -0.1461 0.6253 0.7666
vn -0.1635 0.6014 0.7821
vn -0.1777 0.5734 0.7998
vn -0.3116 -0.9377 0.1538
vn 0.3091 -0.7489 -0.5861
vn -0.4517 0.8275 -0.3336
vn -0.4555 0.7762 -0.4358
vn -0.4715 0.7876 -0.3967
vn -0.4802 0.8037 -0.3515
vn -0.1624 0.9783 0.1289
vn -0.1510 0.9232 0.3535
vn -0.1655 0.9746 0.1506
vn -0.1370 0.9135 0.3831
vn -0.8315 0.4829 -0.2748
vn -0.8177 0.4712 -0.3306
vn -0.8561 0.4062 -0.3196
vn -0.8753 0.4052 -0.2640
vn -0.3285 -0.4369 0.8374
vn -0.3251 -0.4418 0.8362
vn -0.3173 -0.4116 0.8543
vn -0.3206 -0.4054 0.8561
vn -0.3826 -0.5100 0.7704
vn -0.4411 0.4954 -0.7483
vn -0.5105 0.5296 -0.6774
vn -0.4881 0.5637 -0.6663
vn -0.4917 0.5571 -0.6692
vn -0.5052 0.5245 -0.6854
vn -0.1114 0.9536 -0.2796
vn -0.1286 0.9282 -0.3491
vn -0.0845 0.9765 -0.1983
vn -0.1338 0.9752 -0.1763
vn -0.1061 0.9588 -0.2634
vn -0.6414 0.4600 0.6139
vn -0.6077 0.5359 0.5861
vn -0.6121 0.5484 0.5697
vn -0.6453 0.4141 0.6420
vn -0.9102 -0.0582 0.4101
vn -0.9132 0.0809 0.3994
vn -0.9161 0.0733 0.3943
vn -0.9087 -0.0611 0.4129
vn -0.2343 0.9441 0.2320
vn -0.2347 0.9529 0.1918
vn -0.2377 0.9360 0.2597
vn -0.2342 0.9281 0.2894
vn -0.8343 -0.1257 0.5368
vn -0.8344 -0.1251 0.5367
vn -0.8347 -0.1251 0.5364
vn -0.8344 -0.1259 0.5365
vn -0.2512 -0.4992 -0.8293
vn -0.2563 -0.3942 -0.8826
vn -0.2479 -0.4143 -0.8757
vn -0.2448 -0.5072 -0.8264
vn -0.3261 0.2936 -0.8986
vn -0.3112 0.3308 -0.8909
vn -0.3140 0.3207 -0.8936
vn -0.3298 0.2799 -0.9016
vn -0.3531 -0.5752 -0.7379
vn -0.3547 -0.5625 -0.7469
vn -0.3501 -0.5647 -0.7474
vn -0.3495 -0.5768 -0.7384
vn -0.3657 -0.1873 -0.9117
vn -0.3844 -0.2605 -0.8856
vn -0.3949 -0.2391 -0.8871
vn -0.3654 -0.1535 -0.9181
vn -0.7811 -0.1613 0.6032
vn -0.7873 -0.0626 0.6134
vn -0.8055 -0.0701 0.5885
vn -0.7946 -0.1659 0.5840
vn -0.8664 0.0309 0.4984
vn -0.8667 0.0424 0.4970
vn -0.8679 0.0423 0.4950
vn -0.8677 0.0309 0.4960
vn -0.8717 -0.0120 0.4899
vn -0.8711 -0.0186 0.4907
vn -0.8698 -0.0186 0.4931
vn -0.8704 -0.0119 0.4922
vn -0.8115 -0.0523 0.5821
vn -0.7964 -0.1549 0.5846
vn -0.7831 -0.1591 0.6012
vn -0.8035 -0.0352 0.5942
vn -0.8562 0.0456 0.5147
vn -0.8564 0.0532 0.5136
vn -0.8566 0.0520 0.5133
vn -0.8570 0.0456 0.5132
vn -0.0191 0.0428 -0.9989
vn -0.0588 -0.1930 -0.9794
vn -0.0555 -0.1478 -0.9875
vn -0.0156 0.0920 -0.9956
vn 0.5457 -0.4315 -0.7184
vn 0.5456 -0.4324 -0.7179
vn 0.5455 -0.4314 -0.7185
vn 0.5459 -0.4311 -0.7184
vn 0.9341 -0.1752 0.3109
vn 0.9411 -0.1823 0.2846
vn 0.9413 -0.1777 0.2872
vn 0.9315 -0.1767 0.3180
vn 0.7107 -0.6395 0.2932
vn 0.7192 -0.6364 0.2789
vn 0.7204 -0.6351 0.2787
vn 0.7128 -0.6363 0.2948
vn -0.8845 0.4041 -0.2332
vn -0.8912 0.3996 -0.2146
vn -0.8846 0.4149 -0.2128
vn -0.8787 0.4169 -0.2326
vn -0.7591 0.5287 -0.3798
vn -0.7219 0.5273 -0.4482
vn -0.7309 0.4981 -0.4666
vn -0.7708 0.4858 -0.4122
vn 0.7009 -0.6894 0.1829
vn 0.7255 -0.6816 0.0953
vn 0.7341 -0.6692 0.1152
vn 0.7278 -0.6573 0.1954
vn 0.3998 -0.4554 -0.7955
vn 0.3866 -0.4918 -0.7801
vn 0.3931 -0.4618 -0.7951
vn 0.4053 -0.4258 -0.8090
vn -0.6534 0.1770 0.7360
vn -0.6525 0.1754 0.7373
vn -0.6499 0.1776 0.7390
vn -0.6503 0.1796 0.7381
vn 0.2271 -0.8577 -0.4613
vn 0.2146 -0.8428 -0.4936
vn 0.2148 -0.8529 -0.4758
vn 0.2268 -0.8596 -0.4578
vn -0.7733 0.4927 -0.3990
vn -0.7793 0.4904 -0.3901
vn -0.7630 0.5169 -0.3881
vn -0.7506 0.5257 -0.4003
vn 0.4031 -0.6193 -0.6738
vn 0.4091 -0.6186 -0.6708
vn 0.4078 -0.6257 -0.6650
vn 0.4022 -0.6262 -0.6679
vn -0.2073 0.8495 0.4852
vn -0.2135 0.8494 0.4826
vn -0.2126 0.8489 0.4839
vn -0.2071 0.8487 0.4866
vn 0.9334 -0.3306 0.1396
vn 0.9393 -0.3263 0.1059
vn 0.9379 -0.3301 0.1062
vn 0.9353 -0.3241 0.1422
vn 0.8371 -0.2887 0.4646
vn 0.8583 -0.2483 0.4491
vn 0.8397 -0.2791 0.4658
vn 0.8310 -0.2992 0.4689
vn -0.3465 0.6873 0.6384
vn -0.3471 0.6800 0.6459
vn -0.3425 0.6851 0.6430
vn -0.3447 0.6885 0.6380
vn -0.9401 0.0222 -0.3403
vn -0.9496 -0.0286 -0.3121
vn -0.9424 0.0095 -0.3343
vn -0.9376 0.0350 -0.3460
vn -0.2442 0.2909 0.9251
vn -0.3196 0.3197 0.8920
vn -0.2798 0.2965 0.9131
vn -0.1635 0.2407 0.9567
vn -0.6109 0.4203 0.6709
vn -0.0244 -0.9594 0.2810
vn -0.0244 -0.9595 0.2805
vn -0.0243 -0.9594 0.2810
vn -0.0244 -0.9593 0.2815
vn -0.7411 0.3191 0.5907
vn -0.7312 0.2773 0.6233
vn -0.7070 0.3318 0.6245
vn -0.7252 0.3512 0.5923
vn -0.9678 -0.0715 -0.2414
vn -0.9675 -0.0520 -0.2476
vn -0.9629 -0.0884 -0.2548
vn -0.9665 -0.0916 -0.2398
vn 0.8146 -0.5257 -0.2451
vn 0.8183 -0.5267 -0.2302
vn 0.8153 -0.5297 -0.2339
vn 0.8128 -0.5276 -0.2470
vn 0.6789 -0.6826 -0.2706
vn 0.6283 -0.6668 -0.4008
vn 0.6265 -0.6788 -0.3831
vn 0.6667 -0.6893 -0.2836
vn -0.8388 0.2782 -0.4679
vn -0.8239 0.3010 -0.4802
vn -0.8322 0.2770 -0.4804
vn -0.8455 0.2260 -0.4837
vn -0.3530 0.9157 0.1921
vn -0.3395 0.9206 0.1929
vn -0.3468 0.9187 0.1891
vn -0.3648 0.9133 0.1809
vn 0.9331 -0.2626 0.2456
vn 0.9061 -0.3302 0.2646
vn 0.9157 -0.3265 0.2342
vn 0.9389 -0.2906 0.1845
vn -0.2601 -0.1062 0.9597
vn -0.2789 -0.0696 0.9578
vn -0.2753 -0.0935 0.9568
vn -0.2586 -0.1273 0.9576
vn -0.3164 0.3941 -0.8629
vn -0.3271 0.3799 -0.8653
vn -0.3233 0.3914 -0.8616
vn -0.3157 0.4024 -0.8593
vt 0.181819 0.000000
vt 0.227273 0.078731
vt 0.136365 0.078731
vt 0.272728 0.157461
vt 0.318182 0.078731
vt 0.363637 0.157461
vt 0.909091 0.000000
vt 0.954545 0.078731
vt 0.863636 0.078731
vt 0.727273 0.000000
vt 0.772727 0.078731
vt 0.681818 0.078731
vt 0.545455 0.000000
vt 0.590909 0.078731
vt 0.500000 0.078731
vt 0.318182 0.236191
vt 0.090910 0.157461
vt 0.181819 0.157461
vt 0.136365 0.236191
vt 0.818182 0.157461
vt 0.909091 0.157461
vt 0.863636 0.236191
vt 0.636364 0.157461
vt 0.727273 0.157461
vt 0.681818 0.236191
vt 0.454546 0.157461
vt 0.545455 0.157461
vt 0.500000 0.236191
vt 0.227273 0.236191
vt 0.045455 0.236191
vt 0.772727 0.236191
vt 0.590909 0.236191
vt 0.409092 0.236191
vt 0.181819 0.314921
vt 0.272728 0.314921
vt 0.227273 0.393651
vt 0.000000 0.314921
vt 0.090910 0.314921
vt 0.045455 0.393651
vt 0.727273 0.314921
vt 0.818182 0.314921
vt 0.772727 0.393651
vt 0.545455 0.314921
vt 0.636364 0.314921
vt 0.590909 0.393651
vt 0.363637 0.314921
vt 0.454546 0.314921
vt 0.409092 0.393651
vt 0.500000 0.393651
vt 0.454546 0.472382
vt 0.681818 0.393651
vt 0.636364 0.472382
vt 0.863636 0.393651
vt 0.818182 0.472382
vt 0.909091 0.314921
vt 0.136365 0.393651
vt 0.090910 0.472382
vt 0.318182 0.393651
vt 0.272728 0.472382
vt 0.954545 0.236191
vt 1.000000 0.157461
vt 0.409092 0.078731
vt 0.363637 0.000000
vt 0.000000 0.000000
s 0
usemtl Material.004
f 1/1/1 14/2/1 13/3/1
f 2/4/2 14/5/2 16/6/2
f 1/7/3 13/8/3 18/9/3
f 1/10/4 18/11/4 20/12/4
f 1/13/5 20/14/5 17/15/5
f 2/4/6 16/6/6 23/16/6
f 3/17/7 15/18/7 25/19/7
f 4/20/8 19/21/8 27/22/8
f 5/23/9 21/24/9 29/25/9
f 6/26/10 22/27/10 31/28/10
f 2/4/11 23/16/11 26/29/11
f 3/17/12 25/19/12 28/30/12
f 4/20/13 27/22/13 30/31/13
f 5/23/14 29/25/14 32/32/14
f 6/26/15 31/28/15 24/33/15
f 7/34/16 33/35/16 38/36/16
f 8/37/17 34/38/17 40/39/17
f 9/40/18 35/41/18 41/42/18
f 10/43/19 36/44/19 42/45/19
f 11/46/20 37/47/20 39/48/20
f 39/48/21 42/49/21 12/50/21
f 39/48/22 37/47/22 42/49/22
f 37/47/23 10/43/23 42/49/23
f 42/45/24 41/51/24 12/52/24
f 42/45/25 36/44/25 41/51/25
f 36/44/26 9/40/26 41/51/26
f 41/42/27 40/53/27 12/54/27
f 41/42/28 35/41/28 40/53/28
f 35/41/29 8/55/29 40/53/29
f 40/39/30 38/56/30 12/57/30
f 40/39/31 34/38/31 38/56/31
f 34/38/32 7/34/32 38/56/32
f 38/36/33 39/58/33 12/59/33
f 38/36/34 33/35/34 39/58/34
f 33/35/35 11/46/35 39/58/35
f 24/33/36 37/47/36 11/46/36
f 24/33/37 31/28/37 37/47/37
f 31/28/38 10/43/38 37/47/38
f 32/32/39 36/44/39 10/43/39
f 32/32/40 29/25/40 36/44/40
f 29/25/41 9/40/41 36/44/41
f 30/31/42 35/41/42 9/40/42
f 30/31/43 27/22/43 35/41/43
f 27/22/44 8/55/44 35/41/44
f 28/30/45 34/38/45 8/37/45
f 28/30/46 25/19/46 34/38/46
f 25/19/47 7/34/47 34/38/47
f 26/29/48 33/35/48 7/34/48
f 26/29/49 23/16/49 33/35/49
f 23/16/50 11/46/50 33/35/50
f 31/28/51 32/32/51 10/43/51
f 31/28/52 22/27/52 32/32/52
f 22/27/53 5/23/53 32/32/53
f 29/25/54 30/31/54 9/40/54
f 29/25/55 21/24/55 30/31/55
f 21/24/56 4/20/56 30/31/56
f 27/22/57 28/60/57 8/55/57
f 27/22/58 19/21/58 28/60/58
f 19/21/59 3/61/59 28/60/59
f 25/19/60 26/29/60 7/34/60
f 25/19/61 15/18/61 26/29/61
f 15/18/62 2/4/62 26/29/62
f 23/16/63 24/33/63 11/46/63
f 23/16/64 16/6/64 24/33/64
f 16/6/65 6/26/65 24/33/65
f 17/15/66 22/27/66 6/26/66
f 17/15/67 20/14/67 22/27/67
f 20/14/68 5/23/68 22/27/68
f 20/12/69 21/24/69 5/23/69
f 20/12/70 18/11/70 21/24/70
f 18/11/71 4/20/71 21/24/71
f 18/9/72 19/21/72 4/20/72
f 18/9/73 13/8/73 19/21/73
f 13/8/74 3/61/74 19/21/74
f 16/6/75 17/62/75 6/26/75
f 16/6/76 14/5/76 17/62/76
f 14/5/77 1/63/77 17/62/77
f 13/3/78 15/18/78 3/17/78
f 13/3/79 14/2/79 15/18/79
f 14/2/80 2/4/80 15/18/80
s 1
usemtl None.001
f 45/64/81 49/64/82 53/64/83
f 45/64/81 53/64/83 57/64/84
f 56/64/85 52/64/86 61/64/87
f 56/64/85 61/64/87 65/64/88
f 66/64/89 62/64/90 68/64/91
f 66/64/89 68/64/91 72/64/92
f 73/64/93 70/64/94 48/64/95
f 73/64/93 48/64/95 43/64/96
f 77/64/97 79/64/98 85/64/99
f 77/64/97 85/64/99 89/64/100
f 67/64/101 59/64/102 91/64/103
f 67/64/101 91/64/103 95/64/104
f 94/64/105 90/64/106 98/64/107
f 94/64/105 98/64/107 102/64/108
f 54/64/109 50/64/110 108/64/111
f 54/64/109 108/64/111 112/64/112
f 47/64/113 69/64/114 96/64/115
f 47/64/113 96/64/115 106/64/116
f 60/64/117 51/64/118 110/64/119
f 60/64/117 110/64/119 92/64/120
f 114/64/121 104/64/122 122/64/123
f 114/64/121 122/64/123 124/64/124
f 113/64/125 109/64/126 117/64/127
f 113/64/125 117/64/127 130/64/128
f 107/64/129 97/64/130 105/64/131
f 107/64/129 105/64/131 116/64/132
f 93/64/133 111/64/134 127/64/135
f 93/64/133 127/64/135 99/64/136
f 101/64/137 128/64/138 131/64/139
f 101/64/137 131/64/139 137/64/140
f 103/64/141 100/64/142 136/64/143
f 103/64/141 136/64/143 118/64/144
f 129/64/145 115/64/146 125/64/147
f 129/64/145 125/64/147 134/64/148
f 147/64/149 74/64/150 44/64/151
f 147/64/149 44/64/151 150/64/152
f 155/64/153 63/64/154 71/64/155
f 155/64/153 71/64/155 145/64/156
f 158/64/157 55/64/158 64/64/159
f 158/64/157 64/64/159 156/64/160
f 151/64/161 46/64/162 58/64/163
f 151/64/161 58/64/163 161/64/164
f 163/64/165 167/64/166 88/64/167
f 163/64/165 88/64/167 84/64/168
f 169/64/169 165/64/170 173/64/171
f 169/64/169 173/64/171 176/64/172
f 168/64/173 164/64/174 182/64/175
f 168/64/173 182/64/175 175/64/176
f 172/64/177 76/64/178 87/64/179
f 172/64/177 87/64/179 166/64/180
f 184/64/181 178/64/182 174/64/183
f 184/64/181 174/64/183 180/64/184
f 189/64/185 187/64/186 183/64/187
f 189/64/185 183/64/187 193/64/188
f 81/64/189 152/64/190 197/64/191
f 81/64/189 197/64/191 190/64/192
f 159/64/193 157/64/194 199/64/195
f 159/64/193 199/64/195 201/64/196
f 148/64/197 160/64/198 204/64/199
f 148/64/197 204/64/199 196/64/200
f 162/64/201 83/64/202 192/64/203
f 162/64/201 192/64/203 181/64/204
f 86/64/205 82/64/206 191/64/207
f 86/64/205 191/64/207 194/64/208
f 195/64/209 203/64/210 186/64/211
f 195/64/209 186/64/211 188/64/212
f 202/64/213 200/64/214 179/64/215
f 202/64/213 179/64/215 185/64/216
f 154/64/217 144/64/218 75/64/219
f 154/64/217 75/64/219 171/64/220
f 153/64/221 170/64/222 177/64/223
f 153/64/221 177/64/223 198/64/224
f 146/64/225 149/64/226 80/64/227
f 146/64/225 80/64/227 78/64/228
f 123/64/229 121/64/230 207/64/231
f 123/64/229 207/64/231 209/64/232
f 214/64/233 220/64/234 224/64/235
f 214/64/233 224/64/235 227/64/236
f 232/64/237 234/64/238 238/64/239
f 232/64/237 238/64/239 244/64/240
f 210/64/241 208/64/242 219/64/243
f 210/64/241 219/64/243 213/64/244
f 243/64/245 237/64/246 246/64/247
f 243/64/245 246/64/247 252/64/248
f 256/64/249 258/64/250 262/64/251
f 256/64/249 262/64/251 268/64/252
f 272/64/253 276/64/254 281/64/255
f 272/64/253 281/64/255 286/64/256
f 225/64/257 223/64/258 275/64/259
f 225/64/257 275/64/259 269/64/260
f 251/64/261 245/64/262 257/64/263
f 251/64/261 257/64/263 255/64/264
f 289/64/265 291/64/266 295/64/267
f 289/64/265 295/64/267 301/64/268
f 267/64/269 261/64/270 292/64/271
f 267/64/269 292/64/271 290/64/272
s 0
f 133/64/273 306/64/273 141/64/273
f 307/64/274 119/64/274 139/64/274
s 1
f 313/64/275 318/64/276 321/64/277
f 313/64/275 321/64/277 323/64/278
f 327/64/279 333/64/280 311/64/281
f 333/64/280 316/64/282 311/64/281
f 325/64/283 322/64/284 337/64/285
f 325/64/283 337/64/285 338/64/286
f 302/64/287 296/64/288 340/64/289
f 302/64/287 340/64/289 346/64/290
s 0
f 347/64/291 341/64/291 348/64/291
f 347/64/291 348/64/291 351/64/291
f 336/64/292 319/64/292 356/64/292
f 336/64/292 356/64/292 353/64/292
s 1
f 320/64/293 317/64/294 361/64/295
f 320/64/293 361/64/295 357/64/296
f 360/64/297 315/64/298 332/64/299
f 332/64/299 364/64/300 369/64/301
f 332/64/299 369/64/301 360/64/297
f 342/64/302 298/64/303 314/64/304
f 342/64/302 314/64/304 324/64/305
f 349/64/306 343/64/307 326/64/308
f 349/64/306 326/64/308 339/64/309
f 297/64/310 293/64/311 329/64/312
f 297/64/310 329/64/312 312/64/313
f 294/64/314 264/64/315 285/64/316
f 294/64/314 285/64/316 331/64/317
f 280/64/318 273/64/319 372/64/320
f 280/64/318 372/64/320 377/64/321
f 217/64/322 205/64/323 380/64/324
f 217/64/322 380/64/324 384/64/325
f 274/64/326 222/64/327 389/64/328
f 274/64/326 389/64/328 373/64/329
f 221/64/330 218/64/331 385/64/332
f 221/64/330 385/64/332 388/64/333
f 263/64/334 259/64/335 270/64/336
f 263/64/334 270/64/336 284/64/337
f 239/64/338 236/64/339 212/64/340
f 239/64/338 212/64/340 215/64/341
f 248/64/342 240/64/343 216/64/344
f 248/64/342 216/64/344 228/64/345
f 260/64/346 247/64/347 226/64/348
f 260/64/346 226/64/348 271/64/349
f 235/64/350 135/64/351 126/64/352
f 235/64/350 126/64/352 211/64/353
f 376/64/354 368/64/355 363/64/356
f 376/64/354 363/64/356 279/64/357
f 392/64/358 394/64/359 398/64/360
f 392/64/358 398/64/360 404/64/361
f 406/64/362 402/64/363 410/64/364
f 406/64/362 410/64/364 414/64/365
f 419/64/366 391/64/367 403/64/368
f 419/64/366 403/64/368 407/64/369
f 397/64/370 426/64/371 430/64/372
f 397/64/370 430/64/372 401/64/373
f 365/64/374 335/64/375 425/64/376
f 365/64/374 425/64/376 396/64/377
f 282/64/378 277/64/379 390/64/380
f 282/64/378 390/64/380 418/64/381
f 278/64/382 362/64/383 395/64/384
f 278/64/382 395/64/384 393/64/385
f 409/64/386 428/64/387 424/64/388
f 409/64/386 424/64/388 421/64/389
f 413/64/390 432/64/391 436/64/392
f 413/64/390 436/64/392 442/64/393
f 400/64/394 429/64/395 445/64/396
f 400/64/394 445/64/396 433/64/397
f 405/64/398 399/64/399 431/64/400
f 405/64/398 431/64/400 412/64/401
f 427/64/402 408/64/403 416/64/404
f 427/64/402 416/64/404 443/64/405
f 447/64/406 451/64/407 455/64/408
f 447/64/406 455/64/408 458/64/409
f 415/64/410 411/64/411 440/64/412
f 415/64/410 440/64/412 462/64/413
f 444/64/414 417/64/415 463/64/416
f 444/64/414 463/64/416 465/64/417
f 434/64/418 446/64/419 468/64/420
f 434/64/418 468/64/420 438/64/421
f 328/64/422 283/64/423 420/64/424
f 328/64/422 420/64/424 422/64/425
s 0
f 423/64/426 334/64/426 330/64/426
s 1
f 457/64/427 470/64/428 472/64/429
f 457/64/427 472/64/429 459/64/430
f 476/64/431 450/64/432 460/64/433
f 476/64/431 460/64/433 473/64/434
f 482/64/435 478/64/436 474/64/437
f 482/64/435 474/64/437 471/64/438
f 453/64/439 479/64/440 469/64/441
f 453/64/439 469/64/441 456/64/442
f 441/64/443 435/64/444 480/64/445
f 441/64/443 480/64/445 454/64/446
f 437/64/447 467/64/448 477/64/449
f 437/64/447 477/64/449 481/64/450
f 466/64/451 464/64/452 449/64/453
f 466/64/451 449/64/453 475/64/454
f 461/64/455 439/64/456 452/64/457
f 461/64/455 452/64/457 448/64/458
f 231/64/459 305/64/460 132/64/461
f 231/64/459 132/64/461 233/64/462
f 206/64/463 120/64/464 309/64/465
f 206/64/463 309/64/465 381/64/466
f 484/64/467 488/64/468 492/64/469
f 484/64/467 492/64/469 496/64/470
f 489/64/471 500/64/472 504/64/473
f 489/64/471 504/64/473 493/64/474
f 499/64/475 509/64/476 513/64/477
f 499/64/475 513/64/477 503/64/478
f 508/64/479 486/64/480 497/64/481
f 508/64/479 497/64/481 511/64/482
f 516/64/483 519/64/484 523/64/485
f 516/64/483 523/64/485 529/64/486
f 514/64/487 532/64/488 536/64/489
f 514/64/487 536/64/489 506/64/490
f 533/64/491 541/64/492 545/64/493
f 533/64/491 545/64/493 537/64/494
f 491/64/495 547/64/496 551/64/497
f 491/64/495 551/64/497 495/64/498
f 498/64/499 553/64/500 531/64/501
f 498/64/499 531/64/501 512/64/502
f 505/64/503 535/64/504 549/64/505
f 505/64/503 549/64/505 494/64/506
f 557/64/507 560/64/508 562/64/509
f 557/64/507 562/64/509 539/64/510
f 546/64/511 567/64/512 554/64/513
f 546/64/511 554/64/513 550/64/514
f 552/64/515 555/64/516 538/64/517
f 552/64/515 538/64/517 530/64/518
f 534/64/519 544/64/520 570/64/521
f 534/64/519 570/64/521 548/64/522
f 542/64/523 142/64/524 575/64/525
f 542/64/523 575/64/525 569/64/526
f 540/64/527 566/64/528 143/64/529
f 540/64/527 143/64/529 543/64/530
f 568/64/531 572/64/532 559/64/533
f 568/64/531 559/64/533 556/64/534
f 576/64/535 582/64/536 485/64/537
f 576/64/535 485/64/537 507/64/538
f 587/64/539 578/64/540 510/64/541
f 587/64/539 510/64/541 502/64/542
f 593/64/543 586/64/544 501/64/545
f 593/64/543 501/64/545 490/64/546
f 581/64/547 590/64/548 487/64/549
f 581/64/547 487/64/549 483/64/550
f 595/64/551 524/64/552 520/64/553
f 595/64/551 520/64/553 598/64/554
f 604/64/555 608/64/556 611/64/557
f 604/64/555 611/64/557 600/64/558
f 597/64/559 609/64/560 613/64/561
f 597/64/559 613/64/561 594/64/562
f 601/64/563 599/64/564 521/64/565
f 601/64/563 521/64/565 517/64/566
f 619/64/567 615/64/568 610/64/569
f 619/64/567 610/64/569 606/64/570
f 622/64/571 625/64/572 612/64/573
f 622/64/571 612/64/573 616/64/574
f 527/64/575 621/64/576 627/64/577
f 527/64/575 627/64/577 580/64/578
f 592/64/579 633/64/580 635/64/581
f 592/64/579 635/64/581 585/64/582
f 584/64/583 628/64/584 630/64/585
f 584/64/583 630/64/585 591/64/586
f 596/64/587 614/64/588 626/64/589
f 596/64/587 626/64/589 525/64/590
f 522/64/591 624/64/592 620/64/593
f 522/64/591 620/64/593 526/64/594
f 629/64/595 623/64/596 617/64/597
f 629/64/595 617/64/597 631/64/598
f 632/64/599 618/64/600 605/64/601
f 632/64/599 605/64/601 634/64/602
f 588/64/603 602/64/604 518/64/605
f 588/64/603 518/64/605 579/64/606
f 589/64/607 636/64/608 607/64/609
f 589/64/607 607/64/609 603/64/610
f 577/64/611 515/64/612 528/64/613
f 577/64/611 528/64/613 583/64/614
f 561/64/615 640/64/616 642/64/617
f 561/64/615 642/64/617 563/64/618
f 647/64/619 650/64/620 653/64/621
f 647/64/619 653/64/621 657/64/622
f 229/64/623 241/64/624 663/64/625
f 229/64/623 663/64/625 667/64/626
f 639/64/627 648/64/628 658/64/629
f 639/64/627 658/64/629 641/64/630
f 242/64/631 249/64/632 671/64/633
f 242/64/631 671/64/633 664/64/634
f 253/64/635 265/64/636 675/64/637
f 253/64/635 675/64/637 679/64/638
f 681/64/639 685/64/640 690/64/641
f 681/64/639 690/64/641 695/64/642
f 652/64/643 684/64/644 696/64/645
f 652/64/643 696/64/645 654/64/646
f 250/64/647 254/64/648 680/64/649
f 250/64/647 680/64/649 672/64/650
f 288/64/651 300/64/652 702/64/653
f 288/64/651 702/64/653 706/64/654
f 266/64/655 287/64/656 705/64/657
f 266/64/655 705/64/657 676/64/658
s 0
f 573/64/659 138/64/659 303/64/659
f 310/64/660 140/64/660 565/64/660
s 1
f 708/64/661 714/64/662 716/64/663
f 708/64/661 716/64/663 719/64/664
f 727/64/665 710/64/666 730/64/667
f 710/64/666 721/64/668 730/64/667
f 712/64/669 733/64/670 734/64/671
f 712/64/669 734/64/671 715/64/672
f 299/64/673 345/64/674 739/64/675
f 299/64/673 739/64/675 701/64/676
f 344/64/677 350/64/677 741/64/677
s 0
f 344/64/677 741/64/677 738/64/677
f 735/64/678 352/64/678 355/64/678
f 735/64/678 355/64/678 718/64/678
s 1
f 717/64/679 354/64/680 358/64/681
f 717/64/679 358/64/681 720/64/682
f 731/64/683 722/64/684 359/64/685
f 359/64/685 366/64/686 743/64/687
f 359/64/685 743/64/687 731/64/683
f 737/64/688 713/64/689 707/64/690
f 737/64/688 707/64/690 699/64/691
f 740/64/692 732/64/693 711/64/694
f 740/64/692 711/64/694 736/64/695
f 700/64/696 709/64/697 725/64/698
f 700/64/696 725/64/698 704/64/699
f 703/64/700 723/64/701 686/64/702
f 703/64/700 686/64/702 673/64/703
f 691/64/704 374/64/705 371/64/706
f 691/64/704 371/64/706 698/64/707
f 660/64/708 383/64/709 379/64/710
f 660/64/708 379/64/710 644/64/711
f 697/64/712 370/64/713 386/64/714
f 697/64/712 386/64/714 655/64/715
f 656/64/716 387/64/717 382/64/718
f 656/64/716 382/64/718 659/64/719
f 674/64/720 687/64/721 683/64/722
f 674/64/720 683/64/722 678/64/723
f 662/64/724 646/64/725 637/64/726
f 662/64/724 637/64/726 665/64/727
f 669/64/728 649/64/729 645/64/730
f 669/64/728 645/64/730 661/64/731
f 677/64/732 682/64/733 651/64/734
f 677/64/732 651/64/734 670/64/735
f 666/64/736 638/64/737 558/64/738
f 666/64/736 558/64/738 571/64/739
f 375/64/740 692/64/741 744/64/742
f 375/64/740 744/64/742 367/64/743
f 747/64/744 751/64/745 757/64/746
f 747/64/744 757/64/746 761/64/747
f 765/64/748 769/64/749 773/64/750
f 765/64/748 773/64/750 753/64/751
f 776/64/752 764/64/753 752/64/754
f 776/64/752 752/64/754 748/64/755
f 758/64/756 754/64/757 778/64/758
f 758/64/756 778/64/758 782/64/759
f 742/64/760 759/64/761 783/64/762
f 742/64/760 783/64/762 728/64/763
f 689/64/764 777/64/765 749/64/766
f 689/64/764 749/64/766 694/64/767
f 693/64/768 746/64/769 760/64/770
f 693/64/768 760/64/770 745/64/771
f 762/64/772 774/64/773 784/64/774
f 762/64/772 784/64/774 780/64/775
f 770/64/776 787/64/777 793/64/778
f 770/64/776 793/64/778 797/64/779
f 755/64/780 796/64/781 800/64/782
f 755/64/780 800/64/782 779/64/783
f 750/64/784 771/64/785 798/64/786
f 750/64/784 798/64/786 756/64/787
f 781/64/788 802/64/789 767/64/790
f 781/64/788 767/64/790 763/64/791
f 806/64/792 809/64/793 812/64/794
f 806/64/792 812/64/794 816/64/795
f 768/64/796 819/64/797 789/64/798
f 768/64/796 789/64/798 772/64/799
f 801/64/800 824/64/801 818/64/802
f 801/64/800 818/64/802 766/64/803
f 795/64/804 791/64/805 821/64/806
f 795/64/804 821/64/806 799/64/807
f 726/64/808 786/64/809 775/64/810
f 726/64/808 775/64/810 688/64/811
s 0
f 785/64/812 724/64/812 729/64/812
s 1
f 810/64/813 808/64/814 827/64/815
f 810/64/813 827/64/815 829/64/816
f 833/64/817 826/64/818 807/64/819
f 833/64/817 807/64/819 803/64/820
f 835/64/821 828/64/822 825/64/823
f 835/64/821 825/64/823 831/64/824
f 814/64/825 811/64/826 830/64/827
f 814/64/825 830/64/827 838/64/828
f 788/64/829 813/64/830 837/64/831
f 788/64/829 837/64/831 794/64/832
f 792/64/833 836/64/834 832/64/835
f 792/64/833 832/64/835 822/64/836
f 823/64/837 834/64/838 804/64/839
f 823/64/837 804/64/839 817/64/840
f 820/64/841 805/64/842 815/64/843
f 820/64/841 815/64/843 790/64/844
f 230/64/845 668/64/846 574/64/847
f 230/64/845 574/64/847 304/64/848
f 643/64/849 378/64/850 308/64/851
f 643/64/849 308/64/851 564/64/852
