{
	"asset":{
		"generator":"Khronos glTF Blender I/O v4.3.47",
		"version":"2.0"
	},
	"scene":0,
	"scenes":[
		{
			"name":"Scene",
			"nodes":[
				14
			]
		}
	],
	"nodes":[
		{
			"name":"Bone.002",
			"rotation":[
				0.005522357299923897,
				-0.00011182341404492036,
				0.008845079690217972,
				0.9999456405639648
			],
			"scale":[
				0.9999999403953552,
				0.9999998211860657,
				0.9999999403953552
			],
			"translation":[
				1.1146767064929008e-08,
				1.2837622165679932,
				-1.2288182915654033e-08
			]
		},
		{
			"children":[
				0
			],
			"name":"Bone.001",
			"rotation":[
				-0.0172520000487566,
				-4.627546150004491e-05,
				0.016060005873441696,
				0.9997221827507019
			],
			"scale":[
				0.9999998807907104,
				0.9999997615814209,
				0.9999999403953552
			],
			"translation":[
				-1.028297447192017e-09,
				2.13191819190979,
				2.646629582159221e-09
			]
		},
		{
			"name":"Bone.004",
			"rotation":[
				0.012852500192821026,
				-0.02215917408466339,
				-0.47409752011299133,
				0.8800996541976929
			],
			"scale":[
				0.9999998807907104,
				0.9999999403953552,
				0.9999998807907104
			],
			"translation":[
				-9.313225746154785e-09,
				0.7832826375961304,
				-1.4901161193847656e-08
			]
		},
		{
			"children":[
				2
			],
			"name":"Bone.003",
			"rotation":[
				-0.563041090965271,
				-0.48048773407936096,
				0.3866589069366455,
				0.5501010417938232
			],
			"scale":[
				0.9999998807907104,
				0.9999999403953552,
				1
			],
			"translation":[
				-0.06356456875801086,
				2.046952247619629,
				-0.8843193054199219
			]
		},
		{
			"name":"Bone.006",
			"rotation":[
				0.42660483717918396,
				0.7936729192733765,
				0.4086306095123291,
				0.14530177414417267
			],
			"scale":[
				1.000000238418579,
				1,
				1.000000238418579
			],
			"translation":[
				2.8870999813079834e-08,
				0.8550132513046265,
				6.402842700481415e-09
			]
		},
		{
			"children":[
				4
			],
			"name":"Bone.005",
			"rotation":[
				0.8020551204681396,
				-0.15360121428966522,
				-0.22012321650981903,
				0.5335354804992676
			],
			"scale":[
				0.9999999403953552,
				0.9999999403953552,
				0.9999999403953552
			],
			"translation":[
				-0.06892624497413635,
				2.139598846435547,
				0.7780895233154297
			]
		},
		{
			"children":[
				1,
				3,
				5
			],
			"name":"Bone",
			"rotation":[
				0.004298229236155748,
				-2.458529888826888e-05,
				-0.013774700462818146,
				0.9998959302902222
			],
			"scale":[
				1,
				0.9999999403953552,
				1
			],
			"translation":[
				0.06037525460124016,
				-0.8162392377853394,
				-0.048885442316532135
			]
		},
		{
			"name":"Bone.009",
			"rotation":[
				-0.012047776952385902,
				0.00022485564113594592,
				-0.0019345447653904557,
				0.9999254941940308
			],
			"scale":[
				1,
				1.0000001192092896,
				1.0000001192092896
			],
			"translation":[
				-1.862645149230957e-08,
				1.5823357105255127,
				3.725290298461914e-08
			]
		},
		{
			"children":[
				7
			],
			"name":"Bone.008",
			"rotation":[
				-0.13806083798408508,
				0.03672463819384575,
				-0.03462972864508629,
				0.9891366958618164
			],
			"scale":[
				1,
				1.0000001192092896,
				1
			],
			"translation":[
				-9.313225746154785e-09,
				0.6411283016204834,
				5.681067705154419e-08
			]
		},
		{
			"children":[
				8
			],
			"name":"Bone.007",
			"rotation":[
				-0.0947456955909729,
				0.253118634223938,
				0.9627317786216736,
				0.010087582282721996
			],
			"scale":[
				1,
				1.0000001192092896,
				0.9999999403953552
			],
			"translation":[
				0.06037525460124016,
				-0.8162392377853394,
				-0.048885442316532135
			]
		},
		{
			"name":"Bone.012",
			"rotation":[
				0.008950400166213512,
				-0.013026263564825058,
				0.07013603299856186,
				0.9974122643470764
			],
			"scale":[
				0.9999998807907104,
				0.9999998807907104,
				0.9999999403953552
			],
			"translation":[
				1.862645149230957e-09,
				1.5067068338394165,
				1.6763806343078613e-08
			]
		},
		{
			"children":[
				10
			],
			"name":"Bone.011",
			"rotation":[
				-0.2787303924560547,
				-0.044065408408641815,
				0.036463409662246704,
				0.9586647152900696
			],
			"scale":[
				0.9999999403953552,
				1,
				0.9999998807907104
			],
			"translation":[
				-5.587935447692871e-09,
				0.702886700630188,
				-9.324867278337479e-08
			]
		},
		{
			"children":[
				11
			],
			"name":"Bone.010",
			"rotation":[
				-0.9313043355941772,
				-0.01368789654225111,
				0.0740329921245575,
				0.3563762605190277
			],
			"scale":[
				0.9999999403953552,
				1,
				1
			],
			"translation":[
				0.06037525460124016,
				-0.8162392377853394,
				-0.048885442316532135
			]
		},
		{
			"mesh":0,
			"name":"leftArm.002",
			"skin":0
		},
		{
			"children":[
				13,
				6,
				9,
				12
			],
			"name":"Armature",
			"scale":[
				1,
				1,
				1.3100000619888306
			],
			"translation":[
				-0.028907358646392822,
				-0.6380008459091187,
				0.05974931642413139
			]
		}
	],
	"animations":[
		{
			"channels":[
				{
					"sampler":0,
					"target":{
						"node":6,
						"path":"translation"
					}
				},
				{
					"sampler":1,
					"target":{
						"node":6,
						"path":"rotation"
					}
				},
				{
					"sampler":2,
					"target":{
						"node":6,
						"path":"scale"
					}
				},
				{
					"sampler":3,
					"target":{
						"node":1,
						"path":"translation"
					}
				},
				{
					"sampler":4,
					"target":{
						"node":1,
						"path":"rotation"
					}
				},
				{
					"sampler":5,
					"target":{
						"node":1,
						"path":"scale"
					}
				},
				{
					"sampler":6,
					"target":{
						"node":0,
						"path":"translation"
					}
				},
				{
					"sampler":7,
					"target":{
						"node":0,
						"path":"rotation"
					}
				},
				{
					"sampler":8,
					"target":{
						"node":0,
						"path":"scale"
					}
				},
				{
					"sampler":9,
					"target":{
						"node":3,
						"path":"translation"
					}
				},
				{
					"sampler":10,
					"target":{
						"node":3,
						"path":"rotation"
					}
				},
				{
					"sampler":11,
					"target":{
						"node":3,
						"path":"scale"
					}
				},
				{
					"sampler":12,
					"target":{
						"node":2,
						"path":"translation"
					}
				},
				{
					"sampler":13,
					"target":{
						"node":2,
						"path":"rotation"
					}
				},
				{
					"sampler":14,
					"target":{
						"node":2,
						"path":"scale"
					}
				},
				{
					"sampler":15,
					"target":{
						"node":5,
						"path":"translation"
					}
				},
				{
					"sampler":16,
					"target":{
						"node":5,
						"path":"rotation"
					}
				},
				{
					"sampler":17,
					"target":{
						"node":5,
						"path":"scale"
					}
				},
				{
					"sampler":18,
					"target":{
						"node":4,
						"path":"translation"
					}
				},
				{
					"sampler":19,
					"target":{
						"node":4,
						"path":"rotation"
					}
				},
				{
					"sampler":20,
					"target":{
						"node":4,
						"path":"scale"
					}
				},
				{
					"sampler":21,
					"target":{
						"node":9,
						"path":"translation"
					}
				},
				{
					"sampler":22,
					"target":{
						"node":9,
						"path":"rotation"
					}
				},
				{
					"sampler":23,
					"target":{
						"node":9,
						"path":"scale"
					}
				},
				{
					"sampler":24,
					"target":{
						"node":8,
						"path":"translation"
					}
				},
				{
					"sampler":25,
					"target":{
						"node":8,
						"path":"rotation"
					}
				},
				{
					"sampler":26,
					"target":{
						"node":8,
						"path":"scale"
					}
				},
				{
					"sampler":27,
					"target":{
						"node":7,
						"path":"translation"
					}
				},
				{
					"sampler":28,
					"target":{
						"node":7,
						"path":"rotation"
					}
				},
				{
					"sampler":29,
					"target":{
						"node":7,
						"path":"scale"
					}
				},
				{
					"sampler":30,
					"target":{
						"node":12,
						"path":"translation"
					}
				},
				{
					"sampler":31,
					"target":{
						"node":12,
						"path":"rotation"
					}
				},
				{
					"sampler":32,
					"target":{
						"node":12,
						"path":"scale"
					}
				},
				{
					"sampler":33,
					"target":{
						"node":11,
						"path":"translation"
					}
				},
				{
					"sampler":34,
					"target":{
						"node":11,
						"path":"rotation"
					}
				},
				{
					"sampler":35,
					"target":{
						"node":11,
						"path":"scale"
					}
				},
				{
					"sampler":36,
					"target":{
						"node":10,
						"path":"translation"
					}
				},
				{
					"sampler":37,
					"target":{
						"node":10,
						"path":"rotation"
					}
				},
				{
					"sampler":38,
					"target":{
						"node":10,
						"path":"scale"
					}
				}
			],
			"name":"ArmatureAction.001",
			"samplers":[
				{
					"input":9,
					"interpolation":"STEP",
					"output":10
				},
				{
					"input":9,
					"interpolation":"STEP",
					"output":11
				},
				{
					"input":9,
					"interpolation":"STEP",
					"output":12
				},
				{
					"input":9,
					"interpolation":"STEP",
					"output":13
				},
				{
					"input":9,
					"interpolation":"STEP",
					"output":14
				},
				{
					"input":9,
					"interpolation":"STEP",
					"output":15
				},
				{
					"input":9,
					"interpolation":"STEP",
					"output":16
				},
				{
					"input":9,
					"interpolation":"STEP",
					"output":17
				},
				{
					"input":9,
					"interpolation":"STEP",
					"output":18
				},
				{
					"input":9,
					"interpolation":"STEP",
					"output":19
				},
				{
					"input":20,
					"interpolation":"LINEAR",
					"output":21
				},
				{
					"input":9,
					"interpolation":"STEP",
					"output":22
				},
				{
					"input":9,
					"interpolation":"STEP",
					"output":23
				},
				{
					"input":20,
					"interpolation":"LINEAR",
					"output":24
				},
				{
					"input":9,
					"interpolation":"STEP",
					"output":25
				},
				{
					"input":9,
					"interpolation":"STEP",
					"output":26
				},
				{
					"input":20,
					"interpolation":"LINEAR",
					"output":27
				},
				{
					"input":9,
					"interpolation":"STEP",
					"output":28
				},
				{
					"input":9,
					"interpolation":"STEP",
					"output":29
				},
				{
					"input":20,
					"interpolation":"LINEAR",
					"output":30
				},
				{
					"input":9,
					"interpolation":"STEP",
					"output":31
				},
				{
					"input":9,
					"interpolation":"STEP",
					"output":32
				},
				{
					"input":9,
					"interpolation":"STEP",
					"output":33
				},
				{
					"input":9,
					"interpolation":"STEP",
					"output":34
				},
				{
					"input":9,
					"interpolation":"STEP",
					"output":35
				},
				{
					"input":9,
					"interpolation":"STEP",
					"output":36
				},
				{
					"input":9,
					"interpolation":"STEP",
					"output":37
				},
				{
					"input":9,
					"interpolation":"STEP",
					"output":38
				},
				{
					"input":9,
					"interpolation":"STEP",
					"output":39
				},
				{
					"input":9,
					"interpolation":"STEP",
					"output":40
				},
				{
					"input":9,
					"interpolation":"STEP",
					"output":41
				},
				{
					"input":9,
					"interpolation":"STEP",
					"output":42
				},
				{
					"input":9,
					"interpolation":"STEP",
					"output":43
				},
				{
					"input":9,
					"interpolation":"STEP",
					"output":44
				},
				{
					"input":9,
					"interpolation":"STEP",
					"output":45
				},
				{
					"input":9,
					"interpolation":"STEP",
					"output":46
				},
				{
					"input":9,
					"interpolation":"STEP",
					"output":47
				},
				{
					"input":9,
					"interpolation":"STEP",
					"output":48
				},
				{
					"input":9,
					"interpolation":"STEP",
					"output":49
				}
			]
		}
	],
	"materials":[
		{
			"doubleSided":true,
			"name":"Material",
			"pbrMetallicRoughness":{
				"baseColorTexture":{
					"index":0
				},
				"metallicFactor":0,
				"roughnessFactor":0.5
			}
		}
	],
	"meshes":[
		{
			"name":"Sphere.008",
			"primitives":[
				{
					"attributes":{
						"POSITION":0,
						"NORMAL":1,
						"TEXCOORD_0":2,
						"COLOR_0":3,
						"COLOR_1":4,
						"JOINTS_0":5,
						"WEIGHTS_0":6
					},
					"indices":7,
					"material":0
				}
			]
		}
	],
	"textures":[
		{
			"sampler":0,
			"source":0
		}
	],
	"images":[
		{
			"mimeType":"image/jpeg",
			"name":"Material Base Color",
			"uri":"Material%20Base%20Color.jpg"
		}
	],
	"skins":[
		{
			"inverseBindMatrices":8,
			"joints":[
				6,
				1,
				0,
				3,
				2,
				5,
				4,
				9,
				8,
				7,
				12,
				11,
				10
			],
			"name":"Armature"
		}
	],
	"accessors":[
		{
			"bufferView":0,
			"componentType":5126,
			"count":47360,
			"max":[
				1.0805139541625977,
				3.9357614517211914,
				3.5187861919403076
			],
			"min":[
				-1.052217721939087,
				-5.29201078414917,
				-3.535398244857788
			],
			"type":"VEC3"
		},
		{
			"bufferView":1,
			"componentType":5126,
			"count":47360,
			"type":"VEC3"
		},
		{
			"bufferView":2,
			"componentType":5126,
			"count":47360,
			"type":"VEC2"
		},
		{
			"bufferView":3,
			"componentType":5121,
			"count":47360,
			"normalized":true,
			"type":"VEC4"
		},
		{
			"bufferView":4,
			"componentType":5123,
			"count":47360,
			"normalized":true,
			"type":"VEC4"
		},
		{
			"bufferView":5,
			"componentType":5121,
			"count":47360,
			"type":"VEC4"
		},
		{
			"bufferView":6,
			"componentType":5126,
			"count":47360,
			"type":"VEC4"
		},
		{
			"bufferView":7,
			"componentType":5123,
			"count":69588,
			"type":"SCALAR"
		},
		{
			"bufferView":8,
			"componentType":5126,
			"count":13,
			"type":"MAT4"
		},
		{
			"bufferView":9,
			"componentType":5126,
			"count":2,
			"max":[
				2.5
			],
			"min":[
				0
			],
			"type":"SCALAR"
		},
		{
			"bufferView":10,
			"componentType":5126,
			"count":2,
			"type":"VEC3"
		},
		{
			"bufferView":11,
			"componentType":5126,
			"count":2,
			"type":"VEC4"
		},
		{
			"bufferView":12,
			"componentType":5126,
			"count":2,
			"type":"VEC3"
		},
		{
			"bufferView":13,
			"componentType":5126,
			"count":2,
			"type":"VEC3"
		},
		{
			"bufferView":14,
			"componentType":5126,
			"count":2,
			"type":"VEC4"
		},
		{
			"bufferView":15,
			"componentType":5126,
			"count":2,
			"type":"VEC3"
		},
		{
			"bufferView":16,
			"componentType":5126,
			"count":2,
			"type":"VEC3"
		},
		{
			"bufferView":17,
			"componentType":5126,
			"count":2,
			"type":"VEC4"
		},
		{
			"bufferView":18,
			"componentType":5126,
			"count":2,
			"type":"VEC3"
		},
		{
			"bufferView":19,
			"componentType":5126,
			"count":2,
			"type":"VEC3"
		},
		{
			"bufferView":20,
			"componentType":5126,
			"count":61,
			"max":[
				2.5
			],
			"min":[
				0
			],
			"type":"SCALAR"
		},
		{
			"bufferView":21,
			"componentType":5126,
			"count":61,
			"type":"VEC4"
		},
		{
			"bufferView":22,
			"componentType":5126,
			"count":2,
			"type":"VEC3"
		},
		{
			"bufferView":23,
			"componentType":5126,
			"count":2,
			"type":"VEC3"
		},
		{
			"bufferView":24,
			"componentType":5126,
			"count":61,
			"type":"VEC4"
		},
		{
			"bufferView":25,
			"componentType":5126,
			"count":2,
			"type":"VEC3"
		},
		{
			"bufferView":26,
			"componentType":5126,
			"count":2,
			"type":"VEC3"
		},
		{
			"bufferView":27,
			"componentType":5126,
			"count":61,
			"type":"VEC4"
		},
		{
			"bufferView":28,
			"componentType":5126,
			"count":2,
			"type":"VEC3"
		},
		{
			"bufferView":29,
			"componentType":5126,
			"count":2,
			"type":"VEC3"
		},
		{
			"bufferView":30,
			"componentType":5126,
			"count":61,
			"type":"VEC4"
		},
		{
			"bufferView":31,
			"componentType":5126,
			"count":2,
			"type":"VEC3"
		},
		{
			"bufferView":32,
			"componentType":5126,
			"count":2,
			"type":"VEC3"
		},
		{
			"bufferView":33,
			"componentType":5126,
			"count":2,
			"type":"VEC4"
		},
		{
			"bufferView":34,
			"componentType":5126,
			"count":2,
			"type":"VEC3"
		},
		{
			"bufferView":35,
			"componentType":5126,
			"count":2,
			"type":"VEC3"
		},
		{
			"bufferView":36,
			"componentType":5126,
			"count":2,
			"type":"VEC4"
		},
		{
			"bufferView":37,
			"componentType":5126,
			"count":2,
			"type":"VEC3"
		},
		{
			"bufferView":38,
			"componentType":5126,
			"count":2,
			"type":"VEC3"
		},
		{
			"bufferView":39,
			"componentType":5126,
			"count":2,
			"type":"VEC4"
		},
		{
			"bufferView":40,
			"componentType":5126,
			"count":2,
			"type":"VEC3"
		},
		{
			"bufferView":41,
			"componentType":5126,
			"count":2,
			"type":"VEC3"
		},
		{
			"bufferView":42,
			"componentType":5126,
			"count":2,
			"type":"VEC4"
		},
		{
			"bufferView":43,
			"componentType":5126,
			"count":2,
			"type":"VEC3"
		},
		{
			"bufferView":44,
			"componentType":5126,
			"count":2,
			"type":"VEC3"
		},
		{
			"bufferView":45,
			"componentType":5126,
			"count":2,
			"type":"VEC4"
		},
		{
			"bufferView":46,
			"componentType":5126,
			"count":2,
			"type":"VEC3"
		},
		{
			"bufferView":47,
			"componentType":5126,
			"count":2,
			"type":"VEC3"
		},
		{
			"bufferView":48,
			"componentType":5126,
			"count":2,
			"type":"VEC4"
		},
		{
			"bufferView":49,
			"componentType":5126,
			"count":2,
			"type":"VEC3"
		}
	],
	"bufferViews":[
		{
			"buffer":0,
			"byteLength":568320,
			"byteOffset":0,
			"target":34962
		},
		{
			"buffer":0,
			"byteLength":568320,
			"byteOffset":568320,
			"target":34962
		},
		{
			"buffer":0,
			"byteLength":378880,
			"byteOffset":1136640,
			"target":34962
		},
		{
			"buffer":0,
			"byteLength":189440,
			"byteOffset":1515520,
			"target":34962
		},
		{
			"buffer":0,
			"byteLength":378880,
			"byteOffset":1704960,
			"target":34962
		},
		{
			"buffer":0,
			"byteLength":189440,
			"byteOffset":2083840,
			"target":34962
		},
		{
			"buffer":0,
			"byteLength":757760,
			"byteOffset":2273280,
			"target":34962
		},
		{
			"buffer":0,
			"byteLength":139176,
			"byteOffset":3031040,
			"target":34963
		},
		{
			"buffer":0,
			"byteLength":832,
			"byteOffset":3170216
		},
		{
			"buffer":0,
			"byteLength":8,
			"byteOffset":3171048
		},
		{
			"buffer":0,
			"byteLength":24,
			"byteOffset":3171056
		},
		{
			"buffer":0,
			"byteLength":32,
			"byteOffset":3171080
		},
		{
			"buffer":0,
			"byteLength":24,
			"byteOffset":3171112
		},
		{
			"buffer":0,
			"byteLength":24,
			"byteOffset":3171136
		},
		{
			"buffer":0,
			"byteLength":32,
			"byteOffset":3171160
		},
		{
			"buffer":0,
			"byteLength":24,
			"byteOffset":3171192
		},
		{
			"buffer":0,
			"byteLength":24,
			"byteOffset":3171216
		},
		{
			"buffer":0,
			"byteLength":32,
			"byteOffset":3171240
		},
		{
			"buffer":0,
			"byteLength":24,
			"byteOffset":3171272
		},
		{
			"buffer":0,
			"byteLength":24,
			"byteOffset":3171296
		},
		{
			"buffer":0,
			"byteLength":244,
			"byteOffset":3171320
		},
		{
			"buffer":0,
			"byteLength":976,
			"byteOffset":3171564
		},
		{
			"buffer":0,
			"byteLength":24,
			"byteOffset":3172540
		},
		{
			"buffer":0,
			"byteLength":24,
			"byteOffset":3172564
		},
		{
			"buffer":0,
			"byteLength":976,
			"byteOffset":3172588
		},
		{
			"buffer":0,
			"byteLength":24,
			"byteOffset":3173564
		},
		{
			"buffer":0,
			"byteLength":24,
			"byteOffset":3173588
		},
		{
			"buffer":0,
			"byteLength":976,
			"byteOffset":3173612
		},
		{
			"buffer":0,
			"byteLength":24,
			"byteOffset":3174588
		},
		{
			"buffer":0,
			"byteLength":24,
			"byteOffset":3174612
		},
		{
			"buffer":0,
			"byteLength":976,
			"byteOffset":3174636
		},
		{
			"buffer":0,
			"byteLength":24,
			"byteOffset":3175612
		},
		{
			"buffer":0,
			"byteLength":24,
			"byteOffset":3175636
		},
		{
			"buffer":0,
			"byteLength":32,
			"byteOffset":3175660
		},
		{
			"buffer":0,
			"byteLength":24,
			"byteOffset":3175692
		},
		{
			"buffer":0,
			"byteLength":24,
			"byteOffset":3175716
		},
		{
			"buffer":0,
			"byteLength":32,
			"byteOffset":3175740
		},
		{
			"buffer":0,
			"byteLength":24,
			"byteOffset":3175772
		},
		{
			"buffer":0,
			"byteLength":24,
			"byteOffset":3175796
		},
		{
			"buffer":0,
			"byteLength":32,
			"byteOffset":3175820
		},
		{
			"buffer":0,
			"byteLength":24,
			"byteOffset":3175852
		},
		{
			"buffer":0,
			"byteLength":24,
			"byteOffset":3175876
		},
		{
			"buffer":0,
			"byteLength":32,
			"byteOffset":3175900
		},
		{
			"buffer":0,
			"byteLength":24,
			"byteOffset":3175932
		},
		{
			"buffer":0,
			"byteLength":24,
			"byteOffset":3175956
		},
		{
			"buffer":0,
			"byteLength":32,
			"byteOffset":3175980
		},
		{
			"buffer":0,
			"byteLength":24,
			"byteOffset":3176012
		},
		{
			"buffer":0,
			"byteLength":24,
			"byteOffset":3176036
		},
		{
			"buffer":0,
			"byteLength":32,
			"byteOffset":3176060
		},
		{
			"buffer":0,
			"byteLength":24,
			"byteOffset":3176092
		}
	],
	"samplers":[
		{
			"magFilter":9729,
			"minFilter":9987
		}
	],
	"buffers":[
		{
			"byteLength":3176116,
			"uri":"player.bin"
		}
	]
}
